<?xml version="1.0" standalone="no"?>
<!DOCTYPE svg PUBLIC "-//W3C//DTD SVG 20010904//EN"
 "http://www.w3.org/TR/2001/REC-SVG-20010904/DTD/svg10.dtd">
<svg version="1.0" xmlns="http://www.w3.org/2000/svg"
 width="700.000000pt" height="700.000000pt" viewBox="0 0 700.000000 700.000000"
 preserveAspectRatio="xMidYMid meet">
<metadata>
Created by potrace 1.11, written by Peter Selinger 2001-2013
</metadata>
<g transform="translate(0.000000,700.000000) scale(0.100000,-0.100000)"
fill="#000000" stroke="none">
<path d="M3388 5375 c-2 -1 -43 -6 -93 -9 -49 -4 -99 -9 -110 -11 -11 -2 -37
-7 -58 -10 -127 -17 -290 -62 -417 -113 -376 -152 -613 -385 -730 -717 -17
-49 -30 -91 -30 -93 1 -1 -4 -33 -11 -70 -16 -84 -17 -325 0 -417 7 -38 23
-104 37 -145 82 -253 297 -460 624 -603 98 -43 405 -141 508 -162 9 -2 60 -13
112 -25 103 -23 98 -22 215 -46 412 -82 625 -173 682 -292 19 -40 13 -154 -10
-199 -55 -104 -176 -170 -370 -204 -115 -19 -409 -16 -557 7 -168 26 -368 100
-498 184 -98 63 -277 232 -327 308 -15 23 -31 42 -35 42 -4 0 -85 -107 -181
-237 -95 -131 -206 -283 -246 -337 -40 -55 -73 -104 -73 -111 0 -15 127 -138
225 -217 200 -160 476 -294 706 -344 131 -28 251 -47 364 -60 264 -28 682 -22
855 12 14 3 41 8 60 10 132 19 398 109 524 177 101 55 108 60 191 123 271 207
408 482 409 819 0 570 -306 898 -1029 1101 -99 28 -318 79 -378 88 -22 4 -60
11 -85 16 -26 6 -67 15 -92 20 -263 53 -435 113 -523 182 -127 101 -125 291 4
415 58 55 186 118 262 128 12 1 45 7 72 11 63 11 310 11 390 0 324 -43 595
-200 790 -459 31 -42 60 -77 63 -77 6 0 39 36 98 107 22 26 44 51 49 57 6 6
51 58 100 116 50 57 97 111 105 120 8 9 40 45 70 80 30 36 72 83 93 106 20 23
37 45 37 49 0 12 -180 186 -260 251 -302 246 -611 367 -1070 420 -57 6 -456
14 -462 9z"/>
</g>
</svg>
