<svg id="Capa_1" enable-background="new 0 0 512 512" height="512" viewBox="0 0 512 512" width="512" xmlns="http://www.w3.org/2000/svg"><g><g><path d="m176 504.5c-22.091 0-40-17.909-40-40v-120h80v120c0 22.091-17.909 40-40 40z" fill="#ffd3a3"/></g><g><path d="m176 464.5v-27h40v-93h-80v120c0 22.091 17.909 40 40 40 7.288 0 14.115-1.959 20-5.365-11.953-6.917-20-19.832-20-34.635z" fill="#ffbe74"/></g><g><path d="m336 504.5c-22.091 0-40-17.909-40-40v-120h80v120c0 22.091-17.909 40-40 40z" fill="#ffd3a3"/></g><g><path d="m336 464.5v-27h40v-93h-80v120c0 22.091 17.909 40 40 40 7.288 0 14.115-1.959 20-5.365-11.953-6.917-20-19.832-20-34.635z" fill="#ffbe74"/></g><g><path d="m336 7.5c-44.183 0-80 35.817-80 80 0-44.183-35.817-80-80-80-44.183 0-80 35.817-80 80v240c0 44.183 35.817 80 80 80 44.183 0 80-35.817 80-80 0 44.183 35.817 80 80 80 44.183 0 80-35.817 80-80v-240c0-44.183-35.817-80-80-80z" fill="#ff7591"/></g><g><path d="m176 327.5v-240c0-29.606 16.095-55.437 40-69.271-11.77-6.811-25.423-10.729-40-10.729-44.183 0-80 35.817-80 80v240c0 44.183 35.817 80 80 80 14.577 0 28.23-3.918 40-10.729-23.905-13.834-40-39.665-40-69.271z" fill="#fd5c70"/></g><g><path d="m336 327.5v-240c0-29.606 16.095-55.437 40-69.271-11.77-6.811-25.423-10.729-40-10.729-44.183 0-80 35.817-80 80v240c0 44.183 35.817 80 80 80 14.577 0 28.23-3.918 40-10.729-23.905-13.834-40-39.665-40-69.271z" fill="#fd5c70"/></g><g><path d="m256 380.408c-11.046 0-20-8.954-20-20v-305.816c0-11.046 8.954-20 20-20 11.046 0 20 8.954 20 20v305.817c0 11.045-8.954 19.999-20 19.999z" fill="#f24c68"/></g><path d="m408.759 38.881c-2.305-3.442-6.963-4.364-10.405-2.06s-4.364 6.962-2.06 10.405c7.985 11.927 12.206 25.854 12.206 40.274v240c0 39.977-32.523 72.5-72.5 72.5-21.629 0-42.189-9.771-55.908-26.348 2.17-3.931 3.408-8.445 3.408-13.243v-305.817c0-4.8-1.239-9.314-3.409-13.245 13.717-16.574 34.293-26.347 55.909-26.347 14.62 0 28.708 4.33 40.742 12.521 3.425 2.333 8.09 1.445 10.42-1.979 2.331-3.424 1.445-8.089-1.979-10.42-14.533-9.893-31.54-15.122-49.183-15.122-25.586 0-49.958 11.346-66.5 30.647-3.991-2.259-8.596-3.556-13.5-3.556s-9.509 1.297-13.5 3.556c-16.542-19.301-40.916-30.647-66.5-30.647-48.248 0-87.5 39.252-87.5 87.5v240c0 30.749 15.946 57.841 40 73.45v63.55c0 26.191 21.309 47.5 47.5 47.5s47.5-21.309 47.5-47.5v-63.563c7.046-4.551 13.462-10.119 19.002-16.583 3.991 2.259 8.595 3.555 13.498 3.555s9.508-1.296 13.498-3.555c5.54 6.465 11.956 12.033 19.002 16.584v63.562c0 26.191 21.309 47.5 47.5 47.5s47.5-21.309 47.5-47.5v-63.55c24.054-15.609 40-42.701 40-73.45v-240c0-17.402-5.097-34.214-14.741-48.619zm-200.259 425.619c0 17.92-14.58 32.5-32.5 32.5s-32.5-14.58-32.5-32.5v-55.762c10.053 4.036 21.021 6.262 32.5 6.262 11.26 0 22.279-2.197 32.5-6.297zm35-104.092v-31.342c0-4.142-3.358-7.5-7.5-7.5s-7.5 3.358-7.5 7.5v31.342c0 4.799 1.238 9.313 3.408 13.243-13.718 16.578-34.28 26.349-55.908 26.349-39.977 0-72.5-32.523-72.5-72.5v-240c0-39.977 32.523-72.5 72.5-72.5 21.615 0 42.193 9.773 55.909 26.346-2.17 3.932-3.409 8.446-3.409 13.246v244.474c0 4.142 3.358 7.5 7.5 7.5s7.5-3.358 7.5-7.5v-244.474c0-6.893 5.607-12.5 12.5-12.5s12.5 5.607 12.5 12.5v305.816c0 6.893-5.607 12.5-12.5 12.5s-12.5-5.607-12.5-12.5zm125 104.092c0 17.92-14.58 32.5-32.5 32.5s-32.5-14.58-32.5-32.5v-55.797c10.221 4.1 21.24 6.297 32.5 6.297 11.479 0 22.447-2.226 32.5-6.262z"/></g></svg>