<svg id="Capa_1" enable-background="new 0 0 512 512" height="512" viewBox="0 0 512 512" width="512" xmlns="http://www.w3.org/2000/svg"><g><g><path d="m256.01 504.5c-22.091 0-40-17.909-40-40v-120h80v120c0 22.091-17.909 40-40 40z" fill="#ffd3a3"/></g><g><path d="m256.01 464.5v-27h40v-93h-80v120c0 22.091 17.909 40 40 40 7.288 0 14.115-1.959 20-5.365-11.953-6.917-20-19.832-20-34.635z" fill="#ffbe74"/></g><g><path d="m116.01 274.167 140 20 140-20-20-133.334-120-20-120 20z" fill="#fffddb"/></g><g><path d="m222.127 126.48-86.117 14.353-20 133.334 82.203 11.743z" fill="#fff3ac"/></g><g><path d="m141.176 106.394-5.166 34.44h240l-5.166-34.44c-8.526-56.843-57.356-98.894-114.834-98.894-57.478 0-106.308 42.051-114.834 98.894z" fill="#ff7591"/></g><g><path d="m113.235 292.666c-9.069 60.46 37.757 114.834 98.894 114.834h87.763c61.137 0 107.963-54.374 98.894-114.834l-2.775-18.499h-280z" fill="#be9edf"/></g><g><circle cx="340.01" cy="319.066" fill="#938ed9" r="20"/></g><g><circle cx="281.01" cy="353.034" fill="#938ed9" r="15"/></g><g><path d="m197.2 292.666 2.775-18.499h-83.965l-2.775 18.499c-9.069 60.46 37.757 114.834 98.894 114.834h83.965c-61.138 0-107.963-54.374-98.894-114.834z" fill="#938ed9"/></g><g><path d="m225.141 106.394c6.339-42.263 34.962-76.344 72.852-91.049-13.07-5.073-27.24-7.845-41.982-7.845-57.478 0-106.307 42.051-114.834 98.894l-5.166 34.44h83.965z" fill="#fd5c70"/></g><g><circle cx="238.129" cy="94.167" fill="#fd5c70" r="20"/></g><g><g><g><ellipse cx="175.982" cy="210.325" fill="#ffa0ab" rx="23.515" ry="29.529" transform="matrix(.002 -1 1 .002 -34.728 385.846)"/></g><g><ellipse cx="336.038" cy="210.675" fill="#ffa0ab" rx="23.515" ry="29.529" transform="matrix(.002 -1 1 .002 124.628 546.251)"/></g></g><g><path d="m193.475 200.31c-4.143 0-7.5-3.358-7.5-7.5v-12c0-4.142 3.357-7.5 7.5-7.5s7.5 3.358 7.5 7.5v12c0 4.142-3.358 7.5-7.5 7.5z"/></g><g><path d="m318.372 200.31c-4.143 0-7.5-3.358-7.5-7.5v-12c0-4.142 3.357-7.5 7.5-7.5s7.5 3.358 7.5 7.5v12c0 4.142-3.357 7.5-7.5 7.5z"/></g><path d="m285.017 192.464c-4.143 0-7.5 3.358-7.5 7.5 0 3.835-3.12 6.956-6.955 6.956-3.836 0-6.956-3.12-6.956-6.956 0-4.142-3.357-7.5-7.5-7.5s-7.5 3.358-7.5 7.5c0 3.835-3.12 6.956-6.955 6.956-3.836 0-6.956-3.12-6.956-6.956 0-4.142-3.357-7.5-7.5-7.5s-7.5 3.358-7.5 7.5c0 12.106 9.85 21.956 21.956 21.956 5.533 0 10.59-2.062 14.455-5.451 3.865 3.39 8.923 5.451 14.456 5.451 12.106 0 21.955-9.849 21.955-21.956 0-4.142-3.358-7.5-7.5-7.5z"/></g><path d="m406.202 291.553-27.941-186.272c-4.39-29.267-19.158-56.021-41.583-75.333s-51.073-29.948-80.668-29.948-58.243 10.636-80.668 29.948-37.193 46.066-41.583 75.333l-27.941 186.273c-4.253 28.354 2.761 56.656 19.748 79.693 2.458 3.334 7.153 4.042 10.487 1.585 3.334-2.458 4.044-7.153 1.585-10.487-14.613-19.817-20.646-44.167-16.986-68.565l1.817-12.112h267.083l1.817 12.111c3.998 26.656-3.797 53.659-21.387 74.083-17.589 20.424-43.137 32.138-70.091 32.138h-87.762c-19.956 0-38.929-6.227-54.869-18.006-3.329-2.462-8.026-1.758-10.488 1.574-2.462 3.331-1.758 8.027 1.574 10.489 17.572 12.986 38.304 20.157 60.164 20.872v49.571c0 26.191 21.309 47.5 47.5 47.5s47.5-21.309 47.5-47.5v-49.568c29.984-1.005 58.186-14.462 77.838-37.282 20.442-23.736 29.501-55.117 24.854-86.097zm-150.192 205.447c-17.921 0-32.5-14.58-32.5-32.5v-49.5h65v49.5c0 17.92-14.579 32.5-32.5 32.5zm-131.292-230.333 17.75-118.334h160.902c4.143 0 7.5-3.358 7.5-7.5s-3.357-7.5-7.5-7.5h-158.651l3.874-25.827c8.04-53.602 53.216-92.506 107.417-92.506s99.377 38.904 107.417 92.506l3.874 25.827h-33.93c-4.143 0-7.5 3.358-7.5 7.5s3.357 7.5 7.5 7.5h36.18l17.75 118.334z"/></g></svg>