<svg id="Capa_1" enable-background="new 0 0 512 512" height="512" viewBox="0 0 512 512" width="512" xmlns="http://www.w3.org/2000/svg"><g><g><circle cx="256" cy="136.821" fill="#ffccd3" r="129.321"/></g><g><path d="m183.083 136.821c0-61.735 43.261-113.358 101.119-126.228-9.079-2.02-18.515-3.093-28.202-3.093-71.422 0-129.321 57.899-129.321 129.321s57.899 129.321 129.321 129.321c9.687 0 19.123-1.073 28.202-3.093-57.858-12.87-101.119-64.493-101.119-126.228z" fill="#ffabb9"/></g><g><path d="m256 504.5c-23.258 0-43.283-16.417-47.845-39.223l-32.155-160.777h160l-32.155 160.777c-4.562 22.806-24.587 39.223-47.845 39.223z" fill="#ffd3a3"/></g><g><path d="m254.447 396.737c.518.005 1.034.02 1.553.02 22.842 0 44.571-4.83 64.247-13.493l15.753-78.764h-160l32.155 160.777c4.562 22.806 24.587 39.223 47.845 39.223 6.781 0 13.282-1.404 19.211-3.947z" fill="#ffbe74"/></g><g><path d="m386 236.757c0 71.797-58.203 130-130 130s-130-58.203-130-130v-30h260z" fill="#ffbe74"/></g><g><path d="m269.819 236.757v-30h-143.819v30c0 71.797 58.203 130 130 130 26.592 0 51.314-7.99 71.909-21.692-35.012-23.293-58.09-63.103-58.09-108.308z" fill="#f4a960"/></g><g><path d="m96 206.757c0-11.046 8.954-20 20-20h280c11.046 0 20 8.954 20 20 0 11.046-8.954 20-20 20h-280c-11.046 0-20-8.955-20-20z" fill="#ffd3a3"/></g><g><path d="m206 176.757v110c0 11.046 8.954 20 20 20 11.046 0 20-8.954 20-20v-40c0-11.046 8.954-20 20-20 11.046 0 20 8.954 20 20 0 11.046 8.954 20 20 20 11.046 0 20-8.954 20-20v-70z" fill="#ffccd3"/></g><g><path d="m173.465 206.757c0-11.046 8.954-20 20-20h-77.465c-11.046 0-20 8.954-20 20 0 11.046 8.954 20 20 20h77.465c-11.046 0-20-8.955-20-20z" fill="#ffbe74"/></g><g><circle cx="307.909" cy="104.892" fill="#ffabb9" r="20"/></g><g><circle cx="256" cy="139.433" fill="#ffabb9" r="15"/></g><path d="m396 179.257h-9.887c4.455-13.646 6.708-27.878 6.708-42.436 0-31.155-10.202-60.506-29.504-84.879-2.571-3.247-7.288-3.795-10.536-1.223-3.247 2.571-3.795 7.289-1.223 10.536 17.181 21.696 26.263 47.826 26.263 75.566 0 14.632-2.561 28.886-7.601 42.436h-44.22c-.075 0-7.5.093-7.5 8.173v59.327c0 6.893-5.607 12.5-12.5 12.5s-12.5-5.607-12.5-12.5c0-15.164-12.336-27.5-27.5-27.5s-27.5 12.336-27.5 27.5v40c0 6.893-5.607 12.5-12.5 12.5s-12.5-5.607-12.5-12.5v-100c0-4.142-3.358-7.5-7.5-7.5h-64.22c-5.04-13.549-7.601-27.802-7.601-42.436 0-67.172 54.649-121.821 121.821-121.821 27.932 0 54.205 9.195 75.978 26.59 3.236 2.585 7.956 2.058 10.541-1.178s2.058-7.956-1.178-10.541c-24.46-19.542-53.97-29.871-85.341-29.871-75.443 0-136.821 61.378-136.821 136.821 0 14.558 2.254 28.789 6.709 42.436h-9.888c-15.164 0-27.5 12.336-27.5 27.5s12.336 27.5 27.5 27.5h2.5v2.5c0 46.425 23.071 87.912 58.879 112.882l23.422 117.108c5.244 26.222 28.459 45.253 55.199 45.253s49.955-19.031 55.199-45.252l23.396-116.979c.008-.042.011-.083.018-.125 35.813-24.969 58.887-66.459 58.887-112.888v-2.5h2.5c15.164 0 27.5-12.336 27.5-27.5s-12.336-27.499-27.5-27.499zm-292.5 27.5c0-6.893 5.607-12.5 12.5-12.5h82.5v25h-82.5c-6.893 0-12.5-5.608-12.5-12.5zm275 30c0 62.279-46.583 114.596-108.355 121.693-4.115.473-7.068 4.192-6.595 8.307.439 3.825 3.683 6.645 7.442 6.645.286 0 .575-.016.865-.049 16.219-1.864 31.504-6.504 45.407-13.414l-20.774 103.867c-3.846 19.234-20.875 33.194-40.49 33.194s-36.644-13.96-40.49-33.194l-20.774-103.868c13.902 6.91 29.188 11.551 45.407 13.414.291.033.579.049.865.049 3.759 0 7.002-2.82 7.442-6.645.473-4.115-2.48-7.834-6.595-8.307-61.772-7.096-108.355-59.413-108.355-121.692v-2.5h65v52.5c0 15.164 12.336 27.5 27.5 27.5s27.5-12.336 27.5-27.5v-40c0-6.893 5.607-12.5 12.5-12.5s12.5 5.607 12.5 12.5c0 15.164 12.336 27.5 27.5 27.5s27.5-12.336 27.5-27.5c0 0 0-5.181 0-12.5h45zm17.5-17.5h-62.5c0-9.175 0-18.663 0-25h62.5c6.893 0 12.5 5.607 12.5 12.5s-5.607 12.5-12.5 12.5z"/></g></svg>