<svg id="Capa_1" enable-background="new 0 0 511.145 511.145" height="512" viewBox="0 0 511.145 511.145" width="512" xmlns="http://www.w3.org/2000/svg"><g><g><path d="m284.039 7.558-20.992 1.615c-32.431 2.495-57.474 29.538-57.474 62.065v18.51h37.751c34.379 0 62.249-27.87 62.249-62.249 0-11.65-9.918-20.834-21.534-19.941z" fill="#ff7591"/></g><g><path d="m302.505 62.292-100 7.692c-20.84 1.603-36.932 18.981-36.932 39.882v36.036h180v-43.728c0-23.3-19.837-41.669-43.068-39.882z" fill="#fd5c70"/></g><g><path d="m281.742 63.889-79.237 6.095c-20.84 1.603-36.932 18.981-36.932 39.882v36.036h80v-42.208c0-20.645 15.702-37.841 36.169-39.805z" fill="#f24c68"/></g><g><path d="m125.573 205.902v-32.959c0-20.901 16.092-38.279 36.932-39.882l180-13.846c23.232-1.787 43.068 16.582 43.068 39.882v46.805z" fill="#ff7591"/></g><g><path d="m239.903 127.107-77.398 5.954c-20.84 1.603-36.932 18.981-36.932 39.882v32.959h80v-39.208c0-20.022 14.769-36.8 34.33-39.587z" fill="#fd5c70"/></g><g><path d="m255.573 503.645c-23.752 0-44.701-15.553-51.574-38.289l-78.426-259.454h260l-78.426 259.454c-6.873 22.736-27.823 38.289-51.574 38.289z" fill="#ffbe74"/></g><g><path d="m210.239 205.902h-84.667l78.426 259.454c6.872 22.736 27.822 38.289 51.574 38.289 15.337 0 29.5-6.492 39.465-17.209z" fill="#f4a960"/></g><g><path d="m95.573 205.902c0-11.046 8.954-20 20-20h280c11.046 0 20 8.954 20 20 0 11.046-8.954 20-20 20h-280c-11.046 0-20-8.954-20-20z" fill="#ffd3a3"/></g><g><path d="m205.573 175.902v110c0 11.046 8.954 20 20 20 11.046 0 20-8.954 20-20v-40c0-11.046 8.954-20 20-20 11.046 0 20 8.954 20 20 0 11.046 8.954 20 20 20 11.046 0 20-8.954 20-20v-70z" fill="#ff7591"/></g><g><path d="m173.038 205.902c0-11.046 8.954-20 20-20h-77.465c-11.046 0-20 8.954-20 20 0 11.046 8.954 20 20 20h77.465c-11.046 0-20-8.954-20-20z" fill="#ffbe74"/></g><g><path d="m239.663 397.119c1.464 1.464 3.384 2.197 5.303 2.197s3.839-.732 5.303-2.197l5.303-5.303 5.303 5.303c1.465 1.465 3.384 2.197 5.304 2.197 1.919 0 3.839-.732 5.304-2.197 2.929-2.929 2.929-7.678 0-10.606l-5.303-5.303 5.303-5.303c2.929-2.929 2.929-7.678 0-10.606-2.93-2.929-7.678-2.929-10.607 0l-5.303 5.303-5.303-5.303c-2.929-2.93-7.678-2.929-10.606 0-2.929 2.929-2.929 7.677 0 10.606l5.303 5.303-5.303 5.303c-2.93 2.929-2.93 7.678-.001 10.606z"/><path d="m288.422 348.36c1.465 1.464 3.385 2.197 5.304 2.197s3.839-.732 5.304-2.197l5.303-5.303 5.303 5.303c1.465 1.464 3.385 2.197 5.304 2.197s3.839-.732 5.304-2.197c2.929-2.929 2.929-7.678 0-10.606l-5.303-5.303 5.303-5.303c2.929-2.929 2.929-7.678 0-10.606-2.93-2.929-7.678-2.929-10.607 0l-5.303 5.303-5.303-5.303c-2.93-2.929-7.678-2.929-10.607 0s-2.929 7.678 0 10.606l5.303 5.303-5.303 5.303c-2.931 2.928-2.931 7.677-.002 10.606z"/><path d="m395.573 178.402h-2.5v-19.305c0-13.188-5.55-25.891-15.227-34.852-6.919-6.408-15.589-10.551-24.773-12.029v-10.042c0-13.188-5.55-25.892-15.227-34.852-8.294-7.68-19.102-12.115-30.296-12.592 3.631-8.553 5.522-17.779 5.522-27.231 0-7.635-3.213-14.99-8.815-20.178-5.603-5.188-13.181-7.827-20.794-7.242l-20.991 1.615c-33.307 2.563-59.965 28.49-63.885 61.202-22.972 3.429-40.515 23.434-40.515 46.969v16.186c-22.719 3.649-40 23.532-40 46.891v5.459h-2.5c-15.164 0-27.5 12.336-27.5 27.5s12.336 27.5 27.5 27.5h10.478l43.138 142.712c.98 3.242 3.956 5.332 7.176 5.332.719 0 1.45-.104 2.173-.323 3.965-1.199 6.208-5.384 5.009-9.349l-41.826-138.371h56.352v52.5c0 15.164 12.336 27.5 27.5 27.5s27.5-12.336 27.5-27.5v-40c0-6.893 5.607-12.5 12.5-12.5s12.5 5.607 12.5 12.5c0 15.164 12.337 27.5 27.5 27.5s27.5-12.336 27.5-27.5v-12.5h36.353l-69.458 229.784c-5.96 19.714-23.801 32.959-44.395 32.959s-38.436-13.245-44.395-32.959l-18.947-62.682c-1.199-3.965-5.384-6.207-9.349-5.009-3.965 1.199-6.208 5.384-5.009 9.349l18.947 62.682c7.886 26.09 31.498 43.619 58.753 43.619s50.866-17.529 58.754-43.619l70.768-234.124h10.478c15.163 0 27.5-12.336 27.5-27.5s-12.336-27.5-27.499-27.5zm-131.951-161.751 20.991-1.615c3.504-.275 6.867.898 9.452 3.292 2.584 2.393 4.007 5.65 4.007 9.172 0 10.021-2.703 19.713-7.828 28.213l-76.308 5.87c4.323-24.195 24.604-43.003 49.686-44.932zm-65.549 201.751h-82.5c-6.893 0-12.5-5.607-12.5-12.5s5.607-12.5 12.5-12.5h82.5zm127.5-40c-4.143 0-7.5 3.358-7.5 7.5v60c0 6.893-5.607 12.5-12.5 12.5s-12.5-5.607-12.5-12.5c0-15.164-12.337-27.5-27.5-27.5-15.164 0-27.5 12.336-27.5 27.5v40c0 6.893-5.607 12.5-12.5 12.5s-12.5-5.607-12.5-12.5v-100c0-4.142-3.358-7.5-7.5-7.5h-72.5v-5.459c0-16.876 13.181-31.109 30.007-32.404l113.068-8.698c4.13-.318 7.221-3.923 6.902-8.053-.317-4.129-3.916-7.225-8.053-6.903l-101.925 7.841v-14.86c0-16.876 13.181-31.11 30.007-32.404l100-7.692c9.131-.703 17.856 2.337 24.574 8.558s10.418 14.69 10.418 23.846v9.86l-33.074 2.544c-4.13.318-7.221 3.923-6.902 8.053s3.916 7.228 8.053 6.903l36.932-2.841c9.13-.701 17.856 2.337 24.574 8.558s10.418 14.689 10.418 23.846v19.305zm70 40h-62.5v-25h62.5c6.893 0 12.5 5.607 12.5 12.5s-5.608 12.5-12.5 12.5z"/></g></g></svg>