<svg id="Capa_1" enable-background="new 0 0 512 512" height="512" viewBox="0 0 512 512" width="512" xmlns="http://www.w3.org/2000/svg"><g><g><circle cx="256" cy="136.821" fill="#e7886e" r="129.321"/></g><g><circle cx="307.909" cy="104.892" fill="#dc6646" r="20"/></g><g><circle cx="256" cy="139.433" fill="#dc6646" r="15"/></g><g><path d="m183.083 136.821c0-61.735 43.261-113.358 101.119-126.228-9.079-2.02-18.515-3.093-28.202-3.093-71.422 0-129.321 57.899-129.321 129.321s57.899 129.321 129.321 129.321c9.687 0 19.123-1.073 28.202-3.093-57.858-12.87-101.119-64.493-101.119-126.228z" fill="#dc6646"/></g><g><path d="m256 504.5c-23.752 0-44.701-15.553-51.574-38.289l-78.426-259.454h260l-78.426 259.454c-6.873 22.736-27.822 38.289-51.574 38.289z" fill="#ffbe74"/></g><g><path d="m210.667 206.757h-84.667l78.426 259.454c6.873 22.736 27.822 38.289 51.574 38.289 15.337 0 29.5-6.492 39.465-17.209z" fill="#f4a960"/></g><g><path d="m96 206.757c0-11.046 8.954-20 20-20h280c11.046 0 20 8.954 20 20 0 11.046-8.954 20-20 20h-280c-11.046 0-20-8.955-20-20z" fill="#ffd3a3"/></g><g><path d="m206 176.757v110c0 11.046 8.954 20 20 20 11.046 0 20-8.954 20-20v-40c0-11.046 8.954-20 20-20 11.046 0 20 8.954 20 20 0 11.046 8.954 20 20 20 11.046 0 20-8.954 20-20v-70z" fill="#e7886e"/></g><g><path d="m173.465 206.757c0-11.046 8.954-20 20-20h-77.465c-11.046 0-20 8.954-20 20 0 11.046 8.954 20 20 20h77.465c-11.046 0-20-8.955-20-20z" fill="#ffbe74"/></g><g><path d="m240.09 397.974c1.465 1.464 3.385 2.197 5.304 2.197s3.839-.732 5.304-2.197l5.303-5.303 5.303 5.303c1.465 1.465 3.384 2.197 5.304 2.197 1.919 0 3.839-.732 5.304-2.197 2.929-2.929 2.929-7.678 0-10.606l-5.303-5.303 5.303-5.303c2.929-2.929 2.929-7.678 0-10.606-2.93-2.929-7.678-2.929-10.607 0l-5.305 5.301-5.303-5.303c-2.929-2.929-7.677-2.93-10.607 0-2.929 2.929-2.929 7.677 0 10.606l5.303 5.303-5.303 5.303c-2.929 2.93-2.929 7.679 0 10.608z"/><path d="m288.85 349.214c1.465 1.464 3.385 2.197 5.304 2.197s3.839-.732 5.304-2.197l5.303-5.303 5.303 5.303c1.465 1.464 3.385 2.197 5.304 2.197s3.839-.732 5.304-2.197c2.929-2.929 2.929-7.678 0-10.606l-5.303-5.303 5.303-5.303c2.929-2.929 2.929-7.678 0-10.606-2.93-2.929-7.678-2.929-10.607 0l-5.303 5.303-5.303-5.303c-2.93-2.929-7.678-2.929-10.607 0s-2.929 7.678 0 10.606l5.303 5.303-5.303 5.303c-2.931 2.929-2.931 7.678-.002 10.606z"/><path d="m396 179.257h-9.896c4.455-13.651 6.717-27.886 6.717-42.436 0-31.154-10.202-60.505-29.503-84.879-2.571-3.247-7.288-3.794-10.536-1.224-3.247 2.572-3.795 7.289-1.224 10.536 17.182 21.696 26.263 47.827 26.263 75.566 0 14.623-2.554 28.884-7.593 42.436h-44.228c-4.143 0-7.5 3.358-7.5 7.5v60c0 6.893-5.607 12.5-12.5 12.5s-12.5-5.607-12.5-12.5c0-15.164-12.337-27.5-27.5-27.5s-27.5 12.336-27.5 27.5v40c0 6.893-5.607 12.5-12.5 12.5s-12.5-5.607-12.5-12.5v-100c0-4.142-3.357-7.5-7.5-7.5h-64.224c-5.039-13.553-7.597-27.816-7.597-42.436 0-67.171 54.648-121.82 121.821-121.82 27.74 0 53.871 9.082 75.567 26.264 3.249 2.572 7.965 2.023 10.536-1.224 2.571-3.248 2.023-7.964-1.224-10.536-24.373-19.302-53.724-29.504-84.879-29.504-75.443 0-136.821 61.378-136.821 136.821 0 14.547 2.263 28.783 6.719 42.436h-9.898c-15.163 0-27.5 12.336-27.5 27.5s12.337 27.5 27.5 27.5h10.478l43.138 142.712c.979 3.242 3.956 5.332 7.176 5.332.719 0 1.449-.104 2.173-.323 3.965-1.199 6.208-5.384 5.01-9.349l-41.827-138.373h56.352v52.5c0 15.164 12.337 27.5 27.5 27.5s27.5-12.336 27.5-27.5v-40c0-6.893 5.607-12.5 12.5-12.5s12.5 5.607 12.5 12.5c0 15.164 12.337 27.5 27.5 27.5s27.5-12.336 27.5-27.5v-12.5h36.353l-69.458 229.784c-5.959 19.715-23.8 32.96-44.395 32.96s-38.436-13.245-44.395-32.959l-18.947-62.682c-1.198-3.965-5.383-6.208-9.349-5.009-3.965 1.198-6.208 5.384-5.01 9.349l18.947 62.683c7.888 26.089 31.499 43.618 58.754 43.618s50.866-17.529 58.754-43.619l70.768-234.124h10.478c15.163 0 27.5-12.336 27.5-27.5s-12.337-27.5-27.5-27.5zm-197.5 40h-82.5c-6.893 0-12.5-5.607-12.5-12.5s5.607-12.5 12.5-12.5h82.5zm197.5 0h-62.5v-25h62.5c6.893 0 12.5 5.607 12.5 12.5s-5.607 12.5-12.5 12.5z"/></g></g></svg>