<svg id="Capa_1" enable-background="new 0 0 512 512" height="512" viewBox="0 0 512 512" width="512" xmlns="http://www.w3.org/2000/svg"><g><g><circle cx="255.991" cy="165.858" fill="#fffddb" r="158.358"/></g><g><path d="m160.441 165.858c0-76.706 54.539-140.669 126.954-155.239-10.151-2.042-20.652-3.12-31.404-3.12-87.459 0-158.358 70.899-158.358 158.358s70.899 158.358 158.358 158.358c10.753 0 21.253-1.077 31.404-3.12-72.414-14.568-126.954-78.53-126.954-155.237z" fill="#fff3ac"/></g><g><path d="m112.341 358.344 14.909 104.363c3.426 23.981 23.964 41.793 48.188 41.793h158.952c24.224 0 44.762-17.813 48.188-41.793l14.724-103.068-141.316-50.364z" fill="#84dfff"/></g><g><path d="m224.604 462.707-19.439-136.072-92.825 31.709 14.909 104.363c3.426 23.981 23.964 41.793 48.188 41.793h97.355c-24.224 0-44.762-17.812-48.188-41.793z" fill="#2fcffc"/></g><g><path d="m112.34 358.344c10.695 6.066 22.841 11.261 43.646 11.261 49.999 0 49.999-30 99.998-30 50.002 0 50.002 30 100.003 30 19.308 0 31.159-4.474 41.313-9.966l15.814-110.695h-316.402z" fill="#fbf081"/></g><g><path d="m155.987 369.605c26.946 0 39.37-8.713 52.925-16.747l-14.845-103.914h-97.355l15.629 109.4c10.695 6.066 22.841 11.261 43.646 11.261z" fill="#fad271"/></g><g><path d="m427.007 63.959c24.837 10.288 36.632 38.763 26.344 63.6l-55.884 134.916-89.944-37.256 55.884-134.916c10.288-24.838 38.762-36.632 63.6-26.344z" fill="#ffd3a3"/></g><g><path d="m379.814 188.097 40.508-97.795c3.593-8.676 9.411-15.753 16.513-20.861-2.994-2.154-6.272-4.01-9.828-5.483-24.837-10.288-53.312 1.507-63.6 26.344l-55.884 134.916 89.944 37.256 30.808-74.377z" fill="#ffbe74"/></g><g><path d="m54.913 244.605c0-11.046 8.954-20 20-20h360c11.046 0 20 8.954 20 20 0 11.046-8.954 20-20 20h-360c-11.045 0-20-8.954-20-20z" fill="#be9edf"/></g><g><path d="m151.913 244.605c0-11.046 8.954-20 20-20h-97c-11.046 0-20 8.954-20 20 0 11.046 8.954 20 20 20h97c-11.045 0-20-8.954-20-20z" fill="#938ed9"/></g><g><path d="m194.067 210.267v136.032c0 13.442 10.897 24.339 24.339 24.339 13.442 0 24.339-10.897 24.339-24.339v-48.677c0-13.442 10.897-24.339 24.339-24.339 13.442 0 24.339 10.897 24.339 24.339 0 13.442 10.897 24.339 24.339 24.339 13.442 0 24.339-10.897 24.339-24.339v-73.016h-32.321z" fill="#fffddb"/></g><g><circle cx="184.711" cy="80.241" fill="#fff3ac" r="20"/></g><g><circle cx="291.314" cy="133.056" fill="#fff3ac" r="20"/></g><g><circle cx="244.577" cy="175.928" fill="#fff3ac" r="15"/></g><g><g><g><ellipse cx="175.357" cy="435.794" fill="#fff" rx="29.355" ry="23.377"/></g><g><ellipse cx="334.47" cy="435.794" fill="#fff" rx="29.355" ry="23.377"/></g></g><g><path d="m192.465 420.791c-4.142 0-7.5-3.358-7.5-7.5v-12c0-4.142 3.358-7.5 7.5-7.5s7.5 3.358 7.5 7.5v12c0 4.142-3.358 7.5-7.5 7.5z"/></g><g><path d="m317.362 420.791c-4.142 0-7.5-3.358-7.5-7.5v-12c0-4.142 3.358-7.5 7.5-7.5s7.5 3.358 7.5 7.5v12c0 4.142-3.358 7.5-7.5 7.5z"/></g><g><path d="m254.913 427.935c-8.477 0-16.539-3.671-22.118-10.073-2.722-3.123-2.396-7.86.726-10.582s7.86-2.397 10.582.726c2.73 3.132 6.67 4.928 10.811 4.928s8.081-1.796 10.811-4.928c2.722-3.124 7.459-3.448 10.582-.726s3.448 7.459.726 10.582c-5.581 6.401-13.643 10.073-22.12 10.073z"/></g></g><path d="m434.913 217.105h-10.536l35.903-86.677c5.742-13.863 5.742-29.133 0-42.996s-16.54-24.661-30.403-30.403c-13.864-5.742-29.133-5.743-42.996 0-1.4.58-2.76 1.225-4.096 1.906-31.632-37.519-77.548-58.935-126.794-58.935-38.507 0-76.027 13.494-105.649 37.997-3.192 2.64-3.639 7.368-.999 10.56 2.641 3.192 7.369 3.639 10.56.999 26.938-22.284 61.063-34.556 96.088-34.556 44.31 0 85.651 19.072 114.391 52.522-5.965 5.466-10.716 12.214-13.905 19.911l-55.531 134.063c-.013.03-.021.061-.033.092-.407.924-.637 1.943-.637 3.017 0 4.142 3.358 7.5 7.5 7.5h24.821v65.516c0 9.285-7.554 16.838-16.838 16.838-9.285 0-16.839-7.554-16.839-16.838 0-17.556-14.283-31.839-31.838-31.839-17.556 0-31.839 14.283-31.839 31.839v48.677c0 9.285-7.554 16.838-16.839 16.838s-16.838-7.554-16.838-16.838v-121.693c0-4.142-3.358-7.5-7.5-7.5h-80.009c-5.924-16.396-8.926-33.618-8.926-51.247 0-34.792 12.126-68.739 34.144-95.59 2.626-3.203 2.159-7.929-1.043-10.555-3.203-2.627-7.929-2.16-10.555 1.043-24.211 29.525-37.545 66.851-37.545 105.102 0 17.559 2.722 34.754 8.08 51.247h-23.3c-15.164 0-27.5 12.336-27.5 27.5s12.336 27.5 27.5 27.5h17.531l20.218 141.531c.535 3.741 3.743 6.44 7.416 6.44.353 0 .71-.025 1.07-.076 4.101-.586 6.95-4.385 6.364-8.485l-5.756-40.294c8.768 3.426 19.521 5.884 34.23 5.884 18.415 0 30.583-3.901 39.89-8.331 5.767 5.781 13.737 9.363 22.529 9.363 17.234 0 31.303-13.766 31.814-30.878 1.873-.101 3.797-.153 5.766-.153 22.923 0 34.202 6.767 46.143 13.931 12.553 7.532 26.782 16.069 53.86 16.069 13.719 0 23.88-2.143 31.959-5.022l-12.795 89.563c-2.878 20.154-20.402 35.353-40.762 35.353h-158.952c-20.36 0-37.884-15.199-40.763-35.354l-2.917-20.423c-.586-4.101-4.385-6.954-8.485-6.364-4.101.586-6.95 4.385-6.364 8.485l2.917 20.423c3.928 27.498 27.836 48.233 55.612 48.233h158.952c27.776 0 51.685-20.735 55.613-48.233l27.381-191.662h17.531c15.164 0 27.5-12.336 27.5-27.5s-12.337-27.5-27.501-27.5zm-372.5 27.5c0-6.893 5.607-12.5 12.5-12.5h111.653v25h-111.653c-6.892 0-12.5-5.607-12.5-12.5zm93.574 117.5c-16.479 0-26.906-3.364-36.753-8.543l-11.637-81.457h78.969v74.193c0 3.336.518 6.553 1.474 9.577-7.713 3.482-17.389 6.23-32.053 6.23zm214.349-268.932c8.689-20.977 32.826-30.973 53.801-22.285 10.162 4.209 18.076 12.123 22.285 22.285s4.209 21.354 0 31.516l-38.28 92.417h-68.043-21.097zm20.087 261.575c-7.761 3.816-18.041 7.357-34.435 7.357-22.923 0-34.202-6.767-46.143-13.931-12.553-7.532-26.782-16.069-53.86-16.069-1.95 0-3.861.054-5.741.142v-34.626c0-9.285 7.554-16.839 16.839-16.839s16.838 7.554 16.838 16.839c0 17.556 14.283 31.838 31.839 31.838s31.838-14.283 31.838-31.838v-25.516h54.631zm44.49-97.643h-87.315v-25h87.315c6.893 0 12.5 5.607 12.5 12.5s-5.607 12.5-12.5 12.5z"/></g></svg>