<svg id="Capa_1" enable-background="new 0 0 512.018 512.018" height="512" viewBox="0 0 512.018 512.018" width="512" xmlns="http://www.w3.org/2000/svg"><g><g><path d="m152.713 144.623 103.96 30 102.632-30-8.975-62.828c-1.408-9.853-9.846-17.172-19.799-17.172h-149.043c-9.953 0-18.391 7.319-19.799 17.172z" fill="#6c8199"/></g><g><path d="m361.922 11.236c24.837 10.288 36.632 38.763 26.344 63.6l-55.884 134.916-89.944-37.256 55.884-134.916c10.288-24.837 38.763-36.632 63.6-26.344z" fill="#ffd3a3"/></g><g><path d="m323.426 114.623 31.912-77.043c3.585-8.655 9.383-15.721 16.462-20.826-3.008-2.169-6.302-4.037-9.877-5.518-24.837-10.288-53.312 1.507-63.6 26.344l-55.884 134.916 89.944 37.256 39.404-95.129z" fill="#ffbe74"/></g><g><path d="m97.808 248.962h316.402l-12.452-87.167c-1.408-9.853-9.846-17.172-19.799-17.172h-251.9c-9.953 0-18.391 7.319-19.799 17.172z" fill="#899bb0"/></g><g><path d="m226.521 144.623h-96.462c-9.953 0-18.391 7.319-19.799 17.172l-12.452 87.167h96.462l12.452-87.167c1.408-9.853 9.846-17.172 19.799-17.172z" fill="#6c8199"/></g><g><path d="m113.436 358.362 14.909 104.363c3.426 23.981 23.964 41.793 48.188 41.793h158.949c24.226 0 44.765-17.813 48.191-41.796l14.724-103.065-142.388-50.364z" fill="#84dfff"/></g><g><path d="m225.7 462.725-19.471-136.299-92.792 31.936 14.909 104.363c3.426 23.981 23.964 41.793 48.188 41.793h97.355c-24.225 0-44.763-17.813-48.189-41.793z" fill="#2fcffc"/></g><g><path d="m113.436 358.362c10.695 6.066 22.841 11.261 43.646 11.261 49.999 0 49.999-30 99.998-30 50.002 0 50.002 30 100.003 30 19.308 0 31.159-4.474 41.313-9.966l15.814-110.695h-316.402z" fill="#fbf081"/></g><g><path d="m157.082 369.623c26.946 0 39.37-8.713 52.925-16.747l-14.845-103.914h-97.354l15.629 109.4c10.694 6.066 22.84 11.261 43.645 11.261z" fill="#fad271"/></g><g><path d="m56.009 244.623c0-11.046 8.954-20 20-20h360c11.046 0 20 8.954 20 20 0 11.046-8.954 20-20 20h-360c-11.046 0-20-8.954-20-20z" fill="#be9edf"/></g><g><path d="m153.009 244.623c0-11.046 8.954-20 20-20h-97c-11.046 0-20 8.954-20 20 0 11.046 8.954 20 20 20h97c-11.046 0-20-8.954-20-20z" fill="#938ed9"/></g><g><g><g><ellipse cx="175.981" cy="435.324" fill="#fff" rx="23.515" ry="29.529" transform="matrix(.002 -1 1 .002 -259.727 610.35)"/></g><g><ellipse cx="336.037" cy="435.674" fill="#fff" rx="23.515" ry="29.529" transform="matrix(.002 -1 1 .002 -100.371 770.756)"/></g></g><g><path d="m193.474 425.308c-4.142 0-7.5-3.358-7.5-7.5v-12c0-4.142 3.358-7.5 7.5-7.5s7.5 3.358 7.5 7.5v12c0 4.142-3.358 7.5-7.5 7.5z"/></g><g><path d="m318.371 425.308c-4.143 0-7.5-3.358-7.5-7.5v-12c0-4.142 3.357-7.5 7.5-7.5s7.5 3.358 7.5 7.5v12c0 4.142-3.357 7.5-7.5 7.5z"/></g><path d="m285.016 417.463c-4.143 0-7.5 3.358-7.5 7.5 0 3.835-3.12 6.956-6.955 6.956-3.836 0-6.956-3.12-6.956-6.956 0-4.142-3.357-7.5-7.5-7.5-4.142 0-7.5 3.358-7.5 7.5 0 3.835-3.12 6.956-6.956 6.956s-6.956-3.12-6.956-6.956c0-4.142-3.358-7.5-7.5-7.5s-7.5 3.358-7.5 7.5c0 12.106 9.849 21.956 21.956 21.956 5.533 0 10.59-2.062 14.456-5.451 3.865 3.39 8.923 5.451 14.456 5.451 12.106 0 21.955-9.849 21.955-21.956 0-4.142-3.358-7.5-7.5-7.5z"/></g><path d="m436.009 217.123h-18.771l-8.056-56.389c-1.923-13.46-13.626-23.611-27.224-23.611h-11.376l24.612-59.417c5.743-13.863 5.743-29.133 0-42.996-5.742-13.863-16.539-24.661-30.402-30.403-13.863-5.743-29.133-5.743-42.996 0-13.863 5.742-24.66 16.54-30.402 30.403l-9.284 22.414h-47.476c-4.142 0-7.5 3.358-7.5 7.5s3.358 7.5 7.5 7.5h41.263l-26.924 65h-87.611l7.752-54.268c.874-6.118 6.194-10.732 12.374-10.732h23.146c4.142 0 7.5-3.358 7.5-7.5s-3.358-7.5-7.5-7.5h-23.146c-13.597 0-25.3 10.15-27.224 23.611l-8.055 56.389h-16.15c-13.597 0-25.3 10.15-27.224 23.611l-8.056 56.389h-18.77c-15.164 0-27.5 12.336-27.5 27.5s12.336 27.5 27.5 27.5h17.531l27.38 191.662c3.928 27.497 27.837 48.233 55.613 48.233h158.949c27.777 0 51.687-20.736 55.615-48.235l18.971-132.796c.586-4.101-2.264-7.899-6.364-8.485-4.092-.583-7.899 2.264-8.485 6.364l-3.7 25.9c-7.774 3.821-18.067 7.357-34.436 7.357-22.923 0-34.201-6.767-46.143-13.931-12.554-7.532-26.782-16.069-53.86-16.069-27.077 0-41.305 8.537-53.858 16.069-11.94 7.164-23.218 13.931-46.14 13.931-16.457 0-26.898-3.363-36.753-8.544l-11.636-81.456h294.632l-3.859 27.016c-.586 4.101 2.264 7.899 6.364 8.485.359.051.717.076 1.07.076 3.672 0 6.881-2.7 7.415-6.44l4.162-29.137h17.531c15.163 0 27.5-12.336 27.5-27.5s-12.336-27.501-27.499-27.501zm-278.927 160c27.077 0 41.305-8.537 53.858-16.069 11.94-7.164 23.218-13.931 46.14-13.931 22.924 0 34.202 6.767 46.144 13.931 12.554 7.532 26.781 16.069 53.859 16.069 13.707 0 23.872-2.141 31.959-5.023l-12.794 89.562c-2.879 20.156-20.404 35.356-40.766 35.356h-158.949c-20.36 0-37.885-15.199-40.764-35.354l-12.918-90.427c8.78 3.429 19.538 5.886 34.231 5.886zm148.169-336.673c4.21-10.162 12.124-18.076 22.285-22.285 10.161-4.208 21.353-4.208 31.516 0 10.161 4.209 18.075 12.123 22.285 22.285 4.209 10.162 4.209 21.354 0 31.516l-26.989 65.158h-89.14zm-187.566 122.405c.874-6.118 6.194-10.732 12.374-10.732h251.9c6.181 0 11.5 4.614 12.374 10.732l7.752 54.268h-292.153zm318.324 94.268h-360c-6.893 0-12.5-5.607-12.5-12.5s5.607-12.5 12.5-12.5h360c6.893 0 12.5 5.607 12.5 12.5s-5.607 12.5-12.5 12.5z"/></g></svg>