<svg id="Capa_1" enable-background="new 0 0 512 512" height="512" viewBox="0 0 512 512" width="512" xmlns="http://www.w3.org/2000/svg"><g><g><path d="m410.77 169.658c0-85.477-69.293-154.77-154.77-154.77s-154.77 69.293-154.77 154.77z" fill="#84dfff"/></g><g><path d="m275.703 16.131c-6.452-.82-13.028-1.242-19.703-1.242-85.477 0-154.77 69.293-154.77 154.77h39.405c.001-78.803 58.894-143.85 135.068-153.528z" fill="#2fcffc"/></g><g><path d="m284.608 51.143-21.097 1.623c-32.593 2.507-57.761 29.686-57.761 62.375v18.602h37.94c34.551 0 62.56-28.009 62.56-62.56 0-11.708-9.968-20.938-21.642-20.04z" fill="#fff3ac"/></g><g><path d="m303.167 99.484-100.5 7.731c-20.944 1.611-37.117 19.076-37.117 40.081v36.216h180.9v-43.946c0-23.417-19.936-41.878-43.283-40.082z" fill="#fffddb"/></g><g><path d="m282.3 101.089-79.633 6.126c-20.944 1.611-37.117 19.076-37.117 40.081v36.216h80.4v-42.419c0-20.748 15.781-38.03 36.35-40.004z" fill="#fff3ac"/></g><g><path d="m351.069 169.658 39.895-122.753h42.361c10.881 0 19.703-8.821 19.703-19.703 0-10.881-8.821-19.703-19.703-19.703h-50.183c-17.07 0-32.2 10.991-37.476 27.226l-43.853 134.933z" fill="#899bb0"/></g><g><path d="m339.853 131.999c-12.473-3.398-19.835-16.252-16.466-28.726l-21.575 66.385h49.257l17.171-52.833c-3.909 11.707-16.33 18.459-28.387 15.174z" fill="#6c8199"/></g><g><path d="m112.498 284.617 16.896 157.301 126.606 26.953 126.606-26.953 16.699-155.465-143.305-37.984z" fill="#84dfff"/></g><g><path d="m225.889 461.665-21.503-200.195-91.888 23.147 16.895 157.3 96.603 20.566c-.033-.273-.077-.543-.107-.818z" fill="#2fcffc"/></g><g><path d="m112.498 284.617c11.449 6.792 23.692 13.108 46.461 13.108 49.256 0 49.256-29.554 98.512-29.554 49.258 0 49.258 29.554 98.516 29.554 20.702 0 32.703-5.22 43.317-11.273l12.545-116.795h-311.699z" fill="#fbf081"/></g><g><path d="m129.394 441.918 2.121 19.748c2.617 24.363 23.179 42.835 47.682 42.835h153.606c24.503 0 45.065-18.472 47.682-42.835l2.121-19.748z" fill="#be9edf"/></g><g><path d="m225.889 461.665-2.121-19.748h-94.375l2.121 19.748c2.617 24.363 23.179 42.835 47.682 42.835h94.375c-24.503 0-45.065-18.472-47.682-42.835z" fill="#938ed9"/></g><g><path d="m194.525 169.658h-94.375l12.348 114.959c11.449 6.792 23.692 13.108 46.461 13.108 23.675 0 35.97-6.828 47.826-13.92z" fill="#fad271"/></g><g><path d="m58.973 169.658c0-10.882 8.821-19.703 19.703-19.703h354.648c10.881 0 19.703 8.821 19.703 19.703 0 10.881-8.821 19.703-19.703 19.703h-354.648c-10.882 0-19.703-8.821-19.703-19.703z" fill="#be9edf"/></g><g><path d="m145.848 169.658c0-10.882 8.821-19.703 19.703-19.703h-86.875c-10.881 0-19.703 8.821-19.703 19.703 0 10.881 8.821 19.703 19.703 19.703h86.874c-10.881 0-19.702-8.821-19.702-19.703z" fill="#938ed9"/></g><g><g><g><ellipse cx="176.478" cy="366.816" fill="#fff" rx="28.951" ry="23.055"/></g><g><ellipse cx="333.399" cy="366.816" fill="#fff" rx="28.95" ry="23.055"/></g><g><path d="m278.28 349.102c0-14.425-10.45-15.781-23.341-15.781s-23.341 1.355-23.341 15.781c0 14.425 10.45 26.119 23.341 26.119s23.341-11.694 23.341-26.119z" fill="#333843"/></g></g><g><path d="m181.317 346.791c-4.143 0-7.5-3.358-7.5-7.5v-11.821c0-4.142 3.357-7.5 7.5-7.5s7.5 3.358 7.5 7.5v11.821c0 4.142-3.357 7.5-7.5 7.5z"/></g><g><path d="m254.938 382.72c-17.006 0-30.842-15.081-30.842-33.619 0-23.28 21.612-23.28 30.842-23.28 9.229 0 30.841 0 30.841 23.28 0 18.538-13.835 33.619-30.841 33.619zm0-41.899c-15.201 0-15.842 2.539-15.842 8.28 0 10.266 7.106 18.619 15.842 18.619 8.734 0 15.841-8.353 15.841-18.619 0-5.741-.64-8.28-15.841-8.28z"/></g><g><path d="m328.56 346.791c-4.143 0-7.5-3.358-7.5-7.5v-11.821c0-4.142 3.357-7.5 7.5-7.5s7.5 3.358 7.5 7.5v11.821c0 4.142-3.358 7.5-7.5 7.5z"/></g></g><path d="m433.324 142.456h-17.33c-3.979-23.495-13.21-46.005-26.881-65.594l7.298-22.456h36.913c14.999 0 27.202-12.203 27.202-27.203s-12.203-27.203-27.202-27.203h-50.184c-19.66 0-37.031 12.119-43.892 30.374-25.113-15.049-53.696-22.985-83.248-22.985-39.581 0-77.704 14.411-107.346 40.578-27.935 24.659-46.478 58.035-52.641 94.489h-17.337c-14.999 0-27.202 12.203-27.202 27.203s12.203 27.203 27.202 27.203h16.853l17.969 167.295c.413 3.847 3.665 6.7 7.448 6.7.268 0 .538-.014.81-.043 4.118-.442 7.099-4.14 6.656-8.258l-6.949-64.693c9.214 4.11 20.865 7.364 37.497 7.364 26.705 0 40.735-8.418 53.114-15.846 11.749-7.049 22.847-13.708 45.397-13.708 22.552 0 33.649 6.659 45.399 13.708 12.379 7.427 26.41 15.846 53.117 15.846 14.837 0 25.622-2.544 34.408-6.06l-14.528 135.252h-239.736l-4.559-42.444c-.442-4.118-4.138-7.1-8.258-6.656-4.118.442-7.099 4.14-6.656 8.258l7.399 68.892c3.033 28.239 26.738 49.534 55.14 49.534h153.605c28.401 0 52.106-21.295 55.14-49.534l28.529-265.605h16.853c14.999 0 27.202-12.203 27.202-27.203s-12.203-27.205-27.202-27.205zm-32.58 0h-32.948l15.326-47.158c8.53 14.577 14.513 30.575 17.622 47.158zm-144.744-120.067c27.961 0 54.97 7.809 78.439 22.614l-3.247 9.99c-1.28 3.939.875 8.17 4.814 9.451 3.94 1.281 8.171-.875 9.451-4.815l7.34-22.584c4.286-13.186 16.48-22.045 30.344-22.045h50.184c6.729 0 12.202 5.474 12.202 12.203s-5.474 12.203-12.202 12.203h-42.361c-3.249 0-6.129 2.092-7.133 5.182l-31.806 97.868h-33.484l17.784-54.719c1.28-3.939-.875-8.171-4.814-9.451-3.94-1.281-8.17.875-9.451 4.814l-3.388 10.425c-2.653-.713-5.365-1.194-8.108-1.442 2.103-6.717 3.188-13.707 3.188-20.899 0-7.663-3.225-15.044-8.848-20.251s-13.227-7.854-20.869-7.268l-21.097 1.623c-15.849 1.219-30.956 7.874-42.539 18.737-10.282 9.644-17.434 22.263-20.476 35.932-22.044 2.72-39.366 20.614-41.618 42.499h-47.06c12.884-68.971 73.786-120.067 144.755-120.067zm38.416 70.246-78.666 6.051c6.589-21.31 25.441-36.681 48.338-38.443l21.097-1.623c3.54-.276 6.922.906 9.527 3.318 2.604 2.412 4.039 5.695 4.039 9.245-.001 7.476-1.459 14.677-4.335 21.452zm-91.174 22.058 100.5-7.731c3.464-.269 6.943.02 10.289.836l-11.264 34.658h-129.35c2.236-14.787 14.532-26.587 29.825-27.763zm129.561 382.307h-153.606c-20.72 0-38.013-15.535-40.226-36.136l-1.229-11.447h236.516l-1.229 11.446c-2.214 20.602-19.507 36.137-40.226 36.137zm59.463-215.241c-9.737 5.133-20.041 8.467-36.278 8.467-22.552 0-33.65-6.659-45.4-13.708-12.379-7.427-26.41-15.846-53.116-15.846-26.705 0-40.735 8.418-53.114 15.846-11.749 7.049-22.847 13.708-45.397 13.708-19.228 0-29.819-4.715-39.41-10.182l-8.935-83.183h290.77zm41.058-99.898h-354.648c-6.729 0-12.202-5.474-12.202-12.203s5.474-12.203 12.202-12.203h354.648c6.729 0 12.202 5.474 12.202 12.203s-5.473 12.203-12.202 12.203z"/></g></svg>