<svg id="Capa_1" enable-background="new 0 0 512.01 512.01" height="512" viewBox="0 0 512.01 512.01" width="512" xmlns="http://www.w3.org/2000/svg"><g><g><g><path d="m122.323 93.926c0 11.088-4.633 21.123-12.116 28.376-1.43 1.386-3.753 1.386-5.183 0-7.484-7.253-12.116-17.288-12.116-28.376s4.633-21.123 12.116-28.376c1.43-1.386 3.753-1.386 5.183 0 7.483 7.253 12.116 17.287 12.116 28.376z" fill="#17d9bf"/></g></g><g><g><path d="m57.595 158.654c11.088 0 21.123-4.633 28.376-12.116 1.386-1.43 1.386-3.753 0-5.183-7.253-7.484-17.288-12.116-28.376-12.116s-21.123 4.633-28.376 12.116c-1.386 1.43-1.386 3.753 0 5.183 7.253 7.483 17.287 12.116 28.376 12.116z" fill="#50e3cf"/></g></g><g><g><path d="m57.45 137.227c12.552 5.199 26.083 4.66 37.803-.411 2.24-.969 3.329-3.598 2.43-5.867-4.701-11.872-13.888-21.822-26.44-27.021s-26.083-4.66-37.803.411c-2.24.969-3.329 3.598-2.43 5.867 4.702 11.873 13.888 21.822 26.44 27.021z" fill="#17d9bf"/></g></g><g><path d="m100.896 93.781c5.199 12.552 4.66 26.083-.411 37.803-.969 2.24-3.598 3.329-5.867 2.43-11.872-4.701-21.822-13.888-27.021-26.44s-4.66-26.083.411-37.803c.969-2.24 3.598-3.329 5.867-2.43 11.873 4.702 21.822 13.889 27.021 26.44z" fill="#50e3cf"/></g><g><path d="m172.77 101.157c-42.73-17.543-82.784 25.16-82.784 25.16s-42.703 40.054-25.16 82.784 123.679 72.706 152.165 44.22-1.491-134.621-44.221-152.164z" fill="#ff7591"/></g><g><path d="m216.99 253.322c28.485-28.485-1.49-134.622-44.22-152.165-9.613-3.947-19.089-4.838-28.005-3.858-11.901 19.625-18.76 42.632-18.76 67.211 0 5.411.338 10.745.983 15.985-22.364 7.051-42.12 20.013-57.471 37.022 26.761 38.073 120.9 62.378 147.473 35.805z" fill="#fd5c70"/></g><g><circle cx="256.005" cy="67.51" fill="#ff7591" r="60"/></g><g><path d="m198.314 51.036c-1.493 5.237-2.309 10.758-2.309 16.474 0 33.137 26.863 60 60 60s60-26.863 60-60c0-5.716-.816-11.237-2.309-16.474-17.394-8.651-36.982-13.526-57.691-13.526s-40.297 4.875-57.691 13.526z" fill="#fd5c70"/></g><g><circle cx="256.005" cy="167.51" fill="#fffddb" r="100"/></g><g><g><path d="m198.557 137.438c-4.143 0-7.5-3.358-7.5-7.5v-12c0-4.142 3.357-7.5 7.5-7.5s7.5 3.358 7.5 7.5v12c0 4.142-3.358 7.5-7.5 7.5z"/></g><g><path d="m313.453 137.438c-4.143 0-7.5-3.358-7.5-7.5v-12c0-4.142 3.357-7.5 7.5-7.5s7.5 3.358 7.5 7.5v12c0 4.142-3.357 7.5-7.5 7.5z"/></g><path d="m285.098 129.593c-4.143 0-7.5 3.358-7.5 7.5 0 3.835-3.12 6.956-6.955 6.956s-6.955-3.12-6.955-6.956c0-4.142-3.357-7.5-7.5-7.5s-7.5 3.358-7.5 7.5c0 3.835-3.12 6.956-6.956 6.956-3.835 0-6.955-3.12-6.955-6.956 0-4.142-3.357-7.5-7.5-7.5s-7.5 3.358-7.5 7.5c0 12.106 9.849 21.956 21.955 21.956 5.533 0 10.59-2.062 14.456-5.451 3.865 3.39 8.922 5.451 14.455 5.451 12.106 0 21.955-9.849 21.955-21.956 0-4.142-3.358-7.5-7.5-7.5z"/></g><g><path d="m346.005 177.51c-34.898 0-66.624 13.826-90 36.283-23.376-22.457-55.102-36.283-90-36.283-3.185 0-6.342.121-9.47.347 5.178 50.367 47.735 89.653 99.47 89.653s94.292-39.286 99.47-89.653c-3.128-.226-6.285-.347-9.47-.347z" fill="#fff3ac"/></g><g><path d="m306.063 393.897-36.955-15.307c-10.205-4.227-15.051-15.926-10.824-26.131l137.766-332.597c4.227-10.205 15.926-15.051 26.131-10.824l36.955 15.307c10.205 4.227 15.051 15.926 10.824 26.131l-137.766 332.597c-4.227 10.205-15.926 15.051-26.131 10.824z" fill="#ffd3a3"/></g><g><path d="m295.239 367.766 137.766-332.597c4.227-10.205 15.926-15.051 26.131-10.824l-36.955-15.307c-10.205-4.227-21.904.619-26.131 10.824l-137.766 332.596c-4.227 10.205.619 21.904 10.824 26.131l36.955 15.307c-10.205-4.226-15.051-15.926-10.824-26.13z" fill="#ffbe74"/></g><g><path d="m354.736 87.557h80v80h-80z" fill="#e7886e" transform="matrix(.383 -.924 .924 .383 125.83 443.432)"/></g><g><path d="m336.259 99.903h80v40h-80z" fill="#dc6646" transform="matrix(.383 -.924 .924 .383 121.495 421.636)"/></g><g><circle cx="346.005" cy="307.51" fill="#fbf081" r="100"/></g><g><path d="m246.005 307.51c0 27.536 11.131 52.471 29.137 70.555 13.191-20.334 20.863-44.564 20.863-70.555s-7.672-50.221-20.863-70.555c-18.006 18.084-29.137 43.019-29.137 70.555z" fill="#fad271"/></g><g><circle cx="166.005" cy="307.51" fill="#e7886e" r="100"/></g><g><path d="m116.184 307.51c0-46.564 31.825-85.693 74.911-96.825-8.018-2.072-16.425-3.175-25.089-3.175-55.228 0-100 44.771-100 100 0 55.228 44.772 100 100 100 8.665 0 17.072-1.103 25.089-3.175-43.086-11.132-74.911-50.261-74.911-96.825z" fill="#dc6646"/></g><g><g><path d="m288.699 277.315c-.002 0-.004 0-.006 0-4.142-.003-7.497-3.363-7.494-7.505l.009-11.876c.003-4.14 3.36-7.495 7.5-7.495h.006c4.142.003 7.497 3.363 7.494 7.505l-.009 11.876c-.003 4.14-3.36 7.495-7.5 7.495z"/></g><g><path d="m403.302 277.438c-.002 0-.004 0-.006 0-4.142-.003-7.497-3.363-7.494-7.505l.009-11.876c.003-4.14 3.36-7.495 7.5-7.495h.006c4.142.003 7.497 3.363 7.494 7.505l-.009 11.876c-.003 4.141-3.36 7.495-7.5 7.495z"/></g><g><path d="m362.685 282.664c-.002 0-.004 0-.007 0l-33.378-.029c-4.142-.003-7.497-3.364-7.493-7.506.004-4.14 3.36-7.494 7.5-7.494h.007l33.378.029c4.142.003 7.497 3.364 7.493 7.506-.004 4.14-3.362 7.494-7.5 7.494z"/></g></g><g><g><path d="m108.557 277.438c-4.143 0-7.5-3.358-7.5-7.5v-12c0-4.142 3.357-7.5 7.5-7.5s7.5 3.358 7.5 7.5v12c0 4.142-3.358 7.5-7.5 7.5z"/></g><g><path d="m223.453 277.438c-4.143 0-7.5-3.358-7.5-7.5v-12c0-4.142 3.357-7.5 7.5-7.5s7.5 3.358 7.5 7.5v12c0 4.142-3.357 7.5-7.5 7.5z"/></g><g><path d="m166.005 284.582c-8.478 0-16.539-3.671-22.118-10.073-2.722-3.123-2.396-7.86.727-10.582 3.122-2.721 7.859-2.396 10.582.727 2.729 3.132 6.669 4.928 10.81 4.928s8.08-1.796 10.81-4.928c2.72-3.123 7.458-3.448 10.582-.727 3.122 2.722 3.448 7.459.727 10.582-5.581 6.401-13.642 10.073-22.12 10.073z"/></g></g><g><path d="m464.505 504.51h-417c-22.091 0-40-17.909-40-40 0-22.091 17.909-40 40-40h417c22.091 0 40 17.909 40 40 0 22.091-17.909 40-40 40z" fill="#ffd3a3"/></g><g><path d="m186.005 464.51c0-22.091 17.909-40 40-40h-178.5c-22.091 0-40 17.909-40 40 0 22.091 17.909 40 40 40h178.5c-22.091 0-40-17.909-40-40z" fill="#ffbe74"/></g><g><path d="m444.505 424.51h-377c-22.091 0-40-17.909-40-40 0-22.091 17.909-40 40-40h377c22.091 0 40 17.909 40 40 0 22.091-17.909 40-40 40z" fill="#ffbe74"/></g><g><path d="m126.005 334.51v110c0 11.046 8.954 20 20 20 11.046 0 20-8.954 20-20v-40c0-11.046 8.954-20 20-20 11.046 0 20 8.954 20 20 0 11.046 8.954 20 20 20 11.046 0 20-8.954 20-20v-70z" fill="#e7886e"/></g><g><path d="m422.684 334.51v110c0 11.046-8.954 20-20 20-11.046 0-20-8.954-20-20v-40c0-11.046-8.954-20-20-20-11.046 0-20 8.954-20 20v80c0 11.046-8.954 20-20 20-11.046 0-20-8.954-20-20v-150z" fill="#fbf081"/></g><path d="m477.338 418.786c9.028-8.652 14.667-20.814 14.667-34.276 0-24.566-18.746-44.836-42.685-47.257 2.77-9.627 4.185-19.593 4.185-29.743 0-36.216-18.004-68.305-45.53-87.792l68.915-166.372c5.802-14.009-.875-30.127-14.884-35.93l-36.955-15.307c-6.785-2.812-14.261-2.812-21.048 0-6.786 2.811-12.071 8.097-14.882 14.883l-40.045 96.676c-7.067-12.263-16.349-22.819-27.229-31.243 1.1-4.873 1.658-9.871 1.658-14.914 0-12.787-3.574-24.755-9.776-34.957.267-.006.531-.03.799-.03 10.824 0 21.122 4.692 28.252 12.874 1.483 1.701 3.564 2.572 5.657 2.572 1.748 0 3.504-.607 4.925-1.846 3.122-2.722 3.448-7.459.727-10.582-9.979-11.451-24.398-18.019-39.561-18.019-3.994 0-7.947.452-11.802 1.339-12.138-11.661-28.601-18.852-46.721-18.852-37.22 0-67.5 30.28-67.5 67.5 0 5.066.565 10.087 1.675 14.983-4.772 3.692-9.225 7.799-13.329 12.259-.411-.183-.823-.365-1.233-.534-16.34-6.708-32.118-5.712-45.826-1.485-.309-12.325-5.373-23.853-14.368-32.571-4.307-4.175-11.316-4.172-15.621 0-2.927 2.837-5.462 6.038-7.563 9.486-4.59-3.848-9.829-6.994-15.605-9.282-5.992-2.372-12.949.51-15.512 6.426-3.642 8.418-5.152 17.328-4.559 26.126-8.838-.572-17.825.955-26.103 4.537-5.916 2.56-8.799 9.518-6.426 15.512 2.286 5.774 5.431 11.011 9.277 15.6-3.446 2.099-6.641 4.637-9.481 7.567-4.176 4.308-4.175 11.317 0 15.623 8.716 8.994 20.243 14.058 32.569 14.367-4.227 13.708-5.223 29.486 1.486 45.826 4.076 9.928 12.409 19.638 24.261 28.379-14.784 18.416-23.644 41.782-23.644 67.181 0 10.15 1.416 20.116 4.185 29.743-23.939 2.421-42.685 22.691-42.685 47.257 0 13.462 5.638 25.624 14.667 34.276-19.973 5.614-34.665 23.98-34.665 45.724 0 26.191 21.309 47.5 47.5 47.5h417c26.191 0 47.5-21.309 47.5-47.5 0-21.744-14.692-40.11-34.667-45.724zm-.333-34.276c0 17.92-14.579 32.5-32.5 32.5h-14.32v-65h14.32c17.921 0 32.5 14.58 32.5 32.5zm-38.5-77c0 10.121-1.626 20.025-4.814 29.5h-11.006c-4.143 0-7.5 3.358-7.5 7.5v100c0 6.893-5.607 12.5-12.5 12.5s-12.5-5.607-12.5-12.5v-40c0-15.164-12.337-27.5-27.5-27.5s-27.5 12.336-27.5 27.5v80c0 6.893-5.607 12.5-12.5 12.5s-12.5-5.607-12.5-12.5v-86.489c0-4.142-3.357-7.5-7.5-7.5s-7.5 3.358-7.5 7.5v18.989h-44.697c1.924-3.753 3.018-8 3.018-12.5v-52.5h41.68v16.011c0 4.142 3.357 7.5 7.5 7.5s7.5-3.358 7.5-7.5v-23.511c0-4.142-3.357-7.5-7.5-7.5h-33.294c2.723-9.552 4.114-19.437 4.114-29.5 0-15.449-3.282-30.145-9.176-43.434 16.133-30.31 47.247-49.066 81.676-49.066 51.004 0 92.499 41.495 92.499 92.5zm-63.32 109.5h-25v-12.5c0-6.893 5.607-12.5 12.5-12.5s12.5 5.607 12.5 12.5zm-29.18-217c-5.767 0-11.45.468-17.016 1.348l17.544-42.354 60.053 24.875-11.583 27.962c-14.702-7.56-31.36-11.831-48.998-11.831zm31.143-114.916 60.052 24.874-24.875 60.052-60.053-24.875zm25.832-62.363c1.277-3.084 3.68-5.487 6.764-6.765 3.087-1.278 6.484-1.278 9.567 0l36.955 15.307c6.368 2.638 9.402 9.964 6.766 16.332l-20.091 48.505-60.052-24.874zm-199.475 44.779c0-28.949 23.552-52.5 52.5-52.5s52.5 23.551 52.5 52.5c0 1.986-.113 3.962-.332 5.92-15.597-8.63-33.436-13.42-52.168-13.42-18.703 0-36.557 4.828-52.16 13.482-.224-1.979-.34-3.975-.34-5.982zm-95.887 6.288c4.67 5.718 7.204 12.736 7.204 20.128 0 1.737-.151 3.466-.431 5.166-1.189.615-2.35 1.244-3.483 1.883-.705-3.423-1.726-6.787-3.084-10.065-1.359-3.282-3.017-6.381-4.926-9.289 1.186-2.796 2.777-5.437 4.72-7.823zm-33.803 1.693c9.182 4.385 16.278 11.808 20.152 21.161 1.8 4.345 2.812 8.888 3.031 13.536-5.534 4.231-9.459 7.951-11.319 9.807-4.865-4.146-8.689-9.346-11.152-15.291-3.875-9.353-4.105-19.62-.712-29.213zm-13.937 32.9c.254.687.509 1.373.791 2.053 3.318 8.01 8.417 15.047 14.914 20.676-.562.703-1.138 1.438-1.723 2.204-4.644-.217-9.188-1.224-13.539-3.026-9.352-3.874-16.774-10.968-21.158-20.149 6.688-2.35 13.855-2.951 20.715-1.758zm-2.283 42.763c-7.392 0-14.41-2.534-20.128-7.205 2.385-1.943 5.025-3.533 7.823-4.719 2.908 1.909 6.008 3.567 9.29 4.927 3.28 1.359 6.641 2.385 10.061 3.089-.637 1.129-1.264 2.286-1.876 3.47-1.704.28-3.432.438-5.17.438zm37.521-19.367c.117-.109.229-.223.34-.339.356-.379 35.133-36.842 71.638-24.405-5.343 7.855-9.709 16.502-12.877 25.807-1.335 3.921.762 8.182 4.683 9.517.801.273 1.616.402 2.418.402 3.122 0 6.037-1.965 7.099-5.085 12.763-37.487 47.962-62.674 87.589-62.674 37.606 0 71.059 22.37 85.453 57.049l-30.568 73.797c-22.368 7.68-41.725 22.613-54.92 42.882-18.638-28.433-50.375-47.539-86.569-48.669-3.911-10.383-5.897-21.315-5.897-32.559 0-.778.01-1.555.028-2.329.097-4.141-3.181-7.577-7.322-7.674-4.101-.115-7.577 3.182-7.674 7.322-.021.89-.032 1.784-.032 2.68 0 11.399 1.763 22.528 5.233 33.204-23.599 2.693-44.901 13.055-61.344 28.53-10.355-7.354-17.447-15.238-20.63-22.991-15.338-37.357 22.971-74.105 23.352-74.465zm70.889 83.223c51.005 0 92.5 41.495 92.5 92.5 0 10.119-1.629 20.024-4.817 29.5h-7.683c-4.143 0-7.5 3.358-7.5 7.5v60c0 6.893-5.607 12.5-12.5 12.5s-12.5-5.607-12.5-12.5c0-15.164-12.337-27.5-27.5-27.5-15.164 0-27.5 12.336-27.5 27.5v40c0 6.893-5.607 12.5-12.5 12.5s-12.5-5.607-12.5-12.5v-100c0-4.142-3.357-7.5-7.5-7.5h-47.686c-3.188-9.475-4.814-19.38-4.814-29.5 0-51.005 41.495-92.5 92.5-92.5zm35.518 202h-28.018v-12.5c0-6.893 5.607-12.5 12.5-12.5s12.5 5.607 12.5 12.5c0 4.5 1.093 8.747 3.018 12.5zm-134.018-65h51v65h-51c-17.921 0-32.5-14.58-32.5-32.5s14.579-32.5 32.5-32.5zm-52.5 112.5c0-17.92 14.579-32.5 32.5-32.5h18.5c.169 0 .335-.014.502-.025.333.007.663.025.998.025h51v12.5c0 15.164 12.336 27.5 27.5 27.5 15.163 0 27.5-12.336 27.5-27.5v-12.5h121.68v52.5c0 4.5 1.093 8.747 3.018 12.5h-250.698c-17.921 0-32.5-14.58-32.5-32.5zm449.5 32.5h-117.338c1.924-3.753 3.018-8 3.018-12.5v-52.5h25v12.5c0 15.164 12.337 27.5 27.5 27.5s27.5-12.336 27.5-27.5v-12.5h14.32 20c17.921 0 32.5 14.58 32.5 32.5s-14.579 32.5-32.5 32.5z"/></g></svg>