<svg id="Capa_1" enable-background="new 0 0 512 512" height="512" viewBox="0 0 512 512" width="512" xmlns="http://www.w3.org/2000/svg"><g><g><path d="m401.25 389.5 12.952 90.661h-316.403l12.952-90.661z" fill="#fbf081"/></g><g><path d="m208.105 389.5-12.951 90.661h-97.355l12.952-90.661z" fill="#fad271"/></g><g><path d="m56 484.5c0 11.046 8.954 20 20 20h360c11.046 0 20-8.954 20-20 0-11.046-8.954-20-20-20h-360c-11.045 0-20 8.954-20 20z" fill="#be9edf"/></g><g><path d="m153 484.5c0 11.046 8.954 20 20 20h-97c-11.046 0-20-8.954-20-20 0-11.046 8.954-20 20-20h97c-11.045 0-20 8.954-20 20z" fill="#938ed9"/></g><g><path d="m401.25 280.947 12.952 90.662h-316.403l12.952-90.662z" fill="#fbf081"/></g><g><path d="m208.105 280.947-12.951 90.662h-97.355l12.952-90.662z" fill="#fad271"/></g><g><path d="m56 375.947c0 11.046 8.954 20 20 20h360c11.046 0 20-8.954 20-20 0-11.046-8.954-20-20-20h-360c-11.045 0-20 8.955-20 20z" fill="#be9edf"/></g><g><path d="m153 375.947c0 11.046 8.954 20 20 20h-97c-11.046 0-20-8.954-20-20 0-11.046 8.954-20 20-20h97c-11.045 0-20 8.955-20 20z" fill="#938ed9"/></g><g><path d="m113.428 153.656 14.909-104.363c3.425-23.98 23.963-41.793 48.188-41.793h158.952c24.224 0 44.762 17.813 48.188 41.793l14.724 103.068-141.316 50.364z" fill="#84dfff"/></g><g><path d="m225.691 49.293-19.439 136.072-92.825-31.709 14.909-104.363c3.426-23.98 23.964-41.793 48.189-41.793h97.355c-24.225 0-44.763 17.813-48.189 41.793z" fill="#2fcffc"/></g><g><path d="m113.428 153.656c10.695-6.066 22.841-11.261 43.646-11.261 49.999 0 49.999 30 99.998 30 50.002 0 50.002-30 100.003-30 19.308 0 31.159 4.474 41.313 9.966l15.814 110.695h-316.403z" fill="#fbf081"/></g><g><path d="m157.074 142.395c26.946 0 39.37 8.713 52.925 16.747l-14.845 103.914h-97.355l15.629-109.4c10.695-6.066 22.841-11.261 43.646-11.261z" fill="#fad271"/></g><g><path d="m56 267.395c0 11.046 8.954 20 20 20h360c11.046 0 20-8.954 20-20 0-11.046-8.954-20-20-20h-360c-11.045 0-20 8.954-20 20z" fill="#be9edf"/></g><g><path d="m153 267.395c0 11.046 8.954 20 20 20h-97c-11.046 0-20-8.954-20-20 0-11.046 8.954-20 20-20h97c-11.045 0-20 8.954-20 20z" fill="#938ed9"/></g><g><g><g><ellipse cx="172.154" cy="93.659" fill="#fff" rx="30.938" ry="24.637"/></g><g><ellipse cx="339.847" cy="93.659" fill="#fff" rx="30.938" ry="24.637"/></g><g><ellipse cx="256" cy="74.729" fill="#333843" rx="16.423" ry="18.377"/></g></g><g><path d="m177.326 71.429c-4.143 0-7.5-3.358-7.5-7.5v-12c0-4.142 3.357-7.5 7.5-7.5s7.5 3.358 7.5 7.5v12c0 4.142-3.357 7.5-7.5 7.5z"/></g><g><path d="m256 100.606c-13.19 0-23.922-11.608-23.922-25.877s10.732-25.876 23.922-25.876c13.191 0 23.923 11.608 23.923 25.876s-10.732 25.877-23.923 25.877zm0-36.753c-4.92 0-8.922 4.879-8.922 10.876 0 5.998 4.002 10.877 8.922 10.877s8.923-4.879 8.923-10.877c0-5.997-4.003-10.876-8.923-10.876z"/></g><g><path d="m334.675 71.429c-4.143 0-7.5-3.358-7.5-7.5v-12c0-4.142 3.357-7.5 7.5-7.5s7.5 3.358 7.5 7.5v12c0 4.142-3.358 7.5-7.5 7.5z"/></g></g><path d="m436 403.447c15.163 0 27.5-12.336 27.5-27.5s-12.337-27.5-27.5-27.5h-17.53l-7.65-53.553h25.18c15.163 0 27.5-12.336 27.5-27.5s-12.337-27.5-27.5-27.5h-17.53l-27.381-191.661c-3.929-27.498-27.836-48.233-55.612-48.233h-158.953c-27.776 0-51.684 20.735-55.612 48.233l-4.116 28.813c-.586 4.101 2.264 7.899 6.364 8.485 4.098.589 7.9-2.263 8.485-6.364l4.116-28.813c2.88-20.155 20.404-35.354 40.763-35.354h158.952c20.359 0 37.884 15.199 40.763 35.354l12.795 89.562c-8.062-2.875-18.214-5.021-31.959-5.021-27.078 0-41.307 8.537-53.86 16.069-11.941 7.164-23.22 13.931-46.143 13.931-22.922 0-34.2-6.767-46.141-13.931-12.553-7.532-26.781-16.069-53.858-16.069-14.76 0-25.494 2.461-34.229 5.877l4.515-31.605c.586-4.101-2.264-7.899-6.364-8.485-4.09-.583-7.899 2.263-8.485 6.364l-18.978 132.85h-17.532c-15.163 0-27.5 12.336-27.5 27.5s12.337 27.5 27.5 27.5h25.182l-7.651 53.553h-17.531c-15.163 0-27.5 12.336-27.5 27.5s12.337 27.5 27.5 27.5h25.182l-7.65 53.551h-17.532c-15.163 0-27.5 12.336-27.5 27.5s12.337 27.5 27.5 27.5h360c15.163 0 27.5-12.336 27.5-27.5s-12.337-27.5-27.5-27.5h-17.53l-7.651-53.553zm-315.679-245.013c9.823-5.172 20.201-8.539 36.752-8.539 22.923 0 34.201 6.767 46.142 13.931 12.553 7.532 26.78 16.069 53.857 16.069 27.078 0 41.306-8.537 53.859-16.069 11.941-7.164 23.22-13.931 46.144-13.931 16.444 0 26.7 3.552 34.435 7.357l11.806 82.643h-294.632zm-56.821 108.961c0-6.893 5.607-12.5 12.5-12.5h360c6.893 0 12.5 5.607 12.5 12.5s-5.607 12.5-12.5 12.5h-360c-6.893 0-12.5-5.608-12.5-12.5zm52.834 27.5h279.332l7.651 53.553h-294.633zm332.166 189.605c0 6.893-5.607 12.5-12.5 12.5h-360c-6.893 0-12.5-5.607-12.5-12.5s5.607-12.5 12.5-12.5h360c6.893 0 12.5 5.607 12.5 12.5zm-45.183-27.5h-294.633l7.65-53.553h203.34c4.143 0 7.5-3.358 7.5-7.5s-3.357-7.5-7.5-7.5h-243.674c-6.893 0-12.5-5.607-12.5-12.5s5.607-12.5 12.5-12.5h360c6.893 0 12.5 5.607 12.5 12.5s-5.607 12.5-12.5 12.5h-86.325c-4.143 0-7.5 3.358-7.5 7.5s3.357 7.5 7.5 7.5h45.991z"/></g></svg>