<svg id="Capa_1" enable-background="new 0 0 512 512" height="512" viewBox="0 0 512 512" width="512" xmlns="http://www.w3.org/2000/svg"><g><g><path d="m386 454.5c0-71.797-58.203-130-130-130s-130 58.203-130 130v30h260z" fill="#ffbe74"/></g><g><path d="m269.819 454.5v30h-143.819v-30c0-71.797 58.203-130 130-130 26.592 0 51.314 7.99 71.909 21.692-35.012 23.292-58.09 63.102-58.09 108.308z" fill="#f4a960"/></g><g><path d="m96 484.5c0 11.046 8.954 20 20 20h280c11.046 0 20-8.954 20-20 0-11.046-8.954-20-20-20h-280c-11.046 0-20 8.954-20 20z" fill="#ffd3a3"/></g><g><path d="m173.465 484.5c0 11.046 8.954 20 20 20h-77.465c-11.046 0-20-8.954-20-20 0-11.046 8.954-20 20-20h77.465c-11.046 0-20 8.954-20 20z" fill="#ffbe74"/></g><g><path d="m386 364.872c0-71.797-58.203-130-130-130s-130 58.203-130 130v30h260z" fill="#ffbe74"/></g><g><path d="m269.819 364.872v30h-143.819v-30c0-71.797 58.203-130 130-130 26.592 0 51.314 7.99 71.909 21.692-35.012 23.292-58.09 63.102-58.09 108.308z" fill="#f4a960"/></g><g><path d="m96 394.872c0 11.046 8.954 20 20 20h280c11.046 0 20-8.954 20-20 0-11.046-8.954-20-20-20h-280c-11.046 0-20 8.954-20 20z" fill="#ffd3a3"/></g><g><path d="m173.465 394.872c0 11.046 8.954 20 20 20h-77.465c-11.046 0-20-8.954-20-20 0-11.046 8.954-20 20-20h77.465c-11.046 0-20 8.954-20 20z" fill="#ffbe74"/></g><g><path d="m256 7.5c-23.258 0-43.283 16.417-47.845 39.223l-32.155 160.777h160l-32.155-160.777c-4.562-22.806-24.587-39.223-47.845-39.223z" fill="#ffd3a3"/></g><g><path d="m254.447 115.263c.518-.005 1.034-.02 1.553-.02 22.842 0 44.571 4.83 64.247 13.493l15.753 78.764h-160l32.155-160.777c4.562-22.806 24.587-39.223 47.845-39.223 6.781 0 13.282 1.404 19.211 3.947z" fill="#ffbe74"/></g><g><path d="m386 275.243c0-71.797-58.203-130-130-130s-130 58.203-130 130v30h260z" fill="#ffbe74"/></g><g><path d="m269.819 275.243v30h-143.819v-30c0-71.797 58.203-130 130-130 26.592 0 51.314 7.99 71.909 21.692-35.012 23.293-58.09 63.103-58.09 108.308z" fill="#f4a960"/></g><g><path d="m96 305.243c0 11.046 8.954 20 20 20h280c11.046 0 20-8.954 20-20 0-11.046-8.954-20-20-20h-280c-11.046 0-20 8.955-20 20z" fill="#ffd3a3"/></g><g><path d="m173.465 305.243c0 11.046 8.954 20 20 20h-77.465c-11.046 0-20-8.954-20-20 0-11.046 8.954-20 20-20h77.465c-11.046 0-20 8.955-20 20z" fill="#ffbe74"/></g><g><g><path d="m192.72 235.291c-.002 0-.004 0-.006 0-4.142-.003-7.497-3.363-7.494-7.505l.009-11.876c.003-4.14 3.36-7.495 7.5-7.495h.006c4.142.003 7.497 3.363 7.494 7.505l-.009 11.876c-.003 4.14-3.361 7.495-7.5 7.495z"/></g><g><path d="m319.321 235.415c-.002 0-.004 0-.006 0-4.142-.003-7.497-3.363-7.494-7.505l.009-11.876c.003-4.14 3.36-7.495 7.5-7.495h.006c4.142.003 7.497 3.363 7.494 7.505l-.009 11.876c-.003 4.14-3.36 7.495-7.5 7.495z"/></g><g><path d="m272.704 240.64c-.002 0-.004 0-.007 0l-33.378-.029c-4.142-.003-7.497-3.364-7.493-7.506.004-4.14 3.361-7.494 7.5-7.494h.007l33.378.029c4.142.003 7.497 3.364 7.493 7.506-.004 4.14-3.36 7.494-7.5 7.494z"/></g></g><path d="m423.5 394.872c0-15.164-12.337-27.5-27.5-27.5h-2.5v-2.5c0-10.884-1.281-21.65-3.79-32.128h6.29c15.163 0 27.5-12.336 27.5-27.5s-12.337-27.5-27.5-27.5h-2.5v-2.5c0-46.589-23.296-87.834-58.846-112.716l-23.455-117.276c-5.244-26.221-28.459-45.252-55.199-45.252s-49.955 19.031-55.199 45.252l-23.439 117.198c-9.668 6.747-18.534 14.77-26.327 23.971-2.678 3.161-2.285 7.894.875 10.571 3.161 2.678 7.894 2.284 10.57-.875 23.348-27.565 57.435-43.374 93.521-43.374 67.547 0 122.5 54.953 122.5 122.5v2.5h-245v-2.5c0-19.7 4.531-38.508 13.468-55.902 1.893-3.684.44-8.206-3.243-10.098-3.687-1.894-8.207-.441-10.099 3.244-10.037 19.535-15.126 40.649-15.126 62.756v2.5h-2.501c-15.163 0-27.5 12.336-27.5 27.5s12.337 27.5 27.5 27.5h6.295c-2.509 10.478-3.795 21.245-3.795 32.128v2.5h-2.5c-15.163 0-27.5 12.336-27.5 27.5s12.337 27.5 27.5 27.5h6.29c-2.509 10.478-3.79 21.244-3.79 32.128v2.5h-2.5c-15.163 0-27.5 12.336-27.5 27.5s12.337 27.501 27.5 27.501h280c15.163 0 27.5-12.336 27.5-27.5s-12.337-27.5-27.5-27.5h-2.5v-2.5c0-10.884-1.286-21.651-3.794-32.128h6.294c15.163 0 27.5-12.337 27.5-27.5zm-228.778-242.739 20.788-103.939c3.846-19.234 20.875-33.194 40.49-33.194s36.644 13.96 40.49 33.194l20.798 103.99c-18.464-9.233-39.278-14.44-61.288-14.44-21.555-.001-42.473 5.025-61.278 14.389zm-91.222 153.11c0-6.893 5.607-12.5 12.5-12.5h280c6.893 0 12.5 5.607 12.5 12.5s-5.607 12.5-12.5 12.5h-280c-6.893 0-12.5-5.607-12.5-12.5zm30 59.629c0-10.918 1.432-21.704 4.257-32.128h236.483c2.825 10.426 4.26 21.209 4.26 32.128v2.5h-245zm-30 30c0-6.893 5.607-12.5 12.5-12.5h280c6.893 0 12.5 5.607 12.5 12.5s-5.607 12.5-12.5 12.5h-280c-6.893 0-12.5-5.608-12.5-12.5zm275 59.628v2.5h-44.17c-4.143 0-7.5 3.358-7.5 7.5s3.357 7.5 7.5 7.5h61.67c6.893 0 12.5 5.607 12.5 12.5s-5.607 12.5-12.5 12.5h-280c-6.893 0-12.5-5.607-12.5-12.5s5.607-12.5 12.5-12.5h188.33c4.143 0 7.5-3.358 7.5-7.5s-3.357-7.5-7.5-7.5h-170.83v-2.5c0-10.919 1.435-21.703 4.261-32.128h236.483c2.824 10.424 4.256 21.21 4.256 32.128z"/></g></svg>