<svg id="Capa_1" enable-background="new 0 0 512 512" height="512" viewBox="0 0 512 512" width="512" xmlns="http://www.w3.org/2000/svg"><g><g><path d="m216-120.18h80v375.359h-80z" fill="#fbf081" transform="matrix(0 1 -1 0 323.5 -188.5)"/></g><g><path d="m46 197.8h420v286.7h-420z" fill="#fffddb"/></g><g><path d="m186 287.5h-80c-11.046 0-20 8.954-20 20v177h120v-177c0-11.046-8.954-20-20-20z" fill="#84dfff"/></g><g><path d="m150.122 287.5h-44.122c-11.046 0-20 8.954-20 20v177h44.122v-177c0-11.046 8.955-20 20-20z" fill="#2fcffc"/></g><g><path d="m408 315.448h-144v89.052c0 11.046 8.954 20 20 20h104c11.046 0 20-8.954 20-20z" fill="#84dfff"/></g><g><path d="m306 404.5v-89.052h-42v89.052c0 11.046 8.954 20 20 20h42c-11.046 0-20-8.954-20-20z" fill="#2fcffc"/></g><g><path d="m7.5 484.5c0-11.046 8.954-20 20-20h457c11.046 0 20 8.954 20 20 0 11.046-8.954 20-20 20h-457c-11.046 0-20-8.954-20-20z" fill="#be9edf"/></g><g><path d="m46 27.5c0-11.046 8.954-20 20-20h380c11.046 0 20 8.954 20 20 0 11.046-8.954 20-20 20h-380c-11.046 0-20-8.954-20-20z" fill="#be9edf"/></g><g><path d="m148.622 27.5c0-11.046 8.954-20 20-20h-102.622c-11.046 0-20 8.954-20 20 0 11.046 8.954 20 20 20h102.622c-11.045 0-20-8.954-20-20z" fill="#938ed9"/></g><g><path d="m106.9 167.5h99.4v30.3c0 27.449-22.251 49.7-49.7 49.7-27.449 0-49.7-22.251-49.7-49.7z" fill="#fbf081"/></g><g><path d="m305.7 167.5h99.4v30.3c0 27.449-22.251 49.7-49.7 49.7-27.449 0-49.7-22.251-49.7-49.7z" fill="#fbf081"/></g><g><path d="m460.668 96.946c-3.649-5.874-10.074-9.446-16.989-9.446h-375.359c-6.915 0-13.339 3.572-16.989 9.446l-37.809 60.859c-3.936 6.337-6.022 13.648-6.022 21.108v18.887c0 27.449 22.251 49.7 49.7 49.7 27.449 0 49.7-22.251 49.7-49.7v-30.3h99.4v30.3c0 27.449 22.251 49.7 49.7 49.7 27.449 0 49.7-22.251 49.7-49.7v-30.3h99.4v30.3c0 27.449 22.251 49.7 49.7 49.7 27.449 0 49.7-22.251 49.7-49.7v-18.887c0-7.46-2.086-14.771-6.023-21.108z" fill="#be9edf"/></g><g><path d="m273.948 287.5h32.052v27.948c0 16.569-13.431 30-30 30-16.569 0-30-13.431-30-30 0-15.435 12.513-27.948 27.948-27.948z" fill="#be9edf"/></g><g><path d="m306 287.5h60v27.948c0 16.569-13.431 30-30 30-16.569 0-30-13.431-30-30z" fill="#fbf081"/></g><g><path d="m366 287.5h32.052c15.435 0 27.948 12.513 27.948 27.948 0 16.569-13.431 30-30 30-16.569 0-30-13.431-30-30z" fill="#be9edf"/></g><g><path d="m156.6 87.5h-88.28c-6.915 0-13.339 3.572-16.989 9.446l-37.809 60.859c-3.936 6.337-6.022 13.648-6.022 21.108v18.887c0 27.449 22.251 49.7 49.7 49.7 27.449 0 49.7-22.251 49.7-49.7v-30.3z" fill="#938ed9"/></g><g><path d="m512 197.8v-18.887c0-8.867-2.473-17.534-7.152-25.065l-37.809-60.859c-3.691-5.94-9.348-10.121-15.859-11.949v-26.536c12.695-2.43 22.32-13.612 22.32-27.004 0-15.163-12.336-27.5-27.5-27.5h-380c-15.164 0-27.5 12.337-27.5 27.5 0 13.392 9.625 24.573 22.32 27.004v26.535c-6.511 1.828-12.169 6.009-15.859 11.949l-37.809 60.86c-4.679 7.531-7.152 16.198-7.152 25.065v18.887c0 24.992 16.118 46.278 38.5 54.045v205.155h-11c-15.164 0-27.5 12.336-27.5 27.5s12.336 27.5 27.5 27.5h457c15.164 0 27.5-12.336 27.5-27.5s-12.336-27.5-27.5-27.5h-11v-205.156c22.382-7.767 38.5-29.052 38.5-54.044zm-458.5-170.3c0-6.893 5.607-12.5 12.5-12.5h380c6.893 0 12.5 5.607 12.5 12.5s-5.607 12.5-12.5 12.5h-75.6c-4.142 0-7.5 3.357-7.5 7.5s3.358 7.5 7.5 7.5h65.78v25h-360.36v-25h264.58c4.142 0 7.5-3.357 7.5-7.5s-3.358-7.5-7.5-7.5h-274.4c-6.893 0-12.5-5.607-12.5-12.5zm-38.5 170.3v-18.887c0-6.066 1.692-11.997 4.894-17.149l37.809-60.859c2.296-3.698 6.265-5.905 10.617-5.905h375.36c4.352 0 8.321 2.207 10.618 5.904l37.809 60.859c3.201 5.152 4.894 11.083 4.894 17.149v18.888c0 23.27-18.931 42.2-42.2 42.2s-42.2-18.931-42.2-42.2v-30.3c0-4.143-3.358-7.5-7.5-7.5h-99.4c-4.142 0-7.5 3.357-7.5 7.5v30.3c0 23.27-18.931 42.2-42.2 42.2s-42.2-18.931-42.2-42.2v-30.3c0-4.143-3.358-7.5-7.5-7.5h-99.4c-4.142 0-7.5 3.357-7.5 7.5v30.3c0 23.27-18.931 42.2-42.2 42.2-23.27 0-42.201-18.931-42.201-42.2zm382.6 0c0 23.27-18.931 42.2-42.2 42.2s-42.2-18.931-42.2-42.2v-22.8h84.4zm-198.8 0c0 23.27-18.931 42.2-42.2 42.2s-42.2-18.931-42.2-42.2v-22.8h84.4zm298.2 286.7c0 6.893-5.607 12.5-12.5 12.5h-457c-6.893 0-12.5-5.607-12.5-12.5s5.607-12.5 12.5-12.5h457c6.893 0 12.5 5.607 12.5 12.5zm-38.5-27.5h-245v-66.667c0-4.143-3.358-7.5-7.5-7.5s-7.5 3.357-7.5 7.5v66.667h-105v-149.5c0-6.893 5.607-12.5 12.5-12.5h80c6.893 0 12.5 5.607 12.5 12.5v52.833c0 4.143 3.358 7.5 7.5 7.5s7.5-3.357 7.5-7.5v-52.833c0-15.163-12.336-27.5-27.5-27.5h-80c-15.164 0-27.5 12.337-27.5 27.5v149.5h-25v-202.133c1.225.079 2.456.133 3.7.133 21.265 0 39.843-11.673 49.7-28.94 9.857 17.266 28.435 28.94 49.7 28.94s39.843-11.673 49.7-28.94c9.857 17.267 28.435 28.94 49.7 28.94s39.843-11.673 49.7-28.94c9.857 17.266 28.435 28.94 49.7 28.94s39.843-11.673 49.7-28.94c9.857 17.266 28.435 28.94 49.7 28.94 1.244 0 2.475-.054 3.7-.133z"/><path d="m398.052 280h-124.104c-19.546 0-35.448 15.902-35.448 35.448 0 13.54 7.214 25.425 18 32.018v57.034c0 15.163 12.336 27.5 27.5 27.5h104c15.164 0 27.5-12.337 27.5-27.5v-57.034c10.786-6.593 18-18.479 18-32.019 0-19.546-15.902-35.447-35.448-35.447zm-84.552 15h45v20.448c0 12.406-10.093 22.499-22.5 22.499s-22.5-10.093-22.5-22.499zm-39.552 0h24.552v20.448c0 12.406-10.093 22.499-22.5 22.499s-22.5-10.094-22.5-22.5c0-11.274 9.173-20.447 20.448-20.447zm126.552 109.5c0 6.893-5.607 12.5-12.5 12.5h-104c-6.893 0-12.5-5.607-12.5-12.5v-51.832c1.477.177 2.976.28 4.5.28 12.254 0 23.153-5.909 30-15.026 6.847 9.117 17.746 15.026 30 15.026s23.153-5.909 30-15.026c6.847 9.117 17.746 15.026 30 15.026 1.524 0 3.023-.102 4.5-.28zm-4.5-66.553c-12.407 0-22.5-10.093-22.5-22.499v-20.448h24.552c11.275 0 20.448 9.173 20.448 20.448 0 12.406-10.093 22.499-22.5 22.499z"/><path d="m140.122 343.5c4.142 0 7.5-3.357 7.5-7.5s-3.358-7.5-7.5-7.5c-9.649 0-17.5 7.851-17.5 17.5v40c0 9.649 7.851 17.5 17.5 17.5 4.142 0 7.5-3.357 7.5-7.5s-3.358-7.5-7.5-7.5c-1.378 0-2.5-1.121-2.5-2.5v-40c0-1.379 1.122-2.5 2.5-2.5z"/></g></g></svg>