<svg id="Capa_1" enable-background="new 0 0 512 512" height="512" viewBox="0 0 512 512" width="512" xmlns="http://www.w3.org/2000/svg"><g><g><path d="m86 116.3h40v195.7h-40z" fill="#899bb0"/></g><g><path d="m106 234.5c-11.046 0-20-8.954-20-20v97.5h40v-97.5c0 11.046-8.954 20-20 20z" fill="#6c8199"/></g><g><path d="m386 116.3h40v195.7h-40z" fill="#899bb0"/></g><g><path d="m406 234.5c-11.046 0-20-8.954-20-20v97.5h40v-97.5c0 11.046-8.954 20-20 20z" fill="#6c8199"/></g><g><path d="m386 274.5v10h-260v-10l24.472-48.944c3.388-6.776 10.313-11.056 17.889-11.056h175.279c7.575 0 14.501 4.28 17.889 11.056z" fill="#fffddb"/></g><g><path d="m194.594 225.556c3.388-6.776 10.313-11.056 17.889-11.056h-44.122c-7.575 0-14.501 4.28-17.889 11.056l-24.472 48.944v10h44.122v-10z" fill="#fff3ac"/></g><g><path d="m466 351.252v-36.752c0-22.091-17.909-40-40-40h-340c-22.091 0-40 17.909-40 40v36.752l40 73.248h340z" fill="#fbf081"/></g><g><path d="m46 314.5v36.752l40 73.248h44.122v-110c0-22.091 17.909-40 40-40h-84.122c-22.091 0-40 17.909-40 40z" fill="#fad271"/></g><g><path d="m466 351.252c-15.401 5.957-26.487 14.878-36.165 22.667-14.847 11.948-25.572 20.581-49.588 20.581-24.015 0-34.74-8.633-49.586-20.581-16.286-13.107-36.555-29.419-74.667-29.419-38.11 0-58.378 16.313-74.663 29.419-14.845 11.948-25.57 20.581-49.583 20.581s-34.739-8.632-49.584-20.581c-9.678-7.789-20.764-16.71-36.164-22.667v133.248h420z" fill="#84dfff"/></g><g><path d="m130.122 394.482c-22.875-.385-33.454-8.888-47.958-20.562-9.678-7.79-20.764-16.711-36.164-22.668v133.248h84.122z" fill="#2fcffc"/></g><g><path d="m7.5 484.5c0-11.046 8.954-20 20-20h457c11.046 0 20 8.954 20 20 0 11.046-8.954 20-20 20h-457c-11.046 0-20-8.954-20-20z" fill="#be9edf"/></g><g><path d="m106.9 87.5h99.4v30.3c0 27.449-22.251 49.7-49.7 49.7-27.449 0-49.7-22.251-49.7-49.7z" fill="#fbf081"/></g><g><path d="m305.7 87.5h99.4v30.3c0 27.449-22.251 49.7-49.7 49.7-27.449 0-49.7-22.251-49.7-49.7z" fill="#fbf081"/></g><g><path d="m460.668 16.946c-3.649-5.874-10.073-9.446-16.988-9.446h-375.36c-6.915 0-13.339 3.572-16.989 9.446l-37.808 60.859c-3.937 6.337-6.023 13.648-6.023 21.108v18.887c0 27.449 22.251 49.7 49.7 49.7 27.449 0 49.7-22.251 49.7-49.7v-30.3h99.4v30.3c0 27.449 22.251 49.7 49.7 49.7 27.449 0 49.7-22.251 49.7-49.7v-30.3h99.4v30.3c0 27.449 22.251 49.7 49.7 49.7 27.449 0 49.7-22.251 49.7-49.7v-18.887c0-7.46-2.086-14.771-6.023-21.108z" fill="#be9edf"/></g><g><path d="m156.6 7.5h-88.28c-6.915 0-13.339 3.572-16.989 9.446l-37.808 60.859c-3.937 6.337-6.023 13.648-6.023 21.108v18.887c0 27.449 22.251 49.7 49.7 49.7 27.449 0 49.7-22.251 49.7-49.7v-30.3z" fill="#938ed9"/></g><path d="m454.8 175c31.54 0 57.2-25.66 57.2-57.2v-18.887c0-8.867-2.473-17.534-7.152-25.065l-37.809-60.859c-5.053-8.134-13.785-12.989-23.359-12.989h-375.36c-9.574 0-18.307 4.855-23.359 12.988l-37.809 60.86c-4.679 7.531-7.152 16.198-7.152 25.065v18.887c0 31.54 25.66 57.2 57.2 57.2 7.527 0 14.712-1.476 21.3-4.129v96.727c-22.64 3.607-40 23.263-40 46.902v142.5h-11c-15.164 0-27.5 12.336-27.5 27.5s12.336 27.5 27.5 27.5h457c15.164 0 27.5-12.336 27.5-27.5s-12.336-27.5-27.5-27.5h-11v-142.5c0-23.639-17.36-43.295-40-46.902v-96.727c6.588 2.653 13.773 4.129 21.3 4.129zm-397.6-15c-23.269 0-42.2-18.931-42.2-42.2v-18.887c0-6.066 1.692-11.997 4.894-17.149l37.809-60.859c2.296-3.698 6.265-5.905 10.617-5.905h375.36c4.352 0 8.321 2.207 10.618 5.904l37.809 60.859c3.201 5.153 4.893 11.084 4.893 17.15v18.887c0 23.27-18.931 42.2-42.2 42.2s-42.2-18.931-42.2-42.2v-30.3c0-4.143-3.358-7.5-7.5-7.5h-99.4c-4.142 0-7.5 3.357-7.5 7.5v30.3c0 23.27-18.931 42.2-42.2 42.2s-42.2-18.931-42.2-42.2v-30.3c0-4.143-3.358-7.5-7.5-7.5h-99.4c-4.142 0-7.5 3.357-7.5 7.5v30.3c0 23.269-18.931 42.2-42.2 42.2zm213.8 62h72.639c4.765 0 9.049 2.647 11.181 6.91l19.045 38.09h-235.73l19.045-38.09c2.131-4.263 6.416-6.91 11.181-6.91h72.639c4.142 0 7.5-3.357 7.5-7.5s-3.358-7.5-7.5-7.5h-72.639c-10.483 0-19.909 5.825-24.597 15.201l-10.264 20.528v-72.62c7.07 3.134 14.882 4.89 23.1 4.89 21.265 0 39.843-11.673 49.7-28.94 9.857 17.268 28.435 28.941 49.7 28.941s39.843-11.673 49.7-28.94c9.857 17.266 28.435 28.94 49.7 28.94 8.218 0 16.03-1.756 23.1-4.89v72.62l-10.264-20.528c-4.688-9.377-14.113-15.202-24.597-15.202h-72.639c-4.142 0-7.5 3.357-7.5 7.5s3.358 7.5 7.5 7.5zm-72.2-104.2c0 23.27-18.931 42.2-42.2 42.2s-42.2-18.931-42.2-42.2v-22.8h84.4zm156.6 42.2c-23.269 0-42.2-18.931-42.2-42.2v-22.8h84.4v22.8c0 23.269-18.931 42.2-42.2 42.2zm-248.5-13.94c3.079 5.393 7.002 10.242 11.6 14.357v106.583h-25v-105.028c5.379-4.429 9.926-9.826 13.4-15.912zm288.347 310.94c-4.142 0-7.5 3.357-7.5 7.5s3.358 7.5 7.5 7.5h89.253c6.893 0 12.5 5.607 12.5 12.5s-5.607 12.5-12.5 12.5h-457c-6.893 0-12.5-5.607-12.5-12.5s5.607-12.5 12.5-12.5h337.747c4.142 0 7.5-3.357 7.5-7.5s-3.358-7.5-7.5-7.5h-311.747v-94.027c9.376 5.061 17.028 11.21 23.962 16.791 15.437 12.423 27.63 22.236 54.286 22.236s38.848-9.813 54.286-22.237c16.168-13.014 34.493-27.763 69.961-27.763 35.469 0 53.795 14.749 69.967 27.766 15.436 12.422 27.629 22.234 54.285 22.234 26.657 0 38.851-9.813 54.29-22.238 6.938-5.583 14.586-11.731 23.963-16.791v94.029zm63.253-142.5v31.761c-13.986 6.232-24.242 14.471-33.37 21.817-14.662 11.8-23.512 18.922-44.883 18.922-21.37 0-30.22-7.122-44.883-18.923-16.296-13.115-38.614-31.077-79.369-31.077-40.754 0-63.071 17.962-79.367 31.078-14.661 11.8-23.51 18.922-44.879 18.922-21.37 0-30.219-7.122-44.881-18.923-9.12-7.339-19.374-15.584-33.367-21.819v-31.758c0-17.921 14.58-32.5 32.5-32.5h340c17.919 0 32.499 14.579 32.499 32.5zm-40-47.5h-25v-106.583c4.598-4.115 8.521-8.964 11.6-14.357 3.474 6.086 8.021 11.483 13.4 15.911z"/></g></svg>