<svg id="Capa_1" enable-background="new 0 0 512 512" height="512" viewBox="0 0 512 512" width="512" xmlns="http://www.w3.org/2000/svg"><g><g><path d="m274.5 89.5h40v90h-40z" fill="#899bb0" transform="matrix(-1 0 0 -1 589 269)"/></g><g><path d="m434.5 214.5v10h-280v-10l24.472-48.944c3.388-6.776 10.313-11.056 17.889-11.056h195.279c7.575 0 14.501 4.28 17.889 11.056z" fill="#fffddb"/></g><g><path d="m233.094 165.556c3.388-6.776 10.313-11.056 17.889-11.056h-54.122c-7.575 0-14.501 4.28-17.889 11.056l-24.472 48.944v10h54.122v-10z" fill="#fff3ac"/></g><g><path d="m444.5 504.5c11.046 0 20-8.954 20-20v-70h-40v70c0 11.046 8.954 20 20 20z" fill="#be9edf"/></g><g><path d="m424.5 414.5v70c0-11.046 8.954-20 20-20s20 8.954 20 20v-70z" fill="#938ed9"/></g><g><path d="m448.261 99.911c-25.32-49.657-72.946-92.411-153.761-92.411s-128.441 42.754-153.761 92.411c-3.402 6.673 1.402 14.589 8.892 14.589h144.869 144.869c7.49 0 12.295-7.916 8.892-14.589z" fill="#be9edf"/></g><g><path d="m365 114.5c0-59.094-31.564-107-70.5-107s-70.5 47.905-70.5 107z" fill="#fbf081"/></g><g><path d="m7.5 174.5c0 11.046 8.954 20 20 20h57v60h40v-60c0-22.091-17.909-40-40-40h-57c-11.046 0-20 8.954-20 20z" fill="#be9edf"/></g><g><path d="m64.5 174.5c0-11.046 8.954-20 20-20h-57c-11.046 0-20 8.954-20 20 0 11.046 8.954 20 20 20h57c-11.046 0-20-8.954-20-20z" fill="#938ed9"/></g><g><path d="m504.5 271.252v-16.752c0-22.091-17.909-40-40-40h-340c-22.091 0-40 17.909-40 40v16.752l40 63.248h340z" fill="#fbf081"/></g><g><path d="m84.5 254.5v16.752l40 63.248h44.122v-80c0-22.091 17.909-40 40-40h-84.122c-22.091 0-40 17.909-40 40z" fill="#fad271"/></g><g><path d="m504.5 271.252c-15.401 5.957-26.487 14.878-36.165 22.667-14.847 11.948-25.572 20.581-49.588 20.581-24.015 0-34.74-8.633-49.586-20.581-16.286-13.107-36.555-29.419-74.667-29.419-38.11 0-58.378 16.313-74.663 29.419-14.845 11.948-25.57 20.581-49.583 20.581s-34.739-8.632-49.584-20.581c-9.678-7.789-20.764-16.71-36.164-22.667v113.248c0 22.091 17.909 40 40 40h340c22.091 0 40-17.909 40-40z" fill="#84dfff"/></g><g><path d="m168.622 384.5v-70.018c-22.875-.385-33.454-8.888-47.958-20.562-9.678-7.789-20.764-16.71-36.164-22.667v113.247c0 22.091 17.909 40 40 40h84.122c-22.091 0-40-17.909-40-40z" fill="#2fcffc"/></g><g><circle cx="208.622" cy="424.5" fill="#899bb0" r="80"/></g><g><path d="m188.622 484.5c0-11.046 8.954-20 20-20v-80c-11.046 0-20-8.954-20-20s8.954-20 20-20c-44.183 0-80 35.817-80 80s35.817 80 80 80c-11.045 0-20-8.954-20-20z" fill="#6c8199"/></g><g><circle cx="208.622" cy="424.5" fill="#6c8199" r="40"/></g><g><path d="m464.5 207h-25.365l-22.399-44.799c-4.689-9.377-14.114-15.201-24.596-15.201h-12.146c-4.143 0-7.5 3.357-7.5 7.5s3.357 7.5 7.5 7.5h12.146c4.765 0 9.049 2.648 11.181 6.91l19.044 38.09h-255.73l19.045-38.09c2.131-4.263 6.416-6.91 11.181-6.91h153.132c4.143 0 7.5-3.357 7.5-7.5s-3.357-7.5-7.5-7.5h-27.993v-25h117.369c6.134 0 11.708-3.121 14.911-8.349 3.214-5.247 3.462-11.657.663-17.147-14.576-28.585-34.283-51.345-58.572-67.647-28.529-19.148-62.804-28.857-101.871-28.857s-73.341 9.709-101.871 28.856c-24.29 16.303-43.996 39.063-58.572 67.647-2.799 5.49-2.551 11.9.663 17.147 3.203 5.228 8.777 8.349 14.911 8.349h117.369v25h-70.139c-10.483 0-19.909 5.825-24.597 15.201l-22.399 44.8h-17.865v-12.5c0-26.191-21.309-47.5-47.5-47.5h-57c-15.164 0-27.5 12.337-27.5 27.5s12.336 27.5 27.5 27.5h49.5v52.5 130c0 25.162 19.669 45.805 44.437 47.391 3.765 44.801 41.427 80.109 87.185 80.109 45.721 0 83.358-35.25 87.175-80h121.203v52.5c0 15.163 12.337 27.5 27.5 27.5s27.5-12.337 27.5-27.5v-53.098c22.64-3.607 40-23.263 40-46.902v-130c0-26.191-21.309-47.5-47.5-47.5zm-232.817-100c2.456-51.259 29.862-92 62.817-92 32.974 0 60.361 40.728 62.815 92zm209.897-3.682c.568 1.115.188 2.043-.091 2.497-.271.442-.907 1.185-2.12 1.185h-67.04c-1.195-27.453-8.923-53.095-22.026-72.756-3.569-5.355-7.44-10.12-11.556-14.276 55.562 13.281 86.252 50.832 102.833 83.35zm-294.069 2.497c-.278-.454-.66-1.382-.091-2.497 16.581-32.519 47.271-70.07 102.834-83.351-4.102 4.141-7.96 8.886-11.518 14.217-13.125 19.665-20.871 45.333-22.068 72.816h-67.037c-1.213 0-1.849-.742-2.12-1.185zm134.489 16.185h25v25h-25zm215 132.5v11.763c-13.984 6.23-24.239 14.468-33.37 21.816-14.662 11.799-23.512 18.921-44.883 18.921-21.37 0-30.22-7.122-44.884-18.923-16.296-13.115-38.613-31.077-79.369-31.077-40.753 0-63.07 17.962-79.367 31.078-14.661 11.8-23.51 18.922-44.879 18.922-21.37 0-30.219-7.122-44.882-18.923-9.128-7.346-19.383-15.584-33.366-21.814v-11.763c0-17.921 14.58-32.5 32.5-32.5h340c17.921 0 32.5 14.579 32.5 32.5zm-469.5-67.5c-6.893 0-12.5-5.607-12.5-12.5s5.607-12.5 12.5-12.5h57c17.92 0 32.5 14.579 32.5 32.5v13.098c-9.589 1.528-18.224 5.938-25 12.309v-25.407c0-4.143-3.358-7.5-7.5-7.5zm417 310c-6.893 0-12.5-5.607-12.5-12.5v-52.5h25v52.5c0 6.893-5.607 12.5-12.5 12.5zm20-80h-168.707c-1.269-14.943-6.311-29.226-14.795-41.687-2.331-3.424-6.996-4.311-10.42-1.979-3.424 2.331-4.31 6.996-1.979 10.42 8.192 12.033 12.522 26.122 12.522 40.745 0 39.977-32.523 72.5-72.5 72.5s-72.5-32.523-72.5-72.5 32.523-72.5 72.5-72.5c14.62 0 28.708 4.329 40.741 12.521 3.425 2.33 8.09 1.444 10.42-1.98 2.331-3.424 1.444-8.089-1.979-10.42-14.533-9.892-31.539-15.12-49.182-15.12-45.671 0-83.275 35.173-87.162 79.853-16.499-1.538-29.459-15.458-29.459-32.353v-101.53c9.377 5.061 17.023 11.208 23.962 16.793 15.437 12.424 27.63 22.237 54.286 22.237 26.655 0 38.848-9.813 54.286-22.237 16.168-13.014 34.493-27.763 69.96-27.763 35.469 0 53.796 14.749 69.968 27.766 15.436 12.422 27.629 22.234 54.285 22.234 26.657 0 38.851-9.813 54.29-22.238 6.939-5.584 14.586-11.731 23.963-16.792v101.53c0 17.921-14.579 32.5-32.5 32.5z"/><path d="m208.622 377c-26.191 0-47.5 21.309-47.5 47.5s21.309 47.5 47.5 47.5 47.5-21.309 47.5-47.5-21.309-47.5-47.5-47.5zm0 80c-17.92 0-32.5-14.579-32.5-32.5s14.58-32.5 32.5-32.5 32.5 14.579 32.5 32.5-14.58 32.5-32.5 32.5z"/></g></g></svg>