<svg id="Capa_1" enable-background="new 0 0 512 512" height="512" viewBox="0 0 512 512" width="512" xmlns="http://www.w3.org/2000/svg"><g><g><path d="m466 106-25.133-67.022c-2.928-7.807-10.39-12.978-18.727-12.978h-220.637l-20 90h284.497z" fill="#84dfff"/></g><g><path d="m71.133 38.978-25.133 67.022v10h155.503v-90h-111.643c-8.337 0-15.799 5.171-18.727 12.978z" fill="#2fcffc"/></g><g><path d="m155.256 38.977c2.927-7.806 10.389-12.977 18.726-12.977h-84.122c-8.337 0-15.799 5.171-18.727 12.977l-25.133 67.023v10h84.122v-10z" fill="#0fbfe8"/></g><g><path d="m466 302.752-40 83.248h-340l-40-83.248v-176.752h420z" fill="#fbf081"/></g><g><path d="m46 126v176.752l40 83.248h70.6v-260z" fill="#fad271"/></g><g><path d="m466 302.752c-15.401 5.957-26.487 14.878-36.165 22.667-14.847 11.948-25.572 20.581-49.588 20.581-24.015 0-34.74-8.633-49.586-20.581-16.286-13.107-36.555-29.419-74.666-29.419-38.11 0-58.378 16.313-74.663 29.419-14.845 11.949-25.571 20.581-49.584 20.581s-34.739-8.632-49.584-20.581c-9.678-7.789-20.764-16.71-36.164-22.667v163.248h420z" fill="#84dfff"/></g><g><path d="m156.6 341.685c-6.765 2.736-14.594 4.315-24.852 4.315-24.013 0-34.739-8.632-49.584-20.581-9.678-7.789-20.764-16.71-36.164-22.667v163.248h110.6z" fill="#2fcffc"/></g><g><path d="m7.5 466c0-11.046 8.954-20 20-20h457c11.046 0 20 8.954 20 20 0 11.046-8.954 20-20 20h-457c-11.046 0-20-8.954-20-20z" fill="#be9edf"/></g><g><path d="m110.122 466c0-11.046 8.954-20 20-20h-102.622c-11.046 0-20 8.954-20 20 0 11.046 8.954 20 20 20h102.622c-11.045 0-20-8.954-20-20z" fill="#938ed9"/></g><g><path d="m7.5 126c0-11.046 8.954-20 20-20h457c11.046 0 20 8.954 20 20 0 11.046-8.954 20-20 20h-457c-11.046 0-20-8.954-20-20z" fill="#be9edf"/></g><g><path d="m110.122 126c0-11.046 8.954-20 20-20h-102.622c-11.046 0-20 8.954-20 20 0 11.046 8.954 20 20 20h102.622c-11.045 0-20-8.954-20-20z" fill="#938ed9"/></g><g><path d="m268.258 185.997-9.039.695c-13.965 1.074-24.749 12.719-24.749 26.726v7.971h16.256c14.804 0 26.805-12.001 26.805-26.805 0-5.016-4.271-8.971-9.273-8.587z" fill="#e7886e"/></g><g><path d="m276.21 212.771-43.061 3.312c-8.974.69-15.903 8.173-15.903 17.174v15.517h77.51v-18.83c-.001-10.033-8.542-17.942-18.546-17.173z" fill="#dc6646"/></g><g><path d="m267.269 213.459-34.121 2.625c-8.974.69-15.903 8.173-15.903 17.174v15.517h34.449v-18.175c0-8.89 6.762-16.295 15.575-17.141z" fill="#d85536"/></g><g><path d="m200.02 277.816v-14.192c0-9 6.93-16.484 15.903-17.174l77.51-5.962c10.004-.77 18.546 7.14 18.546 17.174v20.155h-111.959z" fill="#e7886e"/></g><g><path d="m249.252 243.886-33.329 2.564c-8.974.69-15.903 8.173-15.903 17.174v14.193h34.449v-16.883c0-8.623 6.36-15.848 14.783-17.048z" fill="#dc6646"/></g><g><path d="m256 406.028c-10.228 0-19.249-6.697-22.208-16.488l-33.772-111.724h111.96l-33.771 111.724c-2.96 9.791-11.981 16.488-22.209 16.488z" fill="#ffd3a3"/></g><g><path d="m236.696 277.816h-36.676l33.771 111.724c2.959 9.79 11.981 16.488 22.208 16.488 6.692 0 12.854-2.88 17.153-7.604z" fill="#ffbe74"/></g><path d="m484.5 438.5h-11v-285h11c15.164 0 27.5-12.336 27.5-27.5s-12.336-27.5-27.5-27.5h-13.302l-23.309-62.155c-4.002-10.674-14.35-17.845-25.749-17.845h-332.28c-11.399 0-21.747 7.171-25.749 17.844l-23.309 62.156h-13.302c-15.164 0-27.5 12.336-27.5 27.5s12.336 27.5 27.5 27.5h11v29.219c0 4.143 3.357 7.5 7.5 7.5s7.5-3.357 7.5-7.5v-29.219h405v144.259c-13.992 6.234-24.247 14.477-33.37 21.819-14.662 11.8-23.512 18.922-44.883 18.922s-30.221-7.122-44.89-18.929c-6.646-5.348-14.054-11.302-23.152-16.58l5.343-17.674h7.351c4.143 0 7.5-3.357 7.5-7.5s-3.357-7.5-7.5-7.5h-5.419v-12.655c0-6.865-2.889-13.477-7.926-18.142-2.683-2.484-5.872-4.312-9.299-5.405v-4.169c0-6.865-2.889-13.478-7.925-18.142-3.175-2.94-7.057-4.969-11.208-5.935 1.25-3.592 1.908-7.399 1.908-11.284 0-4.474-1.883-8.782-5.165-11.822-3.283-3.039-7.731-4.592-12.183-4.242l-9.039.695c-16.489 1.268-29.654 14.311-31.456 30.427-10.118 3.147-17.443 12.644-17.443 23.615v6.818c-10.006 3.214-17.225 12.656-17.225 23.549v6.692h-5.419c-4.143 0-7.5 3.357-7.5 7.5s3.357 7.5 7.5 7.5h7.351l5.341 17.67c-9.103 5.28-16.514 11.238-23.167 16.593-14.661 11.799-23.51 18.921-44.879 18.921-21.37 0-30.22-7.123-44.885-18.926-9.129-7.347-19.384-15.582-33.363-21.811v-85.044c0-4.143-3.357-7.5-7.5-7.5s-7.5 3.357-7.5 7.5v225.78h-11c-15.162 0-27.498 12.336-27.498 27.5s12.336 27.5 27.5 27.5h457c15.164 0 27.5-12.336 27.5-27.5s-12.336-27.5-27.5-27.5zm-50.656-396.889 21.333 56.889h-246.174v-65h213.137c5.181 0 9.884 3.26 11.704 8.111zm-355.688-.001c1.819-4.851 6.522-8.11 11.704-8.11h104.143v65h-137.18zm-63.156 84.39c0-6.893 5.607-12.5 12.5-12.5h457c6.893 0 12.5 5.607 12.5 12.5s-5.607 12.5-12.5 12.5h-457c-6.893 0-12.5-5.607-12.5-12.5zm244.794 68.17 9.039-.695c.393-.026.678.142.841.293.162.15.356.415.356.816 0 4.147-1.328 8.13-3.759 11.43l-23.455 1.804c2.275-7.408 8.919-13.028 16.978-13.648zm-26.07 29.391 43.062-3.312c2.732-.211 5.344.7 7.353 2.561 2.01 1.861 3.117 4.396 3.117 7.136v3.496l-62.51 4.809v-4.993c-.001-5.051 3.943-9.31 8.978-9.697zm22.31 46.755h-48.514v-6.692c0-5.05 3.944-9.309 8.979-9.696l77.511-5.963c2.728-.207 5.343.7 7.353 2.561 2.01 1.862 3.117 4.396 3.117 7.136v12.655h-18.48c-4.143 0-7.5 3.357-7.5 7.5s3.357 7.5 7.5 7.5h15.877l-30.849 102.055c-2.017 6.674-8.057 11.157-15.028 11.157s-13.012-4.483-15.029-11.157l-30.849-102.055h45.912c4.143 0 7.5-3.357 7.5-7.5s-3.357-7.501-7.5-7.501zm-202.534 44.153c9.375 5.06 17.021 11.206 23.962 16.792 15.437 12.425 27.629 22.238 54.286 22.238 26.655 0 38.848-9.813 54.29-22.241 5.665-4.56 11.476-9.234 18.232-13.464l22.343 73.916c3.944 13.05 15.755 21.817 29.388 21.817s25.443-8.768 29.387-21.817l22.342-73.911c6.752 4.228 12.563 8.901 18.231 13.463 15.437 12.424 27.63 22.237 54.287 22.237s38.851-9.813 54.29-22.238c6.935-5.581 14.585-11.729 23.963-16.79v124.029h-405v-124.031zm431 164.031h-457c-6.893 0-12.5-5.607-12.5-12.5s5.607-12.5 12.5-12.5h457c6.893 0 12.5 5.607 12.5 12.5s-5.607 12.5-12.5 12.5z"/></g></svg>