<svg id="Capa_1" enable-background="new 0 0 512 512" height="512" viewBox="0 0 512 512" width="512" xmlns="http://www.w3.org/2000/svg"><g><g><path d="m484.5 504.5h-300v-420h300c11.046 0 20 8.954 20 20v380c0 11.046-8.954 20-20 20z" fill="#be9edf"/></g><g><path d="m184.5 84.5h203v420h-203z" fill="#938ed9"/></g><g><path d="m327.5 427.5-143 77v-116.456z" fill="#2fcffc"/></g><g><path d="m327.5 427.5h-300c-11.046 0-20-8.954-20-20v-380c0-11.046 8.954-20 20-20h280c11.046 0 20 8.954 20 20z" fill="#fbf081"/></g><g><path d="m67.5 407.5v-380c0-11.046 8.954-20 20-20h-60c-11.046 0-20 8.954-20 20v380c0 11.046 8.954 20 20 20h60c-11.046 0-20-8.954-20-20z" fill="#fad271"/></g><g><g><g><ellipse cx="83.653" cy="362.863" fill="#ffa0ab" rx="30.938" ry="24.637"/></g><g><ellipse cx="251.347" cy="362.863" fill="#ffa0ab" rx="30.938" ry="24.637"/></g><g><ellipse cx="167.5" cy="343.933" fill="#333843" rx="16.423" ry="18.377"/></g></g><g><path d="m167.5 369.81c-13.191 0-23.922-11.608-23.922-25.877s10.731-25.877 23.922-25.877 23.923 11.608 23.923 25.877-10.732 25.877-23.923 25.877zm0-36.754c-4.92 0-8.922 4.879-8.922 10.877s4.002 10.877 8.922 10.877 8.923-4.879 8.923-10.877-4.003-10.877-8.923-10.877z"/></g><g><path d="m119.15 340.438c-4.142 0-7.5-3.357-7.5-7.5 0-3.454-2.811-6.265-6.265-6.265s-6.265 2.811-6.265 6.265c0 4.143-3.358 7.5-7.5 7.5s-7.5-3.357-7.5-7.5c0-11.726 9.54-21.265 21.265-21.265s21.265 9.539 21.265 21.265c0 4.142-3.358 7.5-7.5 7.5z"/></g><g><path d="m242.195 340.438c-4.142 0-7.5-3.357-7.5-7.5 0-3.454-2.811-6.265-6.265-6.265s-6.265 2.811-6.265 6.265c0 4.143-3.358 7.5-7.5 7.5s-7.5-3.357-7.5-7.5c0-11.726 9.54-21.265 21.265-21.265s21.265 9.539 21.265 21.265c0 4.142-3.358 7.5-7.5 7.5z"/></g></g><g><path d="m179.758 47.526-9.039.695c-13.965 1.074-24.749 12.719-24.749 26.726v7.971h16.256c14.804 0 26.805-12.001 26.805-26.805 0-5.017-4.271-8.972-9.273-8.587z" fill="#e7886e"/></g><g><path d="m187.71 74.3-43.061 3.312c-8.974.69-15.903 8.173-15.903 17.174v15.517h77.51v-18.83c-.001-10.033-8.542-17.943-18.546-17.173z" fill="#dc6646"/></g><g><path d="m178.769 74.987-34.121 2.625c-8.974.69-15.903 8.173-15.903 17.174v15.517h34.449v-18.175c0-8.89 6.762-16.295 15.575-17.141z" fill="#d85536"/></g><g><path d="m111.52 139.345v-14.192c0-9 6.93-16.484 15.903-17.174l77.51-5.962c10.004-.77 18.546 7.14 18.546 17.174v20.155h-111.959z" fill="#e7886e"/></g><g><path d="m160.752 105.415-33.329 2.564c-8.974.69-15.903 8.173-15.903 17.174v14.193h34.449v-16.883c0-8.623 6.36-15.848 14.783-17.048z" fill="#dc6646"/></g><g><path d="m167.5 267.557c-10.228 0-19.249-6.697-22.208-16.488l-33.772-111.724h111.96l-33.771 111.724c-2.96 9.79-11.981 16.488-22.209 16.488z" fill="#ffd3a3"/></g><g><path d="m148.196 139.345h-36.676l33.771 111.724c2.959 9.79 11.981 16.488 22.208 16.488 6.692 0 12.854-2.88 17.153-7.604z" fill="#ffbe74"/></g><g><path d="m444.5 437h-57c-4.143 0-7.5 3.357-7.5 7.5s3.357 7.5 7.5 7.5h57c4.143 0 7.5-3.357 7.5-7.5s-3.357-7.5-7.5-7.5z"/><path d="m504.5 285.466c4.143 0 7.5-3.357 7.5-7.5v-173.466c0-15.163-12.337-27.5-27.5-27.5h-149.5v-49.5c0-15.163-12.337-27.5-27.5-27.5h-280c-15.164 0-27.5 12.337-27.5 27.5v380c0 15.163 12.336 27.5 27.5 27.5h149.5v69.5c0 4.143 3.358 7.5 7.5 7.5h300c15.163 0 27.5-12.337 27.5-27.5v-176.534c0-4.143-3.357-7.5-7.5-7.5s-7.5 3.357-7.5 7.5v176.534c0 6.893-5.607 12.5-12.5 12.5h-270.252l116.794-62.889c2.356-1.265 3.958-3.75 3.958-6.611v-35.5h109.5c4.143 0 7.5-3.357 7.5-7.5s-3.357-7.5-7.5-7.5h-109.5v-45h109.5c4.143 0 7.5-3.357 7.5-7.5s-3.357-7.5-7.5-7.5h-109.5v-45h109.5c4.143 0 7.5-3.357 7.5-7.5s-3.357-7.5-7.5-7.5h-109.5v-45h109.5c4.143 0 7.5-3.357 7.5-7.5s-3.357-7.5-7.5-7.5h-109.5v-45h109.5c4.143 0 7.5-3.357 7.5-7.5s-3.357-7.5-7.5-7.5h-109.5v-45h149.5c6.893 0 12.5 5.607 12.5 12.5v173.466c0 4.142 3.357 7.5 7.5 7.5zm-489.5 122.034v-380c0-6.893 5.607-12.5 12.5-12.5h280c6.893 0 12.5 5.607 12.5 12.5v392.5h-292.5c-6.893 0-12.5-5.607-12.5-12.5zm282.752 27.5-105.752 56.943v-56.943z"/><path d="m236.398 131.845h-5.418v-12.655c0-6.864-2.889-13.477-7.926-18.141-2.682-2.484-5.872-4.313-9.299-5.406v-4.169c0-6.864-2.889-13.477-7.925-18.141-3.174-2.94-7.058-4.971-11.207-5.938 1.25-3.592 1.907-7.397 1.907-11.282 0-4.474-1.883-8.783-5.166-11.822-3.283-3.04-7.722-4.593-12.183-4.241l-9.039.695c-16.49 1.268-29.655 14.311-31.456 30.427-10.118 3.147-17.443 12.644-17.443 23.615v6.817c-10.006 3.215-17.225 12.656-17.225 23.549v6.692h-5.418c-4.142 0-7.5 3.357-7.5 7.5s3.358 7.5 7.5 7.5h7.35l10.659 35.262c.98 3.242 3.956 5.332 7.176 5.332.719 0 1.45-.104 2.173-.323 3.965-1.198 6.208-5.384 5.009-9.349l-9.347-30.922h91.755l-30.848 102.055c-2.018 6.674-8.057 11.157-15.029 11.157s-13.012-4.483-15.029-11.157l-12.804-42.36c-1.199-3.966-5.387-6.202-9.349-5.01-3.965 1.199-6.208 5.385-5.009 9.35l12.804 42.36c3.945 13.05 15.755 21.817 29.388 21.817s25.443-8.768 29.388-21.817l32.16-106.395h7.35c4.142 0 7.5-3.357 7.5-7.5s-3.357-7.5-7.499-7.5zm-65.104-76.146 9.041-.695c.403-.021.677.143.84.293s.356.414.356.816c0 4.146-1.329 8.129-3.759 11.429l-23.456 1.804c2.274-7.407 8.919-13.026 16.978-13.647zm-26.07 29.391 43.061-3.313c2.728-.209 5.343.699 7.354 2.562 2.01 1.861 3.117 4.395 3.117 7.135v3.496l-62.511 4.809v-4.992c0-5.051 3.944-9.309 8.979-9.697zm-26.204 40.062c0-5.05 3.944-9.309 8.979-9.696l77.51-5.963c2.73-.205 5.343.7 7.354 2.562 2.01 1.861 3.117 4.396 3.117 7.135v12.655h-96.96z"/></g></g></svg>