<svg id="Capa_1" enable-background="new 0 0 511.986 511.986" height="512" viewBox="0 0 511.986 511.986" width="512" xmlns="http://www.w3.org/2000/svg"><g><g><path d="m404.029 364.889-133.654 133.654c-7.943 7.943-20.821 7.943-28.764 0l-133.653-133.654c-81.758-81.758-81.758-214.313 0-296.071 81.758-81.758 214.313-81.758 296.071 0 81.757 81.758 81.757 214.313 0 296.071z" fill="#be9edf"/></g><g><path d="m207.958 364.889c-81.758-81.758-81.758-214.313 0-296.071 28.063-28.063 62.111-46.492 98.035-55.29-68.736-16.834-144.341 1.595-198.035 55.29-81.758 81.758-81.758 214.313 0 296.071l133.654 133.654c7.943 7.943 20.821 7.943 28.764 0l35.618-35.618z" fill="#938ed9"/></g><g><path d="m87.401 232.902 27.592 42.534h141 141l27.592-42.534c.497-5.283.762-10.634.762-16.048 0-93.532-75.822-169.354-169.354-169.354s-169.354 75.822-169.354 169.354c0 5.413.265 10.764.762 16.048z" fill="#fbf081"/></g><g><path d="m154.973 275.436c-20.61-70.959-2.955-150.677 52.985-206.617 7.07-7.07 14.522-13.526 22.286-19.373-81.311 12.403-143.605 82.63-143.605 167.408 0 5.413.265 10.764.762 16.048l27.592 42.534z" fill="#fad271"/></g><g><path d="m396.717 250.68c-12.019 9.672-20.701 16.661-40.143 16.661-19.44 0-28.123-6.988-40.141-16.66-13.184-10.611-29.592-23.816-60.444-23.816-30.851 0-47.258 13.205-60.442 23.816-12.017 9.672-20.7 16.66-40.139 16.66s-28.122-6.988-40.139-16.66c-7.535-6.064-16.133-12.969-27.868-17.779 8.086 86.004 80.474 153.306 168.592 153.306s160.507-67.303 168.592-153.306c-11.736 4.809-20.334 11.714-27.868 17.778z" fill="#84dfff"/></g><g><path d="m226.752 383.684-18.795-18.795c-27.949-27.949-46.337-61.835-55.177-97.598-17.616-.609-26.052-7.387-37.512-16.611-7.535-6.064-16.133-12.969-27.868-17.779 7.171 76.271 64.916 137.825 139.352 150.783z" fill="#2fcffc"/></g><g><path d="m270.299 88.474-10.549.812c-16.298 1.254-28.884 14.844-28.884 31.191v9.302h18.972c17.277 0 31.283-14.006 31.283-31.283 0-5.856-4.984-10.471-10.822-10.022z" fill="#e7886e"/></g><g><path d="m279.579 119.72-50.255 3.866c-10.473.806-18.56 9.539-18.56 20.043v18.11h90.46v-21.976c-.001-11.709-9.97-20.941-21.645-20.043z" fill="#dc6646"/></g><g><path d="m269.145 120.523-39.821 3.063c-10.473.806-18.56 9.539-18.56 20.043v18.11h40.204v-21.212c0-10.375 7.891-19.017 18.177-20.004z" fill="#d85536"/></g><g><path d="m190.661 195.632v-16.564c0-10.504 8.087-19.237 18.56-20.043l90.46-6.958c11.675-.898 21.644 8.333 21.644 20.043v23.522z" fill="#e7886e"/></g><g><path d="m248.118 156.034-38.897 2.992c-10.473.806-18.56 9.539-18.56 20.043v16.564h40.204v-19.704c0-10.063 7.423-18.495 17.253-19.895z" fill="#dc6646"/></g><g><path d="m255.993 345.264c-11.936 0-22.465-7.816-25.919-19.242l-39.413-130.39h130.664l-39.413 130.39c-3.454 11.426-13.982 19.242-25.919 19.242z" fill="#ffd3a3"/></g><g><path d="m233.465 195.632h-42.803l39.413 130.39c3.454 11.426 13.982 19.242 25.919 19.242 7.81 0 15.002-3.361 20.019-8.874z" fill="#ffbe74"/></g><g><path d="m409.332 63.515c-40.958-40.958-95.415-63.515-153.339-63.515s-112.381 22.557-153.339 63.515c-40.958 40.959-63.515 95.415-63.515 153.339s22.557 112.381 63.515 153.339l40.573 40.573c2.929 2.928 7.678 2.928 10.606 0 2.929-2.93 2.929-7.678 0-10.607l-40.573-40.573c-38.125-38.124-59.122-88.814-59.122-142.731s20.997-104.606 59.122-142.731c38.126-38.128 88.816-59.124 142.733-59.124s104.607 20.996 142.733 59.122c38.125 38.125 59.122 88.814 59.122 142.731s-20.997 104.607-59.122 142.731l-133.654 133.655c-5.006 5.007-13.151 5.007-18.157 0l-71.718-71.718c-2.929-2.928-7.678-2.928-10.606 0-2.929 2.93-2.929 7.678 0 10.607l71.718 71.718c5.427 5.427 12.556 8.14 19.685 8.14s14.258-2.713 19.685-8.14l133.654-133.654c40.958-40.958 63.515-95.415 63.515-153.339s-22.558-112.379-63.516-153.338z"/><path d="m432.847 216.854c0-97.517-79.336-176.854-176.854-176.854s-176.854 79.337-176.854 176.854 79.336 176.854 176.854 176.854 176.854-79.336 176.854-176.854zm-176.854-161.854c89.247 0 161.854 72.607 161.854 161.854 0 3.698-.136 7.364-.382 11.001-10.635 5.059-18.808 11.635-25.454 16.985-11.625 9.354-18.641 15-35.437 15s-23.813-5.646-35.438-15.003c-1.703-1.37-3.566-2.864-5.525-4.381l11.282-37.325h9.508c4.142 0 7.5-3.357 7.5-7.5s-3.358-7.5-7.5-7.5h-7.577v-16.021c0-7.664-3.225-15.046-8.848-20.253-3.222-2.984-7.096-5.128-11.254-6.305v-5.789c0-7.664-3.225-15.046-8.848-20.253-3.897-3.609-8.747-5.988-13.901-6.913 1.736-4.45 2.647-9.222 2.647-14.102 0-4.873-2.051-9.566-5.626-12.878-3.576-3.311-8.417-4.996-13.271-4.621l-10.549.812c-18.922 1.455-33.974 16.623-35.648 35.218-11.704 3.254-20.263 14.07-20.263 26.603v8.885c-11.621 3.309-20.102 14.08-20.102 26.554v9.063h-7.577c-4.142 0-7.5 3.357-7.5 7.5s3.358 7.5 7.5 7.5h9.508l11.281 37.322c-1.961 1.519-3.824 3.011-5.53 4.384-11.623 9.355-18.639 15.003-35.437 15.003s-23.813-5.647-35.437-15.003c-6.648-5.35-14.819-11.925-25.45-16.983-.245-3.637-.382-7.302-.382-11 .002-89.247 72.61-161.854 161.856-161.854zm-55.23 148.132h57.249c4.142 0 7.5-3.357 7.5-7.5s-3.358-7.5-7.5-7.5h-59.851v-9.063c0-6.544 5.111-12.063 11.636-12.565l90.46-6.958c3.535-.271 6.924.906 9.529 3.318s4.04 5.696 4.04 9.247v16.021h-25.813c-4.142 0-7.5 3.357-7.5 7.5s3.358 7.5 7.5 7.5h23.211l-36.491 120.721c-2.515 8.321-10.046 13.912-18.739 13.912s-16.224-5.591-18.739-13.912zm67.883-90.092-29.688 2.283c2.243-9.976 10.815-17.749 21.367-18.561l10.549-.812c.967-.066 1.624.39 1.929.672.306.283.818.902.818 1.872 0 5.303-1.759 10.393-4.975 14.546zm-38.747 18.023 50.256-3.865c3.537-.269 6.923.907 9.529 3.318 2.605 2.412 4.04 5.696 4.04 9.247v5.24l-75.46 5.804v-7.179c-.001-6.543 5.11-12.063 11.635-12.565zm-133.066 115.246c5.122 3.293 9.6 6.889 13.733 10.215 12.211 9.829 22.757 18.317 44.842 18.317s32.631-8.488 44.842-18.318c.261-.21.527-.423.789-.634l21.856 72.304c4.442 14.697 17.744 24.572 33.098 24.572s28.655-9.875 33.098-24.572l21.855-72.3c.262.21.527.423.787.632 12.212 9.828 22.759 18.316 44.842 18.316 22.082 0 32.629-8.487 44.845-18.317 4.133-3.327 8.61-6.924 13.734-10.219-13.888 75.233-79.97 132.403-159.161 132.403-79.189 0-145.271-57.168-159.16-132.399z"/></g></g></svg>