<svg id="Capa_1" enable-background="new 0 0 512 512" height="512" viewBox="0 0 512 512" width="512" xmlns="http://www.w3.org/2000/svg"><g><g><path d="m47.5 177.5h417v35.667c0 11.046-8.954 20-20 20h-377c-11.046 0-20-8.954-20-20z" fill="#17d9bf"/></g><g><path d="m127.5 213.167v-35.667h-80v35.667c0 11.046 8.954 20 20 20h80c-11.046 0-20-8.955-20-20z" fill="#0accab"/></g><g><path d="m67.5 278.833h377c11.046 0 20 8.954 20 20v35.667h-417v-35.667c0-11.045 8.954-20 20-20z" fill="#17d9bf"/></g><g><path d="m147.5 278.833h-80c-11.046 0-20 8.954-20 20v35.667h80v-35.667c0-11.045 8.954-20 20-20z" fill="#0accab"/></g><g><path d="m504.5 147.5c0-77.32-111.257-140-248.5-140s-248.5 62.68-248.5 140c0 22.091 17.909 40 40 40h417c22.091 0 40-17.909 40-40z" fill="#50e3cf"/></g><g><path d="m296 9.314c-13.024-1.187-26.381-1.814-40-1.814-137.243 0-248.5 62.68-248.5 140 0 22.091 17.909 40 40 40h40v-40c0-69.647 90.278-127.406 208.5-138.186z" fill="#17d9bf"/></g><g><path d="m7.5 364.5c0 77.32 111.257 140 248.5 140s248.5-62.68 248.5-140c0-22.091-17.909-40-40-40h-417c-22.091 0-40 17.909-40 40z" fill="#50e3cf"/></g><g><path d="m70.333 233.167h371.333c12.611 0 22.833 10.223 22.833 22.833 0 12.61-10.223 22.833-22.833 22.833h-371.333c-12.61 0-22.833-10.223-22.833-22.833 0-12.611 10.223-22.833 22.833-22.833z" fill="#fffddb"/></g><g><path d="m256 256c0-12.611 10.223-22.833 22.833-22.833h-208.5c-12.61 0-22.833 10.223-22.833 22.833 0 12.61 10.223 22.833 22.833 22.833h208.5c-12.61 0-22.833-10.223-22.833-22.833z" fill="#fff3ac"/></g><g><g><g><ellipse cx="172.153" cy="117.026" fill="#ffa0ab" rx="30.938" ry="24.637"/></g><g><ellipse cx="339.847" cy="117.026" fill="#ffa0ab" rx="30.938" ry="24.637"/></g><g><ellipse cx="256" cy="98.096" fill="#333843" rx="16.423" ry="18.377"/></g></g><g><path d="m256 123.974c-13.191 0-23.923-11.608-23.923-25.877s10.732-25.877 23.923-25.877 23.923 11.608 23.923 25.877-10.732 25.877-23.923 25.877zm0-36.754c-4.92 0-8.923 4.879-8.923 10.877s4.003 10.877 8.923 10.877 8.923-4.879 8.923-10.877-4.003-10.877-8.923-10.877z"/></g><g><path d="m207.649 94.602c-4.143 0-7.5-3.357-7.5-7.5 0-3.455-2.811-6.266-6.265-6.266-3.455 0-6.266 2.811-6.266 6.266 0 4.143-3.357 7.5-7.5 7.5s-7.5-3.357-7.5-7.5c0-11.726 9.54-21.266 21.266-21.266s21.265 9.54 21.265 21.266c0 4.142-3.357 7.5-7.5 7.5z"/></g><g><path d="m330.694 94.602c-4.143 0-7.5-3.357-7.5-7.5 0-3.455-2.811-6.266-6.265-6.266-3.455 0-6.266 2.811-6.266 6.266 0 4.143-3.357 7.5-7.5 7.5s-7.5-3.357-7.5-7.5c0-11.726 9.54-21.266 21.266-21.266s21.265 9.54 21.265 21.266c0 4.142-3.357 7.5-7.5 7.5z"/></g></g><g><path d="m296 502.686c-13.024 1.188-26.381 1.814-40 1.814-137.243 0-248.5-62.68-248.5-140 0-22.091 17.909-40 40-40h40v40c0 69.647 90.278 127.406 208.5 138.186z" fill="#17d9bf"/></g><g><circle cx="357.12" cy="434.771" fill="#17d9bf" r="20"/></g><g><circle cx="163.167" cy="392.229" fill="#17d9bf" r="20"/></g><g><circle cx="325.695" cy="377.229" fill="#17d9bf" r="15"/></g><g><circle cx="426.111" cy="128.395" fill="#17d9bf" r="15"/></g><path d="m472 317.598v-18.765c0-8.297-3.699-15.743-9.529-20.789 5.861-5.534 9.529-13.366 9.529-22.044s-3.668-16.51-9.529-22.044c5.83-5.047 9.529-12.492 9.529-20.789v-18.765c22.64-3.607 40-23.263 40-46.902 0-40.222-27.204-77.7-76.603-105.529-48.041-27.066-111.751-41.971-179.397-41.971s-131.356 14.905-179.397 41.971c-49.399 27.829-76.603 65.307-76.603 105.529 0 23.639 17.36 43.295 40 46.902v18.765c0 8.297 3.699 15.743 9.529 20.789-5.861 5.534-9.529 13.366-9.529 22.044s3.668 16.51 9.529 22.044c-5.83 5.046-9.529 12.492-9.529 20.789v18.765c-22.64 3.607-40 23.263-40 46.902 0 31.574 16.782 61.589 48.531 86.798 3.246 2.576 7.963 2.033 10.538-1.21 2.575-3.244 2.033-7.962-1.21-10.538-28.039-22.262-42.859-48.214-42.859-75.05 0-17.921 14.579-32.5 32.5-32.5h417c17.921 0 32.5 14.579 32.5 32.5 0 34.569-24.492 67.405-68.965 92.461-45.83 25.819-106.927 40.039-172.035 40.039-66.256 0-128.106-14.649-174.158-41.25-3.583-2.072-8.174-.844-10.245 2.743-2.072 3.586-.844 8.174 2.743 10.245 48.297 27.898 112.811 43.262 181.66 43.262 67.646 0 131.356-14.905 179.397-41.971 49.399-27.829 76.603-65.307 76.603-105.529 0-23.639-17.36-43.295-40-46.902zm-457-170.098c0-34.569 24.492-67.405 68.965-92.461 45.83-25.819 106.927-40.039 172.035-40.039s126.205 14.22 172.035 40.039c44.473 25.056 68.965 57.892 68.965 92.461 0 17.921-14.579 32.5-32.5 32.5h-417c-17.921 0-32.5-14.579-32.5-32.5zm52.5 78.167c-6.893 0-12.5-5.607-12.5-12.5v-18.167h402v18.167c0 6.893-5.607 12.5-12.5 12.5-.319 0-.631.026-.94.065-.627-.039-1.257-.065-1.893-.065h-86.819c-4.143 0-7.5 3.357-7.5 7.5s3.357 7.5 7.5 7.5h86.819c8.455 0 15.333 6.878 15.333 15.333s-6.878 15.333-15.333 15.333h-371.334c-8.455 0-15.333-6.878-15.333-15.333s6.878-15.333 15.333-15.333h254.514c4.143 0 7.5-3.357 7.5-7.5s-3.357-7.5-7.5-7.5h-254.514c-.636 0-1.266.026-1.893.065-.309-.039-.621-.065-.94-.065zm2.833 60.666h371.334c.636 0 1.266-.026 1.893-.065.309.039.621.065.94.065 6.893 0 12.5 5.607 12.5 12.5v18.167h-402v-18.167c0-6.893 5.607-12.5 12.5-12.5.319 0 .631-.026.94-.065.627.039 1.257.065 1.893.065z"/></g></svg>