<svg id="Capa_1" enable-background="new 0 0 512 512" height="512" viewBox="0 0 512 512" width="512" xmlns="http://www.w3.org/2000/svg"><g><g><path d="m264.5 286h-108.5l28.5-40h80z" fill="#0fbfe8"/></g><g><path d="m166.746 308.006-137 15.48c-11.86 1.34-22.246-7.938-22.246-19.874v-37.612c0-11.046 8.954-20 20-20h157v42.133c0 10.176-7.642 18.731-17.754 19.873z" fill="#e7886e"/></g><g><path d="m47.5 299.613v-33.613c0-11.046 8.954-20 20-20h-40c-11.046 0-20 8.954-20 20v37.613c0 11.935 10.386 21.214 22.246 19.874l35.446-4.005c-9.843-1.131-17.692-9.494-17.692-19.869z" fill="#dc6646"/></g><g><path d="m484.5 282.065c0 66.274-53.726 120-120 120s-120-53.726-120-120v-36.065h240z" fill="#2fcffc"/></g><g><path d="m244.5 229.935c0-66.274 53.726-120 120-120s120 53.726 120 120v16.065h-240z" fill="#fffddb"/></g><g><path d="m394.5 113.716c-9.589-2.468-19.641-3.781-30-3.781-66.274 0-120 53.726-120 120v16.065h60v-16.065c0-55.915 38.243-102.898 90-116.219z" fill="#fff3ac"/></g><g><path d="m484.5 266h-240c-11.046 0-20-8.954-20-20 0-11.046 8.954-20 20-20h240c11.046 0 20 8.954 20 20 0 11.046-8.954 20-20 20z" fill="#84dfff"/></g><g><path d="m284.5 246c0-11.046 8.954-20 20-20h-60c-11.046 0-20 8.954-20 20 0 11.046 8.954 20 20 20h60c-11.046 0-20-8.954-20-20z" fill="#2fcffc"/></g><g><path d="m334.5 216v110c0 11.046 8.954 20 20 20 11.046 0 20-8.954 20-20v-40c0-11.046 8.954-20 20-20 11.046 0 20 8.954 20 20 0 11.046 8.954 20 20 20 11.046 0 20-8.954 20-20v-70z" fill="#fffddb"/></g><g><path d="m299.551 160.993v12c0 4.143 3.358 7.5 7.5 7.5s7.5-3.357 7.5-7.5v-12c0-4.143-3.358-7.5-7.5-7.5s-7.5 3.358-7.5 7.5z"/><path d="m414.449 160.993v12c0 4.143 3.358 7.5 7.5 7.5s7.5-3.357 7.5-7.5v-12c0-4.143-3.358-7.5-7.5-7.5s-7.5 3.358-7.5 7.5z"/><path d="m386.093 180.148c0 3.835-3.12 6.955-6.956 6.955s-6.956-3.12-6.956-6.955c0-4.143-3.358-7.5-7.5-7.5s-7.5 3.357-7.5 7.5c0 3.835-3.12 6.955-6.956 6.955s-6.956-3.12-6.956-6.955c0-4.143-3.358-7.5-7.5-7.5s-7.5 3.357-7.5 7.5c0 12.106 9.849 21.955 21.956 21.955 5.533 0 10.59-2.062 14.456-5.451 3.865 3.389 8.923 5.451 14.456 5.451 12.106 0 21.956-9.849 21.956-21.955 0-4.143-3.358-7.5-7.5-7.5s-7.5 3.358-7.5 7.5z"/><path d="m512 246c0-12.719-8.681-23.445-20.429-26.574-2.012-24.74-11.085-48.065-26.404-67.745-2.545-3.269-7.256-3.857-10.525-1.311-3.269 2.544-3.855 7.256-1.312 10.525 13.067 16.786 20.963 36.584 23.076 57.604h-21.686l-.25.001c-4.131.017-7.471 3.369-7.471 7.5v60c0 6.893-5.607 12.5-12.5 12.5s-12.499-5.607-12.499-12.5c0-15.163-12.336-27.5-27.5-27.5s-27.5 12.337-27.5 27.5v40c0 6.893-5.607 12.5-12.5 12.5s-12.5-5.607-12.5-12.5v-99.995c0-.306-.097-7.497-8.508-7.501l-80.914-.003c5.728-57.174 53.695-101.066 111.921-101.066 25.21 0 49.036 8.147 68.902 23.563 3.272 2.537 7.983 1.944 10.523-1.328s1.945-7.984-1.328-10.523c-22.521-17.475-49.527-26.711-78.097-26.711-33.075 0-64.427 12.61-88.281 35.507-22.6 21.694-36.254 50.472-38.782 81.482-9.349 2.488-16.751 9.789-19.388 19.076h-190.548c-15.164-.001-27.5 12.336-27.5 27.499v37.613c0 7.821 3.345 15.296 9.178 20.507 5.063 4.523 11.607 6.992 18.33 6.992 1.024 0 2.053-.058 3.08-.174l137-15.48c12.094-1.366 21.6-10.418 23.884-21.958h46.041c2.138 24.357 11.102 47.242 26.269 66.754 1.479 1.902 3.691 2.897 5.927 2.897 1.608 0 3.229-.515 4.598-1.578 3.27-2.543 3.86-7.255 1.318-10.524-15.456-19.883-23.625-43.737-23.625-68.984v-8.565h75v52.5c0 15.163 12.336 27.5 27.5 27.5s27.5-12.337 27.5-27.5v-40c0-6.893 5.607-12.5 12.5-12.5s12.5 5.607 12.5 12.5c0 15.163 12.336 27.5 27.5 27.5s27.5-12.337 27.5-27.5v-12.5h15v8.565c0 62.032-50.467 112.5-112.5 112.5-25.248 0-49.101-8.169-68.982-23.624-3.269-2.543-7.982-1.951-10.524 1.317-2.542 3.271-1.952 7.982 1.318 10.524 22.538 17.521 49.575 26.782 78.188 26.782 70.304 0 127.5-57.196 127.5-127.5v-9.614c11.528-3.272 20-13.887 20-26.45zm-293.952 7.5c2.596 9.142 9.81 16.355 18.952 18.952v6.048h-45v-25zm-41.048 34.633c0 6.366-4.771 11.706-11.097 12.421l-137 15.48c-3.587.406-7.042-.696-9.732-3.1-2.69-2.403-4.172-5.714-4.172-9.321v-37.613c0-6.893 5.607-12.5 12.5-12.5h149.501zm150-29.633h-82.5c-6.893 0-12.5-5.607-12.5-12.5s5.607-12.5 12.5-12.5c.734 0 61.047 0 82.5.003zm157.5 0h-22.5v-25h22.5c6.893 0 12.5 5.607 12.5 12.5s-5.607 12.5-12.5 12.5z"/></g></g></svg>