<svg id="Capa_1" enable-background="new 0 0 512 512" height="512" viewBox="0 0 512 512" width="512" xmlns="http://www.w3.org/2000/svg"><g><g><path d="m454.5 504.5h-397c-27.614 0-50-22.386-50-50v-337c0-27.614 22.386-50 50-50h397c27.614 0 50 22.386 50 50v337c0 27.614-22.386 50-50 50z" fill="#84dfff"/></g><g><path d="m256 67.5h-198.5c-27.614 0-50 22.386-50 50v337c0 27.614 22.386 50 50 50h198.5c-11.046 0-20-8.954-20-20s8.954-20 20-20v-158.5c-11.046 0-20-8.954-20-20s8.954-20 20-20v-158.5c-11.046 0-20-8.954-20-20s8.954-20 20-20z" fill="#2fcffc"/></g><g><path d="m464.5 256v-138.5c0-5.523-4.477-10-10-10h-397c-5.523 0-10 4.477-10 10v138.5c0 5.523 4.477 10 10 10h397c5.523 0 10-4.477 10-10z" fill="#fffddb"/></g><g><path d="m87.5 256v-138.5c0-5.523 4.477-10 10-10h-40c-5.523 0-10 4.477-10 10v138.5c0 5.523 4.477 10 10 10h40c-5.523 0-10-4.477-10-10z" fill="#fff3ac"/></g><g><path d="m47.5 316v138.5c0 5.523 4.477 10 10 10h397c5.523 0 10-4.477 10-10v-138.5c0-5.523-4.477-10-10-10h-397c-5.523 0-10 4.477-10 10z" fill="#e7886e"/></g><g><path d="m87.5 454.5v-138.5c0-5.523 4.477-10 10-10h-40c-5.523 0-10 4.477-10 10v138.5c0 5.523 4.477 10 10 10h40c-5.523 0-10-4.477-10-10z" fill="#dc6646"/></g><g><path d="m127.5 67.5h40v135.5h-40z" fill="#938ed9"/></g><g><circle cx="147.5" cy="67.5" fill="#be9edf" r="60"/></g><g><path d="m201.833 166c-20.255 0-38.153 10.047-49.017 25.419-8.096-7.104-18.699-11.419-30.316-11.419-21.04 0-38.781 14.126-44.256 33.411-1.796 6.325 3.088 12.589 9.663 12.589h162.925c6.26 0 11.062-5.703 9.833-11.842-5.498-27.466-29.748-48.158-58.832-48.158z" fill="#fff3ac"/></g><g><path d="m392.788 197.5c6.907 0 11.735-6.837 9.431-13.349-5.495-15.528-20.308-26.651-37.719-26.651s-32.223 11.123-37.719 26.651c-2.304 6.511 2.524 13.349 9.431 13.349z" fill="#fff3ac"/></g><g><path d="m186.499 406c6.26 0 11.062-5.703 9.833-11.842-5.498-27.465-29.749-48.158-58.832-48.158s-53.334 20.693-58.832 48.158c-1.228 6.139 3.573 11.842 9.833 11.842z" fill="#dc6646"/></g><g><path d="m344.5 289.083h40v119.25h-40z" fill="#fad271"/></g><g><circle cx="364.5" cy="289.083" fill="#fbf081" r="60"/></g><g><path d="m378.5 378.5c-11.617 0-22.22 4.315-30.316 11.419-10.865-15.372-28.762-25.419-49.017-25.419-29.083 0-53.334 20.692-58.832 48.158-1.229 6.139 3.572 11.842 9.833 11.842h162.925c6.575 0 11.459-6.264 9.663-12.589-5.475-19.285-23.216-33.411-44.256-33.411z" fill="#dc6646"/></g><g><path d="m454.5 60h-239.927c-3.744-33.702-32.39-60-67.073-60s-63.329 26.298-67.073 60h-22.927c-31.706 0-57.5 25.794-57.5 57.5v337c0 31.706 25.794 57.5 57.5 57.5h397c31.706 0 57.5-25.794 57.5-57.5v-337c0-31.706-25.794-57.5-57.5-57.5zm-307-45c28.949 0 52.5 23.552 52.5 52.5s-23.551 52.5-52.5 52.5-52.5-23.552-52.5-52.5 23.551-52.5 52.5-52.5zm-25 172.5c9.336 0 18.346 3.394 25.37 9.557 1.598 1.402 3.715 2.053 5.827 1.811 2.111-.25 4.017-1.384 5.244-3.119 9.846-13.932 25.88-22.248 42.893-22.248 24.941 0 46.591 17.719 51.478 42.13.175.878-.175 1.534-.5 1.93-.288.352-.927.94-1.979.94h-162.926c-1.15 0-1.816-.717-2.049-1.025-.322-.427-.653-1.122-.399-2.016 4.674-16.463 19.905-27.96 37.041-27.96zm29-6.449c-5.072-3.276-10.654-5.654-16.5-7.061v-40.169c4.054.762 8.228 1.179 12.5 1.179s8.446-.417 12.5-1.179v39.26c-3.037 2.399-5.891 5.052-8.5 7.97zm345.5 273.449c0 23.435-19.065 42.5-42.5 42.5h-397c-23.435 0-42.5-19.065-42.5-42.5v-337c0-23.435 19.065-42.5 42.5-42.5h22.927c.997 8.978 3.758 17.43 7.935 25h-30.862c-9.649 0-17.5 7.851-17.5 17.5v92.129c0 4.143 3.358 7.5 7.5 7.5s7.5-3.357 7.5-7.5v-92.129c0-1.379 1.122-2.5 2.5-2.5h42.095c5.834 5.884 12.747 10.689 20.405 14.121v43.443c-22.778 1.073-42.703 16.721-48.971 38.797-1.491 5.252-.448 10.776 2.861 15.156 3.353 4.438 8.462 6.982 14.017 6.982h162.925c5.28 0 10.23-2.344 13.581-6.431 3.313-4.042 4.627-9.284 3.606-14.383-6.285-31.398-34.12-54.187-66.186-54.187-9.352 0-18.466 1.969-26.833 5.604v-34.983c7.659-3.431 14.571-8.237 20.405-14.121h259.095c1.378 0 2.5 1.121 2.5 2.5v138.502c0 1.379-1.122 2.5-2.5 2.5h-29.856c-11.175-21.886-33.93-36.917-60.144-36.917s-48.969 15.031-60.144 36.917h-246.856c-1.378 0-2.5-1.121-2.5-2.5v-16.365c0-4.143-3.358-7.5-7.5-7.5s-7.5 3.357-7.5 7.5v16.365c0 9.649 7.851 17.5 17.5 17.5h241.336c-1.188 5.006-1.836 10.219-1.836 15.583 0 3.197.239 6.337.671 9.417h-240.171c-9.649 0-17.5 7.851-17.5 17.5v138.5c0 9.649 7.851 17.5 17.5 17.5h397c9.649 0 17.5-7.851 17.5-17.5v-138.5c0-9.649-7.851-17.5-17.5-17.5h-23.171c.432-3.08.671-6.22.671-9.417 0-5.364-.648-10.577-1.836-15.583h24.336c9.649 0 17.5-7.851 17.5-17.5v-138.5c0-9.649-7.851-17.5-17.5-17.5h-247.861c4.177-7.57 6.937-16.022 7.935-25h239.926c23.435 0 42.5 19.065 42.5 42.5zm-80-165.417c0 28.948-23.551 52.5-52.5 52.5s-52.5-23.552-52.5-52.5 23.551-52.5 52.5-52.5 52.5 23.552 52.5 52.5zm-40 81.944c-8.832.248-17.408 2.679-25 7.014v-22.638c4.054.762 8.228 1.179 12.5 1.179s8.446-.417 12.5-1.179zm-40-20.323v17.915c-6.358-4.315-13.438-7.549-20.959-9.488-4.008-1.035-8.101 1.379-9.134 5.391s1.38 8.102 5.391 9.135c11.991 3.09 22.56 10.403 29.761 20.592 1.227 1.735 3.133 2.869 5.244 3.119 2.113.25 4.229-.408 5.827-1.811 7.024-6.163 16.034-9.557 25.37-9.557 17.135 0 32.367 11.497 37.041 27.959.254.894-.077 1.589-.399 2.016-.233.309-.899 1.025-2.049 1.025h-162.925c-1.052 0-1.692-.589-1.979-.939-.325-.396-.675-1.053-.5-1.931 3.924-19.602 18.975-35.489 38.345-40.477 4.011-1.032 6.426-5.121 5.393-9.133-1.033-4.011-5.125-6.429-9.133-5.393-24.91 6.413-44.267 26.847-49.313 52.059-1.021 5.099.294 10.342 3.606 14.383 3.35 4.087 8.3 6.431 13.581 6.431h162.925c5.555 0 10.664-2.545 14.017-6.982 3.31-4.38 4.353-9.904 2.861-15.156-5.233-18.431-19.987-32.377-37.971-37.108v-22.05c16.156-7.239 28.959-20.64 35.411-37.204h27.089c1.378 0 2.5 1.121 2.5 2.5v138.5c0 1.379-1.122 2.5-2.5 2.5h-397c-1.378 0-2.5-1.121-2.5-2.5v-138.5c0-1.379 1.122-2.5 2.5-2.5h244.089c6.452 16.564 19.255 29.965 35.411 37.204z"/><path d="m336.212 205h56.575c5.674 0 11.017-2.767 14.292-7.4 3.277-4.636 4.103-10.599 2.209-15.95-6.699-18.931-24.698-31.65-44.788-31.65s-38.089 12.719-44.789 31.649c-1.894 5.352-1.068 11.314 2.209 15.95 3.276 4.634 8.619 7.401 14.292 7.401zm-2.36-18.347c4.583-12.951 16.9-21.653 30.648-21.653s26.065 8.702 30.648 21.653c.377 1.066-.037 1.891-.317 2.288-.279.396-.917 1.059-2.043 1.059h-56.575c-1.127 0-1.764-.663-2.043-1.059-.282-.397-.696-1.221-.318-2.288z"/><path d="m88.501 413.5h97.998c5.281 0 10.23-2.344 13.581-6.432 3.313-4.041 4.627-9.283 3.606-14.382-6.286-31.398-34.121-54.186-66.186-54.186s-59.9 22.788-66.186 54.186c-1.021 5.1.293 10.342 3.606 14.383 3.351 4.087 8.3 6.431 13.581 6.431zm-2.479-17.87c4.887-24.411 26.536-42.13 51.478-42.13s46.591 17.719 51.478 42.131c.176.877-.174 1.533-.499 1.929-.288.352-.928.94-1.979.94h-97.999c-1.052 0-1.691-.589-1.979-.94-.325-.396-.675-1.052-.5-1.93z"/><path d="m125.092 99.509c3.871 1.474 8.203-.469 9.678-4.34l2.836-7.446h19.812l2.802 7.426c1.134 3.003 3.987 4.854 7.019 4.854.879 0 1.775-.156 2.646-.485 3.875-1.462 5.832-5.789 4.369-9.665l-18.604-49.298c-.026-.068-.053-.137-.081-.205-1.337-3.25-4.47-5.349-7.984-5.349-.002 0-.005 0-.008 0-3.517.003-6.65 2.108-7.982 5.362-.023.058-.046.115-.068.173l-18.775 49.296c-1.473 3.869.469 8.202 4.34 9.677zm26.666-26.786h-8.438l4.239-11.129z"/><path d="m380.265 284.981c1.585-2.774 2.505-5.976 2.505-9.393 0-10.479-8.525-19.005-19.005-19.005h-14.524c-4.142 0-7.5 3.357-7.5 7.5v23.024.037 26.938c0 1.995.795 3.907 2.208 5.315 1.406 1.399 3.309 2.185 5.292 2.185h.033c.002 0 13.348-.06 17.027-.06 11.557 0 20.958-9.401 20.958-20.958 0-6.189-2.713-11.743-6.994-15.583zm-16.5-13.398c2.208 0 4.005 1.797 4.005 4.005 0 2.209-1.796 4.006-4.005 4.006-1.075 0-3.109.006-5.32.014h-1.704v-8.024h7.024zm2.536 34.94c-1.787 0-5.846.014-9.56.028v-11.938c.577-.002 1.155-.004 1.721-.006h7.839c3.286 0 5.958 2.673 5.958 5.958s-2.673 5.958-5.958 5.958z"/></g></g></svg>