<svg id="Capa_1" enable-background="new 0 0 512 512" height="512" viewBox="0 0 512 512" width="512" xmlns="http://www.w3.org/2000/svg"><g><g><path d="m404.5 27.5h-148.5-148.5s-40 111.453-40 228.5 40 228.5 40 228.5h148.5 148.5s40-111.453 40-228.5-40-228.5-40-228.5z" fill="#fbf081"/></g><g><path d="m412.038 405.674c-13.327 10.725-22.954 18.474-44.511 18.474-21.556 0-31.183-7.749-44.509-18.473-14.619-11.766-32.812-26.407-67.022-26.407-34.208 0-52.401 14.642-67.019 26.407-13.325 10.725-22.953 18.473-44.507 18.473s-31.183-7.749-44.507-18.473c-5.1-4.104-10.643-8.556-17.141-12.616 11.285 54.123 24.678 91.441 24.678 91.441h148.5 148.5s13.393-37.318 24.679-91.443c-6.499 4.061-12.042 8.512-17.141 12.617z" fill="#84dfff"/></g><g><path d="m99.963 106.326c13.327-10.725 22.954-18.474 44.511-18.474 21.556 0 31.183 7.749 44.509 18.473 14.619 11.766 32.812 26.407 67.022 26.407 34.208 0 52.401-14.642 67.019-26.407 13.325-10.725 22.953-18.473 44.507-18.473s31.183 7.749 44.507 18.473c5.1 4.104 10.643 8.556 17.141 12.616-11.286-54.123-24.679-91.441-24.679-91.441h-148.5-148.5s-13.393 37.318-24.679 91.443c6.499-4.061 12.042-8.512 17.142-12.617z" fill="#84dfff"/></g><g><path d="m167.5 27.5h-60s-40 111.453-40 228.5 40 228.5 40 228.5h60s-40-111.453-40-228.5 40-228.5 40-228.5z" fill="#fad271"/></g><g><path d="m144.469 424.148c-21.555 0-31.183-7.749-44.507-18.473-5.1-4.104-10.643-8.556-17.141-12.616 11.286 54.123 24.679 91.441 24.679 91.441h60s-8.476-23.626-17.624-60.531c-1.719.116-3.515.179-5.407.179z" fill="#2fcffc"/></g><g><path d="m149.876 88.031c9.148-36.905 17.624-60.531 17.624-60.531h-60s-13.393 37.318-24.679 91.443c6.499-4.061 12.042-8.512 17.142-12.617 13.327-10.725 22.954-18.474 44.511-18.474 1.89 0 3.684.063 5.402.179z" fill="#2fcffc"/></g><g><path d="m77.5 36.556c0-13.882 13.226-23.81 26.619-20.157 2.476.675 5.398 1.101 9.08 1.101 17.85 0 17.85-10 35.7-10 17.847 0 17.847 10 35.694 10 17.848 0 17.848-10 35.695-10 17.85 0 17.85 10 35.699 10 17.85 0 17.85-10 35.7-10 17.851 0 17.851 10 35.702 10 17.85 0 17.85-10 35.7-10 17.853 0 17.853 10 35.705 10 3.685 0 6.61-.426 9.088-1.102 13.392-3.655 26.618 6.276 26.618 20.157v.001c0 11.567-9.377 20.944-20.944 20.944h-315.112c-11.567 0-20.944-9.377-20.944-20.944z" fill="#be9edf"/></g><g><g><path d="m220.35 36.556c0-13.746 12.968-23.607 26.226-20.252-9.266-2.653-12.287-8.804-26.288-8.804-17.848 0-17.848 10-35.695 10s-17.847-10-35.694-10c-17.85 0-17.85 10-35.7 10-3.682 0-6.604-.426-9.08-1.101-13.393-3.653-26.619 6.275-26.619 20.157 0 11.567 9.377 20.944 20.944 20.944h142.85c-11.567 0-20.944-9.377-20.944-20.944z" fill="#938ed9"/></g></g><g><path d="m434.5 475.444c0 13.882-13.226 23.81-26.619 20.157-2.476-.675-5.398-1.101-9.08-1.101-17.85 0-17.85 10-35.7 10-17.847 0-17.847-10-35.694-10-17.848 0-17.848 10-35.695 10-17.85 0-17.85-10-35.699-10-17.85 0-17.85 10-35.7 10-17.851 0-17.851-10-35.702-10-17.85 0-17.85 10-35.7 10-17.853 0-17.853-10-35.705-10-3.685 0-6.61.426-9.088 1.102-13.392 3.655-26.618-6.276-26.618-20.157v-.001c0-11.567 9.377-20.944 20.944-20.944h315.113c11.566 0 20.943 9.377 20.943 20.944z" fill="#be9edf"/></g><g><g><path d="m220.35 475.444c0 13.746 12.968 23.607 26.226 20.252-9.265 2.653-12.287 8.804-26.288 8.804-17.848 0-17.848-10-35.695-10s-17.847 10-35.694 10c-17.85 0-17.85-10-35.7-10-3.682 0-6.604.426-9.08 1.101-13.393 3.653-26.619-6.275-26.619-20.157 0-11.567 9.377-20.944 20.944-20.944h142.85c-11.567 0-20.944 9.377-20.944 20.944z" fill="#938ed9"/></g></g><g><path d="m256 423.976c-15.78 0-28.571-12.792-28.571-28.571v-85.715h57.143v85.714c-.001 15.78-12.792 28.572-28.572 28.572z" fill="#ffd3a3"/></g><g><path d="m256 395.405v-12.143h28.571v-73.572h-57.143v85.714c0 15.78 12.792 28.571 28.571 28.571 5.206 0 10.082-1.399 14.286-3.832-8.537-4.94-14.285-14.165-14.285-24.738z" fill="#ffbe74"/></g><g><path d="m284.571 354.69h-57.143c-39.449 0-71.429-31.98-71.429-71.429v-95.238c0-55.228 44.771-100 100-100 55.228 0 100 44.771 100 100v95.238c.001 39.45-31.979 71.429-71.428 71.429z" fill="#e7886e"/></g><g><path d="m213.143 283.262v-95.238c0-45.299 30.123-83.556 71.429-95.851-9.054-2.695-18.642-4.149-28.571-4.149-55.228 0-100 44.771-100 100v95.238c0 39.449 31.98 71.429 71.429 71.429h57.143c-39.45-.001-71.43-31.98-71.43-71.429z" fill="#dc6646"/></g><g><g><path d="m198.551 231.285c-4.142 0-7.5-3.357-7.5-7.5v-12c0-4.143 3.358-7.5 7.5-7.5s7.5 3.357 7.5 7.5v12c0 4.143-3.358 7.5-7.5 7.5z"/></g><g><path d="m313.449 231.285c-4.142 0-7.5-3.357-7.5-7.5v-12c0-4.143 3.358-7.5 7.5-7.5s7.5 3.357 7.5 7.5v12c0 4.143-3.358 7.5-7.5 7.5z"/></g><g><path d="m256 238.429c-8.477 0-16.539-3.671-22.118-10.072-2.722-3.122-2.397-7.859.726-10.581 3.123-2.723 7.859-2.398 10.582.726 2.73 3.132 6.67 4.928 10.811 4.928s8.081-1.796 10.811-4.928c2.722-3.123 7.46-3.447 10.582-.726 3.123 2.722 3.447 7.459.726 10.581-5.581 6.401-13.643 10.072-22.12 10.072z"/></g></g><g><circle cx="296.81" cy="296.577" fill="#dc6646" r="20"/></g><g><circle cx="213.083" cy="271.5" fill="#dc6646" r="15"/></g><g><circle cx="291.81" cy="144.5" fill="#dc6646" r="15"/></g><path d="m423.369 448.746c11.497-41.403 28.631-115.991 28.631-192.746 0-76.724-17.115-151.278-28.631-192.746 10.863-4.005 18.631-14.462 18.631-26.699 0-15.671-12.773-28.42-28.475-28.42-2.557 0-5.12.346-7.619 1.027-2.063.563-4.39.838-7.112.838-6.969 0-9.997-1.696-14.188-4.043-4.737-2.654-10.633-5.957-21.517-5.957-10.883 0-16.779 3.303-21.516 5.957-4.19 2.347-7.217 4.043-14.184 4.043-6.968 0-9.995-1.696-14.185-4.043-4.738-2.654-10.634-5.957-21.517-5.957s-16.778 3.303-21.516 5.957c-4.19 2.347-7.216 4.043-14.184 4.043s-9.994-1.696-14.184-4.043c-4.737-2.654-10.633-5.957-21.515-5.957-10.881 0-16.776 3.303-21.513 5.957-4.19 2.347-7.216 4.043-14.182 4.043s-9.992-1.696-14.181-4.043c-4.737-2.654-10.632-5.957-21.514-5.957s-16.778 3.303-21.515 5.957c-4.19 2.347-7.217 4.043-14.184 4.043-2.717 0-5.042-.273-7.106-.836-2.498-.682-5.06-1.027-7.616-1.027-15.703 0-28.477 12.749-28.477 28.42 0 12.237 7.768 22.692 18.631 26.698-11.514 41.462-28.631 116.016-28.631 192.745 0 76.745 17.126 151.318 28.631 192.746-10.863 4.006-18.631 14.462-18.631 26.699 0 7.725 3.034 14.935 8.542 20.301 5.375 5.236 12.454 8.12 19.933 8.119 2.557 0 5.12-.346 7.619-1.027 2.063-.563 4.39-.838 7.112-.838 6.969 0 9.997 1.696 14.188 4.043 4.738 2.654 10.634 5.957 21.518 5.957 10.883 0 16.779-3.303 21.516-5.957 4.19-2.347 7.217-4.043 14.185-4.043s9.995 1.696 14.185 4.043c4.737 2.654 10.633 5.957 21.517 5.957 10.883 0 16.778-3.303 21.516-5.957 4.19-2.347 7.217-4.043 14.184-4.043s9.994 1.696 14.184 4.043c4.737 2.654 10.633 5.957 21.516 5.957 10.881 0 16.776-3.303 21.513-5.957 4.189-2.347 7.216-4.043 14.182-4.043s9.992 1.696 14.181 4.043c4.737 2.654 10.632 5.957 21.513 5.957 10.882 0 16.778-3.303 21.515-5.957 4.19-2.347 7.217-4.043 14.185-4.043 2.717 0 5.042.273 7.106.836 2.498.682 5.06 1.027 7.616 1.027 15.702 0 28.476-12.749 28.476-28.42-.002-12.236-7.77-22.692-18.633-26.697zm-.925-60.266c-5.746 3.818-10.718 7.817-15.108 11.351-9.417 7.578-16.22 13.054-26.508 15.448-4.034.938-6.543 4.971-5.604 9.005.806 3.462 3.89 5.802 7.298 5.802.563 0 1.135-.064 1.707-.197 13.624-3.171 22.377-10.215 32.512-18.372.261-.21.544-.435.809-.648-3.23 13.864-6.442 26.076-9.267 36.132h-304.565c-2.827-10.06-6.038-22.269-9.268-36.13.265.213.548.438.809.648 13.421 10.802 25.012 20.131 49.21 20.131s35.789-9.329 49.211-20.133c7.405-5.959 15.601-12.541 26.249-17.403v1.293c0 19.89 16.182 36.071 36.071 36.071s36.071-16.182 36.071-36.071v-1.289c10.644 4.862 18.84 11.442 26.246 17.403 10.134 8.155 18.887 15.199 32.508 18.369.572.133 1.144.197 1.707.197 3.409 0 6.493-2.34 7.298-5.802.939-4.034-1.57-8.066-5.604-9.005-10.286-2.394-17.089-7.868-26.507-15.447-9.033-7.27-20.1-16.156-35.648-21.933v-16.074c40.016-3.791 71.429-37.572 71.429-78.563v-95.238c0-30.566-12.823-58.193-33.372-77.785 11.66-9.328 19.68-14.886 37.403-14.886 18.913 0 26.776 6.329 39.805 16.815 4.391 3.535 9.364 7.533 15.108 11.351 7.813 38.223 14.556 84.964 14.556 132.48 0 47.519-6.746 94.266-14.556 132.48zm-187.515-26.29h42.143v33.215c0 11.619-9.453 21.071-21.071 21.071s-21.071-9.452-21.071-21.071v-33.215zm-41.249-261.711c-13.42-10.8-25.011-20.126-49.207-20.126-24.198 0-35.789 9.328-49.214 20.131-.261.21-.544.435-.81.648 3.229-13.858 6.44-26.067 9.268-36.132h304.563c2.828 10.065 6.039 22.273 9.268 36.13-.265-.213-.547-.438-.808-.647-13.42-10.802-25.011-20.13-49.21-20.13-24.198 0-35.788 9.327-49.208 20.129-17.59-12.561-39.108-19.959-62.322-19.959-23.213 0-44.729 7.397-62.32 19.956zm-95.204-77.342c1.223 0 2.458.168 3.671.499 3.369.918 6.984 1.364 11.052 1.364 10.883 0 16.778-3.303 21.516-5.957 4.19-2.347 7.217-4.043 14.184-4.043 6.966 0 9.992 1.696 14.181 4.043 4.736 2.654 10.631 5.957 21.513 5.957s16.777-3.303 21.514-5.957c4.189-2.347 7.216-4.043 14.181-4.043 6.967 0 9.995 1.696 14.185 4.043 4.736 2.654 10.632 5.957 21.514 5.957s16.778-3.303 21.515-5.957c4.19-2.347 7.217-4.043 14.185-4.043s9.996 1.696 14.186 4.043c4.737 2.654 10.633 5.957 21.516 5.957s16.778-3.303 21.516-5.957c4.19-2.347 7.217-4.043 14.185-4.043 6.969 0 9.997 1.696 14.188 4.043 4.736 2.654 10.633 5.957 21.516 5.957 4.076 0 7.695-.447 11.063-1.367 1.211-.331 2.445-.498 3.668-.498 7.43 0 13.475 6.021 13.475 13.422 0 7.413-6.031 13.443-13.444 13.443h-315.112c-7.413 0-13.444-6.03-13.444-13.443 0-7.4 6.045-13.42 13.476-13.42zm-8.919 100.377c5.736-3.813 10.703-7.8 15.111-11.347 13.029-10.485 20.894-16.814 39.806-16.814 17.72 0 25.741 5.557 37.401 14.883-20.551 19.592-33.375 47.22-33.375 77.788v15.807c0 4.143 3.358 7.5 7.5 7.5s7.5-3.357 7.5-7.5v-15.807c0-51.005 41.495-92.5 92.5-92.5s92.5 41.495 92.5 92.5v95.238c0 35.25-28.678 63.929-63.929 63.929h-57.143c-35.25 0-63.929-28.679-63.929-63.929v-49.43c0-4.143-3.358-7.5-7.5-7.5s-7.5 3.357-7.5 7.5v49.43c0 40.991 31.413 74.772 71.429 78.563v16.07c-15.551 5.778-26.619 14.665-35.655 21.937-13.029 10.486-20.893 16.816-39.804 16.816s-26.776-6.33-39.805-16.816c-4.396-3.539-9.366-7.531-15.108-11.347-7.811-38.219-14.556-84.964-14.556-132.485 0-47.519 6.743-94.262 14.557-132.486zm323.967 365.349c-1.223 0-2.458-.168-3.671-.499-3.37-.918-6.985-1.364-11.052-1.364-10.883 0-16.778 3.303-21.516 5.957-4.19 2.347-7.217 4.043-14.184 4.043-6.966 0-9.992-1.696-14.181-4.043-4.737-2.654-10.632-5.957-21.513-5.957-10.882 0-16.777 3.303-21.514 5.957-4.189 2.347-7.216 4.043-14.181 4.043-6.967 0-9.995-1.696-14.185-4.043-4.737-2.654-10.633-5.957-21.515-5.957s-16.778 3.303-21.515 5.957c-4.19 2.347-7.217 4.043-14.185 4.043s-9.996-1.696-14.186-4.043c-4.737-2.654-10.633-5.957-21.516-5.957s-16.778 3.303-21.516 5.957c-4.19 2.347-7.217 4.043-14.185 4.043-6.969 0-9.997-1.696-14.188-4.043-4.737-2.654-10.634-5.957-21.518-5.957-4.075 0-7.694.447-11.063 1.367-4.718 1.286-9.693-.015-13.133-3.365-2.585-2.519-4.009-5.914-4.009-9.559.002-7.413 6.033-13.443 13.446-13.443h315.112c7.413 0 13.444 6.03 13.444 13.443 0 7.4-6.045 13.42-13.476 13.42z"/></g></svg>