<svg id="Capa_1" enable-background="new 0 0 512 512" height="512" viewBox="0 0 512 512" width="512" xmlns="http://www.w3.org/2000/svg"><g><g><g><path d="m368.526 164.447c-15.714 15.714-36.5 23.37-57.385 23.043-3.992-.062-7.283-3.353-7.345-7.345-.327-20.885 7.329-41.671 23.043-57.385s36.5-23.37 57.385-23.043c3.992.062 7.283 3.353 7.345 7.345.327 20.885-7.328 41.671-23.043 57.385z" fill="#17d9bf"/></g></g><g><path d="m311.141 187.49c17.586.275 35.09-5.133 49.567-16.224-21.87-27.199-15.957-61.091-15.798-61.977-6.496 3.522-12.597 7.996-18.072 13.471-15.714 15.714-23.37 36.5-23.043 57.385.064 3.991 3.355 7.282 7.346 7.345z" fill="#0accab"/></g><g><g><path d="m143.512 164.447c15.714 15.714 36.5 23.37 57.385 23.043 3.992-.062 7.283-3.353 7.345-7.345.327-20.885-7.329-41.671-23.043-57.385s-36.5-23.37-57.385-23.043c-3.992.062-7.283 3.353-7.345 7.345-.327 20.885 7.329 41.671 23.043 57.385z" fill="#50e3cf"/></g></g><g><path d="m125.271 135.76c3.809 10.498 9.87 20.316 18.241 28.688 15.714 15.714 36.5 23.37 57.385 23.043 3.992-.063 7.283-3.354 7.345-7.345.228-14.558-3.435-29.063-10.99-41.84-31.352 7.833-56.645 2.807-71.981-2.546z" fill="#17d9bf"/></g><g><g><path d="m173.672 113.877c10.42 25.156 30.36 43.569 54.155 52.991 4.548 1.801 9.816-.381 11.759-4.871 10.162-23.488 11.243-50.607.823-75.764-10.42-25.156-30.36-43.568-54.155-52.991-4.548-1.801-9.816.381-11.759 4.871-10.162 23.489-11.243 50.608-.823 75.764z" fill="#50e3cf"/></g></g><g><path d="m168.639 56.217c-4.131 18.746-2.796 38.757 5.034 57.66 10.42 25.156 30.36 43.569 54.155 52.991 4.548 1.801 9.816-.381 11.759-4.871 10.162-23.488 11.243-50.607.823-75.763-39.322 9.084-60.82-11.73-71.771-30.017z" fill="#17d9bf"/></g><g><path d="m338.366 113.877c-10.42 25.156-30.36 43.569-54.155 52.991-4.548 1.801-9.816-.381-11.759-4.871-10.162-23.488-11.243-50.607-.823-75.764 10.42-25.156 30.36-43.568 54.155-52.991 4.548-1.801 9.816.381 11.759 4.871 10.162 23.489 11.243 50.608.823 75.764z" fill="#50e3cf"/></g><g><path d="m345.395 7.5c-60.407 0-109.376 48.969-109.376 109.376v41.645c0 10.845 8.433 20.081 19.271 20.466 11.378.405 20.729-8.699 20.729-19.987v-21.5c0-38.66 31.34-70 70-70 16.849 0 30.453-13.889 29.988-30.843-.448-16.34-14.265-29.157-30.612-29.157z" fill="#0accab"/></g><g><path d="m283.519 91.5c-16.016 0-29-12.984-29-29 0-2.865.422-5.629 1.196-8.243-12.409 17.739-19.696 39.327-19.696 62.618v41.645c0 10.844 8.433 20.081 19.271 20.466 11.378.405 20.729-8.699 20.729-19.987v-21.5c0-18.943 7.537-36.116 19.759-48.718-3.724 1.741-7.876 2.719-12.259 2.719z" fill="#02ba97"/></g><g><path d="m408.995 226.188c-35.694-85.418-152.976-81.663-152.976-81.663s-117.282-3.755-152.976 81.663 72.239 278.312 152.976 278.312 188.671-192.894 152.976-278.312z" fill="#ff7591"/></g><g><path d="m212.746 226.188c19.32-46.232 62.535-66.335 98.125-75.055-30.165-7.391-54.852-6.608-54.852-6.608s-117.282-3.754-152.976 81.663c-35.695 85.418 72.239 278.312 152.976 278.312 17.582 0 36.454-9.15 54.852-24.344-66.084-54.575-126.046-187.152-98.125-253.968z" fill="#fd5c70"/></g><g><g><g><ellipse cx="176.374" cy="246.769" fill="#fff" rx="29.387" ry="23.403"/></g><g><ellipse cx="335.664" cy="246.769" fill="#fff" rx="29.387" ry="23.403"/></g><g><path d="m279.713 228.787c0-14.643-10.608-16.019-23.693-16.019-13.086 0-23.694 1.376-23.694 16.019s10.608 26.513 23.694 26.513c13.085 0 23.693-11.87 23.693-26.513z" fill="#333843"/></g></g><g><path d="m181.287 226.329c-4.142 0-7.5-3.357-7.5-7.5v-12c0-4.143 3.358-7.5 7.5-7.5s7.5 3.357 7.5 7.5v12c0 4.143-3.358 7.5-7.5 7.5z"/></g><g><path d="m256.019 262.8c-17.2 0-31.193-15.258-31.193-34.013 0-23.519 21.859-23.519 31.193-23.519s31.193 0 31.193 23.519c0 18.755-13.993 34.013-31.193 34.013zm0-42.531c-15.539 0-16.193 2.611-16.193 8.519 0 10.483 7.264 19.013 16.193 19.013s16.193-8.529 16.193-19.013c0-5.908-.654-8.519-16.193-8.519z"/></g><g><path d="m330.751 226.329c-4.142 0-7.5-3.357-7.5-7.5v-12c0-4.143 3.358-7.5 7.5-7.5s7.5 3.357 7.5 7.5v12c0 4.143-3.358 7.5-7.5 7.5z"/></g></g><g><path d="m256.019 338c-4.142 0-7.5-3.357-7.5-7.5v-12c0-4.143 3.358-7.5 7.5-7.5s7.5 3.357 7.5 7.5v12c0 4.143-3.358 7.5-7.5 7.5z"/></g><g><path d="m256.019 422c-4.142 0-7.5-3.357-7.5-7.5v-12c0-4.143 3.358-7.5 7.5-7.5s7.5 3.357 7.5 7.5v12c0 4.143-3.358 7.5-7.5 7.5z"/></g><g><path d="m316.019 380c-4.142 0-7.5-3.357-7.5-7.5v-12c0-4.143 3.358-7.5 7.5-7.5s7.5 3.357 7.5 7.5v12c0 4.143-3.358 7.5-7.5 7.5z"/></g><g><path d="m196.019 380c-4.142 0-7.5-3.357-7.5-7.5v-12c0-4.143 3.358-7.5 7.5-7.5s7.5 3.357 7.5 7.5v12c0 4.143-3.358 7.5-7.5 7.5z"/></g><path d="m415.915 223.296c-8.856-21.194-23.352-38.983-42.809-52.844.24-.235.487-.464.724-.701 16.648-16.648 25.612-38.953 25.239-62.806-.125-7.996-6.731-14.603-14.727-14.728-11.561-.198-22.827 1.851-33.304 5.95 1.632-7.814 2.345-15.78 2.116-23.847 7.471-1.428 14.313-5.09 19.744-10.673 7.12-7.317 10.887-16.977 10.606-27.196-.55-20.098-17.646-36.451-38.109-36.451-22.741 0-44.788 6.538-63.758 18.907-3.47 2.262-4.449 6.909-2.187 10.379 2.263 3.469 6.909 4.447 10.379 2.186 16.528-10.776 35.742-16.472 55.566-16.472 12.416 0 22.785 9.808 23.115 21.863.168 6.137-2.092 11.935-6.363 16.325-4.273 4.393-10.001 6.812-16.128 6.812-42.665 0-77.384 34.656-77.495 77.296-6.862-.375-11.374-.303-12.505-.274-1.131-.028-5.641-.099-12.5.275v-20.421c0-24.674 8.933-48.479 25.154-67.029 2.727-3.118 2.409-7.855-.709-10.582-3.118-2.729-7.857-2.41-10.583.709-7.381 8.441-13.442 17.833-18.075 27.856-11.727-18.69-29.135-33.182-50.291-41.561-8.271-3.272-17.872.702-21.403 8.865-8.781 20.296-10.987 42.115-6.606 63.037-10.487-4.104-21.764-6.157-33.309-5.954-7.996.125-14.602 6.731-14.727 14.728-.373 23.853 8.59 46.157 25.239 62.806.237.237.483.467.723.702-19.457 13.861-33.952 31.65-42.809 52.843-20.499 49.054 3.316 123.265 32.438 176.357 1.991 3.633 6.55 4.96 10.183 2.97 3.632-1.992 4.961-6.552 2.969-10.183-34.484-62.87-46.947-126.993-31.75-163.361 13.838-33.115 42.316-56.141 84.644-68.437 32.307-9.385 60.895-8.631 61.172-8.622.16.006.321.006.48 0 1.121-.038 112.501-2.667 145.816 77.059 19.91 47.645-8.978 131.597-47.804 189.901-32.533 48.854-69.262 78.02-98.252 78.02-29.329 0-66.399-29.681-99.164-79.396-2.279-3.459-6.932-4.413-10.389-2.136-3.459 2.279-4.415 6.932-2.135 10.39 16.442 24.948 34.746 45.973 52.933 60.8 20.627 16.816 40.395 25.342 58.755 25.342 34.527 0 74.89-30.874 110.737-84.705 39.775-59.73 72.124-149.045 49.159-203.999zm-234.537-182.204c.331-.765 1.339-1.182 2.114-.875 22.109 8.755 39.43 25.271 48.965 46.58-2.592 9.738-3.939 19.843-3.939 30.079v21.723c-7.505.885-16.122 2.249-25.352 4.348-9.87-8.869-17.455-19.602-22.565-31.94-9.295-22.443-9.02-47.273.777-69.915zm-32.563 118.052c-13.752-13.752-21.156-32.206-20.884-51.928 14.091-.2 27.68 3.531 39.377 10.84 4.706 10.947 11.094 20.795 19.079 29.401-12.53 3.917-24.01 8.837-34.377 14.69-1.095-.969-2.163-1.971-3.195-3.003zm214.408.001c-1.032 1.032-2.1 2.033-3.195 3.002-10.366-5.853-21.846-10.772-34.375-14.689 7.984-8.605 14.372-18.454 19.079-29.402 11.695-7.31 25.26-11.065 39.339-10.875.308 19.757-7.095 38.211-20.848 51.964zm-79.704-21.645c0-31.803 23.882-58.114 54.651-61.99.239 12.186-2.012 24.1-6.733 35.496-5.112 12.341-12.697 23.073-22.565 31.94-9.23-2.099-17.847-3.463-25.352-4.349v-1.097z"/></g></svg>