<svg id="Capa_1" enable-background="new 0 0 512 512" height="512" viewBox="0 0 512 512" width="512" xmlns="http://www.w3.org/2000/svg"><g><g><g><path d="m364.508 404.505c-1.889 0-3.809-.27-5.712-.835-10.587-3.15-16.616-14.286-13.466-24.873 29.336-98.602 21.48-181.396-23.35-246.085-24.005-34.64-52.182-54.247-65.935-62.444-13.998 8.4-43.086 28.694-67.124 64.043-43.849 64.479-51.335 146.736-22.252 244.486 3.15 10.587-2.879 21.723-13.466 24.873-10.583 3.147-21.723-2.879-24.873-13.467-17.983-60.441-23.143-116.932-15.338-167.901 6.349-41.454 21.202-79.262 44.149-112.374 39.177-56.53 88.418-79.64 90.495-80.596 5.308-2.443 11.418-2.443 16.726 0 2.077.956 51.318 24.065 90.495 80.596 22.947 33.112 37.801 70.92 44.149 112.374 7.805 50.97 2.645 107.46-15.338 167.901-2.582 8.685-10.54 14.302-19.16 14.302z" fill="#17d9bf"/></g></g><g><path d="m399.007 222.302c-5.771-37.683-18.594-72.339-38.111-103.207 1 8.104-2.482 16.458-9.74 21.295-7.372 4.913-16.595 4.833-23.737.596 39.963 63.422 46.013 143.359 17.912 237.812-3.15 10.587 2.879 21.723 13.466 24.873 1.903.565 3.823.835 5.712.835 8.62 0 16.578-5.617 19.161-14.302 17.982-60.442 23.143-116.933 15.337-167.902z" fill="#0accab"/></g><g><path d="m112.993 222.302c5.771-37.683 18.594-72.339 38.111-103.207-1 8.104 2.482 16.458 9.74 21.295 7.372 4.913 16.595 4.833 23.737.596-39.963 63.422-46.013 143.359-17.912 237.812 3.15 10.587-2.879 21.723-13.466 24.873-1.903.565-3.823.835-5.712.835-8.62 0-16.578-5.617-19.161-14.302-17.982-60.442-23.142-116.933-15.337-167.902z" fill="#0accab"/></g><g><path d="m76 27.5c0-11.046 8.954-20 20-20h320c11.046 0 20 8.954 20 20 0 11.046-8.954 20-20 20h-320c-11.046 0-20-8.954-20-20z" fill="#50e3cf"/></g><g><path d="m178.622 27.5c0-11.046 8.954-20 20-20h-102.622c-11.046 0-20 8.954-20 20 0 11.046 8.954 20 20 20h102.622c-11.045 0-20-8.954-20-20z" fill="#17d9bf"/></g><g><circle cx="354.5" cy="364.5" fill="#fd5c70" r="140"/></g><g><path d="m448.5 384.5c-77.32 0-140-62.68-140-140 0-4.198.196-8.35.558-12.454-55.013 18.87-94.558 71.041-94.558 132.454 0 77.32 62.68 140 140 140 73.122 0 133.14-56.062 139.442-127.546-14.249 4.888-29.535 7.546-45.442 7.546z" fill="#f24c68"/></g><g><g><g><ellipse cx="438.347" cy="373.047" fill="#fff" rx="30.938" ry="24.637"/></g><g><ellipse cx="354.5" cy="354.117" fill="#333843" rx="16.423" ry="18.377"/></g></g><g><path d="m354.5 379.993c-13.191 0-23.923-11.608-23.923-25.877s10.731-25.877 23.923-25.877 23.923 11.608 23.923 25.877-10.732 25.877-23.923 25.877zm0-36.754c-4.92 0-8.923 4.879-8.923 10.877s4.003 10.877 8.923 10.877 8.923-4.879 8.923-10.877-4.003-10.877-8.923-10.877z"/></g><g><path d="m433.175 350.816c-4.143 0-7.5-3.357-7.5-7.5v-12c0-4.143 3.357-7.5 7.5-7.5s7.5 3.357 7.5 7.5v12c0 4.143-3.358 7.5-7.5 7.5z"/></g></g><g><circle cx="157.5" cy="364.5" fill="#ff7591" r="140"/></g><g><path d="m251.5 384.5c-77.32 0-140-62.68-140-140 0-4.198.196-8.35.558-12.454-55.013 18.87-94.558 71.041-94.558 132.454 0 77.32 62.68 140 140 140 73.122 0 133.14-56.062 139.442-127.546-14.249 4.888-29.535 7.546-45.442 7.546z" fill="#fd5c70"/></g><g><g><g><ellipse cx="77.855" cy="372.769" fill="#fff" rx="29.387" ry="23.403"/></g><g><ellipse cx="237.145" cy="372.769" fill="#fff" rx="29.387" ry="23.403"/></g><g><path d="m181.194 354.788c0-14.643-10.608-16.019-23.693-16.019s-23.693 1.376-23.693 16.019 10.608 26.513 23.693 26.513c13.085-.001 23.693-11.871 23.693-26.513z" fill="#333843"/></g></g><g><path d="m82.768 352.329c-4.142 0-7.5-3.357-7.5-7.5v-12c0-4.143 3.358-7.5 7.5-7.5s7.5 3.357 7.5 7.5v12c0 4.143-3.358 7.5-7.5 7.5z"/></g><g><path d="m157.5 388.8c-17.2 0-31.193-15.258-31.193-34.013 0-23.519 21.859-23.519 31.193-23.519s31.193 0 31.193 23.519c0 18.755-13.993 34.013-31.193 34.013zm0-42.531c-15.539 0-16.193 2.611-16.193 8.519 0 10.483 7.264 19.013 16.193 19.013s16.193-8.529 16.193-19.013c0-5.908-.654-8.519-16.193-8.519z"/></g><g><path d="m232.232 352.329c-4.142 0-7.5-3.357-7.5-7.5v-12c0-4.143 3.358-7.5 7.5-7.5s7.5 3.357 7.5 7.5v12c0 4.143-3.358 7.5-7.5 7.5z"/></g></g><path d="m407.216 226.747c-.25-1.865-.512-3.73-.795-5.581-6.12-39.957-19.942-76.632-41.104-109.12-2.298-3.528-7.073-4.443-10.537-2.05-3.352 2.315-4.224 6.871-2.001 10.286 19.66 30.203 32.594 64.263 38.518 101.364-8.384-2.161-17.056-3.596-25.942-4.246-6.286-32.464-18.782-62.372-37.21-88.96-24.582-35.474-53.317-55.71-68.259-64.615-2.372-1.414-5.332-1.41-7.699.012-15.402 9.243-44.908 30.143-69.466 66.256-17.794 26.166-29.909 55.514-36.066 87.307-8.889.649-17.563 2.085-25.949 4.246 6.325-39.613 20.641-75.759 42.601-107.446 19.561-28.227 41.723-47.664 57.223-59.2h70.926c13.92 10.354 26.884 22.247 38.538 35.393 1.482 1.672 3.544 2.524 5.615 2.524 1.769 0 3.545-.622 4.973-1.888 3.1-2.748 3.385-7.488.637-10.588-8.039-9.068-16.671-17.575-25.787-25.441h100.568c15.163 0 27.5-12.337 27.5-27.5s-12.337-27.5-27.5-27.5h-320c-15.164 0-27.5 12.337-27.5 27.5s12.336 27.5 27.5 27.5h100.603c-14.174 12.249-30.622 29.005-45.625 50.655-23.602 34.057-38.875 72.92-45.398 115.511-.282 1.841-.543 3.708-.794 5.581-55.374 21.261-94.786 74.987-94.786 137.753 0 81.332 66.168 147.5 147.5 147.5 36.453 0 71.411-13.394 98.503-37.717 27.107 24.361 61.852 37.717 98.497 37.717 81.332 0 147.5-66.168 147.5-147.5 0-62.766-39.412-116.491-94.784-137.753zm-323.716-199.247c0-6.893 5.607-12.5 12.5-12.5h320c6.893 0 12.5 5.607 12.5 12.5s-5.607 12.5-12.5 12.5h-320c-6.893 0-12.5-5.607-12.5-12.5zm111.624 111.028c21.033-30.929 45.888-49.876 60.934-59.45 14.608 9.255 38.76 27.604 59.759 57.906 16.63 23.995 28.092 50.908 34.167 80.091-35.001 1.049-67.993 14.274-93.984 37.638-25.967-23.312-59.161-36.575-93.969-37.636 5.946-28.56 17.047-54.953 33.093-78.549zm159.376 358.472c-32.631 0-63.588-11.784-87.843-33.304 20.99-23.075 34.172-52.184 37.502-83.355.439-4.119-2.543-7.814-6.661-8.255-4.126-.441-7.815 2.543-8.255 6.661-7.202 67.415-63.839 118.253-131.743 118.253-73.061 0-132.5-59.439-132.5-132.5s59.439-132.5 132.5-132.5c67.863 0 124.497 50.804 131.735 118.174.442 4.119 4.15 7.098 8.258 6.656 4.119-.442 7.099-4.14 6.656-8.258-3.346-31.139-16.524-60.216-37.494-83.269 24.256-21.524 55.19-33.303 87.845-33.303 73.061 0 132.5 59.439 132.5 132.5s-59.439 132.5-132.5 132.5z"/></g></svg>