<svg id="Capa_1" enable-background="new 0 0 512 512" height="512" viewBox="0 0 512 512" width="512" xmlns="http://www.w3.org/2000/svg"><g><g><path d="m189.012 24.271-.152-.546c-2.67-9.59-11.405-16.225-21.36-16.225-9.955 0-18.69 6.635-21.36 16.225l-.152.546c-17.022 61.122-52.994 114.989-101.872 155.445-22.872 18.932-36.616 43.216-36.616 69.697 0 60.461 71.634 109.474 160 109.474s160-49.013 160-109.474c0-26.482-13.744-50.766-36.616-69.698-48.878-40.455-84.85-94.322-101.872-155.444z" fill="#dc6646"/></g><g><path d="m290.884 179.716c-15.957-13.208-30.528-27.853-43.523-43.705-20.933 50.862-54.498 96.186-98.508 132.613-27.025 22.369-44.677 49.846-51.348 79.254 21.144 7.05 44.893 11.009 69.995 11.009 88.365 0 160-49.013 160-109.474 0-26.481-13.744-50.766-36.616-69.697z" fill="#d85536"/></g><g><path d="m340.046 107.143-.181-.648c-3.171-11.388-13.544-19.267-25.365-19.267-11.822 0-22.194 7.879-25.365 19.267l-.181.648c-20.213 72.583-62.93 136.549-120.972 184.591-27.162 22.481-43.482 51.319-43.482 82.766 0 71.797 85.066 130 190 130s190-58.203 190-130c0-31.447-16.32-60.285-43.482-82.766-58.042-48.042-100.759-112.008-120.972-184.591z" fill="#e7886e"/></g><g><path d="m223.25 374.5c0-71.791 85.051-129.99 189.973-130-33.79-39.883-59.014-86.5-73.177-137.357l-.18-.648c-3.171-11.388-13.544-19.267-25.365-19.267s-22.194 7.879-25.365 19.267l-.18.648c-20.213 72.583-62.93 136.549-120.972 184.591-27.163 22.481-43.484 51.319-43.484 82.766 0 71.797 85.066 130 190 130 17.08 0 33.629-1.551 49.375-4.443-80.992-14.874-140.625-65.447-140.625-125.557z" fill="#dc6646"/></g><g><g><g><ellipse cx="230.653" cy="353.459" fill="#fff" rx="30.938" ry="24.637"/></g><g><ellipse cx="398.347" cy="353.459" fill="#fff" rx="30.938" ry="24.637"/></g><g><ellipse cx="314.5" cy="334.529" fill="#333843" rx="16.423" ry="18.377"/></g></g><g><path d="m314.5 360.406c-13.191 0-23.923-11.608-23.923-25.877s10.731-25.877 23.923-25.877 23.923 11.608 23.923 25.877-10.732 25.877-23.923 25.877zm0-36.754c-4.92 0-8.923 4.879-8.923 10.877s4.003 10.877 8.923 10.877 8.923-4.879 8.923-10.877-4.003-10.877-8.923-10.877z"/></g><g><path d="m266.149 331.034c-4.143 0-7.5-3.357-7.5-7.5 0-3.455-2.811-6.266-6.265-6.266-3.455 0-6.266 2.811-6.266 6.266 0 4.143-3.357 7.5-7.5 7.5s-7.5-3.357-7.5-7.5c0-11.726 9.54-21.266 21.266-21.266s21.265 9.54 21.265 21.266c0 4.143-3.357 7.5-7.5 7.5z"/></g><g><path d="m389.194 331.034c-4.143 0-7.5-3.357-7.5-7.5 0-3.455-2.811-6.266-6.265-6.266-3.455 0-6.266 2.811-6.266 6.266 0 4.143-3.357 7.5-7.5 7.5s-7.5-3.357-7.5-7.5c0-11.726 9.54-21.266 21.266-21.266s21.265 9.54 21.265 21.266c0 4.143-3.357 7.5-7.5 7.5z"/></g></g><g><g><path d="m110.052 193.122c-4.143 0-7.5-3.357-7.5-7.5v-12c0-4.143 3.357-7.5 7.5-7.5s7.5 3.357 7.5 7.5v12c0 4.143-3.358 7.5-7.5 7.5z"/></g><g><path d="m224.948 193.122c-4.143 0-7.5-3.357-7.5-7.5v-12c0-4.143 3.357-7.5 7.5-7.5s7.5 3.357 7.5 7.5v12c0 4.143-3.357 7.5-7.5 7.5z"/></g><g><path d="m167.5 200.266c-8.478 0-16.54-3.672-22.118-10.074-2.722-3.122-2.396-7.86.728-10.581 3.122-2.721 7.86-2.396 10.581.728 2.729 3.132 6.669 4.928 10.81 4.928s8.08-1.796 10.81-4.928c2.721-3.124 7.458-3.449 10.581-.728s3.449 7.459.728 10.581c-5.58 6.402-13.642 10.074-22.12 10.074z"/></g></g><path d="m465.801 285.957c-57.959-47.973-98.946-110.501-118.53-180.827l-.18-.647c-4.059-14.575-17.461-24.755-32.591-24.755s-28.532 10.18-32.59 24.754l-.182.649c-3.996 14.35-8.881 28.364-14.626 42.01-16.906-17.97-31.515-37.769-43.502-58.979-2.038-3.605-6.614-4.878-10.22-2.839-3.605 2.038-4.877 6.613-2.839 10.22 13.582 24.033 30.371 46.331 49.928 66.346-11.892 24.951-26.755 48.58-44.509 70.637-2.597 3.227-2.087 7.947 1.14 10.545 3.229 2.598 7.949 2.086 10.546-1.141 32.018-39.778 55.075-84.451 68.532-132.775l.182-.649c2.259-8.112 9.718-13.778 18.14-13.778s15.881 5.666 18.141 13.779l.18.647c20.41 73.29 63.086 138.423 123.416 188.357 26.286 21.759 40.763 49.1 40.763 76.989 0 67.547-81.869 122.5-182.5 122.5s-182.5-54.953-182.5-122.5c0-27.889 14.477-55.23 40.764-76.988 12.21-10.106 23.889-21.033 34.714-32.479 2.846-3.009 2.714-7.756-.296-10.603-3.009-2.846-7.756-2.714-10.603.296-10.407 11.004-21.638 21.511-33.38 31.23-21.114 17.477-35.496 38.363-42.088 60.595-62.79-13.457-106.111-52.805-106.111-97.138 0-23.126 12.039-45.827 33.898-63.92 50.99-42.204 87.062-97.259 104.313-159.207l.153-.549c1.761-6.322 7.574-10.737 14.136-10.737s12.375 4.415 14.137 10.74l.151.542c3.952 14.193 8.985 28.25 14.961 41.78 1.672 3.789 6.103 5.504 9.89 3.832 3.789-1.674 5.505-6.102 3.831-9.891-5.684-12.873-10.473-26.245-14.233-39.749l-.151-.543c-3.562-12.782-15.315-21.711-28.586-21.711s-25.024 8.929-28.584 21.709l-.153.55c-16.427 58.987-50.809 111.438-99.429 151.68-25.365 20.994-39.334 47.797-39.334 75.474 0 51.508 48.158 96.81 117.932 111.795-.611 4.402-.932 8.837-.932 13.292 0 37.275 20.923 72.119 58.915 98.113 37.121 25.4 86.338 39.387 138.585 39.387s101.464-13.987 138.585-39.387c37.992-25.994 58.915-60.838 58.915-98.113 0-32.438-16.407-63.884-46.199-88.543z"/></g></svg>