<svg id="Capa_1" enable-background="new 0 0 512 512" height="512" viewBox="0 0 512 512" width="512" xmlns="http://www.w3.org/2000/svg"><g><g><path d="m256 504.5c-22.091 0-40-17.909-40-40v-120h80v120c0 22.091-17.909 40-40 40z" fill="#ffd3a3"/></g><g><path d="m256 464.5v-27h40v-93h-80v120c0 22.091 17.909 40 40 40 7.288 0 14.115-1.959 20-5.365-11.953-6.917-20-19.832-20-34.635z" fill="#ffbe74"/></g><g><path d="m296 407.5h-80c-55.228 0-100-44.772-100-100v-160c0-77.32 62.68-140 140-140 77.32 0 140 62.68 140 140v160c0 55.228-44.772 100-100 100z" fill="#e7886e"/></g><g><path d="m196 307.5v-160c0-63.419 42.172-116.979 100-134.191-12.675-3.773-26.099-5.809-40-5.809-77.32 0-140 62.68-140 140v160c0 55.229 44.772 100 100 100h80c-55.228 0-100-44.771-100-100z" fill="#dc6646"/></g><g><g><g><ellipse cx="176.355" cy="155.769" fill="#fff" rx="29.387" ry="23.403"/></g><g><ellipse cx="335.645" cy="155.769" fill="#fff" rx="29.387" ry="23.403"/></g><g><path d="m279.694 137.787c0-14.643-10.608-16.019-23.693-16.019-13.086 0-23.694 1.376-23.694 16.019s10.608 26.513 23.694 26.513c13.085 0 23.693-11.87 23.693-26.513z" fill="#333843"/></g></g><g><path d="m181.268 135.329c-4.142 0-7.5-3.358-7.5-7.5v-12c0-4.142 3.358-7.5 7.5-7.5s7.5 3.358 7.5 7.5v12c0 4.142-3.358 7.5-7.5 7.5z"/></g><g><path d="m256 171.8c-17.2 0-31.193-15.258-31.193-34.013 0-23.519 21.859-23.519 31.193-23.519s31.193 0 31.193 23.519c0 18.755-13.993 34.013-31.193 34.013zm0-42.531c-15.539 0-16.193 2.611-16.193 8.519 0 10.484 7.264 19.013 16.193 19.013s16.193-8.529 16.193-19.013c0-5.908-.654-8.519-16.193-8.519z"/></g><g><path d="m330.732 135.329c-4.142 0-7.5-3.358-7.5-7.5v-12c0-4.142 3.358-7.5 7.5-7.5s7.5 3.358 7.5 7.5v12c0 4.142-3.358 7.5-7.5 7.5z"/></g></g><g><circle cx="206" cy="246.066" fill="#dc6646" r="20"/></g><g><circle cx="340" cy="299.066" fill="#dc6646" r="20"/></g><g><circle cx="301" cy="355.066" fill="#dc6646" r="15"/></g><g><path d="m396 170c-4.142 0-7.5 3.358-7.5 7.5v130c0 51.005-41.495 92.5-92.5 92.5h-80c-19.913 0-38.879-6.228-54.851-18.01-3.332-2.458-8.029-1.75-10.488 1.583s-1.75 8.029 1.583 10.488c16.551 12.209 35.867 19.272 56.255 20.667v49.772c0 26.191 21.309 47.5 47.5 47.5s47.5-21.309 47.5-47.5v-49.766c55.79-3.864 100-50.48 100-107.234v-130c.001-4.142-3.357-7.5-7.499-7.5zm-107.5 294.5c0 17.92-14.58 32.5-32.5 32.5s-32.5-14.58-32.5-32.5v-49.5h65z"/><path d="m123.5 307.5v-160c0-73.061 59.439-132.5 132.5-132.5s132.5 59.439 132.5 132.5c0 4.142 3.358 7.5 7.5 7.5s7.5-3.358 7.5-7.5c0-81.332-66.168-147.5-147.5-147.5s-147.5 66.168-147.5 147.5v160c0 23.144 7.243 45.193 20.945 63.764 1.471 1.994 3.741 3.048 6.041 3.048 1.546 0 3.107-.477 4.447-1.465 3.333-2.459 4.042-7.155 1.583-10.488-11.787-15.974-18.016-34.943-18.016-54.859z"/></g></g></svg>