<svg id="Capa_1" enable-background="new 0 0 512 512" height="512" viewBox="0 0 512 512" width="512" xmlns="http://www.w3.org/2000/svg"><g><g><path d="m256 504.5c-22.091 0-40-17.909-40-40v-120h80v120c0 22.091-17.909 40-40 40z" fill="#ffd3a3"/></g><g><path d="m256 464.5v-27h40v-93h-80v120c0 22.091 17.909 40 40 40 7.288 0 14.115-1.959 20-5.365-11.953-6.917-20-19.832-20-34.635z" fill="#ffbe74"/></g><g><path d="m316 407.5h-120c-22.091 0-40-17.909-40-40v-320c0-22.091 17.909-40 40-40h120c22.091 0 40 17.909 40 40v320c0 22.091-17.909 40-40 40z" fill="#fbf081"/></g><g><path d="m256 367.5v-320c0-22.091 17.909-40 40-40h-100c-22.091 0-40 17.909-40 40v320c0 22.091 17.909 40 40 40h100c-22.091 0-40-17.909-40-40z" fill="#fad271"/></g><g><path d="m356 195.588v-91.84l-198.393-67.468c-1.039 3.561-1.607 7.323-1.607 11.22v80.073z" fill="#ff7591"/></g><g><path d="m156 219.412v91.84l198.393 67.468c1.039-3.561 1.607-7.323 1.607-11.22v-80.073z" fill="#be9edf"/></g><g><path d="m256 253.42-100-34.008v91.84l100 34.008z" fill="#938ed9"/></g><g><path d="m256 69.74-98.393-33.46c-1.039 3.561-1.607 7.323-1.607 11.22v80.073l100 34.007z" fill="#fd5c70"/></g><path d="m356 138.958c4.143 0 7.5-3.358 7.5-7.5v-83.958c0-26.191-21.309-47.5-47.5-47.5h-120c-26.191 0-47.5 21.309-47.5 47.5v320c0 26.191 21.309 47.5 47.5 47.5h12.5v49.5c0 26.191 21.309 47.5 47.5 47.5s47.5-21.309 47.5-47.5v-49.5h12.5c26.191 0 47.5-21.309 47.5-47.5v-206.042c0-4.142-3.357-7.5-7.5-7.5s-7.5 3.358-7.5 7.5v23.657l-185-62.913v-74.702c0-.43.016-.857.033-1.283l184.967 62.902v22.339c0 4.142 3.357 7.5 7.5 7.5zm-67.5 325.542c0 17.92-14.579 32.5-32.5 32.5-17.92 0-32.5-14.58-32.5-32.5v-49.5h65zm27.5-64.5h-120c-17.92 0-32.5-14.58-32.5-32.5v-45.776l20.178 6.862c.8.272 1.614.401 2.415.401 3.123 0 6.039-1.966 7.1-5.087 1.333-3.921-.764-8.182-4.686-9.515l-25.007-8.504v-75.996l185 62.913v74.702c0 .43-.016.857-.032 1.283l-130.049-44.226c-3.922-1.334-8.181.764-9.515 4.686-1.333 3.921.764 8.182 4.686 9.515l130.827 44.49c-5.555 9.982-16.208 16.752-28.417 16.752zm32.5-199.041v75.996l-185-62.913v-75.997zm-180.916-169.208c5.554-9.98 16.207-16.751 28.416-16.751h120c17.921 0 32.5 14.58 32.5 32.5v45.775z"/></g></svg>