<svg id="Capa_1" enable-background="new 0 0 512 512" height="512" viewBox="0 0 512 512" width="512" xmlns="http://www.w3.org/2000/svg"><g><g><path d="m256 504.5c-22.091 0-40-17.909-40-40v-120h80v120c0 22.092-17.908 40-40 40z" fill="#ffd3a3"/></g><g><path d="m256 464.5v-27h40v-93h-80v120c0 22.091 17.909 40 40 40 7.288 0 14.115-1.959 20-5.365-11.952-6.916-20-19.831-20-34.635z" fill="#ffbe74"/></g><g><path d="m416.151 301.402h-320.301l-14.46 28.921c-8.138 16.276-1.075 35.997 15.486 43.539 48.489 22.08 102.369 34.382 159.125 34.382s110.635-12.303 159.125-34.382c16.561-7.541 23.624-27.262 15.486-43.539z" fill="#50e3cf"/></g><g><path d="m95.85 301.402-14.46 28.921c-8.138 16.276-1.075 35.997 15.486 43.539 36.875 16.791 76.87 27.92 118.874 32.292-17.502-1.626-30.449-17.064-28.959-34.61 1.497-17.633 17.006-30.714 34.639-29.216v-40.925h-125.58z" fill="#17d9bf"/></g><g><path d="m95.85 301.402c48.161 27.891 103.009 42.77 160.15 42.77s111.989-14.879 160.15-42.77l-141.047-282.096c-7.871-15.741-30.334-15.741-38.205 0z" fill="#ff7591"/></g><g><path d="m290.003 49.106-14.9-29.8c-7.871-15.741-30.334-15.741-38.205 0l-141.048 282.096c17.627 10.208 36.153 18.665 55.357 25.296z" fill="#fd5c70"/></g><g><g><g><ellipse cx="176.444" cy="278.025" fill="#fff" rx="29.355" ry="23.377"/></g><g><ellipse cx="335.557" cy="278.025" fill="#fff" rx="29.355" ry="23.377"/></g></g><g><path d="m193.552 263.022c-4.143 0-7.5-3.358-7.5-7.5v-12c0-4.142 3.357-7.5 7.5-7.5s7.5 3.358 7.5 7.5v12c0 4.142-3.357 7.5-7.5 7.5z"/></g><g><path d="m318.448 263.022c-4.143 0-7.5-3.358-7.5-7.5v-12c0-4.142 3.357-7.5 7.5-7.5s7.5 3.358 7.5 7.5v12c0 4.142-3.357 7.5-7.5 7.5z"/></g><g><path d="m256 270.166c-8.479 0-16.54-3.671-22.118-10.073-2.722-3.123-2.396-7.86.728-10.582 3.122-2.721 7.86-2.396 10.581.727 2.729 3.132 6.669 4.928 10.81 4.928s8.081-1.796 10.81-4.928c2.721-3.124 7.458-3.448 10.581-.727s3.449 7.458.728 10.582c-5.58 6.401-13.641 10.073-22.12 10.073z"/></g></g><g><path d="m248.5 162.324v12c0 4.142 3.357 7.5 7.5 7.5s7.5-3.358 7.5-7.5v-12c0-4.142-3.357-7.5-7.5-7.5s-7.5 3.358-7.5 7.5z"/><path d="m218.5 120.324v12c0 4.142 3.357 7.5 7.5 7.5s7.5-3.358 7.5-7.5v-12c0-4.142-3.357-7.5-7.5-7.5s-7.5 3.358-7.5 7.5z"/><path d="m278.5 120.324v12c0 4.142 3.357 7.5 7.5 7.5s7.5-3.358 7.5-7.5v-12c0-4.142-3.357-7.5-7.5-7.5s-7.5 3.358-7.5 7.5z"/><path d="m437.319 326.969-102.563-205.125c-1.851-3.705-6.354-5.207-10.063-3.354-3.704 1.852-5.206 6.357-3.354 10.062l84.91 169.82c-45.685 25.071-97.511 38.3-150.25 38.3-28.728 0-57.151-3.864-84.48-11.485-3.992-1.111-8.127 1.22-9.239 5.21s1.22 8.126 5.21 9.239c28.642 7.987 58.421 12.037 88.51 12.037 55.066 0 109.192-13.774 156.961-39.878l10.941 21.883c3 6 3.421 12.788 1.184 19.114-2.254 6.375-6.896 11.433-13.069 14.245-49.121 22.366-101.612 33.707-156.017 33.707s-106.896-11.341-156.017-33.708c-6.174-2.812-10.815-7.87-13.069-14.245-2.237-6.326-1.816-13.114 1.184-19.114l10.939-21.878c12.659 6.92 25.841 13.027 39.266 18.185.885.34 1.794.501 2.688.501 3.015 0 5.857-1.83 7.003-4.812 1.485-3.867-.444-8.206-4.312-9.691-12.974-4.985-25.709-10.904-37.93-17.613l137.854-275.708c2.398-4.797 7.032-7.661 12.394-7.661s9.996 2.864 12.395 7.66l39.495 78.992c1.852 3.705 6.357 5.208 10.063 3.354 3.704-1.852 5.206-6.357 3.354-10.062l-39.495-78.992c-4.921-9.839-14.811-15.952-25.812-15.952s-20.89 6.113-25.81 15.952l-155.508 311.017c-4.839 9.676-5.517 20.623-1.909 30.823 3.624 10.25 11.08 18.38 20.994 22.896 36.633 16.68 75.064 27.463 114.733 32.23v51.582c0 26.191 21.309 47.5 47.5 47.5s47.5-21.309 47.5-47.5v-51.584c39.669-4.767 78.101-15.55 114.733-32.23 9.914-4.515 17.37-12.646 20.994-22.896 3.608-10.199 2.93-21.145-1.908-30.821zm-148.819 137.531c0 17.92-14.579 32.5-32.5 32.5s-32.5-14.58-32.5-32.5v-50.076c10.753.875 21.589 1.319 32.5 1.319s21.747-.444 32.5-1.319z"/></g></g></svg>