<svg id="Capa_1" enable-background="new 0 0 511.146 511.146" height="512" viewBox="0 0 511.146 511.146" width="512" xmlns="http://www.w3.org/2000/svg"><g><g><path d="m284.039 7.559-20.992 1.615c-32.431 2.495-57.474 29.538-57.474 62.065v18.51h37.751c34.379 0 62.249-27.87 62.249-62.249 0-11.65-9.918-20.835-21.534-19.941z" fill="#fffddb"/></g><g><path d="m302.505 62.292-100 7.692c-20.84 1.603-36.932 18.981-36.932 39.882v36.036h180v-43.728c0-23.3-19.836-41.669-43.068-39.882z" fill="#fff3ac"/></g><g><path d="m281.742 63.889-79.237 6.095c-20.84 1.603-36.932 18.981-36.932 39.882v36.036h80v-42.208c0-20.644 15.702-37.84 36.169-39.805z" fill="#f9e99b"/></g><g><path d="m125.573 205.902v-32.959c0-20.901 16.092-38.279 36.932-39.882l180-13.846c23.232-1.787 43.068 16.582 43.068 39.882v46.805z" fill="#fffddb"/></g><g><path d="m239.903 127.108-77.398 5.954c-20.84 1.603-36.932 18.981-36.932 39.882v32.959h80v-39.208c0-20.022 14.769-36.8 34.33-39.587z" fill="#fff3ac"/></g><g><path d="m255.573 503.646c-23.258 0-43.283-16.417-47.845-39.223l-32.155-160.777h160l-32.155 160.777c-4.562 22.806-24.587 39.223-47.845 39.223z" fill="#ffd3a3"/></g><g><path d="m254.02 395.883c.518.005 1.034.02 1.553.02 22.842 0 44.571-4.83 64.247-13.493l15.753-78.764h-160l32.155 160.777c4.561 22.807 24.586 39.223 47.845 39.223 6.781 0 13.282-1.404 19.211-3.947z" fill="#ffbe74"/></g><g><path d="m385.573 235.902c0 71.797-58.203 130-130 130s-130-58.203-130-130v-30h260z" fill="#ffbe74"/></g><g><path d="m269.391 235.902v-30h-143.818v30c0 71.797 58.203 130 130 130 26.592 0 51.314-7.99 71.909-21.692-35.012-23.292-58.091-63.102-58.091-108.308z" fill="#f4a960"/></g><g><path d="m95.573 205.902c0-11.046 8.954-20 20-20h280c11.046 0 20 8.954 20 20 0 11.046-8.954 20-20 20h-280c-11.046 0-20-8.954-20-20z" fill="#ffd3a3"/></g><g><path d="m205.573 175.902v110c0 11.046 8.954 20 20 20 11.046 0 20-8.954 20-20v-40c0-11.046 8.954-20 20-20 11.046 0 20 8.954 20 20 0 11.046 8.954 20 20 20 11.046 0 20-8.954 20-20v-70z" fill="#fffddb"/></g><g><path d="m173.038 205.902c0-11.046 8.954-20 20-20h-77.465c-11.046 0-20 8.954-20 20 0 11.046 8.954 20 20 20h77.465c-11.046 0-20-8.954-20-20z" fill="#ffbe74"/></g><path d="m395.573 178.402h-2.5v-19.305c0-13.188-5.55-25.891-15.226-34.852-6.919-6.408-15.59-10.55-24.774-12.029v-10.043c0-13.188-5.55-25.891-15.226-34.852-8.294-7.681-19.1-12.115-30.296-12.592 3.631-8.553 5.523-17.779 5.523-27.231 0-7.635-3.213-14.99-8.815-20.178s-13.183-7.829-20.794-7.242l-20.992 1.615c-8.61.663-16.902 2.87-24.645 6.561-3.739 1.782-5.326 6.258-3.544 9.997 1.783 3.739 6.259 5.326 9.997 3.544 6.072-2.894 12.58-4.625 19.343-5.146l20.992-1.615c3.506-.275 6.867.898 9.452 3.292 2.584 2.393 4.007 5.65 4.007 9.172 0 10.021-2.703 19.713-7.828 28.213l-76.312 5.87c1.449-8.135 4.718-15.84 9.638-22.585 2.441-3.346 1.708-8.038-1.639-10.479-3.348-2.441-8.039-1.707-10.479 1.639-7.064 9.683-11.468 20.917-12.88 32.743-22.964 3.436-40.499 23.437-40.499 46.967v16.186c-22.719 3.649-40 23.532-40 46.891v5.459h-2.5c-15.164 0-27.5 12.336-27.5 27.5s12.336 27.5 27.5 27.5h2.5v2.5c0 46.425 23.071 87.912 58.879 112.882l23.422 117.108c5.245 26.221 28.459 45.252 55.199 45.252s49.955-19.031 55.199-45.252l23.396-116.979c.008-.042.011-.083.018-.125 35.813-24.969 58.887-66.459 58.887-112.888v-2.5h2.5c15.164 0 27.5-12.336 27.5-27.5s-12.34-27.498-27.503-27.498zm-192.493-100.939 100-7.692c9.13-.703 17.856 2.337 24.575 8.558 6.718 6.221 10.418 14.69 10.418 23.846v9.86l-165 12.692v-14.86c0-16.877 13.18-31.11 30.007-32.404zm-70.007 95.48c0-16.876 13.181-31.109 30.007-32.404l180-13.846c9.13-.703 17.857 2.337 24.575 8.558s10.418 14.689 10.418 23.846v19.305h-52.5c-.075 0-7.5.093-7.5 8.173v59.327c0 6.893-5.607 12.5-12.5 12.5s-12.5-5.607-12.5-12.5c0-15.164-12.336-27.5-27.5-27.5s-27.5 12.336-27.5 27.5v40c0 6.893-5.607 12.5-12.5 12.5s-12.5-5.607-12.5-12.5v-100c0-4.142-3.358-7.5-7.5-7.5h-72.5zm-30 32.959c0-6.893 5.607-12.5 12.5-12.5h82.5v25h-82.5c-6.893 0-12.5-5.607-12.5-12.5zm275 30c0 62.279-46.583 114.596-108.355 121.693-4.115.473-7.068 4.192-6.595 8.307.439 3.825 3.683 6.645 7.442 6.645.286 0 .575-.016.865-.049 16.219-1.864 31.504-6.504 45.407-13.414l-20.773 103.868c-3.847 19.234-20.875 33.194-40.49 33.194s-36.644-13.96-40.49-33.194l-20.774-103.868c13.902 6.91 29.188 11.551 45.407 13.414.291.033.579.049.865.049 3.759 0 7.002-2.82 7.442-6.645.473-4.115-2.48-7.834-6.595-8.307-61.772-7.097-108.355-59.414-108.355-121.693v-2.5h65v52.5c0 15.164 12.336 27.5 27.5 27.5s27.5-12.336 27.5-27.5v-40c0-6.893 5.607-12.5 12.5-12.5s12.5 5.607 12.5 12.5c0 15.164 12.336 27.5 27.5 27.5s27.5-12.336 27.5-27.5c0 0 0-5.181 0-12.5h45v2.5zm17.5-17.5h-62.5c0-9.175 0-18.663 0-25h62.5c6.893 0 12.5 5.607 12.5 12.5s-5.608 12.5-12.5 12.5z"/></g></svg>