<svg id="Capa_1" enable-background="new 0 0 512 512" height="512" viewBox="0 0 512 512" width="512" xmlns="http://www.w3.org/2000/svg"><g><g><circle cx="256" cy="89.838" fill="#84dfff" r="82.338"/></g><g><path d="m315.375 32.826c-22.464 2.593-42.93 11.842-59.375 25.715-16.445-13.873-36.911-23.121-59.375-25.714-14.211 14.796-22.963 34.876-22.963 57.012 0 45.474 36.864 82.338 82.338 82.338s82.338-36.864 82.338-82.338c0-22.137-8.752-42.216-22.963-57.013z" fill="#2fcffc"/></g><g><circle cx="328.333" cy="144.419" fill="#fffddb" r="82.338"/></g><g><path d="m245.995 144.419c0 26.823 12.832 50.641 32.685 65.675 12.914-18.647 20.487-41.275 20.487-65.675s-7.573-47.027-20.487-65.675c-19.853 15.033-32.685 38.852-32.685 65.675z" fill="#fff3ac"/></g><g><circle cx="183.667" cy="144.419" fill="#ff7591" r="82.338"/></g><g><path d="m147.984 144.419c0-37.368 24.902-68.903 59.01-78.965-7.399-2.182-15.222-3.373-23.328-3.373-45.474 0-82.338 36.864-82.338 82.338s36.864 82.338 82.338 82.338c8.105 0 15.929-1.191 23.328-3.373-34.108-10.062-59.01-41.597-59.01-78.965z" fill="#fd5c70"/></g><g><path d="m381.86 265.169 44.125-106.522c4.507-10.881-1.315-23.292-12.568-26.77-53.255-16.46-108.74-12.738-157.412 7.427v125.865z" fill="#ffd3a3"/></g><g><path d="m297.75 126.435c-14.308 2.982-28.288 7.294-41.745 12.87v125.865h125.855l15.407-37.194c-23.238-42.596-57.475-77.515-99.517-101.541z" fill="#ffbe74"/></g><g><path d="m381.86 265.169-88.901 214.637c-13.637 32.924-60.273 32.925-73.911.001l-88.908-214.638-44.125-106.522c-4.507-10.881 1.315-23.292 12.568-26.77 53.255-16.46 108.741-12.738 157.422 7.427 54.982 22.78 101.279 66.531 125.855 125.865z" fill="#ffd3a3"/></g><g><path d="m210.14 265.169-59.146-143.066c-17.499 1.209-35.073 4.416-52.411 9.774-11.252 3.478-17.075 15.889-12.568 26.77l44.125 106.522 88.908 214.638c13.638 32.924 60.274 32.923 73.91-.001l3.044-7.35z" fill="#ffbe74"/></g><g><g><g><ellipse cx="175.366" cy="264.733" fill="#ffa0ab" rx="29.355" ry="23.377"/></g><g><ellipse cx="334.479" cy="264.733" fill="#ffa0ab" rx="29.355" ry="23.377"/></g></g><g><path d="m192.474 249.729c-4.143 0-7.5-3.358-7.5-7.5v-12c0-4.142 3.357-7.5 7.5-7.5s7.5 3.358 7.5 7.5v12c0 4.143-3.358 7.5-7.5 7.5z"/></g><g><path d="m317.371 249.729c-4.143 0-7.5-3.358-7.5-7.5v-12c0-4.142 3.357-7.5 7.5-7.5s7.5 3.358 7.5 7.5v12c0 4.143-3.357 7.5-7.5 7.5z"/></g><g><path d="m254.922 256.873c-8.478 0-16.54-3.672-22.118-10.074-2.722-3.123-2.396-7.86.728-10.582 3.121-2.721 7.86-2.396 10.581.727 2.729 3.132 6.669 4.928 10.81 4.928s8.081-1.796 10.811-4.929c2.723-3.124 7.459-3.449 10.582-.726 3.123 2.722 3.447 7.459.727 10.582-5.582 6.403-13.644 10.074-22.121 10.074z"/></g></g><g><circle cx="252.545" cy="367.767" fill="#ffbe74" r="20"/></g><g><circle cx="304.455" cy="333.225" fill="#ffbe74" r="15"/></g><path d="m432.396 139.292c-3.226-6.867-9.186-12.111-16.388-14.453-8.31-37.38-39.573-65.166-77.093-69.615-13.864-33.149-46.81-55.224-82.915-55.224-36.13 0-69.052 22.065-82.919 55.223-37.542 4.446-68.78 32.223-77.091 69.616-7.201 2.342-13.162 7.586-16.387 14.452-3.284 6.991-3.473 15.092-.517 22.225l100.974 243.766c1.196 2.888 3.988 4.632 6.932 4.632.956 0 1.929-.184 2.867-.573 3.827-1.585 5.645-5.973 4.059-9.799l-100.974-243.766c-1.363-3.292-1.279-6.881.235-10.107 1.514-3.223 4.22-5.576 7.618-6.626 49.848-15.406 103.95-12.853 152.336 7.19 54.577 22.611 97.302 64.813 120.589 118.989l-87.692 211.715c-6.127 14.792-19.528 20.063-30.026 20.063-10.499 0-23.899-5.27-30.027-20.063l-20.513-49.521c-1.585-3.827-5.972-5.646-9.799-4.059-3.827 1.585-5.645 5.973-4.059 9.799l20.513 49.521c7.491 18.088 24.308 29.323 43.885 29.323s36.393-11.236 43.884-29.323l133.025-321.159c2.956-7.134 2.768-15.235-.517-22.226zm-176.396-124.292c27.771 0 53.296 15.679 66.141 39.818-3.856.263-7.69.747-11.454 1.496-4.062.81-6.699 4.759-5.89 8.821s4.755 6.702 8.821 5.89c4.812-.958 9.763-1.445 14.715-1.445 32.334 0 60.7 20.807 70.864 50.705-42.132-9.771-86.398-7.908-127.679 5.356-1.501-7.074-3.843-13.902-6.975-20.365 6.06-9.849 14.411-18.271 24.227-24.396 3.514-2.193 4.585-6.82 2.392-10.333-2.193-3.516-6.822-4.584-10.333-2.392-9.634 6.013-18.089 13.87-24.83 22.999-2.976-4.027-6.285-7.845-9.954-11.386-15.336-14.8-35.096-23.515-56.183-24.951 12.843-24.144 38.347-39.817 66.138-39.817zm-143.194 105.283c10.161-29.904 38.503-50.703 70.861-50.703 36.72 0 67.192 26.102 73.594 61.144-.42.165-.839.331-1.258.498-45.579-18.192-95.717-21.953-143.197-10.939zm306.25 35.494-37.536 90.622c-23.08-46.11-59.899-83.076-105.888-106.325 43.9-14.216 91.431-14.673 135.57-1.031 3.398 1.05 6.104 3.404 7.618 6.626 1.515 3.227 1.599 6.816.236 10.108z"/></g></svg>