<svg id="Capa_1" enable-background="new 0 0 512 512" height="512" viewBox="0 0 512 512" width="512" xmlns="http://www.w3.org/2000/svg"><g><g><path d="m110.333 281.299 17.15 159.674 128.517 27.36 128.517-27.36 16.95-157.81-145.467-38.558z" fill="#84dfff"/></g><g><path d="m225.435 461.019-21.827-203.216-93.275 23.496 17.15 159.674 98.061 20.876c-.035-.277-.079-.551-.109-.83z" fill="#2fcffc"/></g><g><path d="m110.333 281.299c11.622 6.895 24.05 13.306 47.163 13.306 49.999 0 49.999-30 99.999-30 50.001 0 50.001 30 100.003 30 21.014 0 33.196-5.299 43.97-11.443l12.734-118.557h-316.403z" fill="#fbf081"/></g><g><path d="m127.483 440.973 2.153 20.046c2.656 24.731 23.529 43.481 48.402 43.481h155.924c24.873 0 45.745-18.751 48.402-43.481l2.153-20.046z" fill="#be9edf"/></g><g><path d="m225.435 461.019-2.153-20.046h-95.799l2.153 20.046c2.656 24.731 23.529 43.481 48.402 43.481h95.799c-24.873 0-45.746-18.751-48.402-43.481z" fill="#938ed9"/></g><g><path d="m193.597 164.605h-95.798l12.534 116.694c11.622 6.895 24.05 13.306 47.163 13.306 24.032 0 36.513-6.931 48.547-14.13z" fill="#fad271"/></g><g><g><g><ellipse cx="172.153" cy="376.336" fill="#fff" rx="30.938" ry="24.637"/></g><g><ellipse cx="339.847" cy="376.336" fill="#fff" rx="30.938" ry="24.637"/></g><g><ellipse cx="256" cy="357.406" fill="#333843" rx="16.423" ry="18.377"/></g></g><g><path d="m177.325 354.105c-4.143 0-7.5-3.358-7.5-7.5v-12c0-4.142 3.357-7.5 7.5-7.5s7.5 3.358 7.5 7.5v12c0 4.143-3.357 7.5-7.5 7.5z"/></g><g><path d="m256 383.283c-13.191 0-23.923-11.608-23.923-25.877s10.731-25.877 23.923-25.877 23.923 11.608 23.923 25.877-10.732 25.877-23.923 25.877zm0-36.754c-4.92 0-8.923 4.879-8.923 10.877s4.003 10.877 8.923 10.877 8.923-4.879 8.923-10.877-4.003-10.877-8.923-10.877z"/></g><g><path d="m334.675 354.105c-4.143 0-7.5-3.358-7.5-7.5v-12c0-4.142 3.357-7.5 7.5-7.5s7.5 3.358 7.5 7.5v12c0 4.143-3.358 7.5-7.5 7.5z"/></g></g><g><path d="m56 164.605c0-11.046 8.954-20 20-20h360c11.046 0 20 8.954 20 20 0 11.046-8.954 20-20 20h-360c-11.046 0-20-8.954-20-20z" fill="#938ed9"/></g><g><path d="m56 124.605c0-11.046 8.954-20 20-20h360c11.046 0 20 8.954 20 20 0 11.046-8.954 20-20 20h-360c-11.046 0-20-8.954-20-20z" fill="#be9edf"/></g><g><path d="m153 124.605c0-11.046 8.954-20 20-20h-97c-11.046 0-20 8.954-20 20 0 11.046 8.954 20 20 20h97c-11.046 0-20-8.954-20-20z" fill="#938ed9"/></g><path d="m454.845 144.605c5.323-5.018 8.655-12.125 8.655-20 0-15.164-12.337-27.5-27.5-27.5h-15.268c-17.154-56.544-85.428-97.105-164.732-97.105-79.351 0-147.582 40.549-164.735 97.105h-15.265c-15.163 0-27.5 12.336-27.5 27.5 0 7.875 3.333 14.982 8.655 20-5.323 5.018-8.655 12.125-8.655 20 0 15.164 12.337 27.5 27.5 27.5h17.209l18.251 169.92c.413 3.847 3.665 6.7 7.448 6.7.268 0 .538-.014.81-.043 4.118-.442 7.099-4.14 6.656-8.258l-7.075-65.866c9.37 4.205 21.225 7.548 38.196 7.548 27.077 0 41.305-8.537 53.857-16.069 11.94-7.164 23.219-13.931 46.142-13.931s34.201 6.767 46.143 13.931c12.554 7.532 26.782 16.069 53.86 16.069 15.141 0 26.121-2.611 35.059-6.212l-14.778 137.58h-243.557l-4.639-43.186c-.442-4.119-4.144-7.099-8.258-6.656-4.119.442-7.099 4.14-6.656 8.258l7.512 69.93c3.072 28.607 27.087 50.18 55.858 50.18h155.924c28.771 0 52.786-21.573 55.858-50.181l28.97-269.714h17.21c15.163 0 27.5-12.336 27.5-27.5 0-7.874-3.333-14.982-8.655-20zm-298.973-103.111c27.87-17.085 63.43-26.494 100.128-26.494 36.649 0 72.173 9.387 100.027 26.432 23.951 14.657 41.027 34.191 48.891 55.674h-297.837c7.852-21.453 24.888-40.96 48.791-55.612zm178.09 455.506h-155.924c-21.09 0-38.692-15.813-40.944-36.782l-1.262-11.745h240.336l-1.261 11.745c-2.253 20.969-19.855 36.782-40.945 36.782zm60.466-218.53c-9.913 5.235-20.396 8.635-36.931 8.635-22.924 0-34.202-6.767-46.144-13.931-12.554-7.532-26.781-16.069-53.859-16.069-27.077 0-41.306 8.537-53.858 16.069-11.94 7.164-23.219 13.931-46.141 13.931-19.577 0-30.347-4.809-40.111-10.378l-9.089-84.622h295.409zm41.572-101.365h-360c-6.893 0-12.5-5.607-12.5-12.5s5.607-12.5 12.5-12.5h243.675c4.143 0 7.5-3.358 7.5-7.5s-3.357-7.5-7.5-7.5h-243.675c-6.893 0-12.5-5.607-12.5-12.5s5.607-12.5 12.5-12.5h360c6.893 0 12.5 5.607 12.5 12.5s-5.607 12.5-12.5 12.5h-86.324c-4.143 0-7.5 3.358-7.5 7.5s3.357 7.5 7.5 7.5h86.324c6.893 0 12.5 5.607 12.5 12.5s-5.607 12.5-12.5 12.5z"/></g></svg>