<svg id="Capa_1" enable-background="new 0 0 512 512" height="512" viewBox="0 0 512 512" width="512" xmlns="http://www.w3.org/2000/svg"><g><g><g><path d="m122.318 93.913c0 11.088-4.633 21.123-12.116 28.376-1.43 1.386-3.753 1.386-5.183 0-7.484-7.253-12.116-17.288-12.116-28.376s4.633-21.123 12.116-28.376c1.43-1.386 3.753-1.386 5.183 0 7.483 7.253 12.116 17.288 12.116 28.376z" fill="#17d9bf"/></g></g><g><g><path d="m57.59 158.641c11.088 0 21.123-4.633 28.376-12.116 1.386-1.43 1.386-3.753 0-5.183-7.253-7.484-17.288-12.116-28.376-12.116s-21.123 4.633-28.376 12.116c-1.386 1.43-1.386 3.753 0 5.183 7.253 7.484 17.287 12.116 28.376 12.116z" fill="#50e3cf"/></g></g><g><g><path d="m57.445 137.215c12.552 5.199 26.083 4.66 37.803-.411 2.24-.969 3.329-3.598 2.43-5.867-4.701-11.872-13.888-21.822-26.44-27.021s-26.083-4.66-37.803.411c-2.24.969-3.329 3.598-2.43 5.867 4.702 11.872 13.888 21.821 26.44 27.021z" fill="#17d9bf"/></g></g><g><path d="m100.891 93.769c5.199 12.552 4.66 26.083-.411 37.803-.969 2.24-3.598 3.329-5.867 2.43-11.872-4.701-21.822-13.888-27.021-26.44s-4.66-26.083.411-37.803c.969-2.24 3.598-3.329 5.867-2.43 11.873 4.701 21.822 13.888 27.021 26.44z" fill="#50e3cf"/></g><g><path d="m172.765 101.144c-42.73-17.543-82.784 25.16-82.784 25.16s-42.703 40.054-25.16 82.784 123.679 72.706 152.165 44.22-1.491-134.621-44.221-152.164z" fill="#ff7591"/></g><g><path d="m216.985 253.309c28.485-28.485-1.49-134.622-44.22-152.165-9.613-3.947-19.089-4.838-28.005-3.858-11.901 19.625-18.76 42.632-18.76 67.212 0 5.411.338 10.745.983 15.985-22.364 7.051-42.12 20.013-57.471 37.022 26.761 38.072 120.9 62.378 147.473 35.804z" fill="#fd5c70"/></g><g><circle cx="256" cy="164.498" fill="#fffddb" r="100"/></g><g><g><path d="m198.551 134.426c-4.142 0-7.5-3.358-7.5-7.5v-12c0-4.142 3.358-7.5 7.5-7.5s7.5 3.358 7.5 7.5v12c0 4.142-3.358 7.5-7.5 7.5z"/></g><g><path d="m313.449 134.426c-4.142 0-7.5-3.358-7.5-7.5v-12c0-4.142 3.358-7.5 7.5-7.5s7.5 3.358 7.5 7.5v12c0 4.142-3.358 7.5-7.5 7.5z"/></g><g><path d="m256 141.569c-8.477 0-16.539-3.671-22.118-10.073-2.722-3.123-2.396-7.86.726-10.582s7.86-2.397 10.582.726c2.73 3.132 6.67 4.928 10.811 4.928s8.081-1.796 10.811-4.928c2.721-3.124 7.459-3.448 10.582-.726s3.448 7.459.726 10.582c-5.581 6.402-13.643 10.073-22.12 10.073z"/></g></g><g><path d="m346 174.498c-34.898 0-66.624 13.826-90 36.283-23.376-22.457-55.102-36.283-90-36.283-3.185 0-6.342.121-9.47.347 5.178 50.367 47.735 89.653 99.47 89.653s94.292-39.286 99.47-89.653c-3.128-.227-6.285-.347-9.47-.347z" fill="#fff3ac"/></g><g><path d="m318.401 393.884-36.955-15.307c-10.205-4.227-15.051-15.926-10.824-26.131l137.766-332.597c4.227-10.205 15.926-15.051 26.131-10.824l36.955 15.307c10.205 4.227 15.051 15.926 10.824 26.131l-137.765 332.597c-4.227 10.205-15.927 15.051-26.132 10.824z" fill="#ffd3a3"/></g><g><path d="m307.577 367.753 137.766-332.597c4.227-10.205 15.926-15.051 26.131-10.824l-36.955-15.307c-10.205-4.227-21.904.619-26.131 10.824l-137.766 332.597c-4.227 10.205.619 21.904 10.824 26.131l36.955 15.307c-10.205-4.227-15.051-15.926-10.824-26.131z" fill="#ffbe74"/></g><g><path d="m367.075 87.544h80v80h-80z" fill="#e7886e" transform="matrix(.383 -.924 .924 .383 133.459 454.824)"/></g><g><path d="m348.597 99.891h80v40h-80z" fill="#dc6646" transform="matrix(.383 -.924 .924 .383 129.123 433.028)"/></g><g><circle cx="346" cy="304.497" fill="#fbf081" r="100"/></g><g><path d="m246 304.498c0 27.536 11.131 52.471 29.137 70.555 13.191-20.334 20.863-44.565 20.863-70.555s-7.672-50.221-20.863-70.555c-18.006 18.084-29.137 43.019-29.137 70.555z" fill="#fad271"/></g><g><circle cx="166" cy="304.497" fill="#e7886e" r="100"/></g><g><path d="m116.179 304.498c0-46.564 31.825-85.693 74.911-96.825-8.018-2.072-16.425-3.175-25.089-3.175-55.228 0-100 44.771-100 100 0 55.228 44.772 100 100 100 8.665 0 17.072-1.103 25.089-3.175-43.086-11.133-74.911-50.262-74.911-96.825z" fill="#dc6646"/></g><g><g><path d="m108.694 274.302c-.002 0-.004 0-.006 0-4.142-.003-7.498-3.364-7.494-7.506l.009-11.876c.003-4.14 3.36-7.494 7.5-7.494h.006c4.142.003 7.498 3.364 7.494 7.506l-.009 11.876c-.003 4.14-3.36 7.494-7.5 7.494z"/></g><g><path d="m223.296 274.426c-.002 0-.004 0-.006 0-4.142-.003-7.498-3.364-7.494-7.506l.009-11.876c.003-4.14 3.36-7.494 7.5-7.494h.006c4.142.003 7.498 3.364 7.494 7.506l-.009 11.876c-.003 4.14-3.36 7.494-7.5 7.494z"/></g><g><path d="m182.679 279.651c-.002 0-.004 0-.006 0l-33.378-.029c-4.142-.003-7.497-3.364-7.494-7.506.003-4.14 3.361-7.494 7.5-7.494h.006l33.378.029c4.142.003 7.497 3.364 7.494 7.506-.003 4.141-3.361 7.494-7.5 7.494z"/></g></g><g><path d="m46 364.498c0 77.32 94.02 140 210 140s210-62.68 210-140z" fill="#6c8199"/></g><g><path d="m7.5 364.498c0-11.046 8.954-20 20-20h457c11.046 0 20 8.954 20 20 0 11.046-8.954 20-20 20h-457c-11.046 0-20-8.955-20-20z" fill="#899bb0"/></g><g><path d="m104.5 364.498c0-11.046 8.954-20 20-20h-97c-11.046 0-20 8.954-20 20 0 11.046 8.954 20 20 20h97c-11.046-.001-20-8.955-20-20z" fill="#6c8199"/></g><g><path d="m295.47 334.497v110c0 11.046 8.954 20 20 20 11.046 0 20-8.954 20-20v-40c0-11.046 8.954-20 20-20 11.046 0 20 8.954 20 20 0 11.046 8.954 20 20 20 11.046 0 20-8.954 20-20v-70z" fill="#fbf081"/></g><g><path d="m288.551 247.426c-4.142 0-7.5 3.358-7.5 7.5v12c0 4.142 3.358 7.5 7.5 7.5s7.5-3.358 7.5-7.5v-12c0-4.142-3.358-7.5-7.5-7.5z"/><path d="m403.449 247.426c-4.142 0-7.5 3.358-7.5 7.5v12c0 4.142 3.358 7.5 7.5 7.5s7.5-3.358 7.5-7.5v-12c0-4.142-3.358-7.5-7.5-7.5z"/><path d="m375.093 266.581c-4.142 0-7.5 3.358-7.5 7.5 0 3.835-3.12 6.956-6.956 6.956s-6.956-3.12-6.956-6.956c0-4.142-3.358-7.5-7.5-7.5s-7.5 3.358-7.5 7.5c0 3.835-3.12 6.956-6.956 6.956s-6.956-3.12-6.956-6.956c0-4.142-3.358-7.5-7.5-7.5s-7.5 3.358-7.5 7.5c0 12.106 9.849 21.956 21.956 21.956 5.533 0 10.59-2.062 14.456-5.451 3.865 3.39 8.923 5.451 14.456 5.451 12.106 0 21.956-9.849 21.956-21.956 0-4.143-3.358-7.5-7.5-7.5z"/></g><path d="m484.5 336.998h-36.008c3.321-10.465 5.008-21.358 5.008-32.5 0-31.527-13.642-59.926-35.333-79.608l71.061-171.556c5.803-14.009-.874-30.128-14.883-35.931l-36.955-15.307c-14.01-5.803-30.128.874-35.931 14.883l-45.105 108.893c-15.674-40.855-55.198-68.874-100.354-68.874-32.303 0-61.322 14.324-81.045 36.952-16.105-6.414-31.644-5.398-45.168-1.228-.309-12.325-5.373-23.853-14.367-32.57-4.306-4.174-11.313-4.174-15.623 0-2.929 2.84-5.468 6.035-7.566 9.481-4.589-3.846-9.826-6.991-15.6-9.277-5.993-2.373-12.951.509-15.512 6.425-3.642 8.418-5.152 17.329-4.559 26.127-8.838-.571-17.826.955-26.104 4.535-5.916 2.56-8.798 9.519-6.425 15.512 2.287 5.776 5.433 11.014 9.28 15.604-3.447 2.1-6.647 4.636-9.485 7.564-4.174 4.307-4.173 11.315 0 15.622 8.717 8.994 20.245 14.058 32.57 14.367-4.227 13.708-5.223 29.486 1.485 45.826 3.957 9.638 11.609 18.794 22.77 27.28-13.884 18.111-22.151 40.746-22.151 65.28 0 11.142 1.687 22.035 5.007 32.5h-36.007c-15.164 0-27.5 12.336-27.5 27.5s12.336 27.5 27.5 27.5h14.755c7.334 26.568 25.226 51.141 51.966 71.271 1.351 1.018 2.935 1.509 4.505 1.509 2.276 0 4.524-1.032 5.998-2.99 2.491-3.309 1.828-8.011-1.481-10.502-22.686-17.078-38.227-37.449-45.333-59.288h230.06v52.5c0 15.164 12.336 27.5 27.5 27.5s27.5-12.336 27.5-27.5v-40c0-6.893 5.607-12.5 12.5-12.5s12.5 5.607 12.5 12.5c0 15.164 12.336 27.5 27.5 27.5s27.5-12.336 27.5-27.5v-12.5h31.112c-9.008 27.626-31.578 52.91-64.403 71.866-37 21.367-84.475 33.134-133.679 33.134-46.697 0-92.3-10.723-128.407-30.192-3.646-1.966-8.196-.604-10.161 3.042-1.966 3.646-.604 8.195 3.042 10.161 38.811 20.928 85.675 31.989 135.526 31.989 51.796 0 101.935-12.481 141.18-35.145 37.847-21.856 63.432-51.849 72.559-84.855h14.761c15.164 0 27.5-12.336 27.5-27.5s-12.336-27.5-27.5-27.5zm-138.5-140c-.966 0-1.93.03-2.894.055l15.765-38.061 60.052 24.874-13.013 31.416c-17.129-11.541-37.747-18.284-59.91-18.284zm43.486-111.917 60.052 24.874-24.874 60.052-60.052-24.874zm25.831-62.362c1.278-3.085 3.68-5.487 6.765-6.765s6.482-1.278 9.567 0l36.955 15.307c6.368 2.638 9.402 9.964 6.765 16.332l-20.091 48.503-60.052-24.874zm-307.704 51.066c4.67 5.717 7.205 12.737 7.205 20.128 0 1.739-.157 3.467-.437 5.17-1.188.614-2.348 1.243-3.48 1.882-.705-3.422-1.721-6.786-3.08-10.067-1.359-3.282-3.018-6.382-4.927-9.29 1.185-2.798 2.776-5.437 4.719-7.823zm-33.804 1.694c9.183 4.385 16.279 11.808 20.153 21.16 1.802 4.35 2.807 8.894 3.026 13.541-5.534 4.231-9.457 7.951-11.316 9.805-4.865-4.146-8.686-9.344-11.15-15.293-3.874-9.353-4.105-19.62-.713-29.213zm-13.936 32.899c.254.687.509 1.373.791 2.053 3.32 8.016 8.416 15.049 14.915 20.678-.562.702-1.136 1.436-1.721 2.2-4.649-.219-9.19-1.221-13.542-3.024-9.352-3.874-16.774-10.968-21.159-20.149 6.688-2.35 13.855-2.951 20.716-1.758zm-2.283 42.763c-7.392 0-14.411-2.534-20.128-7.205 2.385-1.942 5.025-3.534 7.823-4.72 2.908 1.909 6.008 3.568 9.291 4.927 3.28 1.359 6.641 2.385 10.061 3.089-.638 1.13-1.265 2.287-1.878 3.473-1.703.281-3.431.436-5.169.436zm37.522-19.366c.117-.109.23-.223.339-.339.35-.374 34.135-35.793 70.058-24.913-10.761 16.738-17.009 36.641-17.009 57.975 0 11.39 1.758 22.524 5.229 33.205-24.455 2.792-46.443 13.82-63.114 30.237-9.387-6.986-15.872-14.428-18.857-21.699-15.337-37.359 22.973-74.107 23.354-74.466zm-21.612 172.723c0-51.005 41.495-92.5 92.5-92.5s92.5 41.495 92.5 92.5c0 11.216-1.997 22.129-5.894 32.5h-173.212c-3.897-10.371-5.894-21.284-5.894-32.5zm214.47 72.5h-260.47c-6.893 0-12.5-5.607-12.5-12.5s5.607-12.5 12.5-12.5h260.47zm127.5-40c-4.142 0-7.5 3.358-7.5 7.5v60c0 6.893-5.607 12.5-12.5 12.5s-12.5-5.607-12.5-12.5c0-15.164-12.336-27.5-27.5-27.5s-27.5 12.336-27.5 27.5v40c0 6.893-5.607 12.5-12.5 12.5s-12.5-5.607-12.5-12.5v-100c0-4.142-3.358-7.5-7.5-7.5h-26.977c3.321-10.465 5.008-21.359 5.008-32.5 0-15.45-3.282-30.147-9.177-43.437 6.853-12.853 16.751-24.041 28.717-32.413 3.394-2.375 4.221-7.051 1.846-10.445s-7.051-4.221-10.445-1.846c-11.267 7.883-20.952 17.919-28.462 29.39-18.632-28.44-50.368-47.553-86.562-48.69-3.912-10.389-5.918-21.323-5.918-32.56 0-51.005 41.495-92.5 92.5-92.5 44.642 0 82.899 31.81 90.968 75.637.036.195.085.383.135.571l-20.975 50.639c-4.317.807-8.583 1.868-12.772 3.201-3.947 1.256-6.128 5.475-4.871 9.422 1.256 3.946 5.476 6.126 9.422 4.871 9.048-2.881 18.5-4.341 28.094-4.341 51.005 0 92.5 41.495 92.5 92.5 0 11.216-1.997 22.13-5.894 32.5h-17.137zm69.03 40h-61.53v-25h61.53c6.893 0 12.5 5.607 12.5 12.5s-5.607 12.5-12.5 12.5z"/></g></svg>