<svg id="Capa_1" enable-background="new 0 0 512.01 512.01" height="512" viewBox="0 0 512.01 512.01" width="512" xmlns="http://www.w3.org/2000/svg"><g><g><circle cx="124.505" cy="131.152" fill="#ff7591" r="60"/></g><g><path d="m131.077 71.517c-3.299 11.435-5.072 23.51-5.072 35.992 0 5.411.338 10.745.983 15.985-21.553 6.796-40.693 19.071-55.795 35.177 9.977 19.288 30.097 32.481 53.312 32.481 33.137 0 60-26.863 60-60 0-30.915-23.384-56.36-53.428-59.635z" fill="#fd5c70"/></g><g><circle cx="256.005" cy="107.51" fill="#fffddb" r="100"/></g><g><path d="m198.556 50.438c-4.142 0-7.5 3.358-7.5 7.5v12c0 4.142 3.358 7.5 7.5 7.5s7.5-3.358 7.5-7.5v-12c0-4.142-3.358-7.5-7.5-7.5z"/><path d="m313.454 50.438c-4.142 0-7.5 3.358-7.5 7.5v12c0 4.142 3.358 7.5 7.5 7.5s7.5-3.358 7.5-7.5v-12c0-4.142-3.358-7.5-7.5-7.5z"/><path d="m285.098 69.593c-4.142 0-7.5 3.358-7.5 7.5 0 3.835-3.12 6.956-6.956 6.956s-6.956-3.12-6.956-6.956c0-4.142-3.358-7.5-7.5-7.5s-7.5 3.358-7.5 7.5c0 3.835-3.12 6.956-6.956 6.956s-6.956-3.12-6.956-6.956c0-4.142-3.358-7.5-7.5-7.5s-7.5 3.358-7.5 7.5c0 12.106 9.849 21.956 21.956 21.956 5.533 0 10.59-2.062 14.456-5.451 3.865 3.39 8.923 5.451 14.456 5.451 12.106 0 21.956-9.849 21.956-21.956 0-4.142-3.358-7.5-7.5-7.5z"/></g><g><path d="m346.005 117.51c-34.898 0-66.624 13.826-90 36.283-23.376-22.457-55.102-36.283-90-36.283-3.185 0-6.342.121-9.47.347 5.178 50.367 47.735 89.653 99.47 89.653s94.292-39.286 99.47-89.653c-3.129-.227-6.285-.347-9.47-.347z" fill="#fff3ac"/></g><g><path d="m306.062 393.896-36.955-15.307c-10.205-4.227-15.051-15.926-10.824-26.131l137.766-332.597c4.227-10.205 15.926-15.051 26.131-10.824l36.955 15.307c10.205 4.227 15.051 15.926 10.824 26.131l-137.765 332.598c-4.227 10.204-15.927 15.05-26.132 10.823z" fill="#ffd3a3"/></g><g><path d="m295.239 367.765 137.766-332.596c4.227-10.205 15.926-15.051 26.131-10.824l-36.955-15.308c-10.205-4.227-21.904.619-26.131 10.824l-137.767 332.597c-4.227 10.205.619 21.904 10.824 26.131l36.955 15.307c-10.204-4.227-15.05-15.926-10.823-26.131z" fill="#ffbe74"/></g><g><path d="m354.736 87.557h80v80h-80z" fill="#e7886e" transform="matrix(.383 -.924 .924 .383 125.83 443.432)"/></g><g><path d="m336.259 99.903h80v40h-80z" fill="#dc6646" transform="matrix(.383 -.924 .924 .383 121.495 421.636)"/></g><g><circle cx="346.005" cy="247.51" fill="#ffccd3" r="100"/></g><g><path d="m246.005 247.51c0 27.536 11.131 52.471 29.137 70.555 13.191-20.334 20.863-44.564 20.863-70.555s-7.672-50.221-20.863-70.555c-18.006 18.084-29.137 43.019-29.137 70.555z" fill="#ffabb9"/></g><g><circle cx="166.005" cy="247.51" fill="#be9edf" r="100"/></g><g><path d="m116.184 247.51c0-46.564 31.825-85.693 74.911-96.825-8.018-2.072-16.425-3.175-25.089-3.175-55.228 0-100 44.771-100 100s44.772 100 100 100c8.665 0 17.072-1.103 25.089-3.175-43.086-11.132-74.911-50.262-74.911-96.825z" fill="#938ed9"/></g><g><g><path d="m288.699 217.314c-.002 0-.004 0-.006 0-4.142-.003-7.498-3.364-7.494-7.506l.009-11.876c.003-4.14 3.36-7.494 7.5-7.494h.006c4.142.003 7.498 3.364 7.494 7.506l-.009 11.876c-.003 4.14-3.36 7.494-7.5 7.494z"/></g><g><path d="m403.301 217.438c-.002 0-.004 0-.006 0-4.142-.003-7.498-3.364-7.494-7.506l.009-11.876c.003-4.14 3.36-7.494 7.5-7.494h.006c4.142.003 7.498 3.364 7.494 7.506l-.009 11.876c-.003 4.14-3.36 7.494-7.5 7.494z"/></g><g><path d="m362.684 222.663c-.002 0-.004 0-.006 0l-33.378-.029c-4.142-.003-7.497-3.364-7.494-7.506.003-4.14 3.361-7.494 7.5-7.494h.006l33.378.029c4.142.003 7.497 3.364 7.494 7.506-.003 4.141-3.361 7.494-7.5 7.494z"/></g></g><g><g><path d="m108.556 217.438c-4.142 0-7.5-3.358-7.5-7.5v-12c0-4.142 3.358-7.5 7.5-7.5s7.5 3.358 7.5 7.5v12c0 4.142-3.358 7.5-7.5 7.5z"/></g><g><path d="m223.454 217.438c-4.142 0-7.5-3.358-7.5-7.5v-12c0-4.142 3.358-7.5 7.5-7.5s7.5 3.358 7.5 7.5v12c0 4.142-3.358 7.5-7.5 7.5z"/></g><g><path d="m166.005 224.581c-8.477 0-16.539-3.671-22.118-10.073-2.722-3.123-2.396-7.86.726-10.582s7.86-2.397 10.582.726c2.73 3.132 6.67 4.928 10.811 4.928s8.081-1.796 10.811-4.928c2.722-3.124 7.459-3.448 10.582-.726s3.448 7.459.726 10.582c-5.581 6.402-13.643 10.073-22.12 10.073z"/></g></g><g><path d="m73.549 401.167 12.147 63.771c4.373 22.96 24.447 39.571 47.82 39.571h242.821c23.373 0 43.447-16.611 47.82-39.571l12.147-63.771-180.3-30z" fill="#84dfff"/></g><g><path d="m182.696 464.938-15.078-79.161-94.069 15.39 12.147 63.771c4.373 22.96 24.447 39.571 47.82 39.571h97c-23.372.001-43.446-16.611-47.82-39.571z" fill="#2fcffc"/></g><g><path d="m456.62 294.51h-403.386l20.316 106.657c32.389 6.289 38.503 28.343 81.373 28.343 49.999 0 49.999-30 99.998-30 50.002 0 50.002 30 100.003 30 42.874 0 48.988-22.055 81.381-28.343z" fill="#fbf081"/></g><g><path d="m53.234 294.51 20.316 106.657c32.389 6.289 38.503 28.343 81.373 28.343 8.03 0 14.765-.777 20.63-2.076l-25.319-132.924z" fill="#fad271"/></g><g><path d="m7.505 294.51c0-11.046 8.954-20 20-20h457c11.046 0 20 8.954 20 20 0 11.046-8.954 20-20 20h-457c-11.046 0-20-8.955-20-20z" fill="#84dfff"/></g><g><path d="m121.094 264.51v110c0 11.046 8.954 20 20 20 11.046 0 20-8.954 20-20v-40c0-11.046 8.954-20 20-20 11.046 0 20 8.954 20 20 0 11.046 8.954 20 20 20 11.046 0 20-8.954 20-20v-70z" fill="#be9edf"/></g><g><path d="m104.505 294.51c0-11.046 8.954-20 20-20h-97c-11.046 0-20 8.954-20 20 0 11.046 8.954 20 20 20h97c-11.046 0-20-8.955-20-20z" fill="#2fcffc"/></g><path d="m484.505 267.01h-32.782c1.174-6.408 1.782-12.934 1.782-19.5 0-27.475-10.366-52.571-27.385-71.596l50.77-122.568c2.811-6.787 2.811-14.261 0-21.048-2.811-6.786-8.097-12.072-14.883-14.883l-36.956-15.307c-6.786-2.811-14.261-2.811-21.047 0-6.787 2.811-12.072 8.096-14.883 14.883l-28.054 67.73c-10.483-48.366-53.604-84.711-105.062-84.711-46.423 0-86.064 29.58-101.074 70.881-9.381-4.751-19.738-7.238-30.426-7.238-16.9 0-32.357 6.257-44.21 16.558-.507-2.47-.777-4.999-.777-7.581 0-10.824 4.692-21.122 12.874-28.251 3.123-2.722 3.448-7.459.727-10.582s-7.458-3.448-10.582-.727c-11.451 9.979-18.019 24.398-18.019 39.56 0 7.173 1.415 14.076 4.199 20.573-7.385 10.822-11.711 23.888-11.711 37.949 0 19.819 8.685 38.463 23.544 51.219-13.82 18.088-22.044 40.669-22.044 65.138 0 6.565.607 13.091 1.781 19.5h-32.782c-15.164 0-27.5 12.336-27.5 27.5s12.336 27.5 27.5 27.5h23.332l27.492 144.332c5.041 26.462 28.25 45.668 55.188 45.668h242.821c26.938 0 50.147-19.206 55.188-45.668l27.491-144.332h25.488c15.164 0 27.5-12.336 27.5-27.5s-12.337-27.499-27.5-27.499zm-48.07 0h-164.712c1.174-6.409 1.782-12.934 1.782-19.5 0-15.146-3.246-29.896-9.216-43.384 16.117-30.378 47.141-49.116 81.716-49.116 51.005 0 92.5 41.495 92.5 92.5 0 6.586-.702 13.121-2.07 19.5zm-59.288-181.917 60.052 24.874-22.684 54.764c-16.625-13.783-37.451-22.666-60.245-24.407zm25.831-62.362c1.278-3.085 3.68-5.487 6.765-6.765 3.084-1.278 6.482-1.278 9.567 0l36.955 15.307c3.085 1.278 5.487 3.68 6.765 6.765 1.278 3.084 1.278 6.482 0 9.567l-20.09 48.504-60.052-24.874zm-330.973 108.421c0-28.949 23.551-52.5 52.5-52.5 9.304 0 18.283 2.419 26.232 7.019-1.461 7.054-2.232 14.358-2.232 21.839 0 11.398 1.763 22.528 5.233 33.204-24.532 2.8-46.582 13.886-63.272 30.388-11.643-9.928-18.461-24.475-18.461-39.95zm1.5 116.358c0-51.005 41.495-92.5 92.5-92.5 7.125 0 14.22.812 21.089 2.413 4.033.941 8.066-1.567 9.007-5.602s-1.567-8.066-5.602-9.007c-6.89-1.606-13.972-2.525-21.098-2.748-3.91-10.383-5.896-21.316-5.896-32.557 0-51.005 41.495-92.5 92.5-92.5s92.5 41.495 92.5 92.5c0 2.829-.136 5.678-.39 8.478l-10.074 24.32c-17.689 1.303-34.739 6.93-49.727 16.479-12.996 8.28-23.997 19.205-32.351 31.999-8.995-13.796-21.144-25.584-35.764-34.134-3.576-2.092-8.169-.888-10.26 2.688s-.888 8.169 2.688 10.26c28.298 16.549 45.878 47.168 45.878 79.91 0 6.585-.702 13.121-2.07 19.5h-15.341c-4.142 0-7.5 3.358-7.5 7.5v60c0 6.893-5.607 12.5-12.5 12.5s-12.5-5.607-12.5-12.5c0-15.164-12.336-27.5-27.5-27.5s-27.5 12.336-27.5 27.5v40c0 6.893-5.607 12.5-12.5 12.5s-12.5-5.607-12.5-12.5v-100c0-4.142-3.358-7.5-7.5-7.5h-45.519c-1.367-6.378-2.07-12.915-2.07-19.499zm-58.5 47c0-6.893 5.607-12.5 12.5-12.5h86.089v25h-86.089c-6.893 0-12.5-5.608-12.5-12.5zm414.851 100.429c-12.062 3.111-20.557 8.203-28.786 13.14-9.332 5.598-18.146 10.886-32.245 12.976-4.097.607-6.926 4.421-6.319 8.519.552 3.725 3.754 6.401 7.41 6.401.366 0 .737-.027 1.109-.082 17.054-2.528 27.581-8.844 37.761-14.951 5.734-3.44 11.249-6.742 17.882-9.267l-9.878 51.86c-3.695 19.396-20.708 33.475-40.453 33.475h-242.82c-19.745 0-36.758-14.078-40.453-33.475l-9.878-51.859c6.631 2.525 12.146 5.827 17.878 9.266 12.554 7.531 26.782 16.068 53.859 16.068s41.305-8.537 53.858-16.069c11.94-7.164 23.218-13.931 46.14-13.931 22.923 0 34.202 6.767 46.143 13.931 10.18 6.107 20.706 12.423 37.759 14.952 4.101.607 7.911-2.222 8.519-6.319.607-4.098-2.222-7.912-6.319-8.519-14.098-2.09-22.912-7.378-32.242-12.976-12.554-7.532-26.782-16.069-53.86-16.069-27.077 0-41.305 8.537-53.858 16.069-11.94 7.164-23.218 13.931-46.14 13.931s-34.201-6.767-46.142-13.931c-8.229-4.937-16.723-10.028-28.783-13.139l-13.891-72.93h47.488v52.5c0 15.164 12.336 27.5 27.5 27.5s27.5-12.336 27.5-27.5v-40c0-6.893 5.607-12.5 12.5-12.5s12.5 5.607 12.5 12.5c0 15.164 12.336 27.5 27.5 27.5s27.5-12.336 27.5-27.5v-12.5h195.153zm54.649-87.929h-235.911v-25h235.911c6.893 0 12.5 5.607 12.5 12.5s-5.608 12.5-12.5 12.5z"/></g></svg>