<svg id="Capa_1" enable-background="new 0 0 512 512" height="512" viewBox="0 0 512 512" width="512" xmlns="http://www.w3.org/2000/svg"><g><g><g><path d="m442.26 130.551c-11.088 0-21.123-4.633-28.376-12.116-1.386-1.43-1.386-3.753 0-5.183 7.253-7.484 17.288-12.116 28.376-12.116s21.123 4.633 28.376 12.116c1.386 1.43 1.386 3.753 0 5.183-7.253 7.483-17.288 12.116-28.376 12.116z" fill="#17d9bf"/></g></g><g><g><path d="m377.532 65.823c0 11.088 4.633 21.123 12.116 28.376 1.43 1.386 3.753 1.386 5.183 0 7.484-7.253 12.116-17.288 12.116-28.376s-4.633-21.123-12.116-28.376c-1.43-1.386-3.753-1.386-5.183 0-7.483 7.253-12.116 17.288-12.116 28.376z" fill="#50e3cf"/></g></g><g><g><path d="m398.959 65.679c-5.199 12.552-4.66 26.083.411 37.803.969 2.24 3.598 3.329 5.867 2.43 11.872-4.701 21.822-13.888 27.021-26.44s4.66-26.083-.411-37.803c-.969-2.24-3.598-3.329-5.867-2.43-11.873 4.701-21.822 13.888-27.021 26.44z" fill="#17d9bf"/></g></g><g><path d="m442.404 109.124c-12.552 5.199-26.083 4.66-37.803-.411-2.24-.969-3.329-3.598-2.43-5.867 4.701-11.872 13.888-21.822 26.44-27.021s26.083-4.66 37.803.411c2.24.969 3.329 3.598 2.43 5.867-4.701 11.873-13.888 21.822-26.44 27.021z" fill="#50e3cf"/></g><g><path d="m435.029 180.999c17.543-42.73-25.16-82.784-25.16-82.784s-40.054-42.703-82.784-25.16-72.706 123.679-44.22 152.165 134.621-1.491 152.164-44.221z" fill="#ff7591"/></g><g><circle cx="124.5" cy="131.142" fill="#ff7591" r="60"/></g><g><path d="m131.072 71.508c-3.299 11.434-5.072 23.51-5.072 35.992 0 5.411.338 10.745.983 15.985-21.553 6.796-40.693 19.071-55.795 35.177 9.977 19.288 30.097 32.481 53.312 32.481 33.137 0 60-26.863 60-60 0-30.916-23.384-56.36-53.428-59.635z" fill="#fd5c70"/></g><g><path d="m439.196 156.989c-14.844-15.278-33.383-26.947-54.179-33.504.645-5.24.983-10.573.983-15.985 0-10.124-1.165-19.982-3.365-29.446-15.144-7.957-35.038-13.421-55.551-5-42.73 17.543-72.706 123.679-44.22 152.165 28.485 28.485 134.622-1.49 152.165-44.22 3.362-8.19 4.506-16.28 4.167-24.01z" fill="#fd5c70"/></g><g><circle cx="256" cy="107.5" fill="#fbf081" r="100"/></g><g><path d="m346 117.5c-34.898 0-66.624 13.826-90 36.283-23.376-22.457-55.102-36.283-90-36.283-3.185 0-6.342.121-9.47.347 5.178 50.367 47.735 89.653 99.47 89.653s94.292-39.286 99.47-89.653c-3.128-.226-6.285-.347-9.47-.347z" fill="#fad271"/></g><g><circle cx="346" cy="247.5" fill="#fffddb" r="100"/></g><g><path d="m246 247.5c0 27.536 11.131 52.471 29.137 70.555 13.191-20.334 20.863-44.564 20.863-70.555s-7.672-50.221-20.863-70.555c-18.006 18.084-29.137 43.019-29.137 70.555z" fill="#fff3ac"/></g><g><circle cx="166" cy="247.5" fill="#84dfff" r="100"/></g><g><path d="m116.179 247.5c0-46.564 31.825-85.693 74.911-96.825-8.018-2.072-16.425-3.175-25.089-3.175-55.228 0-100 44.771-100 100s44.772 100 100 100c8.665 0 17.072-1.103 25.089-3.175-43.086-11.132-74.911-50.261-74.911-96.825z" fill="#2fcffc"/></g><g><g><path d="m288.552 217.428c-4.143 0-7.5-3.358-7.5-7.5v-12c0-4.142 3.357-7.5 7.5-7.5s7.5 3.358 7.5 7.5v12c0 4.142-3.358 7.5-7.5 7.5z"/></g><g><path d="m403.448 217.428c-4.143 0-7.5-3.358-7.5-7.5v-12c0-4.142 3.357-7.5 7.5-7.5s7.5 3.358 7.5 7.5v12c0 4.142-3.357 7.5-7.5 7.5z"/></g><g><path d="m346 224.572c-8.478 0-16.539-3.671-22.118-10.073-2.722-3.123-2.396-7.86.727-10.582 3.122-2.721 7.86-2.396 10.582.727 2.729 3.132 6.669 4.928 10.81 4.928s8.08-1.796 10.81-4.928c2.721-3.123 7.457-3.448 10.582-.727 3.122 2.722 3.448 7.459.727 10.582-5.581 6.401-13.642 10.073-22.12 10.073z"/></g></g><g><g><path d="m108.551 217.428c-4.142 0-7.5-3.358-7.5-7.5v-12c0-4.142 3.358-7.5 7.5-7.5s7.5 3.358 7.5 7.5v12c0 4.142-3.358 7.5-7.5 7.5z"/></g><g><path d="m223.449 217.428c-4.142 0-7.5-3.358-7.5-7.5v-12c0-4.142 3.358-7.5 7.5-7.5s7.5 3.358 7.5 7.5v12c0 4.142-3.358 7.5-7.5 7.5z"/></g><path d="m195.093 209.583c-4.142 0-7.5 3.358-7.5 7.5 0 3.835-3.12 6.956-6.956 6.956s-6.956-3.12-6.956-6.956c0-4.142-3.358-7.5-7.5-7.5s-7.5 3.358-7.5 7.5c0 3.835-3.12 6.956-6.956 6.956s-6.956-3.12-6.956-6.956c0-4.142-3.358-7.5-7.5-7.5s-7.5 3.358-7.5 7.5c0 12.106 9.849 21.956 21.956 21.956 5.533 0 10.59-2.062 14.456-5.451 3.865 3.39 8.923 5.451 14.456 5.451 12.106 0 21.956-9.849 21.956-21.956 0-4.142-3.358-7.5-7.5-7.5z"/></g><g><path d="m46 324.5c0 99.411 94.02 180 210 180s210-80.589 210-180l-85.753 20-124.247-50-124.252 50z" fill="#ffbe74"/></g><g><g><path d="m127.238 343.448-81.238-18.948c0 99.411 94.02 180 210 180 13.694 0 27.077-1.137 40.041-3.282-89.758-14.855-159.149-78.688-168.803-157.77z" fill="#f4a960"/></g></g><g><g><path d="m131.753 364.5c38.111 0 58.38-16.312 74.665-29.419 14.847-11.948 25.572-20.581 49.587-20.581 24.013 0 34.738 8.632 49.583 20.581 16.285 13.107 36.553 29.419 74.664 29.419s58.378-16.313 74.664-29.419c11.134-8.961 19.95-16.057 33.793-19.045 9.16-1.977 15.791-9.928 15.791-19.299v-.588c0-12.568-11.609-21.87-23.898-19.24-23.437 5.016-38.273 16.957-50.766 27.012-14.845 11.948-25.571 20.581-49.584 20.581s-34.739-8.632-49.583-20.581c-16.285-13.107-36.553-29.419-74.663-29.419-38.112 0-58.38 16.312-74.667 29.419-14.846 11.948-25.571 20.581-49.586 20.581-24.016 0-34.741-8.633-49.588-20.581-12.493-10.055-27.33-21.995-50.767-27.012-12.289-2.632-23.898 6.671-23.898 19.239v.589c0 9.371 6.63 17.322 15.791 19.299 13.844 2.988 22.661 10.084 33.795 19.045 16.286 13.107 36.555 29.419 74.667 29.419z" fill="#ffd3a3"/></g></g><g><path d="m296 274.5v150c0 11.046 8.954 20 20 20 11.046 0 20-8.954 20-20v-40c0-11.046 8.954-20 20-20 11.046 0 20 8.954 20 20 0 11.046 8.954 20 20 20 11.046 0 20-8.954 20-20v-110z" fill="#fffddb"/></g><g><path d="m111.748 344.5c0-11.046 8.954-20 20-20-24.013 0-34.739-8.632-49.584-20.581-12.493-10.055-27.329-21.995-50.766-27.012-12.289-2.63-23.898 6.673-23.898 19.241v.588c0 9.371 6.63 17.322 15.791 19.299 13.843 2.988 22.66 10.084 33.793 19.045 16.286 13.108 36.553 29.42 74.664 29.42-11.046 0-20-8.954-20-20z" fill="#ffbe74"/></g><g><circle cx="149.536" cy="405.767" fill="#f4a960" r="20"/></g><g><circle cx="264.251" cy="453.664" fill="#f4a960" r="20"/></g><g><circle cx="244.251" cy="400.336" fill="#f4a960" r="15"/></g><g><g><path d="m198.694 77.305c-.002 0-.004 0-.006 0-4.142-.003-7.498-3.364-7.494-7.506l.009-11.876c.003-4.14 3.36-7.494 7.5-7.494h.006c4.142.003 7.498 3.364 7.494 7.506l-.009 11.876c-.003 4.14-3.36 7.494-7.5 7.494z"/></g><g><path d="m313.297 77.428c-.002 0-.004 0-.006 0-4.142-.003-7.497-3.363-7.494-7.505l.009-11.876c.003-4.14 3.36-7.495 7.5-7.495h.006c4.142.003 7.497 3.363 7.494 7.505l-.009 11.876c-.003 4.141-3.36 7.495-7.5 7.495z"/></g><g><path d="m272.68 82.654c-.002 0-.004 0-.007 0l-33.378-.029c-4.142-.003-7.497-3.364-7.494-7.506.003-4.14 3.361-7.494 7.5-7.494h.006l33.379.029c4.142.003 7.497 3.364 7.493 7.506-.003 4.14-3.361 7.494-7.499 7.494z"/></g></g><path d="m501.92 275.033c-6.437-5.204-14.776-7.195-22.888-5.459-12.353 2.644-22.468 7.079-31.089 12.123 3.659-10.914 5.557-22.419 5.557-34.197 0-20.422-5.726-39.532-15.654-55.811 1.656-2.587 3.041-5.211 4.122-7.842 6.708-16.34 5.712-32.118 1.484-45.826 12.326-.309 23.852-5.373 32.568-14.366 4.176-4.307 4.177-11.316.001-15.624-2.84-2.93-6.035-5.47-9.48-7.568 3.845-4.589 6.99-9.825 9.277-15.599 2.373-5.994-.51-12.952-6.427-15.512-8.418-3.642-17.328-5.152-26.127-4.559.571-8.839-.956-17.833-4.535-26.105-2.561-5.914-9.516-8.797-15.512-6.424-5.774 2.286-11.011 5.431-15.599 9.277-2.098-3.446-4.637-6.641-7.567-9.479-4.307-4.175-11.314-4.176-15.623-.001-9.015 8.737-14.082 20.298-14.369 32.655-5.351-1.649-11.016-2.81-16.914-3.219-17.269-36.323-54.321-61.497-97.145-61.497-46.423 0-86.064 29.58-101.074 70.88-9.381-4.751-19.737-7.237-30.426-7.237-16.901 0-32.358 6.258-44.211 16.559-.506-2.469-.777-4.997-.777-7.582 0-10.824 4.692-21.122 12.874-28.251 3.123-2.722 3.448-7.459.727-10.582-2.722-3.122-7.458-3.447-10.582-.727-11.451 9.98-18.019 24.398-18.019 39.56 0 7.066 1.461 14.088 4.212 20.554-7.392 10.826-11.724 23.899-11.724 37.969 0 19.8 8.689 38.461 23.544 51.219-13.82 18.087-22.044 40.668-22.044 65.138 0 11.726 1.892 23.255 5.56 34.198-8.621-5.045-18.738-9.48-31.093-12.125-8.106-1.735-16.451.255-22.887 5.459-6.406 5.181-10.08 12.877-10.08 21.115v.588c0 12.921 8.927 23.873 21.708 26.631 6.509 1.405 11.768 3.874 16.917 7.198 1.781 48.484 24.793 93.767 65.073 127.821 40.895 34.574 94.984 53.615 152.302 53.615 57.305 0 111.385-19.033 152.277-53.593 40.293-34.054 63.315-79.347 65.097-127.841 5.148-3.324 10.408-5.794 16.918-7.2 12.781-2.758 21.708-13.709 21.708-26.63v-.588c0-8.239-3.674-15.935-10.08-21.115zm-59.66-151.982c-1.739 0-3.466-.158-5.17-.439-.613-1.184-1.24-2.341-1.877-3.47 3.421-.705 6.783-1.731 10.062-3.089 3.282-1.359 6.381-3.017 9.289-4.926 2.799 1.186 5.439 2.776 7.825 4.719-5.718 4.671-12.738 7.205-20.129 7.205zm18.434-41.008c-4.386 9.183-11.809 16.279-21.16 20.152-4.348 1.802-8.899 2.809-13.54 3.027-4.235-5.538-7.956-9.464-9.81-11.321 4.144-4.865 9.342-8.679 15.297-11.146 9.353-3.874 19.621-4.105 29.213-.712zm-34.657-34.652c2.348 6.684 2.953 13.856 1.76 20.714-.688.254-1.375.51-2.056.792-8.031 3.327-15.068 8.424-20.696 14.93-.698-.557-1.425-1.125-2.185-1.705.215-4.658 1.22-9.212 3.027-13.573 3.875-9.352 10.969-16.775 20.15-21.158zm-41.005 18.432c0-7.392 2.534-14.411 7.205-20.128 1.943 2.386 3.533 5.026 4.719 7.824-1.909 2.908-3.567 6.007-4.926 9.289-1.367 3.3-2.388 6.684-3.093 10.126-1.125-.633-2.275-1.256-3.455-1.865-.289-1.728-.45-3.481-.45-5.246zm19.365 37.522c.109.117.223.23.34.339.39.365 38.756 36.952 23.354 74.465-.003.006-.006.013-.009.019-17.245-20.385-41.925-34.281-69.816-37.464 3.471-10.684 5.233-21.822 5.233-33.204 0-10.436-1.501-20.527-4.288-30.076 25.18 5.018 44.971 25.692 45.186 25.921zm-332.397 27.798c0-28.949 23.551-52.5 52.5-52.5 9.305 0 18.283 2.419 26.232 7.019-1.461 7.054-2.232 14.358-2.232 21.838 0 11.382 1.761 22.52 5.233 33.204-24.531 2.8-46.579 13.885-63.269 30.386-11.64-9.929-18.464-24.487-18.464-39.947zm94 23.857c10.864 0 21.497 1.863 31.605 5.538 3.893 1.417 8.196-.593 9.611-4.486s-.593-8.196-4.486-9.611c-10.69-3.886-21.881-6.01-33.309-6.367-3.915-10.396-5.922-21.341-5.922-32.574 0-51.005 41.495-92.5 92.5-92.5s92.5 41.495 92.5 92.5c0 11.228-2.005 22.168-5.917 32.559-35.431 1.098-67.414 19.23-86.54 48.555-6.771-10.308-15.392-19.517-25.651-27.202-3.316-2.485-8.016-1.809-10.499 1.506s-1.809 8.016 1.506 10.499c23.578 17.663 37.101 44.665 37.101 74.083 0 6.583-.701 13.126-2.068 19.504-.143 0-.283-.004-.426-.004-40.756 0-63.073 17.962-79.371 31.078-14.661 11.8-23.511 18.922-44.881 18.922-20.164 0-29.184-6.342-42.455-16.971-.194-.794-.515-1.572-.985-2.297-9.691-14.955-14.813-32.325-14.813-50.232 0-51.005 41.495-92.5 92.5-92.5zm-151 141.736v-.588c0-3.688 1.645-7.132 4.512-9.451 2.21-1.788 4.923-2.732 7.709-2.732.866 0 1.74.091 2.607.277 21.696 4.644 35.476 15.735 47.637 25.522 15.437 12.424 27.631 22.236 54.288 22.236s38.85-9.813 54.288-22.238c16.169-13.013 34.495-27.762 69.964-27.762 11.88 0 22.563 1.654 32.495 5.045v26.992c-8.652-4.39-18.618-7.037-32.495-7.037-26.656 0-38.849 9.812-54.29 22.238-16.167 13.013-34.492 27.762-69.962 27.762s-53.796-14.749-69.966-27.763c-11.448-9.213-21.334-17.17-36.914-20.532-5.813-1.255-9.873-6.177-9.873-11.969zm241 200.264c-103.838 0-190.552-67.878-201.353-154.259 16.102 12.895 38.201 29.259 77.106 29.259 40.756 0 63.073-17.962 79.371-31.079 14.661-11.799 23.511-18.921 44.881-18.921 14.827 0 23.781 3.574 32.495 9.465v34.535c0 4.142 3.357 7.5 7.5 7.5s7.5-3.358 7.5-7.5v-83.343c.354-3.295-1.51-6.472-4.631-7.742-8.62-3.508-17.65-5.821-27.311-6.997 1.288-6.702 1.942-13.544 1.942-20.418 0-15.325-3.166-30.082-9.118-43.553 16.149-30.257 47.179-48.947 81.618-48.947 51.005 0 92.5 41.495 92.5 92.5 0 19.353-5.91 37.856-17.083 53.555-3.318 2.639-6.397 4.994-9.537 7.059-2.109 1.387-3.38 3.742-3.38 6.267v70.119c0 6.893-5.607 12.5-12.5 12.5s-12.5-5.607-12.5-12.5c0-15.164-12.337-27.5-27.5-27.5s-27.5 12.336-27.5 27.5v40c0 6.893-5.607 12.5-12.5 12.5s-12.5-5.607-12.5-12.5v-28.5c0-4.142-3.357-7.5-7.5-7.5s-7.5 3.358-7.5 7.5v28.5c0 15.164 12.337 27.5 27.5 27.5s27.5-12.336 27.5-27.5v-40c0-6.893 5.607-12.5 12.5-12.5s12.5 5.607 12.5 12.5c0 15.164 12.337 27.5 27.5 27.5s27.5-12.336 27.5-27.5v-20.573c14.221-5.864 24.991-14.088 33.852-21.184-10.803 86.376-97.529 154.257-201.352 154.257zm241-200.264c0 5.792-4.06 10.713-9.872 11.968-15.58 3.362-25.466 11.319-36.916 20.535-7.624 6.136-16.056 12.922-26.711 18.222v-29.139c3.676-2.634 7.277-5.533 11.039-8.562 12.159-9.786 25.939-20.876 47.631-25.519 3.661-.783 7.419.112 10.317 2.455 2.867 2.319 4.512 5.764 4.512 9.452z"/></g></svg>