<svg id="Capa_1" enable-background="new 0 0 512 512" height="512" viewBox="0 0 512 512" width="512" xmlns="http://www.w3.org/2000/svg"><g><g><path d="m466 284.5c-11.677 0-21.053-9.84-20.243-21.488.17-2.444.252-4.912.242-7.401-.208-54.386-44.514-99.019-98.897-99.605-55.734-.6-101.102 44.399-101.102 99.994 0 2.349.081 4.679.241 6.987.808 11.658-8.555 21.513-20.241 21.513-16.569 0-30 13.431-30 30 0 16.569 13.431 30 30 30h240c16.569 0 30-13.431 30-30 0-16.569-13.431-30-30-30z" fill="#e7886e"/></g><g><path d="m346 314.5c0-29.678-21.661-54.392-50.002-59.167-.131-25.636-7.829-49.61-20.955-69.788-17.949 18.077-29.043 42.968-29.043 70.455 0 2.349.081 4.679.241 6.987.808 11.658-8.555 21.513-20.241 21.513-16.569 0-30 13.431-30 30 0 16.569 13.431 30 30 30h111.928c5.123-8.833 8.072-19.075 8.072-30z" fill="#dc6646"/></g><g><path d="m286 284.5c-11.677 0-21.053-9.84-20.243-21.488.17-2.444.252-4.912.242-7.401-.208-54.386-44.514-99.019-98.897-99.605-55.734-.6-101.102 44.399-101.102 99.994 0 2.349.081 4.679.241 6.987.808 11.658-8.555 21.513-20.241 21.513-16.569 0-30 13.431-30 30 0 16.569 13.431 30 30 30h240c16.569 0 30-13.431 30-30 0-16.569-13.431-30-30-30z" fill="#fffddb"/></g><g><path d="m96 314.5c0-16.569 13.431-30 30-30 11.686 0 21.049-9.855 20.241-21.513-.16-2.308-.241-4.638-.241-6.987 0-40.97 24.64-76.182 59.908-91.635-11.923-5.237-25.041-8.211-38.807-8.359-55.733-.6-101.101 44.399-101.101 99.994 0 2.349.081 4.679.241 6.987.808 11.658-8.555 21.513-20.241 21.513-16.569 0-30 13.431-30 30 0 16.569 13.431 30 30 30h80c-16.569 0-30-13.431-30-30z" fill="#fff3ac"/></g><g><g><path d="m288.694 225.805c-.002 0-.004 0-.006 0-4.142-.003-7.497-3.363-7.494-7.505l.009-11.876c.003-4.14 3.36-7.495 7.5-7.495h.006c4.142.003 7.497 3.363 7.494 7.505l-.009 11.876c-.003 4.14-3.36 7.495-7.5 7.495z"/></g><g><path d="m403.297 225.928c-.002 0-.004 0-.006 0-4.142-.003-7.497-3.363-7.494-7.505l.009-11.876c.003-4.14 3.36-7.495 7.5-7.495h.006c4.142.003 7.497 3.363 7.494 7.505l-.009 11.876c-.003 4.141-3.36 7.495-7.5 7.495z"/></g><g><path d="m362.68 231.154c-.002 0-.004 0-.007 0l-33.378-.029c-4.142-.003-7.497-3.364-7.493-7.506.004-4.14 3.36-7.494 7.5-7.494h.007l33.378.029c4.142.003 7.497 3.364 7.493 7.506-.004 4.14-3.362 7.494-7.5 7.494z"/></g></g><g><g><path d="m108.552 225.928c-4.143 0-7.5-3.358-7.5-7.5v-12c0-4.142 3.357-7.5 7.5-7.5s7.5 3.358 7.5 7.5v12c0 4.142-3.358 7.5-7.5 7.5z"/></g><g><path d="m223.448 225.928c-4.143 0-7.5-3.358-7.5-7.5v-12c0-4.142 3.357-7.5 7.5-7.5s7.5 3.358 7.5 7.5v12c0 4.142-3.357 7.5-7.5 7.5z"/></g><g><path d="m166 233.072c-8.478 0-16.539-3.671-22.118-10.073-2.722-3.123-2.396-7.86.727-10.582 3.122-2.721 7.859-2.396 10.582.727 2.729 3.132 6.669 4.928 10.81 4.928s8.08-1.796 10.81-4.928c2.721-3.123 7.457-3.448 10.582-.727 3.122 2.722 3.448 7.459.727 10.582-5.581 6.401-13.642 10.073-22.12 10.073z"/></g></g><g><path d="m464.5 424.5h-417c-22.091 0-40-17.909-40-40 0-22.091 17.909-40 40-40h417c22.091 0 40 17.909 40 40 0 22.091-17.909 40-40 40z" fill="#ffbe74"/></g><g><path d="m464.5 504.5h-417c-22.091 0-40-17.909-40-40 0-22.091 17.909-40 40-40h417c22.091 0 40 17.909 40 40 0 22.091-17.909 40-40 40z" fill="#ffd3a3"/></g><g><path d="m199.333 464.5c0-22.091 17.909-40 40-40h-191.833c-22.091 0-40 17.909-40 40 0 22.091 17.909 40 40 40h191.833c-22.091 0-40-17.909-40-40z" fill="#ffbe74"/></g><g><path d="m464.5 167.5h-417c-22.091 0-40-17.909-40-40 0-22.091 17.909-40 40-40h417c22.091 0 40 17.909 40 40 0 22.091-17.909 40-40 40z" fill="#ffbe74"/></g><g><path d="m464.5 87.5h-417c-22.091 0-40-17.909-40-40 0-22.091 17.909-40 40-40h417c22.091 0 40 17.909 40 40 0 22.091-17.909 40-40 40z" fill="#ffd3a3"/></g><g><path d="m199.333 47.5c0-22.091 17.909-40 40-40h-191.833c-22.091 0-40 17.909-40 40 0 22.091 17.909 40 40 40h191.833c-22.091 0-40-17.909-40-40z" fill="#ffbe74"/></g><g><path d="m463.301 334.5v110c0 11.046-8.954 20-20 20-11.046 0-20-8.954-20-20v-40c0-11.046-8.954-20-20-20-11.046 0-20 8.954-20 20 0 11.046-8.954 20-20 20-11.046 0-20-8.954-20-20v-70z" fill="#e7886e"/></g><g><path d="m259.333 334.5v110c0 11.046-8.954 20-20 20-11.046 0-20-8.954-20-20v-40c0-11.046-8.954-20-20-20-11.046 0-20 8.954-20 20v80c0 11.046-8.954 20-20 20-11.046 0-20-8.954-20-20v-150z" fill="#fffddb"/></g><g><circle cx="362.679" cy="464.5" fill="#ffbe74" r="20"/></g><g><circle cx="166" cy="127.5" fill="#f4a960" r="20"/></g><g><circle cx="305.18" cy="47.5" fill="#ffbe74" r="20"/></g><g><circle cx="303.694" cy="384.5" fill="#f4a960" r="15"/></g><g><circle cx="68.694" cy="464.5" fill="#f4a960" r="15"/></g><g><circle cx="384.517" cy="127.5" fill="#f4a960" r="15"/></g><path d="m512 127.5c0-16.782-8.756-31.548-21.932-40 13.176-8.452 21.932-23.218 21.932-40 0-26.191-21.309-47.5-47.5-47.5h-417c-26.191 0-47.5 21.309-47.5 47.5 0 16.782 8.756 31.548 21.932 40-13.176 8.452-21.932 23.218-21.932 40 0 26.191 21.309 47.5 47.5 47.5h47.828c-23.123 20.182-36.828 49.566-36.828 81 0 2.502.087 5.027.259 7.505.242 3.488-.95 6.83-3.357 9.409-2.46 2.635-5.798 4.086-9.402 4.086-20.678 0-37.5 16.822-37.5 37.5 0 11.927 5.604 22.564 14.31 29.437-13.667 8.35-22.81 23.408-22.81 40.563 0 16.782 8.756 31.548 21.932 40-13.176 8.452-21.932 23.218-21.932 40 0 26.191 21.309 47.5 47.5 47.5h417c26.191 0 47.5-21.309 47.5-47.5 0-16.781-8.755-31.546-21.929-39.998 13.176-8.452 21.929-23.22 21.929-40.002 0-17.155-9.143-32.213-22.81-40.563 8.706-6.873 14.31-17.509 14.31-29.437 0-20.678-16.823-37.5-37.501-37.5-3.608 0-6.951-1.453-9.412-4.091-2.4-2.573-3.59-5.903-3.348-9.377.183-2.632.271-5.307.26-7.95-.119-31.207-13.891-60.445-37.014-80.582h48.015c26.191 0 47.5-21.309 47.5-47.5zm-497 0c0-17.92 14.579-32.5 32.5-32.5h340.796c4.143 0 7.5-3.358 7.5-7.5s-3.357-7.5-7.5-7.5h-340.796c-17.921 0-32.5-14.58-32.5-32.5s14.579-32.5 32.5-32.5h417c17.921 0 32.5 14.58 32.5 32.5s-14.579 32.5-32.5 32.5h-46.204c-4.143 0-7.5 3.358-7.5 7.5s3.357 7.5 7.5 7.5h46.204c17.921 0 32.5 14.58 32.5 32.5s-14.579 32.5-32.5 32.5h-417c-17.921 0-32.5-14.58-32.5-32.5zm221.486 47.5h38.818c-7.442 6.488-13.957 13.967-19.375 22.287-5.392-8.23-11.924-15.738-19.443-22.287zm-190.486 162c-12.406 0-22.5-10.093-22.5-22.5s10.094-22.5 22.5-22.5c7.695 0 15.119-3.227 20.368-8.852 5.199-5.571 7.88-13.108 7.355-20.68-.148-2.135-.224-4.311-.224-6.468 0-33.709 18.307-64.687 47.81-81h89.183c29.494 16.33 47.877 47.179 48.006 80.64.009 2.279-.066 4.584-.225 6.852-.524 7.557 2.152 15.083 7.345 20.649 5.253 5.63 12.682 8.859 20.382 8.859 12.406 0 22.5 10.093 22.5 22.5s-10.094 22.5-22.5 22.5h-26.75c-4.143 0-7.5 3.358-7.5 7.5 0 .38.028.754.083 1.12v25.38c0 4.142 3.357 7.5 7.5 7.5s7.5-3.358 7.5-7.5v-19h68.968v52.5c0 4.5 1.093 8.747 3.018 12.5h-71.985v-17.5c0-4.142-3.357-7.5-7.5-7.5s-7.5 3.358-7.5 7.5v45c0 6.893-5.607 12.5-12.5 12.5s-12.5-5.607-12.5-12.5v-40c0-15.164-12.337-27.5-27.5-27.5s-27.5 12.336-27.5 27.5v80c0 6.893-5.607 12.5-12.5 12.5s-12.5-5.607-12.5-12.5v-140c0-4.142-3.357-7.5-7.5-7.5h-91.834c-.335 0-.665.018-.998.025-.167-.011-.333-.025-.502-.025zm165.833 80h-25v-12.5c0-6.893 5.607-12.5 12.5-12.5s12.5 5.607 12.5 12.5zm-196.833-32.5c0-17.92 14.579-32.5 32.5-32.5h84.333v65h-84.333c-17.921 0-32.5-14.58-32.5-32.5zm0 80c0-17.92 14.579-32.5 32.5-32.5h84.333v52.5c0 4.5 1.093 8.747 3.018 12.5h-87.351c-17.921 0-32.5-14.58-32.5-32.5zm449.5 32.5h-280.685c1.924-3.753 3.018-8 3.018-12.5v-52.5h25v12.5c0 15.164 12.337 27.5 27.5 27.5s27.5-12.336 27.5-27.5v-12.5h148.968v12.5c0 15.164 12.337 27.5 27.5 27.5s27.5-12.336 27.5-27.5v-11.882c14.915 2.943 26.199 16.117 26.199 31.882 0 17.92-14.579 32.5-32.5 32.5zm-48.699-80h-28.018c1.924-3.753 3.018-8 3.018-12.5 0-6.893 5.607-12.5 12.5-12.5s12.5 5.607 12.5 12.5zm55-.613v-63.774c14.916 2.942 26.199 16.121 26.199 31.887s-11.283 28.945-26.199 31.887zm-32.302-160.747c.009 2.279-.066 4.584-.225 6.852-.524 7.557 2.152 15.083 7.345 20.649 5.252 5.63 12.681 8.859 20.381 8.859 12.406 0 22.5 10.093 22.5 22.5s-10.094 22.5-22.5 22.5c-.169 0-.335.014-.502.025-.333-.007-.663-.025-.998-.025h-1.199c-4.143 0-7.5 3.358-7.5 7.5v100c0 6.893-5.607 12.5-12.5 12.5s-12.5-5.607-12.5-12.5v-40c0-15.164-12.337-27.5-27.5-27.5s-27.5 12.336-27.5 27.5c0 6.893-5.607 12.5-12.5 12.5s-12.5-5.607-12.5-12.5c0 0 0-59.326.001-59.983 0-.006 0-.011 0-.017 0-4.142-3.357-7.5-7.5-7.5h-27.322c4.719-6.272 7.521-14.064 7.521-22.5 0-20.678-16.823-37.5-37.501-37.5-3.608 0-6.951-1.453-9.412-4.091-2.4-2.573-3.59-5.903-3.348-9.377.183-2.632.271-5.307.26-7.95-.057-15.039-3.294-29.618-9.209-42.946 8.456-15.916 21.208-28.894 37.02-37.636h89.184c29.493 16.331 47.876 47.179 48.004 80.64z"/></g></svg>