<svg id="Capa_1" enable-background="new 0 0 511.998 511.998" height="512" viewBox="0 0 511.998 511.998" width="512" xmlns="http://www.w3.org/2000/svg"><g><g><circle cx="136.475" cy="139.926" fill="#ff7591" r="60"/></g><g><path d="m136.475 199.926c33.137 0 60-26.863 60-60s-26.863-60-60-60c-.071 0-.141.005-.213.005-12.762 14.407-19.787 32.845-19.787 52.142v4.028c-10.43 4.298-19.897 10.819-27.728 19.275-2.6 2.808-4.971 5.782-7.111 8.891 9.337 21.004 30.37 35.659 54.839 35.659z" fill="#fd5c70"/></g><g><path d="m255.999 244.603h-171.265l151.265 239.895h40l151.264-239.895z" fill="#2fcffc"/></g><g><path d="m149.979 244.603h-65.245l151.265 239.895h40l12.622-20.018z" fill="#0fbfe8"/></g><g><path d="m290.64 7.571-25.546 1.965c-39.467 3.036-69.942 35.946-69.942 75.529v22.525h45.941c41.837 0 75.752-33.915 75.752-75.752 0-14.178-12.069-25.355-26.205-24.267z" fill="#fffddb"/></g><g><path d="m313.112 74.178-121.693 9.361c-25.361 1.951-44.944 23.098-44.944 48.534v43.853h219.048v-53.214c0-28.355-24.139-50.709-52.411-48.534z" fill="#fff3ac"/></g><g><path d="m287.845 76.121-96.427 7.417c-25.361 1.951-44.944 23.098-44.944 48.534v43.853h97.355v-51.364c0-25.123 19.11-46.049 44.016-48.44z" fill="#f9e99b"/></g><g><path d="m97.797 248.942v-40.109c0-25.436 19.583-46.583 44.944-48.534l219.048-16.85c28.272-2.175 52.411 20.179 52.411 48.534v56.958h-316.403z" fill="#fffddb"/></g><g><path d="m336.502 234.603 40.497-124.605h43c11.046 0 20-8.954 20-20 0-11.046-8.954-20-20-20h-50.941c-17.328 0-32.686 11.157-38.041 27.637l-44.515 136.969h50z" fill="#899bb0"/></g><g><path d="m325.117 196.375c-12.661-3.45-20.134-16.497-16.714-29.16l-21.901 67.387h50l17.43-53.63c-3.968 11.884-16.576 18.738-28.815 15.403z" fill="#6c8199"/></g><g><path d="m236.93 153.054-94.188 7.245c-25.361 1.951-44.944 23.098-44.944 48.534v40.109h97.355v-47.714c-.001-24.365 17.973-44.783 41.777-48.174z" fill="#fff3ac"/></g><g><path d="m55.999 244.603c0-11.046 8.954-20 20-20h360c11.046 0 20 8.954 20 20 0 11.046-8.954 20-20 20h-360c-11.046 0-20-8.954-20-20z" fill="#84dfff"/></g><g><path d="m165.999 484.498c0-11.046 8.954-20 20-20h140c11.046 0 20 8.954 20 20 0 11.046-8.954 20-20 20h-140c-11.046 0-20-8.955-20-20z" fill="#84dfff"/></g><g><path d="m268.621 484.498c0-11.046 8.954-20 20-20h-102.622c-11.046 0-20 8.954-20 20 0 11.046 8.954 20 20 20h102.622c-11.046 0-20-8.955-20-20z" fill="#2fcffc"/></g><g><path d="m142.576 244.603c0-11.046 8.954-20 20-20h-86.577c-11.046 0-20 8.954-20 20 0 11.046 8.954 20 20 20h86.578c-11.046 0-20.001-8.954-20.001-20z" fill="#2fcffc"/></g><g><path d="m195.124 214.603v110c0 11.046 8.954 20 20 20 11.046 0 20-8.954 20-20v-40c0-11.046 8.954-20 20-20 11.046 0 20 8.954 20 20 0 11.046 8.954 20 20 20 11.046 0 20-8.954 20-20v-60h-25.372l3.25-10z" fill="#fffddb"/></g><path d="m435.999 217.103s-5.563 0-14.299 0v-25.12c0-14.763-5.678-28.703-15.987-39.252-8.112-8.3-18.38-13.78-29.544-15.914l6.279-19.319h37.551c15.164 0 27.5-12.336 27.5-27.5s-12.336-27.5-27.5-27.5h-50.94c-10.496 0-20.345 3.416-28.334 9.35-7.486-3.525-15.632-5.333-23.937-5.315 4.967-10.823 7.559-22.62 7.559-34.695 0-8.84-3.72-17.354-10.206-23.361-6.486-6.006-15.26-9.062-24.075-8.384l-25.545 1.965c-40.19 3.092-72.25 34.649-76.398 74.28-6.252.791-12.179 2.618-17.611 5.298-10.305-6.03-21.985-9.209-34.035-9.209-16.901 0-32.358 6.258-44.212 16.56-.506-2.468-.776-4.997-.776-7.582 0-10.825 4.692-21.122 12.874-28.252 3.123-2.722 3.448-7.459.727-10.582-2.722-3.124-7.459-3.447-10.582-.727-11.451 9.979-18.019 24.399-18.019 39.561 0 7.068 1.461 14.086 4.214 20.552-7.393 10.826-11.726 23.9-11.726 37.97 0 19.964 8.914 38.903 24.077 51.671-1.78 5.452-2.755 11.245-2.755 17.237v8.27h-14.3c-15.164 0-27.5 12.336-27.5 27.5s12.336 27.5 27.5 27.5h17.209l60.641 96.171c1.426 2.262 3.861 3.5 6.352 3.5 1.367 0 2.751-.374 3.993-1.157 3.503-2.209 4.553-6.841 2.344-10.345l-55.596-88.17h76.683v52.5c0 15.164 12.336 27.5 27.5 27.5s27.5-12.336 27.5-27.5v-40c0-6.893 5.607-12.5 12.5-12.5s12.5 5.607 12.5 12.5c0 15.164 12.336 27.5 27.5 27.5s27.5-12.336 27.5-27.5v-12.5h78.433l-116.586 184.894h-56.947l-44.962-71.306c-2.21-3.503-6.84-4.553-10.345-2.344-3.503 2.209-4.553 6.841-2.344 10.345l39.917 63.305h-23.793c-15.164 0-27.5 12.336-27.5 27.5s12.336 27.5 27.5 27.5h140c15.164 0 27.5-12.336 27.5-27.5s-12.336-27.5-27.5-27.5h-23.793l116.585-184.895h17.209c15.164 0 27.5-12.336 27.5-27.5s-12.337-27.5-27.5-27.5zm-97.5 267.395c0 6.893-5.607 12.5-12.5 12.5h-140c-6.893 0-12.5-5.607-12.5-12.5s5.607-12.5 12.5-12.5h140c6.892 0 12.5 5.607 12.5 12.5zm68.201-292.515v25.12c-17.062 0-38.677 0-56.624 0l21.409-65.875c20.085 2.846 35.215 19.923 35.215 40.755zm13.299-114.485c6.893 0 12.5 5.607 12.5 12.5s-5.607 12.5-12.5 12.5h-43c-3.249 0-6.128 2.092-7.133 5.182l-35.563 109.424c-10.701 0-18.106 0-19.068 0-.005 0-.009.001-.014 0h-15.146l38.074-117.15c4.365-13.431 16.786-22.455 30.909-22.455h50.941zm-154.329-60.484 25.545-1.965c4.731-.367 9.252 1.211 12.733 4.434 3.48 3.223 5.397 7.611 5.397 12.355 0 12.755-3.527 25.126-10.199 35.892l-95.762 7.366c4.576-31.159 30.291-55.621 62.286-58.082zm-181.695 122.912c0-28.949 23.551-52.5 52.5-52.5 6.958 0 13.755 1.364 20.073 3.981-10.825 10.3-17.573 24.803-17.573 40.666v21.096c-16.271 2.199-30.296 11.424-39.058 24.399-10.084-9.817-15.942-23.388-15.942-37.642zm103.649 117.177h-111.625c-6.893 0-12.5-5.607-12.5-12.5s5.607-12.5 12.5-12.5h111.625zm107.5 40c-6.893 0-12.5-5.607-12.5-12.5 0-15.164-12.336-27.5-27.5-27.5s-27.5 12.336-27.5 27.5v40c0 6.893-5.607 12.5-12.5 12.5s-12.5-5.607-12.5-12.5v-99.343c.021-.238.03-.479.028-.722-.035-4.117-3.383-7.436-7.5-7.436h-89.854v-8.27c0-21.382 16.7-39.416 38.019-41.056l101.105-7.777c4.13-.318 7.22-3.923 6.903-8.053-.318-4.13-3.925-7.225-8.053-6.903l-89.296 6.869v-19.84c0-21.382 16.7-39.416 38.019-41.056l121.693-9.361c5.43-.417 10.809.252 15.892 1.905-2.385 3.573-4.316 7.512-5.695 11.755l-14.509 44.643-36.202 2.785c-4.13.318-7.22 3.923-6.903 8.053.303 3.935 3.589 6.925 7.47 6.925.193 0 .388-.007.583-.022l30.037-2.311-21.741 66.896c-.742 2.284-.346 4.784 1.065 6.727s3.667 3.092 6.068 3.092h17.872v52.5c-.001 6.893-5.609 12.5-12.501 12.5zm140.875-40h-113.375v-25h17.106c.008 0 .016.002.024.002s.016-.002.024-.002h96.221c6.893 0 12.5 5.607 12.5 12.5s-5.608 12.5-12.5 12.5z"/></g></svg>