<svg id="Capa_1" enable-background="new 0 0 512 512" height="512" viewBox="0 0 512 512" width="512" xmlns="http://www.w3.org/2000/svg"><g><g><path d="m256 323.749h-71.264l51.264 160.751h40l51.264-160.751z" fill="#f9e99b"/></g><g><circle cx="256" cy="165.624" fill="#ffccd3" r="158.124"/></g><g><path d="m396.494 183.255c-87.33 0-158.124-70.795-158.124-158.124 0-5.658.303-11.244.883-16.748-79.456 8.365-141.377 75.569-141.377 157.241 0 87.33 70.795 158.124 158.124 158.124 81.672 0 148.876-61.921 157.242-141.377-5.504.581-11.091.884-16.748.884z" fill="#ffabb9"/></g><g><circle cx="118.701" cy="183.432" fill="#ff7591" r="60"/></g><g><path d="m160.825 201.308c-33.137 0-60-26.863-60-60 0-5.459.742-10.742 2.108-15.768-25.485 6.926-44.232 30.213-44.232 57.892 0 33.137 26.863 60 60 60 27.678 0 50.966-18.747 57.892-44.232-5.026 1.366-10.309 2.108-15.768 2.108z" fill="#fd5c70"/></g><g><path d="m84.736 244.605c0 77.32 76.678 140 171.264 140s171.264-62.68 171.264-140z" fill="#fff3ac"/></g><g><g><path d="m163.313 244.605h-78.577c0 77.32 76.678 140 171.264 140 7.52 0 14.926-.4 22.19-1.168-64.81-8.894-114.877-67.659-114.877-138.832z" fill="#f9e99b"/></g><g><path d="m427.264 244.606v-.001z" fill="#fff"/></g></g><g><circle cx="305.753" cy="79.329" fill="#ffabb9" r="20"/></g><g><circle cx="184.087" cy="96.329" fill="#ffccd3" r="20"/></g><g><circle cx="215.512" cy="153.871" fill="#ffccd3" r="15"/></g><g><path d="m352.503 234.605 40.497-124.605h43c11.046 0 20-8.954 20-20 0-11.046-8.954-20-20-20h-50.941c-17.328 0-32.686 11.157-38.041 27.637l-44.515 136.969h50z" fill="#899bb0"/></g><g><path d="m341.118 196.378c-12.661-3.45-20.134-16.497-16.714-29.16l-21.901 67.387h50l17.43-53.63c-3.967 11.884-16.576 18.738-28.815 15.403z" fill="#6c8199"/></g><g><path d="m56 244.605c0-11.046 8.954-20 20-20h360c11.046 0 20 8.954 20 20 0 11.046-8.954 20-20 20h-360c-11.046 0-20-8.954-20-20z" fill="#fffddb"/></g><g><path d="m166 484.5c0-11.046 8.954-20 20-20h140c11.046 0 20 8.954 20 20 0 11.046-8.954 20-20 20h-140c-11.046 0-20-8.954-20-20z" fill="#fffddb"/></g><g><path d="m262.667 484.5c0-11.046 8.954-20 20-20h-96.667c-11.046 0-20 8.954-20 20 0 11.046 8.954 20 20 20h96.667c-11.046 0-20-8.954-20-20z" fill="#fff3ac"/></g><g><path d="m142.578 244.605c0-11.046 8.954-20 20-20h-86.578c-11.046 0-20 8.954-20 20 0 11.046 8.954 20 20 20h86.578c-11.046 0-20-8.954-20-20z" fill="#fff3ac"/></g><g><path d="m185.753 214.605v110c0 11.046 8.954 20 20 20 11.046 0 20-8.954 20-20v-40c0-11.046 8.954-20 20-20 11.046 0 20 8.954 20 20 0 11.046 8.954 20 20 20 11.046 0 20-8.954 20-20v-70z" fill="#ffabb9"/></g><path d="m436 217.105h-22.545c5.417-16.561 8.169-33.833 8.169-51.481 0-16.439-2.395-32.583-7.111-48.125h21.487c15.164 0 27.5-12.336 27.5-27.5s-12.336-27.499-27.5-27.499h-50.411c-31.643-39.749-78.71-62.5-129.589-62.5-73.832 0-138.765 48.992-159.138 119.578-8.305 2.848-15.879 7.27-22.372 12.913-.506-2.469-.776-4.997-.776-7.581 0-10.825 4.692-21.122 12.874-28.252 3.123-2.722 3.448-7.459.727-10.582-2.721-3.122-7.458-3.448-10.582-.727-11.451 9.979-18.019 24.399-18.019 39.561 0 7.066 1.46 14.089 4.212 20.555-7.392 10.825-11.724 23.898-11.724 37.967 0 13.375 3.944 26.283 11.232 37.268-8.312 4.736-13.933 13.674-13.933 23.906 0 15.164 12.336 27.5 27.5 27.5h4.336c7.538 32.997 28.693 63.047 59.882 84.926 16.567 11.622 35.482 20.553 55.71 26.497l23.429 73.471h-33.358c-15.164 0-27.5 12.336-27.5 27.5s12.336 27.5 27.5 27.5h140c15.164 0 27.5-12.336 27.5-27.5s-12.336-27.5-27.5-27.5h-33.358l23.409-73.404c14.749-4.333 28.818-10.283 41.889-17.775 3.594-2.06 4.837-6.643 2.777-10.236-2.061-3.595-6.644-4.838-10.236-2.777-27.733 15.896-60.404 24.297-94.481 24.297-78.181 0-144.346-43.783-160.229-105h82.482v52.5c0 15.164 12.336 27.5 27.5 27.5s27.5-12.336 27.5-27.5v-40c0-6.893 5.607-12.5 12.5-12.5s12.5 5.607 12.5 12.5c0 15.164 12.336 27.5 27.5 27.5s27.5-12.336 27.5-27.5v-12.5h102.968c-6.287 24.107-20.72 46.184-42.046 64.177-3.166 2.671-3.567 7.403-.896 10.569 1.484 1.758 3.603 2.664 5.736 2.664 1.708 0 3.425-.58 4.833-1.768 24.824-20.945 41.296-47.036 47.814-75.642h4.338c15.164 0 27.5-12.336 27.5-27.5s-12.336-27.5-27.5-27.5zm-97.5 267.395c0 6.893-5.607 12.5-12.5 12.5h-140c-6.893 0-12.5-5.607-12.5-12.5s5.607-12.5 12.5-12.5h140c6.893 0 12.5 5.607 12.5 12.5zm-39.536-96.694-22.066 69.194h-41.795l-22.073-69.216c13.965 2.85 28.391 4.321 42.971 4.321 14.633 0 29.029-1.47 42.963-4.299zm107.661-222.181c0 17.72-3.038 35.018-9.029 51.481h-31.519l32.372-99.606h.319c5.21 15.458 7.857 31.625 7.857 48.125zm41.875-75.625c0 6.893-5.607 12.5-12.5 12.5h-43c-3.249 0-6.128 2.092-7.133 5.182l-35.563 109.425h-34.228l38.074-117.152c4.366-13.431 16.788-22.455 30.91-22.455h50.94c6.893 0 12.5 5.607 12.5 12.5zm-270.247 167.105h-102.253c-6.893 0-12.5-5.607-12.5-12.5s5.607-12.5 12.5-12.5h102.253zm120 27.5c0 6.893-5.608 12.5-12.5 12.5s-12.5-5.607-12.5-12.5c0-15.164-12.337-27.5-27.5-27.5s-27.5 12.336-27.5 27.5v40c0 6.893-5.608 12.5-12.5 12.5s-12.5-5.607-12.5-12.5v-100c0-4.142-3.358-7.5-7.5-7.5h-8.553c5.858-10.16 9.002-21.727 9.002-33.673 0-12.085-3.234-23.945-9.352-34.297-2.107-3.564-6.704-4.749-10.272-2.641-3.566 2.107-4.748 6.707-2.641 10.272 4.753 8.042 7.265 17.263 7.265 26.666 0 12.378-4.323 24.239-12.221 33.673h-80.557c-7.897-9.434-12.223-21.301-12.223-33.673 0-28.949 23.551-52.5 52.5-52.5 9.296 0 18.427 2.459 26.405 7.112 3.578 2.087 8.17.878 10.257-2.7s.878-8.17-2.7-10.257c-10.27-5.989-22.013-9.155-33.962-9.155-1.685 0-3.35.083-5.005.205 20.848-60.074 77.843-101.137 142.304-101.137 43.475 0 83.891 18.269 112.49 50.463-13.324 4.94-24.013 15.73-28.604 29.856l-40.943 125.979c-.049.152-.084.304-.123.456-.362.88-.565 1.843-.565 2.853v59.998zm137.747-27.5h-122.747v-25h122.747c6.893 0 12.5 5.607 12.5 12.5s-5.607 12.5-12.5 12.5z"/></g></svg>