<svg id="Capa_1" enable-background="new 0 0 511.146 511.146" height="512" viewBox="0 0 511.146 511.146" width="512" xmlns="http://www.w3.org/2000/svg"><g><g><path d="m284.039 7.559-20.992 1.615c-32.431 2.495-57.474 29.538-57.474 62.065v18.51h37.751c34.379 0 62.249-27.87 62.249-62.249 0-11.65-9.918-20.834-21.534-19.941z" fill="#ff7591"/></g><g><path d="m302.505 62.293-100 7.692c-20.84 1.603-36.932 18.981-36.932 39.882v36.036h180v-43.728c0-23.301-19.836-41.669-43.068-39.882z" fill="#fd5c70"/></g><g><path d="m281.742 63.89-79.237 6.095c-20.84 1.603-36.932 18.981-36.932 39.882v36.036h80v-42.208c0-20.645 15.703-37.841 36.169-39.805z" fill="#f24c68"/></g><g><path d="m125.573 235.903v-62.959c0-20.901 16.092-38.279 36.932-39.882l180-13.846c23.232-1.787 43.068 16.582 43.068 39.882v76.805z" fill="#ff7591"/></g><g><path d="m239.903 127.108-77.398 5.954c-20.84 1.603-36.932 18.981-36.932 39.882v62.959h80v-69.208c0-20.022 14.769-36.8 34.33-39.587z" fill="#fd5c70"/></g><g><path d="m408.102 236.569v176.259c0 5.614-4.551 10.165-10.165 10.165-27.089 0-49.049-21.96-49.049-49.049v-137.375z" fill="#ffbe74"/></g><g><path d="m103.044 236.569v176.259c0 5.614 4.551 10.165 10.165 10.165 27.089 0 49.049-21.96 49.049-49.049v-137.375z" fill="#f4a960"/></g><g><path d="m153.887 486.698c0-46.8 37.939-84.738 84.738-84.738h33.896c46.8 0 84.738 37.939 84.738 84.738 0 9.36-7.588 16.948-16.948 16.948h-169.476c-9.36 0-16.948-7.588-16.948-16.948z" fill="#f4a960"/></g><g><path d="m404.938 202.074c-2.071-11.119-14.222-17.164-24.31-12.05-23.534 11.929-68.01 29.591-125.055 29.591s-101.521-17.662-125.055-29.591c-10.088-5.113-22.239.932-24.31 12.05-2.074 11.137-3.165 22.674-3.165 34.494 0 74.527 43.298 137.809 103.467 160.506 14.148 5.337 23.641 18.713 23.641 33.835v.029c0 13.852 10.861 25.561 24.707 25.941 14.366.394 26.136-11.134 26.136-25.412v-.558c0-15.122 9.492-28.498 23.641-33.835 60.169-22.697 103.467-85.978 103.467-160.506 0-11.82-1.09-23.357-3.164-34.494z" fill="#ffd3a3"/></g><g><path d="m205.573 215.646c0-.193.007-.384.007-.577-33.038-6.035-58.956-16.881-75.062-25.045-10.088-5.113-22.239.932-24.31 12.051-2.074 11.137-3.165 22.674-3.165 34.494 0 74.527 43.298 137.809 103.467 160.506 14.148 5.337 23.641 18.713 23.641 33.834v.029c0 13.852 10.86 25.561 24.707 25.941 14.366.394 26.136-11.135 26.136-25.412v-.558c0-10.257 4.377-19.702 11.602-26.389-53.259-45.578-87.023-113.279-87.023-188.874z" fill="#ffbe74"/></g><g><path d="m193.887 325.705c-22.091 0-40-17.547-40-39.856 0-5.025 18.768-22.002 30.593-32.199 5.407-4.663 13.408-4.663 18.815 0 11.825 10.197 30.593 27.173 30.593 32.199-.001 22.309-17.91 39.856-40.001 39.856z" fill="#f4a960"/></g><g><path d="m265.573 188.185v133.775c0 11.046 8.954 20 20 20 11.046 0 20-8.954 20-20v-63.774c0-11.046 8.954-20 20-20 11.046 0 20 8.954 20 20 0 11.046 8.954 20 20 20 11.046 0 20-8.954 20-20v-70h-120z" fill="#ff7591"/></g><g><path d="m193.886 333.205c12.708 0 24.629-4.878 33.564-13.736 8.987-8.908 13.936-20.848 13.936-33.621 0-3.684 0-9.251-33.195-37.878-3.976-3.429-9.057-5.317-14.306-5.317s-10.33 1.889-14.305 5.317c-33.194 28.627-33.194 34.194-33.194 37.878 0 12.772 4.949 24.712 13.936 33.621 8.936 8.858 20.856 13.736 33.564 13.736zm-4.509-73.875c1.254-1.081 2.855-1.677 4.509-1.677s3.256.596 4.51 1.677c19.064 16.441 26.383 24.765 27.977 27.504-.506 17.67-14.593 31.371-32.486 31.371s-31.979-13.701-32.485-31.372c1.592-2.739 8.912-11.063 27.975-27.503z"/><path d="m415.602 236.568c0-12.072-1.107-24.139-3.292-35.867-1.865-10.019-9.76-17.561-19.237-19.513v-22.091c0-13.188-5.55-25.891-15.227-34.852-6.919-6.408-15.589-10.551-24.773-12.029v-10.042c0-13.188-5.55-25.892-15.227-34.852-8.294-7.68-19.102-12.115-30.295-12.592 3.632-8.558 5.522-17.792 5.522-27.23 0-7.635-3.213-14.99-8.815-20.178-5.603-5.188-13.181-7.831-20.794-7.242l-20.991 1.615c-33.217 2.556-59.96 28.524-63.886 61.202-22.971 3.429-40.514 23.434-40.514 46.969v16.186c-22.719 3.649-40 23.532-40 46.891v8.226c-2.05.418-4.069 1.096-6.008 2.054-6.981 3.448-11.804 9.818-13.23 17.478-2.184 11.729-3.292 23.797-3.292 35.867v176.259c0 9.741 7.925 17.666 17.666 17.666 27.327 0 50.186-19.484 55.42-45.29 9.832 7.032 20.459 12.939 31.764 17.525-32.449 14.742-54.007 47.309-54.007 83.97 0 13.48 10.967 24.448 24.448 24.448h169.477c13.48 0 24.448-10.967 24.448-24.448 0-36.661-21.557-69.228-54.006-83.97 11.305-4.586 21.932-10.493 31.763-17.525 5.235 25.805 28.094 45.29 55.421 45.29 9.74 0 17.665-7.925 17.665-17.666zm-151.979-219.916 20.991-1.615c3.504-.275 6.867.898 9.452 3.292 2.584 2.393 4.007 5.65 4.007 9.172 0 10.004-2.697 19.714-7.818 28.212l-76.314 5.87c4.333-24.171 24.669-43.007 49.682-44.931zm-150.042 186.796c.553-2.97 2.422-5.44 5.126-6.776 2.684-1.326 5.753-1.31 8.419.042 22.399 11.354 68.872 30.402 128.446 30.402.832 0 1.665-.004 2.5-.011v45.825c0 4.142 3.357 7.5 7.5 7.5s7.5-3.358 7.5-7.5v-53.495c0-2.036-.828-3.985-2.294-5.398s-3.425-2.179-5.478-2.097c-3.228.117-6.501.176-9.729.176-56.456 0-100.459-18.032-121.664-28.781-.276-.14-.557-.265-.836-.394v-9.997c0-16.876 13.181-31.11 30.007-32.404l121.32-9.333c4.13-.318 7.221-3.923 6.902-8.053-.317-4.129-3.912-7.218-8.053-6.903l-110.177 8.475v-14.86c0-16.876 13.181-31.11 30.007-32.404l100-7.692c9.131-.704 17.856 2.337 24.574 8.558s10.418 14.69 10.418 23.846v9.86l-24.824 1.909c-4.13.318-7.221 3.923-6.902 8.053.317 4.129 3.916 7.229 8.053 6.903l28.682-2.206c9.13-.702 17.856 2.337 24.574 8.558s10.418 14.689 10.418 23.846v28.049c0 .2.015.397.03.593-.019.219-.03.44-.03.663v69.783c0 6.893-5.607 12.5-12.5 12.5s-12.5-5.607-12.5-12.5c0-15.164-12.337-27.5-27.5-27.5s-27.5 12.336-27.5 27.5v63.774c0 6.893-5.607 12.5-12.5 12.5s-12.5-5.607-12.5-12.5v-19.031c0-4.142-3.357-7.5-7.5-7.5s-7.5 3.358-7.5 7.5v19.031c0 15.164 12.337 27.5 27.5 27.5s27.5-12.336 27.5-27.5v-63.774c0-6.893 5.607-12.5 12.5-12.5s12.5 5.607 12.5 12.5c0 15.164 12.337 27.5 27.5 27.5s27.5-12.336 27.5-27.5v-61.161c2.268 1.356 3.974 3.645 4.491 6.422 2.016 10.825 3.038 21.968 3.038 33.121 0 69.557-39.63 131.239-98.614 153.488-17.043 6.429-28.493 22.846-28.493 40.852v.558c0 4.88-1.927 9.442-5.426 12.847-3.496 3.402-8.116 5.191-13.005 5.068-9.602-.263-17.413-8.537-17.413-18.473 0-18.006-11.451-34.423-28.494-40.852-58.984-22.25-98.614-83.932-98.614-153.488.004-11.151 1.026-22.294 3.041-33.119zm-.372 212.045c-1.47 0-2.666-1.196-2.666-2.666v-101.406c10.234 24.257 25.342 45.723 44.211 62.655-.07 22.849-18.679 41.417-41.545 41.417zm236.55 71.205c0 5.209-4.238 9.448-9.448 9.448h-169.476c-5.209 0-9.448-4.238-9.448-9.448 0-34.164 22.345-64.09 54.741-73.913 4.143 4.995 6.524 11.332 6.524 18.153 0 17.954 14.356 32.954 32.001 33.438.312.009.622.013.933.013 8.625 0 16.743-3.291 22.944-9.324 6.426-6.252 9.965-14.633 9.965-23.598v-.558c0-6.803 2.381-13.132 6.522-18.124 32.397 9.822 54.742 39.749 54.742 73.913zm50.843-73.87c0 1.47-1.196 2.666-2.666 2.666-22.866 0-41.474-18.568-41.545-41.417 18.87-16.931 33.977-38.397 44.211-62.655z"/></g></g></svg>