<svg id="Capa_1" enable-background="new 0 0 512 512" height="512" viewBox="0 0 512 512" width="512" xmlns="http://www.w3.org/2000/svg"><g><g><path d="m479.41 295.555-44.243-17.772-38.167-21.816 14.722-31.101-7.179-16.203c-6.41-14.468-20.747-23.797-36.571-23.797h-73.972v209.601l210.5-30v-31.794c0-16.335-9.933-31.029-25.09-37.118z" fill="#be9edf"/></g><g><path d="m411.722 224.866h-21.263c-14.613 0-26.459 11.846-26.459 26.459 0 14.613 11.846 26.459 26.459 26.459h44.708z" fill="#84dfff"/></g><g><path d="m354.5 184.866h-60v209.601l60-8.551z" fill="#938ed9"/></g><g><path d="m292.416 21.643-7.899-6.771c-12.204-10.46-30.403-9.761-41.768 1.604l-6.468 6.468 13.191 13.191c12.012 12.012 31.488 12.012 43.501 0 4.071-4.071 3.814-10.745-.557-14.492z" fill="#e7886e"/></g><g><path d="m277.144 49.82-37.629-32.253c-7.842-6.722-19.537-6.272-26.84 1.031l-12.591 12.591 62.894 62.894 15.279-15.279c8.141-8.142 7.629-21.491-1.113-28.984z" fill="#dc6646"/></g><g><path d="m269.331 43.124-29.816-25.557c-7.842-6.722-19.537-6.272-26.84 1.031l-12.591 12.591 27.953 27.953 14.748-14.748c7.213-7.214 18.708-7.735 26.546-1.27z" fill="#d85536"/></g><g><path d="m162.542 40.777 11.516-11.516c7.303-7.303 18.998-7.752 26.84-1.031l67.732 58.056c8.742 7.493 9.255 20.842 1.113 28.984l-16.354 16.354z" fill="#e7886e"/></g><g><path d="m230.022 53.194-29.124-24.963c-7.842-6.722-19.537-6.272-26.84 1.031l-11.516 11.516 27.953 27.953 13.7-13.7c6.996-6.996 18.019-7.698 25.827-1.837z" fill="#dc6646"/></g><g><path d="m103.931 190.236c-8.299-8.299-10.185-21.054-4.642-31.399l63.253-118.059 90.847 90.847-118.059 63.253c-10.345 5.542-23.1 3.657-31.399-4.642z" fill="#ffd3a3"/></g><g><path d="m192.302 70.538-29.76-29.76-63.253 118.059c-5.543 10.345-3.657 23.1 4.642 31.399 5.43 5.43 12.767 8.094 20.089 7.748z" fill="#ffbe74"/></g><g><path d="m324.5 394.467-317-30v-190c0-22.091 17.909-40 40-40h237c22.091 0 40 17.909 40 40z" fill="#fbf081"/></g><g><path d="m117.5 174.467c0-22.091 17.909-40 40-40h-110c-22.091 0-40 17.909-40 40v190l110 10.41z" fill="#fad271"/></g><g><path d="m259.777 276.653c-18.125 0-26.221-6.516-37.426-15.533-12.292-9.893-27.59-22.205-56.355-22.205-28.764 0-44.061 12.312-56.353 22.205-11.204 9.018-19.3 15.533-37.424 15.533s-26.22-6.515-37.424-15.533c-7.305-5.879-15.672-12.612-27.295-17.108v120.456l317 30v-150.457c-11.624 4.496-19.991 11.229-27.296 17.108-11.206 9.018-19.301 15.534-37.427 15.534z" fill="#84dfff"/></g><g><path d="m117.5 254.987c-2.795 2.062-5.389 4.146-7.857 6.133-11.204 9.018-19.3 15.533-37.424 15.533s-26.22-6.515-37.424-15.533c-7.305-5.879-15.672-12.612-27.295-17.108v120.456l110 10.41z" fill="#2fcffc"/></g><g><path d="m464.5 434.467h-417c-22.091 0-40-17.909-40-40v-30h497v30c0 22.092-17.909 40-40 40z" fill="#7a7acc"/></g><g><path d="m238 208.915h-144v89.052c0 11.046 8.954 20 20 20h104c11.046 0 20-8.954 20-20z" fill="#2fcffc"/></g><g><path d="m103.948 180.967h32.052v27.948c0 16.569-13.431 30-30 30-16.569 0-30-13.431-30-30 0-15.435 12.513-27.948 27.948-27.948z" fill="#be9edf"/></g><g><path d="m136 180.967h60v27.948c0 16.569-13.431 30-30 30-16.569 0-30-13.431-30-30z" fill="#fad271"/></g><g><path d="m196 180.967h32.052c15.435 0 27.948 12.513 27.948 27.948 0 16.569-13.431 30-30 30-16.569 0-30-13.431-30-30z" fill="#be9edf"/></g><g><circle cx="117.5" cy="434.467" fill="#899bb0" r="70"/></g><g><path d="m97.5 484.467c0-11.046 8.954-20 20-20v-60c-11.046 0-20-8.954-20-20s8.954-20 20-20c-38.66 0-70 31.34-70 70s31.34 70 70 70c-11.046 0-20-8.954-20-20z" fill="#6c8199"/></g><g><circle cx="117.5" cy="434.467" fill="#6c8199" r="30"/></g><g><circle cx="394.5" cy="434.467" fill="#899bb0" r="70"/></g><g><path d="m374.5 484.467c0-11.046 8.954-20 20-20v-60c-11.046 0-20-8.954-20-20s8.954-20 20-20c-38.66 0-70 31.34-70 70s31.34 70 70 70c-11.046 0-20-8.954-20-20z" fill="#6c8199"/></g><g><circle cx="394.5" cy="434.467" fill="#6c8199" r="30"/></g><g><path d="m482.205 288.595-41.415-16.636-29.39-66.334c-7.605-17.167-24.652-28.26-43.429-28.26h-35.971v-2.898c0-26.191-21.309-47.5-47.5-47.5h-15.847l6.394-6.394c5.353-5.354 8.256-12.762 7.966-20.326-.166-4.302-1.36-8.473-3.414-12.178l3.962-3.962c5.353-5.354 8.256-12.762 7.966-20.327-.2-5.192-1.894-10.195-4.796-14.415 4.257-1.888 8.173-4.554 11.546-7.926 3.413-3.413 5.264-8.137 5.078-12.96s-2.394-9.39-6.058-12.53l-7.898-6.771c-14.193-12.165-35.231-12.104-49.37-.355-10.437-5.85-23.923-4.261-32.657 4.471l-6.112 6.112c-10.417-5.75-23.814-4.139-32.504 4.551l-6.213 6.213-5.179-5.179c-2.93-2.928-7.678-2.928-10.607 0-2.929 2.93-2.929 7.678 0 10.607l6.545 6.545-45.446 84.823h-60.356c-26.191 0-47.5 21.309-47.5 47.5v220c0 12.498 4.814 24.299 13.558 33.229 7.289 7.445 16.631 12.192 26.77 13.722 3.528 39.487 36.783 70.55 77.173 70.55 40.203 0 73.345-30.773 77.131-70h122.739c3.785 39.227 36.928 70 77.131 70 40.389 0 73.644-31.062 77.172-70.549 10.128-1.529 19.462-6.267 26.749-13.701 8.756-8.932 13.578-20.74 13.578-33.25v-61.794c-.001-19.506-11.696-36.807-29.796-44.078zm-58.564-18.311h-33.182c-10.454 0-18.959-8.505-18.959-18.959s8.505-18.959 18.959-18.959h16.382zm-55.669-77.918c12.847 0 24.51 7.59 29.714 19.336l2.51 5.664h-9.736c-18.725 0-33.959 15.234-33.959 33.959s15.234 33.959 33.959 33.959h43.257l42.898 17.231c12.383 4.975 20.385 16.813 20.385 30.158v24.294h-165v-25.275c0-4.143-3.357-7.5-7.5-7.5s-7.5 3.357-7.5 7.5v25.275h-302v-100.929c5.731 3.42 10.623 7.327 15.093 10.924 11.46 9.224 21.358 17.19 42.127 17.19 5.227 0 9.912-.507 14.28-1.523v15.338c0 15.163 12.337 27.5 27.5 27.5h104c15.163 0 27.5-12.337 27.5-27.5v-15.331c4.361 1.014 9.042 1.517 14.277 1.517 20.767 0 30.664-7.965 42.129-17.19 4.477-3.604 9.355-7.522 15.094-10.944v45.673c0 4.143 3.357 7.5 7.5 7.5s7.5-3.357 7.5-7.5v-109.326zm-50.603 234.601h-122.738c-2.175-22.539-14.044-42.277-31.376-55h185.491c-17.332 12.723-29.202 32.462-31.377 55zm-91.369-195.552c-12.406 0-22.5-10.094-22.5-22.5v-20.447h24.553c11.274 0 20.447 9.173 20.447 20.447 0 12.406-10.094 22.5-22.5 22.5zm-37.5-22.5c0 12.406-10.094 22.5-22.5 22.5s-22.5-10.094-22.5-22.5v-20.447h45zm-60 0c0 12.406-10.094 22.5-22.5 22.5s-22.5-10.094-22.5-22.5c0-11.274 9.173-20.447 20.447-20.447h24.553zm-22.5 37.5c12.254 0 23.153-5.909 30-15.026 6.847 9.117 17.746 15.026 30 15.026s23.153-5.909 30-15.026c6.847 9.117 17.746 15.026 30 15.026 1.524 0 3.023-.102 4.5-.28v51.832c0 6.893-5.607 12.5-12.5 12.5h-104c-6.893 0-12.5-5.607-12.5-12.5v-51.832c1.477.177 2.976.28 4.5.28zm173.637-225.848 7.898 6.771c.688.59.815 1.329.831 1.718.015.389-.056 1.136-.697 1.776-3.658 3.659-8.364 5.959-13.436 6.615l-22.06-18.909c8.433-5.251 19.649-4.668 27.464 2.029zm-100.275 13.998c4.503-4.506 11.82-4.784 16.655-.64l33.811 28.98c1.414 1.213 3.149 1.806 4.877 1.806 2.114 0 4.215-.889 5.698-2.619 2.695-3.145 2.331-7.88-.813-10.575l-26.507-22.72 4.895-4.895c4.503-4.504 11.819-4.786 16.655-.641l37.629 32.253c2.624 2.249 4.142 5.39 4.274 8.843s-1.14 6.7-3.584 9.144l-3.561 3.561-7.084-6.073c-3.146-2.695-7.881-2.331-10.575.813-2.695 3.145-2.332 7.879.813 10.575l11.203 9.604c2.624 2.249 4.142 5.39 4.274 8.842.133 3.453-1.14 6.7-3.584 9.145l-11.05 11.05-80.24-80.24zm-14.98 18.66 73.743 73.742h-113.252zm-116.882 88.742h237c17.921 0 32.5 14.579 32.5 32.5v64.596c-10.281 4.781-18.091 11.057-24.502 16.217-10.751 8.651-17.24 13.873-32.721 13.873-5.518 0-10.13-.683-14.277-2.102v-26.118c10.786-6.593 18-18.479 18-32.019 0-19.546-15.901-35.447-35.447-35.447h-124.106c-19.546 0-35.447 15.901-35.447 35.447 0 13.54 7.214 25.426 18 32.019v26.117c-4.156 1.42-8.779 2.103-14.28 2.103-15.482 0-21.972-5.223-32.723-13.876-6.399-5.15-14.221-11.433-24.497-16.212v-64.598c0-17.921 14.579-32.5 32.5-32.5zm-32.5 252.5v-22.5h56.746c-17.131 12.575-28.927 32.005-31.298 54.219-14.498-3.26-25.448-16.356-25.448-31.719zm102.5 102.5c-34.463 0-62.5-28.037-62.5-62.5s28.037-62.5 62.5-62.5 62.5 28.037 62.5 62.5-28.037 62.5-62.5 62.5zm277 0c-34.463 0-62.5-28.037-62.5-62.5s28.037-62.5 62.5-62.5 62.5 28.037 62.5 62.5-28.037 62.5-62.5 62.5zm77.052-70.779c-2.371-22.214-14.166-41.645-31.298-54.22h56.746v22.5c0 15.37-10.947 28.46-25.448 31.72z"/><path d="m117.5 396.967c-20.678 0-37.5 16.822-37.5 37.5s16.822 37.5 37.5 37.5 37.5-16.822 37.5-37.5-16.822-37.5-37.5-37.5zm0 60c-12.406 0-22.5-10.094-22.5-22.5s10.094-22.5 22.5-22.5 22.5 10.094 22.5 22.5-10.094 22.5-22.5 22.5z"/><path d="m394.5 396.967c-20.678 0-37.5 16.822-37.5 37.5s16.822 37.5 37.5 37.5 37.5-16.822 37.5-37.5-16.822-37.5-37.5-37.5zm0 60c-12.406 0-22.5-10.094-22.5-22.5s10.094-22.5 22.5-22.5 22.5 10.094 22.5 22.5-10.094 22.5-22.5 22.5z"/></g></g></svg>