<svg id="Capa_1" enable-background="new 0 0 512 512" height="512" viewBox="0 0 512 512" width="512" xmlns="http://www.w3.org/2000/svg"><g><g><path d="m77.5 27.5h357v457h-357z" fill="#fff3ac"/></g><g><path d="m77.5 27.5h78.5v457h-78.5z" fill="#f9e99b"/></g><g><path d="m137.5 187.5h237v297h-237z" fill="#ead67f"/></g><g><path d="m286 257.5h-60v20c0 16.569 13.431 30 30 30 16.569 0 30-13.431 30-30z" fill="#6c8199"/></g><g><path d="m316 217.5h-120v30c0 11.046 8.954 20 20 20h80c11.046 0 20-8.954 20-20z" fill="#899bb0"/></g><g><path d="m256 247.5v-30h-60v30c0 11.046 8.954 20 20 20h60c-11.046 0-20-8.954-20-20z" fill="#6c8199"/></g><g><path d="m180.122 474.5h151.755v-30c0-11.046-8.954-20-20-20h-111.755c-11.046 0-20 8.954-20 20z" fill="#899bb0"/></g><g><path d="m276 424.5h-75.878c-11.046 0-20 8.954-20 20v30h75.878v-30c0-11.046 8.954-20 20-20z" fill="#6c8199"/></g><g><path d="m374.5 127.5h-237c-11.046 0-20 8.954-20 20v60c0 11.046 8.954 20 20 20h237c11.046 0 20-8.954 20-20v-60c0-11.046-8.954-20-20-20z" fill="#fffddb"/></g><g><path d="m176 207.5v-60c0-11.046 8.954-20 20-20h-58.5c-11.046 0-20 8.954-20 20v60c0 11.046 8.954 20 20 20h58.5c-11.046 0-20-8.954-20-20z" fill="#fff3ac"/></g><g><path d="m57.5 484.5c0-11.046 8.954-20 20-20h357c11.046 0 20 8.954 20 20 0 11.046-8.954 20-20 20h-357c-11.046 0-20-8.954-20-20z" fill="#fffddb"/></g><g><path d="m160.122 484.5c0-11.046 8.954-20 20-20h-102.622c-11.046 0-20 8.954-20 20 0 11.046 8.954 20 20 20h102.622c-11.045 0-20-8.954-20-20z" fill="#fff3ac"/></g><g><path d="m57.5 27.5c0-11.046 8.954-20 20-20h357c11.046 0 20 8.954 20 20 0 11.046-8.954 20-20 20h-357c-11.046 0-20-8.954-20-20z" fill="#fffddb"/></g><g><path d="m256 87.5c11.046 0 20 8.954 20 20v60c0 11.046-8.954 20-20 20-11.046 0-20-8.954-20-20v-60c0-11.046 8.954-20 20-20z" fill="#899bb0"/></g><g><path d="m256 167.5v-60c0-7.398 4.028-13.843 10-17.302-2.944-1.706-6.353-2.698-10-2.698-11.046 0-20 8.954-20 20v60c0 11.046 8.954 20 20 20 3.647 0 7.056-.992 10-2.698-5.972-3.459-10-9.904-10-17.302z" fill="#6c8199"/></g><g><path d="m336 87.5c11.046 0 20 8.954 20 20v60c0 11.046-8.954 20-20 20-11.046 0-20-8.954-20-20v-60c0-11.046 8.954-20 20-20z" fill="#899bb0"/></g><g><path d="m336 167.5v-60c0-7.398 4.028-13.843 10-17.302-2.944-1.706-6.353-2.698-10-2.698-11.046 0-20 8.954-20 20v60c0 11.046 8.954 20 20 20 3.647 0 7.056-.992 10-2.698-5.972-3.459-10-9.904-10-17.302z" fill="#6c8199"/></g><g><path d="m176 87.5c11.046 0 20 8.954 20 20v60c0 11.046-8.954 20-20 20-11.046 0-20-8.954-20-20v-60c0-11.046 8.954-20 20-20z" fill="#899bb0"/></g><g><path d="m176 167.5v-60c0-7.398 4.028-13.843 10-17.302-2.944-1.706-6.353-2.698-10-2.698-11.046 0-20 8.954-20 20v60c0 11.046 8.954 20 20 20 3.647 0 7.056-.992 10-2.698-5.972-3.459-10-9.904-10-17.302z" fill="#6c8199"/></g><g><path d="m160.122 27.5c0-11.046 8.954-20 20-20h-102.622c-11.046 0-20 8.954-20 20 0 11.046 8.954 20 20 20h102.622c-11.045 0-20-8.954-20-20z" fill="#fff3ac"/></g><path d="m442 458.048v-404.096c11.528-3.274 20-13.889 20-26.452 0-15.163-12.336-27.5-27.5-27.5h-357c-15.164 0-27.5 12.337-27.5 27.5 0 12.563 8.472 23.178 20 26.452v404.096c-11.528 3.274-20 13.889-20 26.452 0 15.163 12.336 27.5 27.5 27.5h357c15.164 0 27.5-12.337 27.5-27.5 0-12.563-8.472-23.178-20-26.452zm-377-430.548c0-6.893 5.607-12.5 12.5-12.5h357c6.893 0 12.5 5.607 12.5 12.5s-5.607 12.5-12.5 12.5h-83.5c-4.142 0-7.5 3.357-7.5 7.5s3.358 7.5 7.5 7.5h76v402h-45v-223.048c11.528-3.274 20-13.889 20-26.452v-60c0-15.163-12.336-27.5-27.5-27.5h-11v-12.5c0-15.163-12.336-27.5-27.5-27.5s-27.5 12.337-27.5 27.5v12.5h-25v-12.5c0-15.163-12.336-27.5-27.5-27.5s-27.5 12.337-27.5 27.5v12.5h-25v-12.5c0-15.163-12.336-27.5-27.5-27.5s-27.5 12.337-27.5 27.5v12.5h-11c-15.164 0-27.5 12.337-27.5 27.5v60c0 12.563 8.472 23.178 20 26.452v88.548c0 4.143 3.358 7.5 7.5 7.5s7.5-3.357 7.5-7.5v-87.5h43.5v12.5c0 15.163 12.336 27.5 27.5 27.5h2.5v2.5c0 18.11 12.904 33.261 30 36.745v23.255c0 4.143 3.358 7.5 7.5 7.5s7.5-3.357 7.5-7.5v-23.255c17.096-3.484 30-18.635 30-36.745v-2.5h2.5c15.164 0 27.5-12.337 27.5-27.5v-12.5h43.5v222h-27.622v-12.5c0-15.163-12.336-27.5-27.5-27.5h-111.756c-15.164 0-27.5 12.337-27.5 27.5v12.5h-27.622v-104.5c0-4.143-3.358-7.5-7.5-7.5s-7.5 3.357-7.5 7.5v104.5h-45v-402h236c4.142 0 7.5-3.357 7.5-7.5s-3.358-7.5-7.5-7.5h-243.5c-6.893 0-12.5-5.607-12.5-12.5zm191 272.5c-12.407 0-22.5-10.094-22.5-22.5v-2.5h45v2.5c0 12.406-10.093 22.5-22.5 22.5zm-40-40c-6.893 0-12.5-5.607-12.5-12.5v-12.5h105v12.5c0 6.893-5.607 12.5-12.5 12.5zm-78.5-40c-6.893 0-12.5-5.607-12.5-12.5v-60c0-6.893 5.607-12.5 12.5-12.5h11v32.5c0 15.163 12.336 27.5 27.5 27.5s27.5-12.337 27.5-27.5v-32.5h25v32.5c0 15.163 12.336 27.5 27.5 27.5s27.5-12.337 27.5-27.5v-32.5h25v32.5c0 15.163 12.336 27.5 27.5 27.5s27.5-12.337 27.5-27.5v-32.5h11c6.893 0 12.5 5.607 12.5 12.5v60c0 6.893-5.607 12.5-12.5 12.5zm26-52.5v-60c0-6.893 5.607-12.5 12.5-12.5s12.5 5.607 12.5 12.5v60c0 6.893-5.607 12.5-12.5 12.5s-12.5-5.607-12.5-12.5zm80 0v-60c0-6.893 5.607-12.5 12.5-12.5s12.5 5.607 12.5 12.5v60c0 6.893-5.607 12.5-12.5 12.5s-12.5-5.607-12.5-12.5zm80 0v-60c0-6.893 5.607-12.5 12.5-12.5s12.5 5.607 12.5 12.5v60c0 6.893-5.607 12.5-12.5 12.5s-12.5-5.607-12.5-12.5zm.878 289.5h-136.756v-12.5c0-6.893 5.607-12.5 12.5-12.5h111.756c6.893 0 12.5 5.607 12.5 12.5zm110.122 40h-357c-6.893 0-12.5-5.607-12.5-12.5s5.607-12.5 12.5-12.5h357c6.893 0 12.5 5.607 12.5 12.5s-5.607 12.5-12.5 12.5z"/></g></svg>