<svg id="Capa_1" enable-background="new 0 0 512 512" height="512" viewBox="0 0 512 512" width="512" xmlns="http://www.w3.org/2000/svg"><g><g><path d="m356 504.5c16.569 0 30-13.431 30-30v-30h-60v30c0 16.569 13.431 30 30 30z" fill="#899bb0"/></g><g><path d="m356 474.5v-30h-30v30c0 16.569 13.431 30 30 30 5.466 0 10.586-1.469 15-4.023-8.964-5.188-15-14.875-15-25.977z" fill="#6c8199"/></g><g><path d="m156 504.5c-16.569 0-30-13.431-30-30v-30h60v30c0 16.569-13.431 30-30 30z" fill="#899bb0"/></g><g><path d="m156 474.5v-30h-30v30c0 16.569 13.431 30 30 30 5.466 0 10.586-1.469 15-4.023-8.964-5.188-15-14.875-15-25.977z" fill="#6c8199"/></g><g><path d="m426 187.5-170 30-170-30v-140c0-22.091 17.909-40 40-40h260c22.091 0 40 17.909 40 40z" fill="#50e3cf"/></g><g><path d="m146 47.5c0-22.091 17.909-40 40-40h-60c-22.091 0-40 17.909-40 40v140l60 10.588z" fill="#17d9bf"/></g><g><path d="m426 187.5h-340v237c0 22.091 17.909 40 40 40h260c22.091 0 40-17.909 40-40z" fill="#17d9bf"/></g><g><path d="m146 424.5v-237h-60v237c0 22.091 17.909 40 40 40h60c-22.091 0-40-17.909-40-40z" fill="#0accab"/></g><g><g><g><ellipse cx="172.153" cy="121.047" fill="#fff" rx="30.938" ry="24.637"/></g><g><ellipse cx="339.847" cy="121.047" fill="#fff" rx="30.938" ry="24.637"/></g><g><ellipse cx="256" cy="102.117" fill="#333843" rx="16.423" ry="18.377"/></g></g><g><path d="m177.325 98.816c-4.142 0-7.5-3.357-7.5-7.5v-12c0-4.143 3.358-7.5 7.5-7.5s7.5 3.357 7.5 7.5v12c0 4.143-3.358 7.5-7.5 7.5z"/></g><g><path d="m256 127.993c-13.191 0-23.922-11.608-23.922-25.877s10.731-25.877 23.922-25.877 23.922 11.608 23.922 25.877-10.731 25.877-23.922 25.877zm0-36.754c-4.92 0-8.922 4.879-8.922 10.877s4.002 10.877 8.922 10.877 8.922-4.879 8.922-10.877-4.002-10.877-8.922-10.877z"/></g><g><path d="m334.675 98.816c-4.142 0-7.5-3.357-7.5-7.5v-12c0-4.143 3.358-7.5 7.5-7.5s7.5 3.357 7.5 7.5v12c0 4.143-3.358 7.5-7.5 7.5z"/></g></g><g><path d="m386 0h-260c-26.191 0-47.5 21.309-47.5 47.5v225c0 4.143 3.358 7.5 7.5 7.5s7.5-3.357 7.5-7.5v-77.5h226.175c4.142 0 7.5-3.357 7.5-7.5s-3.358-7.5-7.5-7.5h-226.175v-132.5c0-17.921 14.58-32.5 32.5-32.5h260c17.92 0 32.5 14.579 32.5 32.5v132.5h-68.825c-4.142 0-7.5 3.357-7.5 7.5s3.358 7.5 7.5 7.5h68.825v229.5c0 17.921-14.58 32.5-32.5 32.5h-260c-17.92 0-32.5-14.579-32.5-32.5v-122c0-4.143-3.358-7.5-7.5-7.5s-7.5 3.357-7.5 7.5v122c0 23.639 17.36 43.295 40 46.902v3.098c0 20.678 16.822 37.5 37.5 37.5s37.5-16.822 37.5-37.5v-2.5h125v2.5c0 20.678 16.822 37.5 37.5 37.5s37.5-16.822 37.5-37.5v-3.098c22.64-3.607 40-23.263 40-46.902v-377c0-26.191-21.309-47.5-47.5-47.5zm-207.5 474.5c0 12.406-10.093 22.5-22.5 22.5s-22.5-10.094-22.5-22.5v-2.5h45zm177.5 22.5c-12.407 0-22.5-10.094-22.5-22.5v-2.5h45v2.5c0 12.406-10.093 22.5-22.5 22.5z"/><path d="m156 255h10c4.142 0 7.5-3.357 7.5-7.5s-3.358-7.5-7.5-7.5h-10c-9.649 0-17.5 7.851-17.5 17.5v60c0 9.649 7.851 17.5 17.5 17.5h10c4.142 0 7.5-3.357 7.5-7.5s-3.358-7.5-7.5-7.5h-10c-1.378 0-2.5-1.121-2.5-2.5v-60c0-1.379 1.122-2.5 2.5-2.5z"/></g></g></svg>