<svg id="Capa_1" enable-background="new 0 0 512 512" height="512" viewBox="0 0 512 512" width="512" xmlns="http://www.w3.org/2000/svg"><g><g><path d="m474.5 97.5h-437c-16.569 0-30-13.431-30-30 0-16.569 13.431-30 30-30h437c16.569 0 30 13.431 30 30 0 16.569-13.431 30-30 30z" fill="#fffddb"/></g><g><path d="m197.5 67.5c0-16.569 13.431-30 30-30h-190c-16.569 0-30 13.431-30 30 0 16.569 13.431 30 30 30h190c-16.569 0-30-13.431-30-30z" fill="#fff3ac"/></g><g><path d="m354.5 227.5v-190c0-16.569 13.431-30 30-30 16.569 0 30 13.431 30 30v190z" fill="#be9edf"/></g><g><path d="m384.5 127.5c-16.569 0-30-13.431-30-30v130h60v-130c0 16.569-13.431 30-30 30z" fill="#938ed9"/></g><g><path d="m97.5 227.5v-190c0-16.569 13.431-30 30-30 16.569 0 30 13.431 30 30v190z" fill="#be9edf"/></g><g><path d="m127.5 127.5c-16.569 0-30-13.431-30-30v130h60v-130c0 16.569-13.431 30-30 30z" fill="#938ed9"/></g><g><path d="m504.5 344.407v-136.907c0-22.091-17.909-40-40-40h-417c-22.091 0-40 17.909-40 40v136.907l40 65.26h417z" fill="#fbf081"/></g><g><path d="m117.5 207.5c0-22.091 17.909-40 40-40h-110c-22.091 0-40 17.909-40 40v136.907l40 65.26h70z" fill="#fad271"/></g><g><path d="m47.5 504.5h417c22.091 0 40-17.909 40-40v-120.094c-18.225 7.049-31.343 17.605-42.795 26.823-17.569 14.139-30.26 24.354-58.679 24.354-28.417 0-41.109-10.215-58.677-24.354-19.272-15.51-43.256-34.813-88.355-34.813-45.097 0-69.081 19.303-88.351 34.813-17.566 14.139-30.258 24.354-58.674 24.354s-41.109-10.215-58.675-24.353c-11.453-9.217-24.57-19.774-42.794-26.823v120.093c0 22.091 17.909 40 40 40z" fill="#84dfff"/></g><g><path d="m117.5 464.5v-69.261c-2.686.223-5.516.344-8.531.344-28.416 0-41.108-10.215-58.674-24.354-11.453-9.217-24.57-19.774-42.794-26.823v120.094c0 22.091 17.909 40 40 40h110c-22.092 0-40.001-17.909-40.001-40z" fill="#2fcffc"/></g><g><path d="m270.306 207.62-10.549.812c-16.298 1.254-28.884 14.844-28.884 31.191v9.302h18.972c17.277 0 31.283-14.006 31.283-31.283 0-5.856-4.985-10.471-10.822-10.022z" fill="#e7886e"/></g><g><path d="m279.586 238.866-50.255 3.866c-10.473.806-18.56 9.539-18.56 20.043v18.11h90.46v-21.976c-.001-11.709-9.97-20.941-21.645-20.043z" fill="#dc6646"/></g><g><path d="m269.152 239.669-39.821 3.063c-10.473.806-18.56 9.539-18.56 20.043v18.11h40.204v-21.212c-.001-10.375 7.891-19.017 18.177-20.004z" fill="#d85536"/></g><g><path d="m190.668 314.778v-16.564c0-10.504 8.087-19.237 18.56-20.043l90.46-6.958c11.675-.898 21.644 8.333 21.644 20.043v23.522z" fill="#e7886e"/></g><g><path d="m248.125 275.18-38.897 2.992c-10.473.806-18.56 9.539-18.56 20.043v16.564h40.204v-19.704c0-10.063 7.423-18.495 17.253-19.895z" fill="#dc6646"/></g><g><path d="m256 464.41c-11.937 0-22.465-7.816-25.919-19.242l-39.413-130.39h130.664l-39.413 130.39c-3.454 11.426-13.983 19.242-25.919 19.242z" fill="#ffd3a3"/></g><g><path d="m233.471 314.778h-42.803l39.413 130.39c3.454 11.426 13.982 19.242 25.919 19.242 7.81 0 15.002-3.361 20.019-8.874z" fill="#ffbe74"/></g><path d="m464.5 160h-42.5v-55h52.5c20.678 0 37.5-16.822 37.5-37.5s-16.822-37.5-37.5-37.5h-53.255c-3.484-17.096-18.635-30-36.745-30s-33.261 12.904-36.745 30h-183.51c-3.484-17.096-18.635-30-36.745-30s-33.261 12.904-36.745 30h-53.255c-20.678 0-37.5 16.822-37.5 37.5s16.822 37.5 37.5 37.5h52.5v55h-42.5c-26.191 0-47.5 21.309-47.5 47.5v257c0 26.191 21.309 47.5 47.5 47.5h417c26.191 0 47.5-21.309 47.5-47.5v-257c0-26.191-21.309-47.5-47.5-47.5zm32.5-92.5c0 12.406-10.094 22.5-22.5 22.5h-52.5v-45h52.5c12.406 0 22.5 10.094 22.5 22.5zm-112.5-52.5c12.406 0 22.5 10.094 22.5 22.5v122.5h-45v-122.5c0-12.406 10.094-22.5 22.5-22.5zm-219.5 90h76c4.143 0 7.5-3.357 7.5-7.5s-3.357-7.5-7.5-7.5h-76v-45h182v45h-76c-4.143 0-7.5 3.357-7.5 7.5s3.357 7.5 7.5 7.5h76v55h-182zm-127.5-15c-12.406 0-22.5-10.094-22.5-22.5s10.094-22.5 22.5-22.5h52.5v45zm67.5-52.5c0-12.406 10.094-22.5 22.5-22.5s22.5 10.094 22.5 22.5v122.5h-45zm359.5 459.5h-417c-17.921 0-32.5-14.579-32.5-32.5v-108.505c12.137 6.234 21.849 14.04 30.592 21.077 18.055 14.532 32.316 26.011 63.377 26.011 31.06 0 45.321-11.479 63.379-26.013 7.048-5.672 14.874-11.938 24.047-17.425l26.507 87.692c4.442 14.697 17.744 24.572 33.098 24.572s28.655-9.875 33.099-24.572l26.505-87.686c9.17 5.485 16.995 11.749 24.044 17.422 14.306 11.513 26.659 21.455 47.174 24.79.407.066.813.099 1.212.099 3.612 0 6.796-2.616 7.394-6.297.665-4.089-2.11-7.942-6.198-8.606-16.604-2.7-26.491-10.657-40.182-21.675-8.257-6.645-17.492-14.073-28.978-20.507l6.831-22.6h9.508c4.143 0 7.5-3.357 7.5-7.5s-3.357-7.5-7.5-7.5h-7.577v-16.022c0-7.663-3.225-15.044-8.848-20.251-3.222-2.984-7.097-5.123-11.255-6.3v-5.796c0-7.664-3.225-15.046-8.849-20.253-3.896-3.608-8.746-5.991-13.898-6.916 1.735-4.448 2.645-9.219 2.645-14.098 0-4.873-2.051-9.567-5.626-12.878-3.576-3.312-8.417-4.993-13.271-4.621l-10.55.812c-18.921 1.454-33.974 16.622-35.648 35.218-11.703 3.254-20.262 14.07-20.262 26.603v8.885c-11.621 3.308-20.103 14.08-20.103 26.554v9.063h-7.577c-4.143 0-7.5 3.357-7.5 7.5s3.357 7.5 7.5 7.5h9.509l6.83 22.594c-11.49 6.435-20.727 13.865-28.989 20.514-16.98 13.667-28.199 22.696-53.972 22.696s-36.992-9.029-53.973-22.696c-10.884-8.76-23.172-18.633-39.995-25.987v-131.898c0-17.921 14.579-32.5 32.5-32.5h417c17.921 0 32.5 14.579 32.5 32.5v131.886c-16.819 7.348-29.092 17.223-39.997 25.999-13.687 11.015-23.575 18.974-40.181 21.674-4.088.664-6.863 4.518-6.198 8.605.598 3.682 3.781 6.298 7.394 6.298.399 0 .805-.032 1.213-.099 20.515-3.335 32.87-13.279 47.177-24.793 8.753-7.044 18.454-14.849 30.593-21.083v108.513c-.001 17.921-14.58 32.5-32.501 32.5zm-195.848-264.814-29.688 2.284c2.243-9.977 10.815-17.749 21.366-18.56l10.55-.812c.978-.066 1.624.39 1.93.672.305.283.817.902.817 1.872.001 5.302-1.758 10.392-4.975 14.544zm-38.747 18.024 50.256-3.866c3.545-.272 6.924.906 9.528 3.318 2.605 2.412 4.04 5.696 4.04 9.247v5.24l-75.459 5.805v-7.179c.001-6.544 5.111-12.063 11.635-12.565zm-20.101 35.439 90.46-6.959c3.53-.274 6.924.906 9.529 3.319 2.604 2.412 4.039 5.696 4.039 9.246v16.022h-115.664v-9.063c0-6.543 5.111-12.063 11.636-12.565zm101.427 36.629-36.49 120.72c-2.516 8.321-10.047 13.912-18.74 13.912s-16.225-5.591-18.739-13.912l-36.491-120.72z"/></g></svg>