<svg id="Capa_1" enable-background="new 0 0 512 512" height="512" viewBox="0 0 512 512" width="512" xmlns="http://www.w3.org/2000/svg"><g><g><path d="m85.922 384.291-7.075 87.907c-1.401 17.405 12.346 32.302 29.807 32.302 15.585 0 28.557-11.97 29.807-27.504l7.461-92.705z" fill="#938ed9"/></g><g><path d="m366.572 384.291 7.461 92.705c1.25 15.535 14.222 27.504 29.807 27.504 17.461 0 31.208-14.898 29.807-32.302l-7.075-87.907z" fill="#938ed9"/></g><g><path d="m407.62 476.996-1.569-19.496h26.413l-5.892-73.209h-60l7.461 92.705c1.25 15.535 14.222 27.504 29.807 27.504 6.25 0 12.019-1.917 16.793-5.166-7.258-4.935-12.26-12.988-13.013-22.338z" fill="#7a7acc"/></g><g><path d="m107.974 472.198 1.183-14.698h30.873l5.892-73.209h-60l-7.075 87.907c-1.401 17.405 12.346 32.302 29.807 32.302 5.271 0 10.241-1.373 14.562-3.787-9.848-5.506-16.217-16.4-15.242-28.515z" fill="#7a7acc"/></g><g><path d="m425.37 427.5h-338.74c-29.196 0-52.181-24.91-49.839-54.011l25.755-320c2.09-25.975 23.78-45.989 49.839-45.989h287.663c26.085 0 47.786 20.052 49.844 46.056l25.323 320c2.301 29.078-20.676 53.944-49.845 53.944z" fill="#be9edf"/></g><g><path d="m222.313 7.5h-109.928c-26.059 0-47.748 20.014-49.839 45.989l-25.755 320c-2.342 29.101 20.643 54.011 49.839 54.011h55.742l30.102-374.011c2.09-25.975 23.78-45.989 49.839-45.989z" fill="#938ed9"/></g><g><path d="m88.031 235.442 19.883 53.142h148.333 148.333l19.632-52.472-13.467-170.19c-.823-10.401-9.504-18.422-19.938-18.422h-269.195c-10.424 0-19.099 8.006-19.936 18.396z" fill="#fbf081"/></g><g><path d="m88.031 235.442 19.883 53.142h45.639l18.921-235.094c.164-2.037.462-4.032.859-5.989h-51.721c-10.424 0-19.099 8.006-19.936 18.396z" fill="#fad271"/></g><g><path d="m365.111 265.273c-21.041 0-30.439-7.564-43.447-18.032-14.27-11.485-32.029-25.777-65.422-25.777-33.392 0-51.15 14.293-65.419 25.777-13.007 10.469-22.405 18.032-43.445 18.032s-30.438-7.563-43.445-18.032c-4.762-3.832-9.912-7.977-15.903-11.799l-10.498 130.454c-.937 11.641 8.257 21.604 19.936 21.604h327.902c5.834 0 10.429-4.973 9.969-10.789l-11.164-141.082c-5.866 3.77-10.931 7.841-15.615 11.611-13.009 10.469-22.407 18.033-43.449 18.033z" fill="#84dfff"/></g><g><path d="m155.463 264.848c-2.502.276-5.179.425-8.084.425-21.04 0-30.438-7.563-43.445-18.032-4.762-3.832-9.912-7.977-15.903-11.799l-10.499 130.454c-.937 11.641 8.257 21.604 19.936 21.604h48.124z" fill="#2fcffc"/></g><g><path d="m270.57 86.689-10.749.827c-16.607 1.277-29.431 15.126-29.431 31.782v9.478h19.331c17.604 0 31.876-14.271 31.876-31.876 0-5.965-5.079-10.668-11.027-10.211z" fill="#e7886e"/></g><g><path d="m280.026 118.527-51.207 3.939c-10.671.821-18.912 9.719-18.912 20.422v18.453h92.172v-22.391c0-11.932-10.157-21.338-22.053-20.423z" fill="#dc6646"/></g><g><path d="m269.394 119.345-40.575 3.121c-10.671.821-18.912 9.719-18.912 20.422v18.453h40.965v-21.613c.001-10.571 8.041-19.377 18.522-20.383z" fill="#d85536"/></g><g><path d="m189.424 195.877v-16.877c0-10.703 8.24-19.602 18.912-20.422l92.172-7.09c11.896-.915 22.054 8.491 22.054 20.422v23.967z" fill="#e7886e"/></g><g><path d="m247.969 155.528-39.633 3.049c-10.671.821-18.912 9.719-18.912 20.422v16.877h40.965v-20.077c.001-10.252 7.564-18.844 17.58-20.271z" fill="#dc6646"/></g><g><path d="m255.993 348.341c-12.162 0-22.89-7.964-26.409-19.607l-40.16-132.858h133.138l-40.16 132.858c-3.519 11.643-14.246 19.607-26.409 19.607z" fill="#ffd3a3"/></g><g><path d="m233.038 195.877h-43.614l40.159 132.858c3.519 11.642 14.247 19.607 26.409 19.607 7.958 0 15.286-3.424 20.398-9.042z" fill="#ffbe74"/></g><g><path d="m482.691 372.964-25.322-320c-1.145-14.463-7.643-27.85-18.299-37.695-10.656-9.846-24.514-15.269-39.022-15.269h-287.663c-14.493 0-28.342 5.413-38.993 15.242-10.653 9.828-17.158 23.198-18.322 37.646l-21.118 262.396c-.332 4.129 2.745 7.745 6.874 8.077 4.142.341 7.745-2.746 8.077-6.874l21.119-262.396c1.764-21.92 20.373-39.091 42.363-39.091h287.663c22.021 0 40.63 17.195 42.367 39.147l25.322 320c.946 11.954-3.015 23.388-11.152 32.194-8.138 8.808-19.224 13.659-31.215 13.659h-338.74c-12.002 0-23.095-4.857-31.234-13.679-8.139-8.82-12.092-20.267-11.129-32.23l2.298-28.548c.333-4.129-2.745-7.745-6.874-8.077-4.131-.338-7.745 2.745-8.077 6.874l-2.298 28.548c-1.284 15.951 4.204 31.846 15.057 43.606 8.05 8.724 18.606 14.68 30.052 17.178l-3.052 37.925c-.835 10.376 2.734 20.715 9.794 28.365s17.077 12.038 27.487 12.038c19.353 0 35.729-15.111 37.282-34.402l3.429-42.598h213.765l3.428 42.598c1.554 19.291 17.93 34.402 37.283 34.402 10.409 0 20.429-4.388 27.488-12.038s10.629-17.989 9.794-28.365l-3.062-38.04c11.245-2.557 21.609-8.45 29.542-17.035 10.85-11.744 16.349-27.62 15.088-43.558zm-351.706 103.431c-.93 11.554-10.74 20.605-22.332 20.605-6.326 0-12.174-2.561-16.464-7.21-4.291-4.649-6.374-10.684-5.867-16.99l3.042-37.8h44.952zm289.32 13.395c-4.29 4.649-10.138 7.21-16.465 7.21-11.592 0-21.4-9.051-22.331-20.605l-3.331-41.395h44.952l3.042 37.8c.507 6.306-1.576 12.34-5.867 16.99z"/><path d="m97.468 395h327.902c4.866 0 9.551-2.05 12.853-5.623 3.303-3.574 4.977-8.406 4.593-13.258l-24.594-310.789c-1.124-14.204-13.166-25.33-27.414-25.33h-269.196c-14.229 0-26.271 11.11-27.411 25.294l-24.144 299.999c-.614 7.629 2.01 15.23 7.2 20.855s12.557 8.852 20.211 8.852zm329.738-15.803c-.277.3-.884.803-1.836.803h-327.902c-3.53 0-6.793-1.429-9.188-4.023-2.394-2.595-3.556-5.961-3.272-9.479l9.435-117.23c1.63 1.277 3.219 2.555 4.789 3.817 13.126 10.565 24.463 19.689 48.147 19.689s35.021-9.124 48.167-19.706c.884-.711 1.778-1.429 2.681-2.149l24.177 79.987c4.509 14.915 18.007 24.937 33.589 24.937s29.08-10.021 33.588-24.937l24.275-80.308c1.048.834 2.086 1.665 3.11 2.489 13.126 10.563 24.462 19.687 48.146 19.687 23.683 0 35.02-9.123 48.15-19.69 1.467-1.181 2.966-2.376 4.488-3.572l10.113 127.792c.075.948-.379 1.592-.657 1.893zm-165.814-190.82h-64.468v-9.378c0-6.741 5.266-12.427 11.987-12.944l92.174-7.09c3.651-.28 7.132.935 9.815 3.418 2.684 2.485 4.162 5.868 4.162 9.526v16.468h-23.672c-4.143 0-7.5 3.357-7.5 7.5s3.357 7.5 7.5 7.5h21.069l-37.237 123.188c-2.58 8.539-10.309 14.276-19.23 14.276s-16.649-5.737-19.229-14.276l-37.237-123.188h61.865c4.143 0 7.5-3.357 7.5-7.5s-3.357-7.5-7.499-7.5zm7.564-76.52-30.516 2.348c2.23-10.318 11.073-18.374 21.956-19.211l10.75-.827c1.044-.081 1.745.419 2.072.722.328.305.879.97.879 2.012 0 5.456-1.819 10.691-5.141 14.956zm-39.562 18.087 51.207-3.939c3.639-.277 7.133.934 9.816 3.419 2.685 2.485 4.162 5.868 4.162 9.526v5.471l-77.172 5.936v-7.469c0-6.741 5.265-12.427 11.987-12.944zm-120.242-63.447c.519-6.447 5.993-11.497 12.46-11.497h269.195c6.477 0 11.95 5.058 12.461 11.514l13.083 165.332c-4.656 3.244-8.794 6.573-12.498 9.555-12.688 10.21-20.346 16.373-38.742 16.373-18.397 0-26.055-6.162-38.757-16.385-2.507-2.018-5.084-4.086-7.849-6.174l9.624-31.838h9.795c4.143 0 7.5-3.357 7.5-7.5s-3.357-7.5-7.5-7.5h-7.861v-16.468c0-7.77-3.27-15.253-8.971-20.532-3.293-3.049-7.259-5.227-11.513-6.412v-6.014c0-7.77-3.27-15.253-8.97-20.532-3.995-3.699-8.979-6.119-14.269-7.034 1.806-4.565 2.756-9.468 2.756-14.483 0-4.926-2.073-9.671-5.688-13.018-3.614-3.348-8.512-5.058-13.415-4.671l-10.749.827c-19.244 1.479-34.544 16.93-36.2 35.854-11.914 3.266-20.638 14.255-20.638 26.995v9.159c-11.835 3.319-20.483 14.267-20.483 26.952v9.378h-7.861c-4.143 0-7.5 3.357-7.5 7.5s3.357 7.5 7.5 7.5h9.795l9.717 32.147c-2.611 1.983-5.06 3.948-7.453 5.875-12.688 10.212-20.346 16.375-38.742 16.375-18.398 0-26.056-6.163-38.743-16.375-3.794-3.054-8.025-6.454-12.775-9.748z"/></g></g></svg>