<svg id="Capa_1" enable-background="new 0 0 512 512" height="512" viewBox="0 0 512 512" width="512" xmlns="http://www.w3.org/2000/svg"><g><g><path d="m256 409.667h104l36-60.758v-161.409c0-11.046-8.954-20-20-20-11.046 0-20-8.954-20-20v-80c0-11.046-8.954-20-20-20s-20 8.954-20 20c0 33.137-26.863 60-60 60h-.012c-33.134 0-59.993-26.863-59.988-59.997.002-11.047-8.953-20.003-20-20.003-11.046 0-20 8.954-20 20v80c0 11.046-8.954 20-20 20-11.046 0-20 8.954-20 20v161.408l36 60.758h104z" fill="#fbf081"/></g><g><path d="m256 409.667h104l36-60.758v-26.099c-3.191.115-6.391.194-9.61.194-107.789 0-200.37-65.054-240.663-158.034-2.88 1.607-6.194 2.531-9.726 2.531-11.046 0-20 8.954-20 20v161.408l36 60.758z" fill="#fad271"/></g><g><path d="m136 504.5h240c11.046 0 20-8.954 20-20v-135.592c-10.267 3.971-17.658 9.918-24.11 15.111-9.898 7.965-17.048 13.721-33.059 13.721-16.01 0-23.16-5.755-33.057-13.72-10.857-8.738-24.37-19.613-49.778-19.613-25.407 0-38.919 10.875-49.775 19.613-9.896 7.965-17.047 13.72-33.056 13.72s-23.159-5.755-33.056-13.72c-6.452-5.193-13.842-11.14-24.109-15.112v135.592c0 11.046 8.955 20 20 20z" fill="#2fcffc"/></g><g><path d="m270.306 207.709-10.549.812c-16.298 1.254-28.884 14.844-28.884 31.191v9.302h18.972c17.277 0 31.283-14.006 31.283-31.283 0-5.855-4.985-10.471-10.822-10.022z" fill="#e7886e"/></g><g><path d="m279.586 238.956-50.255 3.866c-10.473.806-18.56 9.539-18.56 20.043v18.11h90.46v-21.976c-.001-11.71-9.97-20.941-21.645-20.043z" fill="#dc6646"/></g><g><path d="m269.152 239.758-39.821 3.063c-10.473.806-18.56 9.539-18.56 20.043v18.11h40.204v-21.212c-.001-10.374 7.891-19.016 18.177-20.004z" fill="#d85536"/></g><g><path d="m190.668 314.868v-16.564c0-10.504 8.087-19.237 18.56-20.043l90.46-6.958c11.675-.898 21.644 8.333 21.644 20.043v23.522z" fill="#e7886e"/></g><g><path d="m248.125 275.269-38.897 2.992c-10.473.806-18.56 9.539-18.56 20.043v16.564h40.204v-19.704c0-10.062 7.423-18.494 17.253-19.895z" fill="#dc6646"/></g><g><path d="m256 464.5c-11.937 0-22.465-7.816-25.919-19.242l-39.413-130.39h130.664l-39.413 130.39c-3.454 11.426-13.983 19.242-25.919 19.242z" fill="#ffd3a3"/></g><g><path d="m233.471 314.868h-42.803l39.413 130.39c3.454 11.426 13.982 19.242 25.919 19.242 7.81 0 15.002-3.361 20.019-8.874z" fill="#ffbe74"/></g><g><g><path d="m198.551 172.429c-4.142 0-7.5-3.357-7.5-7.5v-12c0-4.143 3.358-7.5 7.5-7.5s7.5 3.357 7.5 7.5v12c0 4.142-3.358 7.5-7.5 7.5z"/></g><g><path d="m313.449 172.429c-4.142 0-7.5-3.357-7.5-7.5v-12c0-4.143 3.358-7.5 7.5-7.5s7.5 3.357 7.5 7.5v12c0 4.142-3.358 7.5-7.5 7.5z"/></g><g><path d="m256 179.571c-8.478 0-16.54-3.671-22.119-10.072-2.721-3.123-2.396-7.86.727-10.582 3.123-2.721 7.86-2.396 10.582.727 2.729 3.132 6.669 4.928 10.81 4.928s8.081-1.796 10.81-4.928c2.721-3.123 7.458-3.447 10.582-.727 3.123 2.722 3.448 7.459.727 10.582-5.579 6.401-13.641 10.072-22.119 10.072z"/></g></g><path d="m436 67.5c-15.164 0-27.5 12.337-27.5 27.5v60c0 6.893-5.607 12.5-12.5 12.5h-1.154c-4.926-4.644-11.556-7.5-18.845-7.5-6.893 0-12.5-5.607-12.5-12.5v-27.5c0-4.143-3.358-7.5-7.5-7.5s-7.5 3.357-7.5 7.5v27.5c0 15.163 12.336 27.5 27.5 27.5 6.893 0 12.5 5.607 12.5 12.5v156.478c-8.922 4.232-15.723 9.7-21.316 14.202-9.664 7.776-14.987 12.061-28.353 12.061-11.023 0-16.729-3.035-23.837-8.485l11.906-39.387h9.508c4.142 0 7.5-3.357 7.5-7.5s-3.358-7.5-7.5-7.5h-7.577v-16.022c0-7.664-3.225-15.046-8.848-20.253-3.221-2.982-7.096-5.125-11.254-6.303v-5.791c0-7.664-3.225-15.046-8.848-20.253-3.897-3.608-8.745-5.992-13.899-6.917 1.735-4.449 2.645-9.22 2.645-14.099 0-4.873-2.051-9.566-5.626-12.878-3.576-3.311-8.415-4.988-13.271-4.621l-10.549.812c-18.922 1.455-33.974 16.623-35.648 35.218-11.704 3.254-20.263 14.07-20.263 26.603v8.886c-11.621 3.309-20.102 14.08-20.102 26.554v9.063h-7.577c-4.142 0-7.5 3.357-7.5 7.5s3.358 7.5 7.5 7.5h9.508l11.905 39.386c-7.101 5.451-12.787 8.486-23.84 8.486-13.367 0-18.69-4.285-28.354-12.063-5.583-4.493-12.39-9.963-21.312-14.195v-156.482c0-6.893 5.607-12.5 12.5-12.5 15.164 0 27.5-12.337 27.5-27.5v-80c0-6.893 5.607-12.5 12.5-12.5 3.339 0 6.479 1.301 8.84 3.662s3.661 5.5 3.66 8.84c-.003 18.028 7.016 34.979 19.764 47.728s29.697 19.77 47.737 19.77c37.22 0 67.5-30.28 67.5-67.5 0-6.893 5.607-12.5 12.5-12.5s12.5 5.607 12.5 12.5v22.5c0 4.143 3.358 7.5 7.5 7.5s7.5-3.357 7.5-7.5v-22.5c0-15.163-12.336-27.5-27.5-27.5-1.429 0-2.832.11-4.203.321-11.74-19.388-34.074-40.321-75.797-40.321s-64.056 20.932-75.796 40.32c-1.379-.21-2.783-.32-4.204-.32-15.164 0-27.5 12.337-27.5 27.5v80c0 6.893-5.607 12.5-12.5 12.5-7.289 0-13.919 2.856-18.845 7.5h-1.155c-6.893 0-12.5-5.607-12.5-12.5v-60c0-15.163-12.336-27.5-27.5-27.5s-27.5 12.337-27.5 27.5v253.908c0 4.143 3.358 7.5 7.5 7.5s7.5-3.357 7.5-7.5v-253.908c0-6.893 5.607-12.5 12.5-12.5s12.5 5.607 12.5 12.5v60c0 12.795 8.783 23.576 20.636 26.633-.413 1.892-.637 3.854-.637 5.867v297c0 15.163 12.336 27.5 27.5 27.5h240c15.164 0 27.5-12.337 27.5-27.5v-297c0-2.014-.224-3.975-.637-5.867 11.855-3.057 20.638-13.838 20.638-26.633v-60c0-6.893 5.607-12.5 12.5-12.5s12.5 5.607 12.5 12.5v253.908c0 4.143 3.358 7.5 7.5 7.5s7.5-3.357 7.5-7.5v-253.908c0-15.163-12.337-27.5-27.5-27.5zm-180-52.5c33.73 0 52.156 16.159 62.076 31.671-5.857 5.047-9.576 12.51-9.576 20.829 0 28.948-23.551 52.5-52.512 52.5-14.021 0-27.203-5.461-37.118-15.376-9.914-9.916-15.373-23.099-15.371-37.12.001-7.346-2.859-14.253-8.053-19.448-.489-.489-.997-.95-1.515-1.396 9.922-15.51 28.346-31.66 62.069-31.66zm4.332 200.998 10.549-.812c.971-.06 1.624.391 1.929.672.306.283.818.902.818 1.872 0 5.303-1.759 10.393-4.975 14.545l-29.688 2.283c2.243-9.976 10.815-17.748 21.367-18.56zm-30.426 34.301 50.256-3.865c3.538-.266 6.923.907 9.529 3.318 2.605 2.412 4.04 5.696 4.04 9.247v5.24l-75.46 5.805v-7.18c-.001-6.544 5.11-12.063 11.635-12.565zm27.558 57.069h-59.296v-9.063c0-6.544 5.111-12.063 11.636-12.565l90.46-6.959c3.536-.268 6.923.907 9.529 3.318 2.605 2.412 4.04 5.696 4.04 9.247v16.022h-26.368c-4.142 0-7.5 3.357-7.5 7.5s3.358 7.5 7.5 7.5h23.766l-36.491 120.72c-2.516 8.321-10.047 13.912-18.74 13.912s-16.224-5.591-18.739-13.912l-36.491-120.72h56.694c4.142 0 7.5-3.357 7.5-7.5s-3.358-7.5-7.5-7.5zm118.536 189.632h-240c-6.893 0-12.5-5.607-12.5-12.5v-123.436c4.368 2.738 8.179 5.798 11.907 8.799 10.251 8.251 19.105 15.378 37.759 15.378 12.727 0 20.833-3.247 28.422-8.326l21.315 70.513c4.442 14.697 17.743 24.572 33.097 24.572s28.655-9.875 33.098-24.572l21.315-70.516c7.6 5.081 15.717 8.329 28.418 8.329 18.652 0 27.505-7.125 37.761-15.378 3.728-3.001 7.542-6.058 11.908-8.795v123.432c0 6.893-5.607 12.5-12.5 12.5z"/></g></svg>