<svg id="Capa_1" enable-background="new 0 0 512 512" height="512" viewBox="0 0 512 512" width="512" xmlns="http://www.w3.org/2000/svg"><g><g><path d="m111.848 27.5h288.303v80h-288.303z" fill="#fd5c70"/></g><g><path d="m74.403 478.57c5.862 15.603 20.778 25.93 37.445 25.93h288.303c16.667 0 31.584-10.328 37.445-25.93 3.375-8.983 7.139-20.334 10.796-34.07h-384.785c3.657 13.736 7.421 25.087 10.796 34.07z" fill="#ff7591"/></g><g><path d="m437.597 113.43c-5.862-15.602-20.778-25.93-37.445-25.93h-288.304c-16.667 0-31.584 10.328-37.445 25.93-3.375 8.983-7.139 20.334-10.796 34.07h384.786c-3.657-13.736-7.421-25.087-10.796-34.07z" fill="#ff7591"/></g><g><path d="m448.393 147.5-192.393-20-192.393 20c-9.142 34.339-17.607 83.637-17.607 148.5s8.465 114.161 17.607 148.5l192.393 20 192.393-20c9.142-34.339 17.607-83.637 17.607-148.5s-8.465-114.161-17.607-148.5z" fill="#fbf081"/></g><g><path d="m63.607 444.5c3.657 13.736 7.421 25.087 10.796 34.07 5.862 15.603 20.778 25.93 37.445 25.93h94.152s-11.662-19.694-22.393-60z" fill="#fd5c70"/></g><g><path d="m166 296c0-73.451 10.854-126.946 21.255-161.354l-123.648 12.854c-9.142 34.339-17.607 83.637-17.607 148.5s8.465 114.161 17.607 148.5l123.648 12.854c-10.401-34.408-21.255-87.903-21.255-161.354z" fill="#fad271"/></g><g><path d="m63.607 444.5 192.393 20 192.393-20c9.099-34.18 17.525-83.186 17.603-147.603-15.399 5.957-26.484 14.877-36.161 22.666-14.847 11.948-25.572 20.581-49.588 20.581-24.015 0-34.74-8.633-49.586-20.581-16.286-13.107-36.555-29.419-74.667-29.419-38.11 0-58.378 16.313-74.663 29.419-14.845 11.948-25.57 20.581-49.583 20.581s-34.739-8.632-49.584-20.581c-9.678-7.789-20.762-16.709-36.16-22.666.078 64.418 8.504 113.423 17.603 147.603z" fill="#84dfff"/></g><g><path d="m63.607 444.5 123.648 12.854c-8.698-28.776-17.709-70.911-20.427-126.894-9.247 5.952-19.292 9.684-35.08 9.684-24.013 0-34.739-8.632-49.584-20.581-9.678-7.789-20.762-16.709-36.16-22.666.078 64.418 8.504 113.423 17.603 147.603z" fill="#2fcffc"/></g><g><path d="m206 87.5h-94.152c-16.667 0-31.584 10.328-37.445 25.93-3.375 8.983-7.139 20.334-10.796 34.07h120.001c10.73-40.306 22.392-60 22.392-60z" fill="#fd5c70"/></g><g><path d="m76 27.5c0-11.046 8.954-20 20-20h320c11.046 0 20 8.954 20 20 0 11.046-8.954 20-20 20h-320c-11.046 0-20-8.954-20-20z" fill="#be9edf"/></g><g><path d="m178.622 27.5c0-11.046 8.954-20 20-20h-102.622c-11.046 0-20 8.954-20 20 0 11.046 8.954 20 20 20h102.622c-11.045 0-20-8.954-20-20z" fill="#938ed9"/></g><g><g><path d="m36 147.5c0-11.046 8.954-20 20-20h400c11.046 0 20 8.954 20 20 0 11.046-8.954 20-20 20h-400c-11.046 0-20-8.954-20-20z" fill="#be9edf"/></g><g><path d="m138.622 147.5c0-11.046 8.954-20 20-20h-102.622c-11.046 0-20 8.954-20 20 0 11.046 8.954 20 20 20h102.622c-11.045 0-20-8.954-20-20z" fill="#938ed9"/></g></g><g><g><path d="m36 444.5c0-11.046 8.954-20 20-20h400c11.046 0 20 8.954 20 20 0 11.046-8.954 20-20 20h-400c-11.046 0-20-8.954-20-20z" fill="#be9edf"/></g><g><path d="m138.622 444.5c0-11.046 8.954-20 20-20h-102.622c-11.046 0-20 8.954-20 20 0 11.046 8.954 20 20 20h102.622c-11.045 0-20-8.954-20-20z" fill="#938ed9"/></g></g><g><g><path d="m324.59 290.144c-11.088 0-21.123-4.633-28.376-12.116-1.386-1.43-1.386-3.753 0-5.183 7.253-7.484 17.288-12.116 28.376-12.116s21.123 4.633 28.376 12.116c1.386 1.43 1.386 3.753 0 5.183-7.253 7.483-17.287 12.116-28.376 12.116z" fill="#17d9bf"/></g></g><g><g><path d="m259.862 225.416c0 11.088 4.633 21.123 12.116 28.376 1.43 1.386 3.753 1.386 5.183 0 7.484-7.253 12.116-17.288 12.116-28.376s-4.633-21.123-12.116-28.376c-1.43-1.386-3.753-1.386-5.183 0-7.483 7.253-12.116 17.287-12.116 28.376z" fill="#50e3cf"/></g></g><g><g><path d="m281.289 225.271c-5.199 12.552-4.66 26.083.411 37.803.969 2.24 3.598 3.329 5.867 2.43 11.872-4.701 21.822-13.888 27.021-26.44s4.66-26.083-.411-37.803c-.969-2.24-3.598-3.329-5.867-2.43-11.873 4.702-21.822 13.889-27.021 26.44z" fill="#17d9bf"/></g></g><g><path d="m324.735 268.717c-12.552 5.199-26.083 4.66-37.803-.411-2.24-.969-3.329-3.598-2.43-5.867 4.701-11.872 13.888-21.822 26.44-27.021s26.083-4.66 37.803.411c2.24.969 3.329 3.598 2.43 5.867-4.702 11.873-13.889 21.822-26.44 27.021z" fill="#50e3cf"/></g><g><path d="m317.359 340.591c17.543-42.73-25.16-82.784-25.16-82.784s-40.054-42.703-82.784-25.16-72.706 123.679-44.22 152.165 134.621-1.491 152.164-44.221z" fill="#ff7591"/></g><g><path d="m248.12 271.352c23.128-9.495 45.467-1.34 61.1 8.139-8.035-13.25-17.021-21.684-17.021-21.684s-40.054-42.703-82.784-25.16-72.706 123.679-44.22 152.165c6.203 6.203 16.09 9.633 27.941 10.763-4.061-42.57 21.559-110.5 54.984-124.223z" fill="#fd5c70"/></g><path d="m462.289 417.734c7.441-37.296 11.211-78.205 11.211-121.734 0-43.528-3.772-84.438-11.213-121.734 12.142-2.852 21.213-13.766 21.213-26.766 0-15.163-12.337-27.5-27.5-27.5h-8.088c-1.074-3.144-2.175-6.23-3.294-9.208-6.028-16.043-20.365-27.497-36.967-30.185v-25.607h8.349c15.163 0 27.5-12.337 27.5-27.5s-12.337-27.5-27.5-27.5h-320c-15.164 0-27.5 12.337-27.5 27.5s12.336 27.5 27.5 27.5h8.348v25.607c-16.602 2.688-30.939 14.141-36.966 30.185-1.117 2.975-2.219 6.061-3.294 9.208h-8.088c-15.164 0-27.5 12.337-27.5 27.5 0 12.999 9.069 23.913 21.211 26.766-7.441 37.296-11.211 78.206-11.211 121.734 0 43.472 3.778 84.369 11.225 121.731-12.149 2.848-21.225 13.765-21.225 26.769 0 15.163 12.336 27.5 27.5 27.5h8.088c1.075 3.147 2.177 6.233 3.294 9.208 6.92 18.418 24.789 30.792 44.467 30.792h288.303c19.677 0 37.547-12.374 44.468-30.792 1.115-2.968 2.216-6.055 3.293-9.208h8.087c15.163 0 27.5-12.337 27.5-27.5 0-12.999-9.07-23.913-21.211-26.766zm-397.415-.734c-6.803-33.302-10.577-69.678-11.253-108.318 9.321 5.048 16.937 11.168 23.84 16.724 15.436 12.424 27.628 22.237 54.287 22.237 5.295 0 10.173-.406 14.742-1.207-.173 19.38 4.397 34.674 13.401 43.678 9.297 9.297 24.853 13.338 42.833 13.337 25.637-.002 56.196-8.221 80.504-21.138 3.657-1.943 5.047-6.484 3.104-10.143-1.943-3.656-6.482-5.046-10.143-3.104-38.98 20.715-90.343 25.788-105.692 10.439-9.197-9.197-11.539-31.726-6.111-58.793 7.784-38.815 27.919-72.937 47.877-81.13 37.355-15.336 74.107 22.972 74.465 23.353.104.111.221.228.332.332.389.366 38.698 37.115 23.361 74.473-2.053 4.998-5.736 10.065-10.949 15.063-2.99 2.866-3.09 7.614-.224 10.604 2.865 2.989 7.613 3.091 10.604.224 6.731-6.453 11.592-13.247 14.444-20.193 2.213-5.39 3.579-10.719 4.276-15.933 14.261 11.411 26.537 20.137 51.673 20.137 26.657 0 38.851-9.813 54.29-22.238 6.906-5.558 14.518-11.677 23.841-16.725-.675 38.663-4.45 75.021-11.255 108.32h-382.247zm382.248-242c7.306 35.755 11.121 75.04 11.354 116.915-13.978 6.231-24.227 14.467-33.347 21.807-14.662 11.8-23.512 18.922-44.883 18.922-21.37 0-30.22-7.122-44.883-18.922-2.167-1.745-4.581-3.683-7.115-5.64-.582-3.6-1.427-7.096-2.466-10.468 12.325-.309 23.852-5.373 32.569-14.367 4.176-4.309 4.175-11.317 0-15.621-2.839-2.93-6.035-5.468-9.482-7.567 3.846-4.589 6.992-9.827 9.279-15.602 2.372-5.992-.51-12.95-6.426-15.512-8.418-3.641-17.329-5.151-26.128-4.558.57-8.839-.957-17.834-4.535-26.105-2.561-5.914-9.515-8.8-15.512-6.424-5.774 2.287-11.01 5.431-15.599 9.277-2.098-3.446-4.637-6.642-7.567-9.481-4.307-4.176-11.316-4.174-15.623 0-8.993 8.716-14.057 20.243-14.367 32.567-13.708-4.227-29.487-5.223-45.826 1.488-28.771 11.813-49.656 56-56.887 92.057-.903 4.505-1.606 8.882-2.125 13.124-4.69 1.171-9.892 1.754-15.806 1.754-21.372 0-30.221-7.122-44.881-18.923-9.112-7.333-19.359-15.575-33.343-21.81.233-41.874 4.047-81.156 11.353-116.911zm-179.323 55.583c-.28-1.702-.437-3.429-.437-5.167 0-7.392 2.534-14.411 7.205-20.128 1.943 2.386 3.533 5.026 4.719 7.825-1.909 2.908-3.567 6.007-4.926 9.289-1.358 3.279-2.376 6.643-3.081 10.064-1.132-.639-2.292-1.268-3.48-1.883zm42.329-2.885c-.688.254-1.375.51-2.057.792-8.023 3.323-15.054 8.414-20.68 14.911-.702-.562-1.437-1.137-2.201-1.721.219-4.647 1.227-9.19 3.027-13.538 3.874-9.351 10.969-16.773 20.149-21.158 2.349 6.684 2.955 13.856 1.762 20.714zm3.684 14.65c9.354-3.873 19.621-4.104 29.213-.712-4.384 9.182-11.808 16.278-21.161 20.152-4.349 1.802-8.892 2.808-13.538 3.027-4.234-5.538-7.956-9.464-9.809-11.321 4.143-4.865 9.34-8.68 15.295-11.146zm13.792 33.298c3.282-1.36 6.383-3.018 9.291-4.927 2.798 1.186 5.436 2.777 7.823 4.72-5.718 4.671-12.736 7.205-20.128 7.205-1.738 0-3.466-.157-5.169-.437-.613-1.185-1.24-2.342-1.877-3.471 3.42-.705 6.782-1.732 10.06-3.09zm-22.432-220.646c4.143 0 7.5-3.357 7.5-7.5s-3.357-7.5-7.5-7.5h-209.172c-6.893 0-12.5-5.607-12.5-12.5s5.607-12.5 12.5-12.5h320c6.893 0 12.5 5.607 12.5 12.5s-5.607 12.5-12.5 12.5h-80.829c-4.143 0-7.5 3.357-7.5 7.5s3.357 7.5 7.5 7.5h57.48v25h-273.303v-25zm-223.748 61.067c4.734-12.6 16.961-21.067 30.425-21.067h288.303c13.464 0 25.69 8.467 30.425 21.066.484 1.289.965 2.606 1.442 3.934h-352.037c.478-1.328.958-2.644 1.442-3.933zm-37.924 31.433c0-6.893 5.607-12.5 12.5-12.5h400c6.893 0 12.5 5.607 12.5 12.5s-5.607 12.5-12.5 12.5h-400c-6.893 0-12.5-5.607-12.5-12.5zm387.077 328.433c-4.735 12.6-16.962 21.067-30.426 21.067h-288.302c-13.464 0-25.69-8.467-30.425-21.067-.484-1.288-.964-2.605-1.442-3.933h352.036c-.478 1.329-.958 2.646-1.441 3.933zm25.423-18.933h-400c-6.893 0-12.5-5.607-12.5-12.5s5.607-12.5 12.5-12.5h400c6.893 0 12.5 5.607 12.5 12.5s-5.607 12.5-12.5 12.5z"/></g></svg>