<svg id="Capa_1" enable-background="new 0 0 512 512" height="512" viewBox="0 0 512 512" width="512" xmlns="http://www.w3.org/2000/svg"><g><g><path d="m316 137.5h-120s-80 54.401-80 154.709c0 73.826 37.676 153.978 57.569 191.152 6.964 13.013 20.515 21.139 35.275 21.139h94.312c14.76 0 28.311-8.125 35.275-21.139 19.893-37.174 57.569-117.326 57.569-191.152 0-100.308-80-154.709-80-154.709z" fill="#ff7591"/></g><g><path d="m267.881 483.361c-19.893-37.174-57.569-117.326-57.569-191.152 0-100.307 80-154.709 80-154.709h-94.312s-80 54.401-80 154.709c0 73.826 37.676 153.978 57.569 191.152 6.964 13.013 20.515 21.139 35.275 21.139h94.312c-14.76 0-28.311-8.125-35.275-21.139z" fill="#fd5c70"/></g><g><path d="m286 27.5h-60l-30 100h120z" fill="#fff3ac"/></g><g><path d="m226 27.5-30 100h40l30-100z" fill="#f9e99b"/></g><g><path d="m296 47.5h-80c-11.046 0-20-8.954-20-20 0-11.046 8.954-20 20-20h80c11.046 0 20 8.954 20 20 0 11.046-8.954 20-20 20z" fill="#fffddb"/></g><g><path d="m232.75 27.5c0-11.046 8.954-20 20-20h-36.75c-11.046 0-20 8.954-20 20 0 11.046 8.954 20 20 20h36.75c-11.046 0-20-8.954-20-20z" fill="#fff3ac"/></g><g><path d="m326 147.5h-140c-11.046 0-20-8.954-20-20 0-11.046 8.954-20 20-20h140c11.046 0 20 8.954 20 20 0 11.046-8.954 20-20 20z" fill="#fffddb"/></g><g><path d="m222.042 127.5c0-11.046 8.954-20 20-20h-56.042c-11.046 0-20 8.954-20 20 0 11.046 8.954 20 20 20h56.042c-11.046 0-20-8.954-20-20z" fill="#fff3ac"/></g><g><ellipse cx="256" cy="277.5" fill="#fffddb" rx="80" ry="100"/></g><g><path d="m256 277.5c0-37.013 16.089-69.328 40-86.619-11.767-8.509-25.428-13.381-40-13.381-44.183 0-80 44.771-80 100s35.817 100 80 100c14.572 0 28.233-4.872 40-13.381-23.911-17.291-40-49.606-40-86.619z" fill="#fff3ac"/></g><g><g><path d="m198.552 430.39c-4.143 0-7.5-3.357-7.5-7.5v-12c0-4.143 3.357-7.5 7.5-7.5s7.5 3.357 7.5 7.5v12c0 4.142-3.358 7.5-7.5 7.5z"/></g><g><path d="m313.448 430.39c-4.143 0-7.5-3.357-7.5-7.5v-12c0-4.143 3.357-7.5 7.5-7.5s7.5 3.357 7.5 7.5v12c0 4.142-3.357 7.5-7.5 7.5z"/></g><g><path d="m256 437.533c-8.478 0-16.54-3.672-22.118-10.074-2.722-3.122-2.396-7.86.728-10.581 3.122-2.721 7.86-2.396 10.581.728 2.729 3.132 6.669 4.928 10.81 4.928s8.08-1.796 10.81-4.928c2.721-3.125 7.458-3.449 10.581-.728s3.449 7.459.728 10.581c-5.58 6.402-13.642 10.074-22.12 10.074z"/></g></g><g><circle cx="256" cy="288.309" fill="#ff7591" r="40"/></g><g><path d="m266.45 326.921c-6.645-14.578-10.45-31.442-10.45-49.421 0-10.099 1.206-19.844 3.433-29.034-1.133-.096-2.276-.157-3.433-.157-22.091 0-40 17.909-40 40s17.909 40 40 40c3.617 0 7.118-.488 10.45-1.388z" fill="#fd5c70"/></g><g><path d="m341.931 149.894c6.995-4.991 11.569-13.166 11.569-22.394 0-15.163-12.337-27.5-27.5-27.5h-10.42l-13.693-45.641c12.343-2.704 21.613-13.717 21.613-26.859 0-15.163-12.337-27.5-27.5-27.5h-80c-15.163 0-27.5 12.337-27.5 27.5 0 13.142 9.27 24.155 21.612 26.859l-13.692 45.641h-10.42c-15.163 0-27.5 12.337-27.5 27.5 0 9.232 4.578 17.41 11.578 22.4-10.967 10.879-24.275 26.375-35.722 46.329-17.156 29.903-25.855 62.195-25.855 95.979 0 74.348 36.625 153.893 58.457 194.691 8.284 15.481 24.335 25.1 41.887 25.1h94.313c17.552 0 33.603-9.618 41.887-25.101 21.832-40.798 58.457-120.343 58.457-194.69-.002-68.952-35.762-116.782-61.571-142.314zm-138.431-122.394c0-6.893 5.607-12.5 12.5-12.5h80c6.893 0 12.5 5.607 12.5 12.5s-5.607 12.5-12.5 12.5h-80c-6.893 0-12.5-5.607-12.5-12.5zm-17.5 87.5h71.464c4.143 0 7.5-3.357 7.5-7.5s-3.357-7.5-7.5-7.5h-45.384l13.5-45h60.84l13.5 45h-12.456c-4.143 0-7.5 3.357-7.5 7.5s3.357 7.5 7.5 7.5h38.536c6.893 0 12.5 5.607 12.5 12.5s-5.607 12.5-12.5 12.5h-140c-6.893 0-12.5-5.607-12.5-12.5s5.607-12.5 12.5-12.5zm145.818 364.822c-5.67 10.596-16.652 17.178-28.662 17.178h-94.313c-12.01 0-22.992-6.582-28.662-17.177-21.168-39.56-56.681-116.539-56.681-187.614 0-68.927 38.826-115.148 62.958-137.209h139.084c23.96 21.91 62.958 68.191 62.958 137.209 0 71.075-35.513 148.054-56.682 187.613z"/><path d="m256 170c-48.248 0-87.5 48.225-87.5 107.5s39.252 107.5 87.5 107.5 87.5-48.225 87.5-107.5-39.252-107.5-87.5-107.5zm0 200c-39.977 0-72.5-41.495-72.5-92.5s32.523-92.5 72.5-92.5 72.5 41.495 72.5 92.5-32.523 92.5-72.5 92.5z"/><path d="m256 240.81c-10.237 0-19.719 3.266-27.483 8.795-.001-.104-.009-.206-.009-.31 0-6.493 2.815-12.672 7.726-16.95 3.122-2.722 3.448-7.459.727-10.582-2.723-3.122-7.46-3.448-10.582-.727-8.179 7.128-12.87 17.428-12.87 28.259 0 4.592.863 9.167 2.5 13.435-4.743 7.39-7.508 16.165-7.508 25.579 0 6.495 1.29 12.795 3.834 18.724 1.634 3.805 6.04 5.566 9.851 3.935 3.807-1.634 5.567-6.044 3.935-9.851-1.738-4.049-2.619-8.358-2.619-12.808 0-17.921 14.579-32.5 32.5-32.5s32.5 14.579 32.5 32.5-14.579 32.5-32.5 32.5c-4.392 0-8.646-.858-12.647-2.551-3.81-1.613-8.215.17-9.829 3.985-1.614 3.814.17 8.215 3.985 9.829 5.859 2.479 12.081 3.736 18.491 3.736 26.191 0 47.5-21.309 47.5-47.5s-21.311-47.498-47.502-47.498z"/></g></g></svg>