<svg id="Capa_1" enable-background="new 0 0 512 512" height="512" viewBox="0 0 512 512" width="512" xmlns="http://www.w3.org/2000/svg"><g><g><path d="m411.243 251.131c0 26.67 18.019 26.67 18.019 53.34 0 26.671-18.019 26.671-18.019 53.341 0 26.672 18.019 26.672 18.019 53.344 0 .953-.023 1.871-.067 2.758-1.422 28.458-25.377 50.586-53.871 50.586h-238.648c-28.494 0-52.449-22.127-53.871-50.586-.044-.887-.067-1.806-.067-2.758 0-26.672 18.019-26.672 18.019-53.344 0-26.671-18.019-26.671-18.019-53.341s18.019-26.67 18.019-53.34z" fill="#dc6646"/></g><g><path d="m186.002 405.708-10 61.119 10 37.673h140l10-37.673-10-61.119c-19.764-14.03-43.917-22.283-70-22.283s-50.236 8.253-70 22.283z" fill="#be9edf"/></g><g><path d="m281.507 386.139c-8.225-1.765-16.753-2.715-25.505-2.715-26.083 0-50.236 8.253-70 22.283l-10 61.119 10 37.673c0-58.093 40.919-106.622 95.505-118.36z" fill="#938ed9"/></g><g><path d="m226.002 423.625v33.202c0 5.523 4.477 10 10 10h40c5.523 0 10-4.477 10-10v-33.202z" fill="#fbf081"/></g><g><path d="m286.002 387.214c-9.596-2.462-19.644-3.789-30-3.789-10.353 0-20.402 1.317-30 3.777v36.423c7.44 8.113 18.125 13.202 30 13.202s22.56-5.089 30-13.202z" fill="#f7baad"/></g><g><path d="m256.002 436.827c11.875 0 22.56-5.089 30-13.202v-36.411c-1.504-.386-3.023-.733-4.549-1.063-21.036 4.533-40.04 14.527-55.451 28.432v9.042c7.44 8.113 18.125 13.202 30 13.202z" fill="#ffcabd"/></g><g><circle cx="401.129" cy="251.131" fill="#ffcabd" r="36.081"/></g><g><circle cx="110.871" cy="251.131" fill="#f7baad" r="36.081"/></g><g><circle cx="256.002" cy="251.128" fill="#ffdcce" r="145"/></g><g><path d="m161.002 251.128c0-71.555 51.833-130.998 120-142.846-8.122-1.412-16.474-2.154-25-2.154-80.081 0-145 64.919-145 145s64.919 145 145 145c8.526 0 16.878-.743 25-2.154-68.167-11.848-120-71.29-120-142.846z" fill="#ffcabd"/></g><g><path d="m256.001 7.5c-88.367 0-160.002 71.635-160.002 160.001v27.848c0 11.046 8.954 20 20 20h280.003c11.046 0 20-8.954 20-20v-27.848c0-88.366-71.635-160.001-160.001-160.001z" fill="#fbf081"/></g><g><path d="m353.552 149.22c-78.186 0-143.262-56.083-157.222-130.212-58.81 23.654-100.331 81.221-100.331 148.493v27.848c0 11.046 8.954 20 20 20h280.003c11.046 0 20-8.954 20-20v-27.848c0-10.181-.962-20.136-2.78-29.789-18.44 7.417-38.576 11.508-59.67 11.508z" fill="#fad271"/></g><g><path d="m256 7.5c-34.49 0-62.45 27.96-62.45 62.45v145.4h124.9v-145.4c.001-34.49-27.959-62.45-62.45-62.45z" fill="#be9edf"/></g><g><path d="m201.57 39.344c-5.098 9.046-8.02 19.482-8.02 30.606v145.4h124.901v-70.002c-55.079-12.33-99.426-53.053-116.881-106.004z" fill="#938ed9"/></g><g><g><g><ellipse cx="176.445" cy="300.122" fill="#ffa5bb" rx="29.355" ry="23.377"/></g><g><ellipse cx="335.559" cy="300.122" fill="#ffa5bb" rx="29.355" ry="23.377"/></g></g><g><path d="m193.553 285.119c-4.143 0-7.5-3.357-7.5-7.5v-12c0-4.143 3.357-7.5 7.5-7.5s7.5 3.357 7.5 7.5v12c0 4.143-3.358 7.5-7.5 7.5z"/></g><g><path d="m318.45 285.119c-4.143 0-7.5-3.357-7.5-7.5v-12c0-4.143 3.357-7.5 7.5-7.5s7.5 3.357 7.5 7.5v12c0 4.143-3.357 7.5-7.5 7.5z"/></g><g><path d="m256.002 292.262c-8.479 0-16.54-3.671-22.118-10.073-2.722-3.122-2.396-7.86.728-10.581 3.122-2.721 7.86-2.396 10.581.728 2.729 3.131 6.669 4.927 10.81 4.927s8.081-1.796 10.81-4.927c2.721-3.125 7.458-3.448 10.581-.728s3.449 7.459.728 10.581c-5.58 6.402-13.642 10.073-22.12 10.073z"/></g></g><g><path d="m326.002 405.708v98.792h29.096c12.566 0 22.098-11.469 19.642-23.793-6.144-30.835-24.004-57.442-48.738-74.999z" fill="#fbf081"/></g><g><path d="m186.002 405.708v98.792h-29.096c-12.566 0-22.098-11.469-19.642-23.793 6.144-30.835 24.004-57.442 48.738-74.999z" fill="#fad271"/></g><g><path d="m136.002 209.222v.069c0 9.643 6.87 17.929 16.354 19.672 28.358 5.211 63.169 9.147 103.645 9.147 40.477 0 75.288-3.936 103.646-9.147 9.484-1.743 16.354-10.028 16.354-19.672 0-12.518-11.357-21.926-23.669-19.665-26.149 4.802-58.522 8.484-96.332 8.484-37.686 0-70.096-3.715-96.32-8.55-12.313-2.271-23.678 7.14-23.678 19.662z" fill="#84dfff"/></g><g><path d="m235.502 218.109c0-9.827 6.918-18.03 16.147-20.027-35.827-.274-66.763-3.876-91.968-8.523-12.315-2.271-23.68 7.141-23.68 19.663v.069c0 9.643 6.87 17.929 16.354 19.672 27.283 5.013 60.555 8.836 99.082 9.119-9.121-2.077-15.935-10.222-15.935-19.973z" fill="#2fcffc"/></g><path d="m436.763 304.471c0-10.043-2.299-16.966-5.052-22.328 8.018-7.908 13-18.888 13-31.012 0-17.866-10.811-33.248-26.23-39.968 3.159-4.477 5.022-9.93 5.022-15.813v-27.849c-.001-92.36-75.142-167.501-167.503-167.501-92.36 0-167.501 75.141-167.501 167.501v27.849c0 5.883 1.863 11.336 5.022 15.813-15.42 6.72-26.231 22.102-26.231 39.968 0 12.123 4.98 23.102 12.997 31.01-2.737 5.319-5.049 12.216-5.049 22.33 0 15.632 5.47 23.728 10.295 30.869 4.315 6.388 7.725 11.434 7.725 22.473 0 11.04-3.409 16.085-7.725 22.474-4.825 7.143-10.295 15.238-10.295 30.87 0 1.051.025 2.104.077 3.132 1.533 30.688 25.853 55.054 56.326 57.495-.648 2.462-1.233 4.947-1.733 7.458-1.604 8.047.471 16.313 5.691 22.676 5.257 6.408 13.022 10.083 21.307 10.083h198.191c8.284 0 16.05-3.675 21.307-10.083 5.221-6.363 7.295-14.629 5.691-22.676-.5-2.511-1.085-4.997-1.733-7.458 30.47-2.442 54.79-26.808 56.324-57.498.051-1.025.076-2.078.076-3.129 0-15.632-5.47-23.728-10.295-30.87-4.315-6.389-7.725-11.434-7.725-22.474 0-11.039 3.409-16.085 7.725-22.473 4.826-7.142 10.296-15.237 10.296-30.869zm-7.053-53.34c0 14.15-10.338 25.924-23.856 28.183 1.746-9.253 2.648-18.69 2.648-28.186 0-9.479-.879-18.92-2.607-28.173 13.498 2.276 23.815 14.041 23.815 28.176zm-21.208-83.63v27.849c0 6.893-5.607 12.5-12.5 12.5h-12.538c-.752-14.497-12.779-26.061-27.455-26.061-1.676 0-3.368.155-5.03.46-8.218 1.509-16.57 2.809-25.028 3.912v-116.211c0-17.308-6.333-33.156-16.785-45.383 57.952 21.626 99.336 77.535 99.336 142.934zm-152.5 38.108c33.72 0 66.586-2.896 97.686-8.606.771-.142 1.552-.214 2.321-.214 6.889 0 12.493 5.608 12.493 12.502 0 6.037-4.294 11.208-10.21 12.295-32.583 5.987-66.998 9.023-102.29 9.023s-69.707-3.036-102.29-9.023c-5.916-1.087-10.21-6.258-10.21-12.363 0-6.894 5.604-12.502 12.491-12.502.771 0 1.555.072 2.328.215 31.218 5.755 64.082 8.673 97.681 8.673zm-152.503-38.108c0-65.398 41.383-121.307 99.335-142.933-10.452 12.226-16.784 28.074-16.784 45.382v57.396c0 4.143 3.357 7.5 7.5 7.5s7.5-3.357 7.5-7.5v-57.396c0-30.3 24.65-54.95 54.949-54.95h.001c30.3 0 54.95 24.65 54.95 54.95v117.946c-17.931 1.802-36.3 2.714-54.948 2.714-18.612 0-36.983-.922-54.952-2.746v-30.517c0-4.143-3.357-7.5-7.5-7.5s-7.5 3.357-7.5 7.5v28.768c-8.443-1.109-16.787-2.415-25.008-3.931-1.669-.308-3.367-.463-5.049-.463-14.678 0-26.705 11.566-27.454 26.129h-12.54c-6.893 0-12.5-5.607-12.5-12.5zm2.609 55.453c-1.727 9.253-2.606 18.695-2.606 28.174 0 9.627.907 19.045 2.621 28.182-13.507-2.269-23.833-14.038-23.833-28.179 0-14.137 10.318-25.902 23.818-28.177zm-15.811 190.589c-.039-.779-.059-1.582-.059-2.387 0-11.04 3.409-16.085 7.725-22.474 4.825-7.143 10.295-15.238 10.295-30.87s-5.47-23.728-10.295-30.869c-4.315-6.388-7.725-11.434-7.725-22.473 0-5.867.964-10.056 2.555-13.701 5.219 2.39 10.985 3.776 17.057 3.917 12.93 43.306 44.619 78.593 85.602 96.393-26.729 14.338-47.698 37.857-58.919 65.918-24.724-.074-45.022-19.134-46.236-43.454zm125.533-15.295c.888.243 1.778.483 2.672.71v57.869c0 9.649 7.851 17.5 17.5 17.5h40c9.649 0 17.5-7.851 17.5-17.5v-57.907c.877-.223 1.751-.454 2.624-.692 7.929 2.996 15.424 6.857 22.376 11.465v87.307h-125v-87.308c6.938-4.597 14.416-8.45 22.328-11.444zm17.672 40.466c6.883 3.632 14.609 5.612 22.5 5.612 8.002 0 15.662-1.931 22.5-5.553v18.053c0 1.379-1.121 2.5-2.5 2.5h-40c-1.379 0-2.5-1.121-2.5-2.5zm45-18.19c-6.144 5.688-14.048 8.802-22.5 8.802-8.459 0-16.357-3.114-22.5-8.802v-18.559c7.345 1.091 14.856 1.663 22.5 1.663 7.558 0 15.079-.569 22.5-1.681zm-131.306 71.879c-2.36-2.877-3.3-6.606-2.577-10.23 4.675-23.462 16.788-44.605 33.883-60.616v75.443h-21.596c-3.774 0-7.313-1.676-9.71-4.597zm217.612 0c-2.396 2.921-5.936 4.597-9.71 4.597h-21.596v-75.439c17.095 16.014 29.209 37.16 33.883 60.612.722 3.624-.217 7.353-2.577 10.23zm49.23-165.46c-4.825 7.142-10.295 15.237-10.295 30.869s5.47 23.728 10.295 30.87c4.315 6.389 7.725 11.434 7.725 22.474 0 .805-.02 1.607-.058 2.384-1.216 24.322-21.513 43.382-46.236 43.457-11.222-28.056-32.195-51.583-58.924-65.922 12.722-5.495 24.713-12.719 35.563-21.536 3.215-2.612 3.703-7.335 1.091-10.55-2.612-3.214-7.337-3.704-10.55-1.091-24.387 19.816-55.159 30.729-86.647 30.729-75.817 0-137.5-61.683-137.5-137.5 0-9.535.988-19.022 2.921-28.278h10.655c3.9 6.885 10.696 11.978 18.923 13.49 33.475 6.15 68.803 9.27 105.001 9.27s71.526-3.119 105.001-9.271c8.227-1.512 15.023-6.604 18.923-13.489h10.656c1.933 9.255 2.92 18.743 2.92 28.278 0 31.488-10.913 62.26-30.729 86.647-2.612 3.215-2.124 7.938 1.091 10.55 1.391 1.13 3.063 1.68 4.725 1.68 2.181 0 4.343-.946 5.825-2.771 12.652-15.57 22.024-33.487 27.708-52.548 6.082-.137 11.857-1.523 17.084-3.916 1.595 3.666 2.558 7.871 2.558 13.7-.001 11.041-3.41 16.087-7.726 22.474z"/></g></svg>